<svg xmlns="http://www.w3.org/2000/svg" xmlns:xlink="http://www.w3.org/1999/xlink" width="419.119" height="502.194" viewBox="0 0 419.119 502.194">
  <defs>
    <linearGradient id="linear-gradient" x1="0.5" y1="0.133" x2="0.89" y2="0.5" gradientUnits="objectBoundingBox">
      <stop offset="0" stop-color="#c4d143"/>
      <stop offset="1" stop-color="#7c8a1a"/>
    </linearGradient>
    <linearGradient id="linear-gradient-2" x1="1.148" y1="0.346" x2="0.5" y2="0.135" gradientUnits="objectBoundingBox">
      <stop offset="0" stop-color="#7c8a1a" stop-opacity="0"/>
      <stop offset="0.315" stop-color="#768319" stop-opacity="0.314"/>
      <stop offset="0.781" stop-color="#646f15" stop-opacity="0.78"/>
      <stop offset="1" stop-color="#5a6313"/>
    </linearGradient>
    <linearGradient id="linear-gradient-3" x1="0.423" y1="0.116" x2="0.658" y2="0.705" xlink:href="#linear-gradient"/>
    <linearGradient id="linear-gradient-4" x1="1" y1="1" x2="0.395" y2="0.356" xlink:href="#linear-gradient-2"/>
    <linearGradient id="linear-gradient-5" x1="0.246" y1="0.5" x2="0.5" y2="0.748" xlink:href="#linear-gradient"/>
    <linearGradient id="linear-gradient-6" x1="0.886" y1="0.362" x2="0.613" y2="0.084" xlink:href="#linear-gradient-2"/>
    <linearGradient id="linear-gradient-7" x1="0.586" y1="0.529" x2="0.427" y2="0.699" gradientUnits="objectBoundingBox">
      <stop offset="0" stop-color="#5a6313" stop-opacity="0"/>
      <stop offset="1" stop-color="#544f43"/>
    </linearGradient>
    <linearGradient id="linear-gradient-8" x1="0.337" y1="0.293" x2="0.642" y2="0.731" gradientUnits="objectBoundingBox">
      <stop offset="0" stop-color="#dd3b32"/>
      <stop offset="0.279" stop-color="#ff4f46"/>
      <stop offset="0.775" stop-color="#ff5b52"/>
      <stop offset="1" stop-color="#dd3b32"/>
    </linearGradient>
    <linearGradient id="linear-gradient-9" x1="-0.051" x2="1" y2="1" gradientUnits="objectBoundingBox">
      <stop offset="0" stop-color="#d30e03" stop-opacity="0"/>
      <stop offset="0.513" stop-color="#d5362e"/>
      <stop offset="1" stop-color="#c9251c"/>
    </linearGradient>
    <clipPath id="clip-path">
      <rect id="Rectangle_61" data-name="Rectangle 61" width="13.652" height="13.627" fill="none"/>
    </clipPath>
    <clipPath id="clip-path-2">
      <rect id="Rectangle_62" data-name="Rectangle 62" width="14.077" height="14.193" fill="none"/>
    </clipPath>
  </defs>
  <g id="Group_245" data-name="Group 245" transform="translate(-20.881 -1891.282)">
    <g id="Group_159" data-name="Group 159" transform="translate(28.274 1932.61)">
      <g id="Group_3" data-name="Group 3" transform="translate(92.802 18.709) rotate(-45)">
        <g id="Group_1" data-name="Group 1" transform="translate(0 0)">
          <path id="Path_1" data-name="Path 1" d="M24.367,41.36C11.892,68.752-2.74,120.169.441,145.641a2.885,2.885,0,0,0,4.71,2.132C26.48,133.4,55.75,88.6,68.225,61.212s6.148-32.978,2.967-58.451A2.885,2.885,0,0,0,66.482.629C45.153,15.008,36.842,13.967,24.367,41.36Z" fill="url(#linear-gradient)"/>
          <path id="Path_2" data-name="Path 2" d="M3.02,147.538C24.35,133.16,53.62,88.369,66.094,60.977S72.242,28,69.061,2.526A3.06,3.06,0,0,0,67.371,0L0,147.931a3.075,3.075,0,0,0,3.02-.393Z" transform="translate(2.131 0.235)" fill="url(#linear-gradient-2)"/>
        </g>
        <g id="Group_2" data-name="Group 2" transform="translate(6.22 79.045)">
          <path id="Path_3" data-name="Path 3" d="M87.1,7.471C59.709,19.959,14.933,49.165.622,70.475a2.885,2.885,0,0,0,2.156,4.7c25.53,3.143,77.007-11.458,104.393-23.946s26.276-20.855,40.588-42.166a2.885,2.885,0,0,0-2.156-4.7C120.071,1.222,114.482-5.017,87.1,7.471Z" fill="url(#linear-gradient-3)"/>
          <path id="Path_4" data-name="Path 4" d="M2.537,69.126C28.067,72.269,79.544,57.668,106.93,45.18s26.276-20.855,40.587-42.166A3.059,3.059,0,0,0,147.9,0L0,67.442A3.078,3.078,0,0,0,2.537,69.126Z" transform="translate(0.24 6.048)" fill="url(#linear-gradient-4)"/>
        </g>
      </g>
      <g id="Group_4" data-name="Group 4" transform="translate(119.755 40.968) rotate(-45)">
        <path id="Path_5" data-name="Path 5" d="M58.923,23.583C37.673,44.9,6.017,87.978.108,112.958a2.885,2.885,0,0,0,3.67,3.641C28.784,110.57,71.846,78.81,93.1,57.494s17.271-28.759,23.18-53.74a2.885,2.885,0,0,0-3.67-3.641C87.6,6.143,80.174,2.267,58.923,23.583Z" fill="url(#linear-gradient-5)"/>
        <path id="Path_6" data-name="Path 6" d="M2.968,115.8C27.973,109.772,71.035,78.012,92.286,56.7s17.271-28.759,23.18-53.74a3.062,3.062,0,0,0-.7-2.956L0,115.117A3.078,3.078,0,0,0,2.968,115.8Z" transform="translate(0.81 0.798)" fill="url(#linear-gradient-6)"/>
      </g>
      <path id="Path_7" data-name="Path 7" d="M11.012,0C3.68,24.476-1.6,51.438.441,67.756a2.862,2.862,0,0,0,2.907,2.753,2.762,2.762,0,0,0,2.875,3.114A2.893,2.893,0,0,0,9,76.333c16.34,2.012,43.3-3.248,67.781-10.568Z" transform="translate(147.876 73.781) rotate(-45)" fill="url(#linear-gradient-7)"/>
      <path id="Path_15" data-name="Path 15" d="M250.2,169.419C179.528,240.089,41.957,322.477,7.921,288.441S56.272,116.834,126.943,46.164s102.863-47.679,136.9-13.643,57.028,66.227-13.643,136.9Z" transform="translate(-7.393 251.307) rotate(-45)" fill="url(#linear-gradient-8)"/>
      <path id="Path_9" data-name="Path 9" d="M2.839.5A89.857,89.857,0,0,1,15.266,6.188c2.466,1.34,5.045,2.91,7.7,4.659,2.63,1.786,5.373,3.722,8.028,5.912a104.555,104.555,0,0,1,7.917,7.063c2.56,2.544,5.03,5.249,7.355,8.076q1.737,2.125,3.343,4.346c1.119,1.44,2.088,2.985,3.078,4.492,1.023,1.484,1.893,3.06,2.774,4.6.906,1.519,1.668,3.111,2.441,4.655a81.851,81.851,0,0,1,3.814,9.262c.548,1.5.952,3.026,1.371,4.48s.759,2.888,1.037,4.288a74.9,74.9,0,0,1,1.216,7.709c.2,2.348.282,4.421.324,6.126-.023,1.73-1.652,2.414-2.234.973l-2.36-5.064c-.992-1.909-1.986-4.112-3.277-6.4-.612-1.162-1.228-2.382-1.969-3.586C55.1,66.561,54.463,65.249,53.634,64,52.1,61.419,50.4,58.761,48.6,56.044c-.962-1.321-1.8-2.75-2.816-4.093s-1.945-2.76-2.989-4.121c-1.017-1.379-2.071-2.746-3.137-4.114-1.042-1.386-2.142-2.738-3.261-4.074-2.158-2.735-4.483-5.341-6.716-7.953l-3.416-3.8L22.871,24.22c-4.48-4.789-8.786-9.168-12.529-12.892L1.4,2.5C-.913.219-.307-.636,2.839.5Z" transform="translate(185.553 198.524) rotate(-45)" fill="url(#linear-gradient-9)"/>
      <path id="Path_10" data-name="Path 10" d="M2.561.08A86.918,86.918,0,0,1,15.109,2.565c2.544.682,5.246,1.543,8.067,2.548,2.8,1.043,5.746,2.2,8.678,3.593,2.962,1.357,5.929,2.928,8.874,4.639,2.936,1.731,5.834,3.624,8.635,5.656q2.1,1.53,4.1,3.172c1.369,1.048,2.63,2.221,3.9,3.356,1.295,1.107,2.478,2.329,3.66,3.514,1.2,1.163,2.291,2.422,3.379,3.634a81.206,81.206,0,0,1,5.8,7.45c.876,1.218,1.633,2.5,2.384,3.7s1.427,2.414,2.038,3.6a72.263,72.263,0,0,1,3.089,6.616c.79,2.052,1.4,3.882,1.885,5.393.431,1.548-.839,2.5-1.732,1.337l-3.417-4.021c-1.379-1.494-2.836-3.25-4.58-5.02-.846-.908-1.711-1.866-2.684-2.784s-1.87-1.966-2.933-2.909c-2.03-1.977-4.236-3.989-6.546-6.033-1.2-.976-2.319-2.073-3.568-3.058S51.69,34.9,50.409,33.908c-1.263-1.015-2.555-2.014-3.86-3.01-1.287-1.017-2.616-1.991-3.959-2.949-2.63-1.987-5.376-3.823-8.041-5.683L30.52,19.592l-3.97-2.559c-5.23-3.332-10.2-6.335-14.5-8.873l-10.257-6C-.86.607-.539-.28,2.561.08Z" transform="translate(118.801 247.532) rotate(-45)" fill="url(#linear-gradient-9)"/>
      <path id="Path_11" data-name="Path 11" d="M2.561.08A86.916,86.916,0,0,1,15.109,2.565c2.544.682,5.246,1.543,8.067,2.548,2.8,1.043,5.747,2.2,8.678,3.593,2.962,1.357,5.929,2.928,8.874,4.639,2.937,1.731,5.834,3.624,8.635,5.656q2.1,1.53,4.1,3.172c1.369,1.048,2.631,2.221,3.9,3.356,1.295,1.106,2.478,2.329,3.66,3.513,1.2,1.163,2.291,2.422,3.379,3.634a81.217,81.217,0,0,1,5.8,7.45c.876,1.218,1.633,2.5,2.384,3.7s1.427,2.414,2.037,3.6a72.257,72.257,0,0,1,3.089,6.616c.79,2.052,1.4,3.882,1.885,5.393.431,1.548-.839,2.5-1.732,1.337l-3.417-4.021c-1.379-1.494-2.837-3.25-4.58-5.02-.847-.908-1.711-1.866-2.684-2.784s-1.87-1.966-2.932-2.909c-2.03-1.977-4.236-3.989-6.546-6.033-1.2-.976-2.319-2.073-3.568-3.058S51.69,34.9,50.408,33.907c-1.263-1.015-2.556-2.014-3.86-3.01-1.287-1.017-2.617-1.991-3.96-2.949-2.63-1.987-5.376-3.823-8.041-5.684L30.52,19.59l-3.97-2.559c-5.23-3.332-10.2-6.335-14.5-8.873l-10.257-6C-.86.607-.54-.28,2.561.08Z" transform="translate(119.244 148.173) rotate(-45)" fill="url(#linear-gradient-9)"/>
      <path id="Path_12" data-name="Path 12" d="M2.4.5a84.724,84.724,0,0,1,10.8,5.29c2.154,1.232,4.415,2.663,6.754,4.252,2.317,1.618,4.736,3.369,7.1,5.336,2.4,1.938,4.756,4.069,7.068,6.32,2.3,2.267,4.535,4.669,6.656,7.173q1.585,1.882,3.066,3.842c1.025,1.273,1.931,2.631,2.852,3.959.947,1.308,1.773,2.692,2.6,4.041.852,1.335,1.587,2.73,2.329,4.083a80.527,80.527,0,0,1,3.763,8.1c.551,1.307.983,2.637,1.424,3.905s.814,2.515,1.132,3.732c.7,2.395,1.111,4.689,1.494,6.7.313,2.036.509,3.831.65,5.308.088,1.5-1.236,2.047-1.813.785l-2.291-4.444c-.949-1.678-1.919-3.609-3.142-5.624-.584-1.022-1.176-2.092-1.871-3.153s-1.3-2.221-2.071-3.326c-1.44-2.27-3.031-4.612-4.71-7.008-.887-1.168-1.681-2.425-2.612-3.613s-1.8-2.438-2.759-3.642c-.938-1.219-1.9-2.429-2.884-3.641-.959-1.226-1.964-2.424-2.985-3.61-1.977-2.422-4.087-4.739-6.121-7.057l-3.1-3.381-3.07-3.263c-4.053-4.264-7.937-8.169-11.308-11.494L1.3,2.177C-.783.138-.321-.58,2.4.5Z" transform="translate(185.553 281.513) rotate(-45)" fill="url(#linear-gradient-9)"/>
      <path id="Path_13" data-name="Path 13" d="M2.219.138A82.571,82.571,0,0,1,13.232,2.878c2.237.706,4.619,1.571,7.106,2.564,2.474,1.024,5.073,2.147,7.669,3.477,2.621,1.3,5.254,2.774,7.873,4.369,2.612,1.611,5.2,3.358,7.7,5.216q1.874,1.4,3.673,2.888c1.226.955,2.364,2.01,3.509,3.035,1.164,1,2.235,2.094,3.3,3.156,1.084,1.045,2.077,2.165,3.066,3.245a79.944,79.944,0,0,1,5.308,6.6c.806,1.076,1.511,2.2,2.208,3.258s1.33,2.118,1.9,3.157c1.2,2.032,2.113,4.028,2.934,5.769.765,1.782,1.367,3.368,1.844,4.676.434,1.337-.63,2.088-1.45,1.055l-3.12-3.583c-1.254-1.337-2.586-2.9-4.167-4.487-.769-.813-1.557-1.668-2.435-2.5s-1.7-1.76-2.656-2.612c-1.837-1.778-3.826-3.592-5.909-5.44-1.077-.887-2.091-1.873-3.212-2.769s-2.2-1.861-3.351-2.767c-1.135-.924-2.293-1.834-3.463-2.743-1.155-.925-2.346-1.818-3.547-2.7-2.357-1.815-4.81-3.507-7.194-5.216l-3.6-2.468L23.69,15.7c-4.668-3.085-9.1-5.878-12.931-8.244l-9.141-5.6C-.747.41-.5-.325,2.219.138Z" transform="translate(133.534 332.931) rotate(-45)" fill="url(#linear-gradient-9)"/>
      <path id="Path_14" data-name="Path 14" d="M2.083.333a80.845,80.845,0,0,1,9.985,3.976c2.015.944,4.148,2.055,6.37,3.3,2.207,1.269,4.518,2.646,6.811,4.211,2.318,1.539,4.631,3.246,6.92,5.06s4.525,3.775,6.686,5.816q1.616,1.535,3.155,3.143C43.063,26.877,44.026,28,45,29.093c.993,1.075,1.89,2.224,2.79,3.342s1.738,2.267,2.562,3.394a79.371,79.371,0,0,1,4.352,6.78c.655,1.1,1.212,2.224,1.767,3.294s1.051,2.128,1.494,3.162c.934,2.031,1.613,3.993,2.224,5.708.556,1.745.979,3.288,1.309,4.559.288,1.292-.762,1.847-1.434.787L57.479,56.4c-1.048-1.4-2.148-3.014-3.478-4.686-.643-.85-1.3-1.743-2.043-2.621s-1.422-1.846-2.237-2.757c-1.55-1.88-3.238-3.815-5.009-5.792-.922-.959-1.777-2-2.739-2.975s-1.88-2-2.868-2.991c-.972-1-1.968-1.992-2.975-2.983s-2.018-1.984-3.056-2.951c-2.029-1.982-4.158-3.864-6.221-5.753L23.73,20.148,20.648,17.5c-4.063-3.457-7.931-6.614-11.281-9.3l-8-6.365C-.7.192-.4-.452,2.083.333Z" transform="translate(173.838 369.633) rotate(-45)" fill="url(#linear-gradient-9)"/>
    </g>
    <g id="Group_238" data-name="Group 238" transform="translate(-2207.109 -1051.918)">
      <path id="Path_405" data-name="Path 405" d="M470.965,357.174c0-21.5-12.843-39.823-27.441-34.93-8.3,2.785-14.646,10.174-19.208,17.331a64.5,64.5,0,0,0-6.035,11.985c-7.1,18.889,2.46,44.546,25.081,44.546,15.244,0,27.6-17.43,27.6-38.932m-17.388-28.752c4.366,0,7.9,4.6,7.9,10.275a13.106,13.106,0,0,1-.305,2.822h0l-.9-.693a4.371,4.371,0,0,0-2.233-.606h-.281a4.553,4.553,0,0,0-4.432,4.43c.055.392.106.783.159,1.176a4.423,4.423,0,0,0,1.139,1.954c.3.233.6.463.9.693.069.04.143.071.215.107a6.211,6.211,0,0,1-2.161.391c-4.366,0-7.905-4.6-7.905-10.274s3.54-10.275,7.905-10.275" transform="translate(1960.667 2819.236)" fill="#fff"/>
      <path id="Path_406" data-name="Path 406" d="M461.317,381.635c4.052,6.619,11.437,13.659,19.375,11.279a12.965,12.965,0,0,0,2.957-1.329c5.709-3.454,10.792-8.149,17.134-10.211,2.135-.691,4.429-1.1,6.255-2.4,4.252-3.044,2.591-15.043,2.071-19.505a49.422,49.422,0,0,0-7.3-20.463c-4.614-7.4-11.1-15.1-19.64-17.96a14.589,14.589,0,0,0-8.011-.434c-4.521,4.018-8.673,7.767-10.734,8.456a6.3,6.3,0,0,1-1.023.242c-4.777,6.674-7.795,16.373-7.795,26.82a49.062,49.062,0,0,0,6.713,25.508m13.169-52.571c4.366,0,7.905,4.6,7.905,10.275a13.453,13.453,0,0,1-.13,1.844,4.2,4.2,0,0,0-2.683-.88c-4.964,0-5.611,6.714-1.925,8.451a6.375,6.375,0,0,1-3.167.858c-4.366,0-7.905-4.6-7.905-10.274s3.54-10.275,7.905-10.275" transform="translate(1981.253 2818.594)" fill="#fff"/>
      <path id="Path_407" data-name="Path 407" d="M442.928,379c-16.1,0-25.263-13.622-26.074-28.027-.892,15.828,8.424,32.2,26.074,32.2,14.552,0,26.345-16.637,26.345-37.157,0-.7-.012-1.384-.041-2.073-.774,19.543-12.253,35.057-26.3,35.057" transform="translate(1961.103 2831.229)" fill="#d1d1d1"/>
      <path id="Path_408" data-name="Path 408" d="M505.317,362.492c-1.735,1.24-3.917,1.626-5.942,2.284-6.028,1.956-10.856,6.418-16.278,9.7a12.112,12.112,0,0,1-2.81,1.263c-7.536,2.263-14.557-4.427-18.406-10.714a45.9,45.9,0,0,1-6.333-22.153c-.026.685-.041,1.378-.041,2.073a46.6,46.6,0,0,0,6.374,24.234c3.849,6.285,10.87,12.978,18.406,10.715a12.3,12.3,0,0,0,2.81-1.263c5.422-3.28,10.251-7.743,16.278-9.7,2.025-.658,4.206-1.041,5.942-2.284,2.5-1.789,2.848-6.848,2.632-11.447-.185,3.179-.878,6.038-2.632,7.294" transform="translate(1981.734 2830.654)" fill="#d1d1d1"/>
      <path id="Path_409" data-name="Path 409" d="M443.7,399.891c16.185,0,29.3-18.506,29.3-41.333s-13.634-42.277-29.132-37.083c-8.526,2.861-15.095,10.323-19.892,17.623-6.886,10.491-11.152,22.959-8.67,35.531,1.847,9.369,7.038,18.147,15.829,22.452a28.606,28.606,0,0,0,12.561,2.811M419.014,352a64.363,64.363,0,0,1,6.037-11.985c4.561-7.157,10.908-14.548,19.208-17.331,14.6-4.893,27.441,13.429,27.441,34.93s-12.36,38.932-27.605,38.932c-22.619,0-32.177-25.657-25.08-44.546" transform="translate(1959.932 2818.8)" fill="#222"/>
      <path id="Path_410" data-name="Path 410" d="M482.578,321.374c8.538,2.864,15.026,10.564,19.642,17.96a49.441,49.441,0,0,1,7.3,20.463c.52,4.462,2.181,16.461-2.069,19.505-1.827,1.308-4.121,1.712-6.256,2.4-6.342,2.062-11.425,6.757-17.134,10.211a12.966,12.966,0,0,1-2.957,1.329c-7.938,2.379-15.323-4.66-19.375-11.279a49.063,49.063,0,0,1-6.713-25.508c0-10.447,3.018-20.146,7.8-26.82a6.82,6.82,0,0,1-1.1.077c-4.841,7.035-7.881,17.057-7.881,27.837a52.085,52.085,0,0,0,6.823,26.514c3.517,5.913,11.221,14.779,19.084,13.363-1.79,1.631-3.518,3.351-5.338,4.83-.181.146.035.388.222.273,8.563-5.269,15.239-13.226,24.61-17.624a38.48,38.48,0,0,1,6.167-2.05,22.357,22.357,0,0,1,9.28-.546c1.4.264,5.3,1.419,5.914,2.839a11.732,11.732,0,0,0-3.862-4.784,11.58,11.58,0,0,0-4.467-2,96.083,96.083,0,0,0,.187-10.354c-.3-5.917-.771-11.514-2.949-17.1a68.888,68.888,0,0,0-6.5-12.592c-4.81-7.389-11.43-14.965-20.039-17.851a15.57,15.57,0,0,0-7.056-.716l-1.341,1.188a14.575,14.575,0,0,1,8.011.434" transform="translate(1980.841 2818.263)" fill="#222"/>
      <path id="Path_411" data-name="Path 411" d="M525.434,375.812c2.88-5.765-1.9-7.83-6.918-7.4a30.852,30.852,0,0,0-4.321.665,16.159,16.159,0,0,0-9.092,5.154c-.149.182.138.461.307.29a9.233,9.233,0,0,1,3.743-2.227l-.011.028a11.637,11.637,0,0,0-.371,1.171c-3.3,11.739-10.222,22.433-21.018,28.4a53.531,53.531,0,0,1-19.471,6.126c-5.894.72-11.827,1.018-17.738,1.561-5.332.491-10.774.365-15.972,1.852-1.642.469-3.569,1.2-4.6,2.609-1.427,1.958-1.743,5.088-1.41,7.407a15.6,15.6,0,0,1,7.216-7.081,31.388,31.388,0,0,1,11.839-2.978c7.714-.483,15.539-.438,23.21-1.41a54.416,54.416,0,0,0,26.433-10.862c8.529-6.624,12.343-15.825,18.926-24,3.414-4.246,6.549-3.765,9.245.7" transform="translate(1967.311 2844.239)" fill="#222"/>
      <path id="Path_412" data-name="Path 412" d="M508.026,368.319a21.978,21.978,0,0,1-2.453,14.151c-2.939,5.306-7.614,6.409-13.219,5.017a1.011,1.011,0,0,0-1.156.227c-3.48,2.859-5.63,6.483-7.708,10.418-.1.182.189.314.307.166a30.27,30.27,0,0,1,6.066-5.477c2.926-2.171,5.005-2.243,8.548-2.608a10.822,10.822,0,0,0,8.534-5.246c3.13-5.122,2.693-11.08,1.285-16.678-.032-.126-.227-.1-.2.031" transform="translate(1996.637 2844.157)" fill="#222"/>
      <path id="Path_413" data-name="Path 413" d="M431.168,412.541c-5.237-1.217-6.645-6.57-6.1-11.313.017-.132-.175-.144-.2-.02-.74,3.3-2.06,6.705-.189,9.855a5.13,5.13,0,0,0,6.605,2.2.383.383,0,0,0-.112-.725" transform="translate(1964.791 2861.699)" fill="#222"/>
      <path id="Path_414" data-name="Path 414" d="M470.322,346.546a6.375,6.375,0,0,0,3.167-.858c-3.685-1.737-3.038-8.451,1.925-8.451a4.208,4.208,0,0,1,2.683.878,13.437,13.437,0,0,0,.13-1.844c0-5.675-3.54-10.274-7.905-10.274s-7.905,4.6-7.905,10.274,3.54,10.275,7.905,10.275" transform="translate(1985.417 2821.662)" fill="#222"/>
      <path id="Path_415" data-name="Path 415" d="M443.253,346.546a6.246,6.246,0,0,0,2.161-.391c-.072-.038-.146-.068-.215-.107q-.448-.345-.9-.693a4.44,4.44,0,0,1-1.139-1.955c-.054-.392-.1-.785-.159-1.176a4.555,4.555,0,0,1,4.432-4.432h.28a4.388,4.388,0,0,1,2.233.607l.9.69,0,0a13.12,13.12,0,0,0,.305-2.824c0-5.675-3.537-10.274-7.9-10.274s-7.905,4.6-7.905,10.274,3.54,10.275,7.905,10.275" transform="translate(1970.99 2821.662)" fill="#222"/>
      <path id="Path_416" data-name="Path 416" d="M471.445,320.481c-4.465,1.033-8.517,4.168-11.756,8.7a6.675,6.675,0,0,0,1.022-.242c2.06-.688,6.213-4.438,10.734-8.456" transform="translate(1983.963 2818.722)" fill="#222"/>
      <path id="Path_417" data-name="Path 417" d="M500.545,325.372s-9.074-18.97-13.439-18.97c-9.88,0-33.2,26.876-33.2,26.876s3.727,3.435,7.76,3.48c3.815-5.545,8.752-9.23,14.2-9.961,5.506-4.864,11.3-9.723,14.4-9.723,5.928,0,10.275,8.3,10.275,8.3" transform="translate(1980.883 2811.219)" fill="#222"/>
      <path id="Path_418" data-name="Path 418" d="M458.972,329.668a6.681,6.681,0,0,0,1.1-.077c3.239-4.528,7.291-7.665,11.756-8.7.443-.391.892-.789,1.341-1.186-5.447.731-10.383,4.416-14.2,9.961" transform="translate(1983.581 2818.31)" fill="#222"/>
      <path id="Path_419" data-name="Path 419" d="M460.467,303.586s-17.785-5.137-24.9,0-10.277,22.133-10.277,22.133,10.674-13.832,19.366-14.227,11.463,0,13.042-1.186,2.767-6.719,2.767-6.719" transform="translate(1965.631 2808.501)" fill="#222"/>
      <path id="Path_420" data-name="Path 420" d="M467.553,401.013c-4.659-.087-9.693.12-13.358,3,4.976-.671,10.027,1.669,15.116,1.309,4.643-.323,8.707-2.013,11.568-5.425a15.7,15.7,0,0,0,1.915-2.908c-4.458,3.86-9.632,4.131-15.241,4.026" transform="translate(1981.035 2859.496)" fill="#222"/>
      <path id="Path_421" data-name="Path 421" d="M486.162,367.433c-.152.046-.077.291.077.267,3.779-.639,7.57-.523,10.751,1.869a.226.226,0,0,0,.336-.271c-1.9-4.654-7.49-2.956-11.163-1.864" transform="translate(1998.027 2843.093)" fill="#222"/>
      <path id="Path_422" data-name="Path 422" d="M468.442,309.02a38.086,38.086,0,0,1,7.872-5.633c3.555-1.806,5.989.333,8.647,2.516a.309.309,0,0,0,.46-.371c-1.381-2.854-4.465-6.469-8.031-4.867-3.642,1.634-6.556,5.263-9.138,8.18-.094.109.081.273.19.176" transform="translate(1988.512 2807.951)" fill="#222"/>
      <path id="Path_423" data-name="Path 423" d="M436.967,318.07a36.66,36.66,0,0,0-9.169,7.116c-.071.074.06.2.133.126a23.973,23.973,0,0,1,8.376-5.558c3.236-1.17,7.511-2.654,10.907-1.531.472.156.9-.53.432-.809-3.463-2.068-7.294-1.245-10.68.658" transform="translate(1966.956 2816.441)" fill="#222"/>
      <g id="Group_213" data-name="Group 213" transform="translate(2454.162 3156.111)" opacity="0.43">
        <g id="Group_212" data-name="Group 212">
          <g id="Group_211" data-name="Group 211" clip-path="url(#clip-path)">
            <path id="Path_424" data-name="Path 424" d="M474.087,331.511c-3.576,0-7.281,2.14-7.53,6.1-.21,3.383,2.27,7.528,6.1,7.528,3.578,0,7.285-2.138,7.53-6.1.21-3.386-2.27-7.531-6.1-7.531" transform="translate(-466.545 -331.511)" fill="#fff"/>
          </g>
        </g>
      </g>
      <g id="Group_216" data-name="Group 216" transform="translate(2411.725 3156.649)" opacity="0.43">
        <g id="Group_215" data-name="Group 215">
          <g id="Group_214" data-name="Group 214" clip-path="url(#clip-path-2)">
            <path id="Path_425" data-name="Path 425" d="M452.9,337.887a7.046,7.046,0,0,0-1.5-3.385c-.458-.435-.92-.868-1.381-1.3a7.068,7.068,0,0,0-3.38-1.279,7.888,7.888,0,0,0-5.194,1.536,5.371,5.371,0,0,0-1.735,2.192,5.294,5.294,0,0,0-.848,2.571c.012.6.026,1.206.038,1.807a7.042,7.042,0,0,0,1.5,3.385l1.38,1.3A7.1,7.1,0,0,0,445.16,346a6.839,6.839,0,0,0,6.93-3.731,5.278,5.278,0,0,0,.848-2.569c-.012-.6-.026-1.208-.04-1.81" transform="translate(-438.862 -331.861)" fill="#fff"/>
          </g>
        </g>
      </g>
    </g>
  </g>
</svg>
