<svg xmlns="http://www.w3.org/2000/svg" xmlns:xlink="http://www.w3.org/1999/xlink" width="419.119" height="502.194" viewBox="0 0 419.119 502.194">
  <defs>
    <linearGradient id="linear-gradient" x1="0.5" y1="0.133" x2="0.89" y2="0.5" gradientUnits="objectBoundingBox">
      <stop offset="0" stop-color="#c4d143"/>
      <stop offset="1" stop-color="#7c8a1a"/>
    </linearGradient>
    <linearGradient id="linear-gradient-2" x1="1.148" y1="0.346" x2="0.5" y2="0.135" gradientUnits="objectBoundingBox">
      <stop offset="0" stop-color="#7c8a1a" stop-opacity="0"/>
      <stop offset="0.315" stop-color="#768319" stop-opacity="0.314"/>
      <stop offset="0.781" stop-color="#646f15" stop-opacity="0.78"/>
      <stop offset="1" stop-color="#5a6313"/>
    </linearGradient>
    <linearGradient id="linear-gradient-3" x1="0.423" y1="0.116" x2="0.658" y2="0.705" xlink:href="#linear-gradient"/>
    <linearGradient id="linear-gradient-4" x1="1" y1="1" x2="0.395" y2="0.356" xlink:href="#linear-gradient-2"/>
    <linearGradient id="linear-gradient-5" x1="0.246" y1="0.5" x2="0.5" y2="0.748" xlink:href="#linear-gradient"/>
    <linearGradient id="linear-gradient-6" x1="0.886" y1="0.362" x2="0.613" y2="0.084" xlink:href="#linear-gradient-2"/>
    <linearGradient id="linear-gradient-7" x1="0.586" y1="0.529" x2="0.427" y2="0.699" gradientUnits="objectBoundingBox">
      <stop offset="0" stop-color="#5a6313" stop-opacity="0"/>
      <stop offset="1" stop-color="#544f43"/>
    </linearGradient>
    <linearGradient id="linear-gradient-8" x1="0.337" y1="0.293" x2="0.642" y2="0.731" gradientUnits="objectBoundingBox">
      <stop offset="0" stop-color="#dd3b32"/>
      <stop offset="0.279" stop-color="#ff4f46"/>
      <stop offset="0.775" stop-color="#ff5b52"/>
      <stop offset="1" stop-color="#dd3b32"/>
    </linearGradient>
    <linearGradient id="linear-gradient-9" x1="-0.051" x2="1" y2="1" gradientUnits="objectBoundingBox">
      <stop offset="0" stop-color="#d30e03" stop-opacity="0"/>
      <stop offset="0.513" stop-color="#d5362e"/>
      <stop offset="1" stop-color="#c9251c"/>
    </linearGradient>
    <clipPath id="clip-path">
      <rect id="Rectangle_42" data-name="Rectangle 42" width="113.76" height="163.182" fill="none"/>
    </clipPath>
    <clipPath id="clip-path-3">
      <rect id="Rectangle_39" data-name="Rectangle 39" width="13.433" height="13.359" fill="none"/>
    </clipPath>
    <clipPath id="clip-path-4">
      <rect id="Rectangle_40" data-name="Rectangle 40" width="13.457" height="13.434" fill="none"/>
    </clipPath>
  </defs>
  <g id="Group_160" data-name="Group 160" transform="translate(-3477.881 -1891.282)">
    <g id="Group_66" data-name="Group 66" transform="translate(3485.274 1932.61)">
      <g id="Group_3" data-name="Group 3" transform="translate(92.802 18.709) rotate(-45)">
        <g id="Group_1" data-name="Group 1" transform="translate(0 0)">
          <path id="Path_1" data-name="Path 1" d="M24.367,41.36C11.892,68.752-2.74,120.169.441,145.641a2.885,2.885,0,0,0,4.71,2.132C26.48,133.4,55.75,88.6,68.225,61.212s6.148-32.978,2.967-58.451A2.885,2.885,0,0,0,66.482.629C45.153,15.008,36.842,13.967,24.367,41.36Z" fill="url(#linear-gradient)"/>
          <path id="Path_2" data-name="Path 2" d="M3.02,147.538C24.35,133.16,53.62,88.369,66.094,60.977S72.242,28,69.061,2.526A3.06,3.06,0,0,0,67.371,0L0,147.931a3.075,3.075,0,0,0,3.02-.393Z" transform="translate(2.131 0.235)" fill="url(#linear-gradient-2)"/>
        </g>
        <g id="Group_2" data-name="Group 2" transform="translate(6.22 79.045)">
          <path id="Path_3" data-name="Path 3" d="M87.1,7.471C59.709,19.959,14.933,49.165.622,70.475a2.885,2.885,0,0,0,2.156,4.7c25.53,3.143,77.007-11.458,104.393-23.946s26.276-20.855,40.588-42.166a2.885,2.885,0,0,0-2.156-4.7C120.071,1.222,114.482-5.017,87.1,7.471Z" fill="url(#linear-gradient-3)"/>
          <path id="Path_4" data-name="Path 4" d="M2.537,69.126C28.067,72.269,79.544,57.668,106.93,45.18s26.276-20.855,40.587-42.166A3.059,3.059,0,0,0,147.9,0L0,67.442A3.078,3.078,0,0,0,2.537,69.126Z" transform="translate(0.24 6.048)" fill="url(#linear-gradient-4)"/>
        </g>
      </g>
      <g id="Group_4" data-name="Group 4" transform="translate(119.755 40.968) rotate(-45)">
        <path id="Path_5" data-name="Path 5" d="M58.923,23.583C37.673,44.9,6.017,87.978.108,112.958a2.885,2.885,0,0,0,3.67,3.641C28.784,110.57,71.846,78.81,93.1,57.494s17.271-28.759,23.18-53.74a2.885,2.885,0,0,0-3.67-3.641C87.6,6.143,80.174,2.267,58.923,23.583Z" fill="url(#linear-gradient-5)"/>
        <path id="Path_6" data-name="Path 6" d="M2.968,115.8C27.973,109.772,71.035,78.012,92.286,56.7s17.271-28.759,23.18-53.74a3.062,3.062,0,0,0-.7-2.956L0,115.117A3.078,3.078,0,0,0,2.968,115.8Z" transform="translate(0.81 0.798)" fill="url(#linear-gradient-6)"/>
      </g>
      <path id="Path_7" data-name="Path 7" d="M11.012,0C3.68,24.476-1.6,51.438.441,67.756a2.862,2.862,0,0,0,2.907,2.753,2.762,2.762,0,0,0,2.875,3.114A2.893,2.893,0,0,0,9,76.333c16.34,2.012,43.3-3.248,67.781-10.568Z" transform="translate(147.876 73.781) rotate(-45)" fill="url(#linear-gradient-7)"/>
      <path id="Path_15" data-name="Path 15" d="M250.2,169.419C179.528,240.089,41.957,322.477,7.921,288.441S56.272,116.834,126.943,46.164s102.863-47.679,136.9-13.643,57.028,66.227-13.643,136.9Z" transform="translate(-7.393 251.307) rotate(-45)" fill="url(#linear-gradient-8)"/>
      <path id="Path_9" data-name="Path 9" d="M2.839.5A89.857,89.857,0,0,1,15.266,6.188c2.466,1.34,5.045,2.91,7.7,4.659,2.63,1.786,5.373,3.722,8.028,5.912a104.555,104.555,0,0,1,7.917,7.063c2.56,2.544,5.03,5.249,7.355,8.076q1.737,2.125,3.343,4.346c1.119,1.44,2.088,2.985,3.078,4.492,1.023,1.484,1.893,3.06,2.774,4.6.906,1.519,1.668,3.111,2.441,4.655a81.851,81.851,0,0,1,3.814,9.262c.548,1.5.952,3.026,1.371,4.48s.759,2.888,1.037,4.288a74.9,74.9,0,0,1,1.216,7.709c.2,2.348.282,4.421.324,6.126-.023,1.73-1.652,2.414-2.234.973l-2.36-5.064c-.992-1.909-1.986-4.112-3.277-6.4-.612-1.162-1.228-2.382-1.969-3.586C55.1,66.561,54.463,65.249,53.634,64,52.1,61.419,50.4,58.761,48.6,56.044c-.962-1.321-1.8-2.75-2.816-4.093s-1.945-2.76-2.989-4.121c-1.017-1.379-2.071-2.746-3.137-4.114-1.042-1.386-2.142-2.738-3.261-4.074-2.158-2.735-4.483-5.341-6.716-7.953l-3.416-3.8L22.871,24.22c-4.48-4.789-8.786-9.168-12.529-12.892L1.4,2.5C-.913.219-.307-.636,2.839.5Z" transform="translate(185.553 198.524) rotate(-45)" fill="url(#linear-gradient-9)"/>
      <path id="Path_10" data-name="Path 10" d="M2.561.08A86.918,86.918,0,0,1,15.109,2.565c2.544.682,5.246,1.543,8.067,2.548,2.8,1.043,5.746,2.2,8.678,3.593,2.962,1.357,5.929,2.928,8.874,4.639,2.936,1.731,5.834,3.624,8.635,5.656q2.1,1.53,4.1,3.172c1.369,1.048,2.63,2.221,3.9,3.356,1.295,1.107,2.478,2.329,3.66,3.514,1.2,1.163,2.291,2.422,3.379,3.634a81.206,81.206,0,0,1,5.8,7.45c.876,1.218,1.633,2.5,2.384,3.7s1.427,2.414,2.038,3.6a72.263,72.263,0,0,1,3.089,6.616c.79,2.052,1.4,3.882,1.885,5.393.431,1.548-.839,2.5-1.732,1.337l-3.417-4.021c-1.379-1.494-2.836-3.25-4.58-5.02-.846-.908-1.711-1.866-2.684-2.784s-1.87-1.966-2.933-2.909c-2.03-1.977-4.236-3.989-6.546-6.033-1.2-.976-2.319-2.073-3.568-3.058S51.69,34.9,50.409,33.908c-1.263-1.015-2.555-2.014-3.86-3.01-1.287-1.017-2.616-1.991-3.959-2.949-2.63-1.987-5.376-3.823-8.041-5.683L30.52,19.592l-3.97-2.559c-5.23-3.332-10.2-6.335-14.5-8.873l-10.257-6C-.86.607-.539-.28,2.561.08Z" transform="translate(118.801 247.532) rotate(-45)" fill="url(#linear-gradient-9)"/>
      <path id="Path_11" data-name="Path 11" d="M2.561.08A86.916,86.916,0,0,1,15.109,2.565c2.544.682,5.246,1.543,8.067,2.548,2.8,1.043,5.747,2.2,8.678,3.593,2.962,1.357,5.929,2.928,8.874,4.639,2.937,1.731,5.834,3.624,8.635,5.656q2.1,1.53,4.1,3.172c1.369,1.048,2.631,2.221,3.9,3.356,1.295,1.106,2.478,2.329,3.66,3.513,1.2,1.163,2.291,2.422,3.379,3.634a81.217,81.217,0,0,1,5.8,7.45c.876,1.218,1.633,2.5,2.384,3.7s1.427,2.414,2.037,3.6a72.257,72.257,0,0,1,3.089,6.616c.79,2.052,1.4,3.882,1.885,5.393.431,1.548-.839,2.5-1.732,1.337l-3.417-4.021c-1.379-1.494-2.837-3.25-4.58-5.02-.847-.908-1.711-1.866-2.684-2.784s-1.87-1.966-2.932-2.909c-2.03-1.977-4.236-3.989-6.546-6.033-1.2-.976-2.319-2.073-3.568-3.058S51.69,34.9,50.408,33.907c-1.263-1.015-2.556-2.014-3.86-3.01-1.287-1.017-2.617-1.991-3.96-2.949-2.63-1.987-5.376-3.823-8.041-5.684L30.52,19.59l-3.97-2.559c-5.23-3.332-10.2-6.335-14.5-8.873l-10.257-6C-.86.607-.54-.28,2.561.08Z" transform="translate(119.244 148.173) rotate(-45)" fill="url(#linear-gradient-9)"/>
      <path id="Path_12" data-name="Path 12" d="M2.4.5a84.724,84.724,0,0,1,10.8,5.29c2.154,1.232,4.415,2.663,6.754,4.252,2.317,1.618,4.736,3.369,7.1,5.336,2.4,1.938,4.756,4.069,7.068,6.32,2.3,2.267,4.535,4.669,6.656,7.173q1.585,1.882,3.066,3.842c1.025,1.273,1.931,2.631,2.852,3.959.947,1.308,1.773,2.692,2.6,4.041.852,1.335,1.587,2.73,2.329,4.083a80.527,80.527,0,0,1,3.763,8.1c.551,1.307.983,2.637,1.424,3.905s.814,2.515,1.132,3.732c.7,2.395,1.111,4.689,1.494,6.7.313,2.036.509,3.831.65,5.308.088,1.5-1.236,2.047-1.813.785l-2.291-4.444c-.949-1.678-1.919-3.609-3.142-5.624-.584-1.022-1.176-2.092-1.871-3.153s-1.3-2.221-2.071-3.326c-1.44-2.27-3.031-4.612-4.71-7.008-.887-1.168-1.681-2.425-2.612-3.613s-1.8-2.438-2.759-3.642c-.938-1.219-1.9-2.429-2.884-3.641-.959-1.226-1.964-2.424-2.985-3.61-1.977-2.422-4.087-4.739-6.121-7.057l-3.1-3.381-3.07-3.263c-4.053-4.264-7.937-8.169-11.308-11.494L1.3,2.177C-.783.138-.321-.58,2.4.5Z" transform="translate(185.553 281.513) rotate(-45)" fill="url(#linear-gradient-9)"/>
      <path id="Path_13" data-name="Path 13" d="M2.219.138A82.571,82.571,0,0,1,13.232,2.878c2.237.706,4.619,1.571,7.106,2.564,2.474,1.024,5.073,2.147,7.669,3.477,2.621,1.3,5.254,2.774,7.873,4.369,2.612,1.611,5.2,3.358,7.7,5.216q1.874,1.4,3.673,2.888c1.226.955,2.364,2.01,3.509,3.035,1.164,1,2.235,2.094,3.3,3.156,1.084,1.045,2.077,2.165,3.066,3.245a79.944,79.944,0,0,1,5.308,6.6c.806,1.076,1.511,2.2,2.208,3.258s1.33,2.118,1.9,3.157c1.2,2.032,2.113,4.028,2.934,5.769.765,1.782,1.367,3.368,1.844,4.676.434,1.337-.63,2.088-1.45,1.055l-3.12-3.583c-1.254-1.337-2.586-2.9-4.167-4.487-.769-.813-1.557-1.668-2.435-2.5s-1.7-1.76-2.656-2.612c-1.837-1.778-3.826-3.592-5.909-5.44-1.077-.887-2.091-1.873-3.212-2.769s-2.2-1.861-3.351-2.767c-1.135-.924-2.293-1.834-3.463-2.743-1.155-.925-2.346-1.818-3.547-2.7-2.357-1.815-4.81-3.507-7.194-5.216l-3.6-2.468L23.69,15.7c-4.668-3.085-9.1-5.878-12.931-8.244l-9.141-5.6C-.747.41-.5-.325,2.219.138Z" transform="translate(133.534 332.931) rotate(-45)" fill="url(#linear-gradient-9)"/>
      <path id="Path_14" data-name="Path 14" d="M2.083.333a80.845,80.845,0,0,1,9.985,3.976c2.015.944,4.148,2.055,6.37,3.3,2.207,1.269,4.518,2.646,6.811,4.211,2.318,1.539,4.631,3.246,6.92,5.06s4.525,3.775,6.686,5.816q1.616,1.535,3.155,3.143C43.063,26.877,44.026,28,45,29.093c.993,1.075,1.89,2.224,2.79,3.342s1.738,2.267,2.562,3.394a79.371,79.371,0,0,1,4.352,6.78c.655,1.1,1.212,2.224,1.767,3.294s1.051,2.128,1.494,3.162c.934,2.031,1.613,3.993,2.224,5.708.556,1.745.979,3.288,1.309,4.559.288,1.292-.762,1.847-1.434.787L57.479,56.4c-1.048-1.4-2.148-3.014-3.478-4.686-.643-.85-1.3-1.743-2.043-2.621s-1.422-1.846-2.237-2.757c-1.55-1.88-3.238-3.815-5.009-5.792-.922-.959-1.777-2-2.739-2.975s-1.88-2-2.868-2.991c-.972-1-1.968-1.992-2.975-2.983s-2.018-1.984-3.056-2.951c-2.029-1.982-4.158-3.864-6.221-5.753L23.73,20.148,20.648,17.5c-4.063-3.457-7.931-6.614-11.281-9.3l-8-6.365C-.7.192-.4-.452,2.083.333Z" transform="translate(173.838 369.633) rotate(-45)" fill="url(#linear-gradient-9)"/>
    </g>
    <g id="Group_158" data-name="Group 158" transform="translate(3630.56 2054.147)">
      <g id="Group_157" data-name="Group 157" clip-path="url(#clip-path)">
        <g id="Group_156" data-name="Group 156">
          <g id="Group_155" data-name="Group 155" clip-path="url(#clip-path)">
            <path id="Path_247" data-name="Path 247" d="M41.86,86.711A49.815,49.815,0,0,0,46.628,92.4,27.015,27.015,0,0,0,53.9,97.9a21.962,21.962,0,0,0,8.16,2.536c3.378.126,6.63-2.446,9.059-4.543,3.552-3.065,7.632-7.239,12.589-7.6a1.442,1.442,0,0,0,.679-.154,1.347,1.347,0,0,0,.377-.443C89.675,79.827,91.5,72.114,91.5,62.825c0-20.689-12.858-31.309-27.814-37.46-9.431-3.877-18.6,4.785-23.692,17.1,4.164,6.031,6.7,13.572,6.7,23.1A50.813,50.813,0,0,1,41.86,86.711M56.023,37.3c4.982,0,9.02,4.577,9.02,10.224a11.3,11.3,0,0,1-.916,4.489,5.683,5.683,0,0,0-1.046-.118,5.19,5.19,0,0,0-3.288,1.362,5.16,5.16,0,0,0-1.36,3.286c.034.267.071.532.107.8a8.054,8.054,0,0,1-2.517.406C51.04,57.748,47,53.171,47,47.525S51.04,37.3,56.023,37.3" transform="translate(14.681 8.967)" fill="#fff"/>
            <path id="Path_248" data-name="Path 248" d="M30.344,26.176C15.983,20.27,2.229,43.127,2.229,64.04c0,11.448,4.417,29.49,16.863,33.479q4.983,1.6,9.971,3.2c.5.159.977.291,1.45.4,3.959.883,7.126-.086,10.886-2.247a29.554,29.554,0,0,0,8.882-8.127c5.638-7.624,8.178-17.3,8.178-26.7,0-20.913-13-31.647-28.115-37.864m.437,26.447a5.462,5.462,0,0,0-1.05-.116,3.477,3.477,0,0,0-1.788.4,4.174,4.174,0,0,0-2.457,2.455,3.484,3.484,0,0,0-.4,1.792c.034.264.068.53.107.8a8.056,8.056,0,0,1-2.518.406c-4.982,0-9.02-4.577-9.02-10.224s4.038-10.223,9.02-10.223S31.7,42.486,31.7,48.132a11.326,11.326,0,0,1-.916,4.491" transform="translate(0.818 9.261)" fill="#fff"/>
            <path id="Path_249" data-name="Path 249" d="M83.278,73.19a1.259,1.259,0,0,1-.364.425,1.388,1.388,0,0,1-.653.149c-4.756.344-8.675,4.354-12.085,7.3-2.331,2.015-5.455,4.481-8.7,4.361a21.115,21.115,0,0,1-7.837-2.435,25.952,25.952,0,0,1-6.983-5.271c-.452-.476-2.083-2.2-3.423-3.895Q42.7,75.182,42.085,76.5a47.936,47.936,0,0,0,4.576,5.467,25.929,25.929,0,0,0,6.983,5.273,21.088,21.088,0,0,0,7.837,2.433c3.241.122,6.365-2.346,8.7-4.36,3.409-2.943,7.329-6.951,12.085-7.3a1.356,1.356,0,0,0,.653-.149,1.259,1.259,0,0,0,.364-.425c4.714-7.553,6.467-14.955,6.467-23.874,0-.675-.015-1.336-.044-1.988A41.626,41.626,0,0,1,83.278,73.19" transform="translate(15.447 18.933)" fill="#d1d1d1"/>
            <path id="Path_250" data-name="Path 250" d="M49.17,76.077a28.324,28.324,0,0,1-8.524,7.8c-3.608,2.075-6.648,3-10.444,2.157q-.681-.15-1.393-.38-4.786-1.532-9.571-3.066C8.044,79,3.618,63.552,3.111,52.583q-.049,1.066-.051,2.127c0,10.986,4.238,28.3,16.179,32.127q4.788,1.534,9.571,3.066.714.228,1.393.381c3.8.846,6.837-.083,10.444-2.157a28.346,28.346,0,0,0,8.524-7.8c5.407-7.315,7.847-16.6,7.847-25.618,0-.718-.021-1.419-.052-2.111-.358,8.331-2.815,16.741-7.795,23.478" transform="translate(1.123 19.3)" fill="#d1d1d1"/>
            <path id="Path_251" data-name="Path 251" d="M54.52,87.324c.45-.845.882-1.7,1.281-2.567-.17.37.165,1.113.741,2A50.834,50.834,0,0,0,61.382,65.61c0-9.531-2.537-17.072-6.7-23.1-.15.36-.3.725-.44,1.09-.267-.386-.558-.759-.864-1.121.154-.379.31-.753.474-1.125C48.3,33.937,40.213,28.914,31.461,25.316,16.182,19.032,1.545,43.356,1.545,65.61A49.739,49.739,0,0,0,7.534,89.8a40.536,40.536,0,0,0,2.8,4.32,8.624,8.624,0,0,0-2.04-.287A8.839,8.839,0,0,0,0,99.288a.05.05,0,0,0,.087.046A8.561,8.561,0,0,1,8.5,95.725a17.984,17.984,0,0,1,4.6,1.769c.19.212.38.424.574.632-3.008.239-5.144.7-6.942,3.316,1.513-2.2,5.863-1.85,8.026-1.524,8.879,1.334,17.171,7.331,26.212,3.679,6.4-2.586,11.062-8.25,14.257-14.215-.589-.93-.912-1.692-.714-2.057M42.217,99.2c-3.759,2.161-6.927,3.131-10.886,2.247-.473-.107-.954-.238-1.449-.4q-4.989-1.6-9.973-3.2C7.464,93.868,3.047,75.826,3.047,64.377c0-20.912,13.754-43.769,28.116-37.863,15.115,6.217,28.113,16.951,28.113,37.863,0,9.4-2.54,19.074-8.178,26.7A29.572,29.572,0,0,1,42.217,99.2" transform="translate(0 8.923)" fill="#222"/>
            <path id="Path_252" data-name="Path 252" d="M93.58,90.566c-2-1.081-4.36-1.137-6.6-1.28h-.027c2.617-2.789,6.593-3.822,10.308-3.565a.265.265,0,0,0,.122-.509,10.109,10.109,0,0,0-6.956-.41c3.3-5.953,4.005-14.063,4.005-20.292,0-22.251-13.832-33.677-29.919-40.294-9.923-4.081-19.576,4.75-25.124,17.538q.427.568.831,1.157c5.095-12.313,14.261-20.975,23.692-17.1,14.955,6.15,27.814,16.772,27.814,37.46,0,9.289-1.829,17-6.738,24.868a1.333,1.333,0,0,1-.377.443,1.461,1.461,0,0,1-.681.156c-4.956.36-9.038,4.533-12.589,7.6-2.428,2.1-5.68,4.667-9.058,4.541a21.955,21.955,0,0,1-8.16-2.536,27.014,27.014,0,0,1-7.274-5.491,49.977,49.977,0,0,1-4.767-5.694c-.294.637-.6,1.267-.916,1.888-.127.246-.26.492-.391.74a54.9,54.9,0,0,0,5.459,6.622,28.764,28.764,0,0,0,8.191,6.048,27.485,27.485,0,0,0,5.337,1.958,12.237,12.237,0,0,1-1.526.444,10.813,10.813,0,0,1-6.246-1.275.1.1,0,0,0-.115.16c2.9,2.243,7.087,3.727,10.694,2.426,3.9-1.4,7.2-4.273,10.2-7.036a40.657,40.657,0,0,1,6.752-5.513c8.277-4.813,19.182.451,19.262,10.39a.139.139,0,0,0,.276.029,15.346,15.346,0,0,0-.849-8.671,10.285,10.285,0,0,0-4.629-4.8" transform="translate(14.458 8.519)" fill="#222"/>
            <path id="Path_253" data-name="Path 253" d="M41.919,70.525c-.576-.884-.91-1.628-.74-2-.4.869-.831,1.724-1.282,2.567-.2.366.126,1.129.714,2.059.133-.246.265-.492.391-.74.32-.619.623-1.251.917-1.888" transform="translate(14.623 25.152)" fill="#222"/>
            <path id="Path_254" data-name="Path 254" d="M39.908,39.021q.215-.55.44-1.09-.406-.589-.831-1.157c-.163.372-.32.746-.474,1.125.306.361.6.734.865,1.121" transform="translate(14.331 13.498)" fill="#222"/>
            <path id="Path_255" data-name="Path 255" d="M19.608,34.5c-4.982,0-9.02,4.578-9.02,10.224s4.038,10.223,9.02,10.223a8.017,8.017,0,0,0,2.518-.406c-.038-.265-.072-.532-.107-.8a3.5,3.5,0,0,1,.4-1.792A4.174,4.174,0,0,1,24.875,49.5a3.492,3.492,0,0,1,1.789-.4,5.559,5.559,0,0,1,1.049.116,11.324,11.324,0,0,0,.916-4.489c0-5.646-4.038-10.224-9.021-10.224" transform="translate(3.886 12.665)" fill="#222"/>
            <path id="Path_256" data-name="Path 256" d="M54.142,54.292a8.054,8.054,0,0,0,2.517-.406c-.036-.265-.072-.532-.107-.8a3.5,3.5,0,0,1,.4-1.791,4.174,4.174,0,0,1,2.457-2.455,3.511,3.511,0,0,1,1.792-.4,5.567,5.567,0,0,1,1.046.118,11.3,11.3,0,0,0,.916-4.491c0-5.646-4.038-10.223-9.02-10.223s-9.021,4.577-9.021,10.223,4.038,10.224,9.021,10.224" transform="translate(16.562 12.423)" fill="#222"/>
            <path id="Path_257" data-name="Path 257" d="M17.842,18.429c6.316-1.2,10.224,3.006,13.532,2.705s6.015-5.412,6.015-5.412S16.639,2.191,10.928,6.1s-7.82,30.37-7.82,30.37,8.42-16.839,14.734-18.041" transform="translate(1.141 1.979)" fill="#222"/>
            <path id="Path_258" data-name="Path 258" d="M47.592,18.528c3.007.9,21.05,1.2,25.86,7.215,0,0-.6-24.958-30.97-13.531,0,0,2.105,5.412,5.11,6.316" transform="translate(15.593 3.383)" fill="#222"/>
            <path id="Path_259" data-name="Path 259" d="M19.081,88.481a5.219,5.219,0,0,0-4.472-2.29,7.713,7.713,0,0,0-4.775,1.926A4.788,4.788,0,0,0,7.9,91.411a6,6,0,0,1,3.517-1.033,1.429,1.429,0,0,1,.96.3,1.608,1.608,0,0,1,.369.834c1.966,8.573,8.049,16.92,15.059,22.15A39.109,39.109,0,0,0,47.2,121.1c13.867,1.366,27.382-5.479,36.09-16.056,4.584-5.568,8.38-12.452,11.482-18.973A7.56,7.56,0,0,1,97.7,87.758a5.273,5.273,0,0,1,2.216,4.049,8.545,8.545,0,0,0,.287-3.839,11.625,11.625,0,0,0-1.255-3.893,6.673,6.673,0,0,0-5.325-3.707c-3.52-.282-5.91,2.715-8.191,4.932a.233.233,0,0,0,.291.362,12.89,12.89,0,0,1,4.625-1.906c-3.8,11.945-10.667,23.054-21.7,29.566C57.29,120.033,42.6,120.208,31.4,113.05a34.44,34.44,0,0,1-10.651-10.9c-1.684-2.709-6.417-9.638-4.6-12.811a2.113,2.113,0,0,1,2.939-.86" transform="translate(2.901 29.492)" fill="#222"/>
            <path id="Path_260" data-name="Path 260" d="M60.5,114.343a37.368,37.368,0,0,1-7.323,2.31,59.137,59.137,0,0,1-7.435,1.293,67.733,67.733,0,0,1-7.653.1,30.3,30.3,0,0,1-7.684-1.509c-.174-.052-.325.182-.159.3a25.825,25.825,0,0,0,15.515,4.361,23.019,23.019,0,0,0,8.007-1.665,25.791,25.791,0,0,0,7.039-4.677.3.3,0,0,0-.306-.5" transform="translate(11.076 41.959)" fill="#222"/>
            <path id="Path_261" data-name="Path 261" d="M3.762,10.441a17.883,17.883,0,0,1,3.4-7.081c1.848-2.245,5.144-1.779,7.687-1.3.3.056.34-.36.112-.474-2.4-1.236-6.618-2.636-8.82-.4A7.845,7.845,0,0,0,4.415,5.119a49.143,49.143,0,0,0-.986,5.241c-.025.19.283.273.332.081" transform="translate(1.258 0)" fill="#222"/>
            <g id="Group_151" data-name="Group 151" transform="translate(68.813 56.627)" opacity="0.43">
              <g id="Group_150" data-name="Group 150">
                <g id="Group_149" data-name="Group 149" clip-path="url(#clip-path-3)">
                  <path id="Path_262" data-name="Path 262" d="M63.741,47.96a3.221,3.221,0,0,0-.25-1.634,4.9,4.9,0,0,0-1.136-2.288c-.041-.049-.085-.1-.127-.148q-.654-.617-1.308-1.234a5.047,5.047,0,0,0-2.366-1.018,3.384,3.384,0,0,0-1.692-.176,3.358,3.358,0,0,0-1.7.261A5.054,5.054,0,0,0,52.8,42.9l-1.236,1.308-.817,1.534a5.107,5.107,0,0,0-.377,2.526,3.332,3.332,0,0,0,.264,1.692,3.314,3.314,0,0,0,.708,1.6,5.082,5.082,0,0,0,1.777,2l1.534.82,1.668.4,1.714-.04a5,5,0,0,0,2.44-.95,5.1,5.1,0,0,0,2-1.777l.116-.137q.4-.74.79-1.481a4.863,4.863,0,0,0,.362-2.437" transform="translate(-50.337 -41.423)" fill="#fff"/>
                </g>
              </g>
            </g>
            <g id="Group_154" data-name="Group 154" transform="translate(21.934 57.695)" opacity="0.43">
              <g id="Group_153" data-name="Group 153">
                <g id="Group_152" data-name="Group 152" clip-path="url(#clip-path-4)">
                  <path id="Path_263" data-name="Path 263" d="M23.482,42.2c-3.528,0-7.184,2.108-7.424,6.011-.208,3.337,2.238,7.423,6.011,7.423,3.527,0,7.181-2.109,7.423-6.011.206-3.338-2.238-7.423-6.01-7.423" transform="translate(-16.045 -42.204)" fill="#fff"/>
                </g>
              </g>
            </g>
          </g>
        </g>
      </g>
    </g>
  </g>
</svg>
