<svg xmlns="http://www.w3.org/2000/svg" xmlns:xlink="http://www.w3.org/1999/xlink" width="419.119" height="502.194" viewBox="0 0 419.119 502.194">
  <defs>
    <linearGradient id="linear-gradient" x1="0.5" y1="0.133" x2="0.89" y2="0.5" gradientUnits="objectBoundingBox">
      <stop offset="0" stop-color="#c4d143"/>
      <stop offset="1" stop-color="#7c8a1a"/>
    </linearGradient>
    <linearGradient id="linear-gradient-2" x1="1.148" y1="0.346" x2="0.5" y2="0.135" gradientUnits="objectBoundingBox">
      <stop offset="0" stop-color="#7c8a1a" stop-opacity="0"/>
      <stop offset="0.315" stop-color="#768319" stop-opacity="0.314"/>
      <stop offset="0.781" stop-color="#646f15" stop-opacity="0.78"/>
      <stop offset="1" stop-color="#5a6313"/>
    </linearGradient>
    <linearGradient id="linear-gradient-3" x1="0.423" y1="0.116" x2="0.658" y2="0.705" xlink:href="#linear-gradient"/>
    <linearGradient id="linear-gradient-4" x1="1" y1="1" x2="0.395" y2="0.356" xlink:href="#linear-gradient-2"/>
    <linearGradient id="linear-gradient-5" x1="0.246" y1="0.5" x2="0.5" y2="0.748" xlink:href="#linear-gradient"/>
    <linearGradient id="linear-gradient-6" x1="0.886" y1="0.362" x2="0.613" y2="0.084" xlink:href="#linear-gradient-2"/>
    <linearGradient id="linear-gradient-7" x1="0.586" y1="0.529" x2="0.427" y2="0.699" gradientUnits="objectBoundingBox">
      <stop offset="0" stop-color="#5a6313" stop-opacity="0"/>
      <stop offset="1" stop-color="#544f43"/>
    </linearGradient>
    <linearGradient id="linear-gradient-8" x1="0.337" y1="0.293" x2="0.642" y2="0.731" gradientUnits="objectBoundingBox">
      <stop offset="0" stop-color="#dd3b32"/>
      <stop offset="0.279" stop-color="#ff4f46"/>
      <stop offset="0.775" stop-color="#ff5b52"/>
      <stop offset="1" stop-color="#dd3b32"/>
    </linearGradient>
    <linearGradient id="linear-gradient-9" x1="-0.051" x2="1" y2="1" gradientUnits="objectBoundingBox">
      <stop offset="0" stop-color="#d30e03" stop-opacity="0"/>
      <stop offset="0.513" stop-color="#d5362e"/>
      <stop offset="1" stop-color="#c9251c"/>
    </linearGradient>
    <clipPath id="clip-path">
      <rect id="Rectangle_57" data-name="Rectangle 57" width="17.081" height="17.22" fill="none"/>
    </clipPath>
    <clipPath id="clip-path-2">
      <rect id="Rectangle_58" data-name="Rectangle 58" width="6.864" height="6.919" fill="none"/>
    </clipPath>
    <clipPath id="clip-path-3">
      <rect id="Rectangle_59" data-name="Rectangle 59" width="7.858" height="7.824" fill="none"/>
    </clipPath>
    <clipPath id="clip-path-4">
      <rect id="Rectangle_60" data-name="Rectangle 60" width="13.27" height="15.646" fill="none"/>
    </clipPath>
  </defs>
  <g id="Group_250" data-name="Group 250" transform="translate(-2220.881 -1891.282)">
    <g id="Group_159" data-name="Group 159" transform="translate(2228.274 1932.61)">
      <g id="Group_3" data-name="Group 3" transform="translate(92.802 18.709) rotate(-45)">
        <g id="Group_1" data-name="Group 1" transform="translate(0 0)">
          <path id="Path_1" data-name="Path 1" d="M24.367,41.36C11.892,68.752-2.74,120.169.441,145.641a2.885,2.885,0,0,0,4.71,2.132C26.48,133.4,55.75,88.6,68.225,61.212s6.148-32.978,2.967-58.451A2.885,2.885,0,0,0,66.482.629C45.153,15.008,36.842,13.967,24.367,41.36Z" fill="url(#linear-gradient)"/>
          <path id="Path_2" data-name="Path 2" d="M3.02,147.538C24.35,133.16,53.62,88.369,66.094,60.977S72.242,28,69.061,2.526A3.06,3.06,0,0,0,67.371,0L0,147.931a3.075,3.075,0,0,0,3.02-.393Z" transform="translate(2.131 0.235)" fill="url(#linear-gradient-2)"/>
        </g>
        <g id="Group_2" data-name="Group 2" transform="translate(6.22 79.045)">
          <path id="Path_3" data-name="Path 3" d="M87.1,7.471C59.709,19.959,14.933,49.165.622,70.475a2.885,2.885,0,0,0,2.156,4.7c25.53,3.143,77.007-11.458,104.393-23.946s26.276-20.855,40.588-42.166a2.885,2.885,0,0,0-2.156-4.7C120.071,1.222,114.482-5.017,87.1,7.471Z" fill="url(#linear-gradient-3)"/>
          <path id="Path_4" data-name="Path 4" d="M2.537,69.126C28.067,72.269,79.544,57.668,106.93,45.18s26.276-20.855,40.587-42.166A3.059,3.059,0,0,0,147.9,0L0,67.442A3.078,3.078,0,0,0,2.537,69.126Z" transform="translate(0.24 6.048)" fill="url(#linear-gradient-4)"/>
        </g>
      </g>
      <g id="Group_4" data-name="Group 4" transform="translate(119.755 40.968) rotate(-45)">
        <path id="Path_5" data-name="Path 5" d="M58.923,23.583C37.673,44.9,6.017,87.978.108,112.958a2.885,2.885,0,0,0,3.67,3.641C28.784,110.57,71.846,78.81,93.1,57.494s17.271-28.759,23.18-53.74a2.885,2.885,0,0,0-3.67-3.641C87.6,6.143,80.174,2.267,58.923,23.583Z" fill="url(#linear-gradient-5)"/>
        <path id="Path_6" data-name="Path 6" d="M2.968,115.8C27.973,109.772,71.035,78.012,92.286,56.7s17.271-28.759,23.18-53.74a3.062,3.062,0,0,0-.7-2.956L0,115.117A3.078,3.078,0,0,0,2.968,115.8Z" transform="translate(0.81 0.798)" fill="url(#linear-gradient-6)"/>
      </g>
      <path id="Path_7" data-name="Path 7" d="M11.012,0C3.68,24.476-1.6,51.438.441,67.756a2.862,2.862,0,0,0,2.907,2.753,2.762,2.762,0,0,0,2.875,3.114A2.893,2.893,0,0,0,9,76.333c16.34,2.012,43.3-3.248,67.781-10.568Z" transform="translate(147.876 73.781) rotate(-45)" fill="url(#linear-gradient-7)"/>
      <path id="Path_15" data-name="Path 15" d="M250.2,169.419C179.528,240.089,41.957,322.477,7.921,288.441S56.272,116.834,126.943,46.164s102.863-47.679,136.9-13.643,57.028,66.227-13.643,136.9Z" transform="translate(-7.393 251.307) rotate(-45)" fill="url(#linear-gradient-8)"/>
      <path id="Path_9" data-name="Path 9" d="M2.839.5A89.857,89.857,0,0,1,15.266,6.188c2.466,1.34,5.045,2.91,7.7,4.659,2.63,1.786,5.373,3.722,8.028,5.912a104.555,104.555,0,0,1,7.917,7.063c2.56,2.544,5.03,5.249,7.355,8.076q1.737,2.125,3.343,4.346c1.119,1.44,2.088,2.985,3.078,4.492,1.023,1.484,1.893,3.06,2.774,4.6.906,1.519,1.668,3.111,2.441,4.655a81.851,81.851,0,0,1,3.814,9.262c.548,1.5.952,3.026,1.371,4.48s.759,2.888,1.037,4.288a74.9,74.9,0,0,1,1.216,7.709c.2,2.348.282,4.421.324,6.126-.023,1.73-1.652,2.414-2.234.973l-2.36-5.064c-.992-1.909-1.986-4.112-3.277-6.4-.612-1.162-1.228-2.382-1.969-3.586C55.1,66.561,54.463,65.249,53.634,64,52.1,61.419,50.4,58.761,48.6,56.044c-.962-1.321-1.8-2.75-2.816-4.093s-1.945-2.76-2.989-4.121c-1.017-1.379-2.071-2.746-3.137-4.114-1.042-1.386-2.142-2.738-3.261-4.074-2.158-2.735-4.483-5.341-6.716-7.953l-3.416-3.8L22.871,24.22c-4.48-4.789-8.786-9.168-12.529-12.892L1.4,2.5C-.913.219-.307-.636,2.839.5Z" transform="translate(185.553 198.524) rotate(-45)" fill="url(#linear-gradient-9)"/>
      <path id="Path_10" data-name="Path 10" d="M2.561.08A86.918,86.918,0,0,1,15.109,2.565c2.544.682,5.246,1.543,8.067,2.548,2.8,1.043,5.746,2.2,8.678,3.593,2.962,1.357,5.929,2.928,8.874,4.639,2.936,1.731,5.834,3.624,8.635,5.656q2.1,1.53,4.1,3.172c1.369,1.048,2.63,2.221,3.9,3.356,1.295,1.107,2.478,2.329,3.66,3.514,1.2,1.163,2.291,2.422,3.379,3.634a81.206,81.206,0,0,1,5.8,7.45c.876,1.218,1.633,2.5,2.384,3.7s1.427,2.414,2.038,3.6a72.263,72.263,0,0,1,3.089,6.616c.79,2.052,1.4,3.882,1.885,5.393.431,1.548-.839,2.5-1.732,1.337l-3.417-4.021c-1.379-1.494-2.836-3.25-4.58-5.02-.846-.908-1.711-1.866-2.684-2.784s-1.87-1.966-2.933-2.909c-2.03-1.977-4.236-3.989-6.546-6.033-1.2-.976-2.319-2.073-3.568-3.058S51.69,34.9,50.409,33.908c-1.263-1.015-2.555-2.014-3.86-3.01-1.287-1.017-2.616-1.991-3.959-2.949-2.63-1.987-5.376-3.823-8.041-5.683L30.52,19.592l-3.97-2.559c-5.23-3.332-10.2-6.335-14.5-8.873l-10.257-6C-.86.607-.539-.28,2.561.08Z" transform="translate(118.801 247.532) rotate(-45)" fill="url(#linear-gradient-9)"/>
      <path id="Path_11" data-name="Path 11" d="M2.561.08A86.916,86.916,0,0,1,15.109,2.565c2.544.682,5.246,1.543,8.067,2.548,2.8,1.043,5.747,2.2,8.678,3.593,2.962,1.357,5.929,2.928,8.874,4.639,2.937,1.731,5.834,3.624,8.635,5.656q2.1,1.53,4.1,3.172c1.369,1.048,2.631,2.221,3.9,3.356,1.295,1.106,2.478,2.329,3.66,3.513,1.2,1.163,2.291,2.422,3.379,3.634a81.217,81.217,0,0,1,5.8,7.45c.876,1.218,1.633,2.5,2.384,3.7s1.427,2.414,2.037,3.6a72.257,72.257,0,0,1,3.089,6.616c.79,2.052,1.4,3.882,1.885,5.393.431,1.548-.839,2.5-1.732,1.337l-3.417-4.021c-1.379-1.494-2.837-3.25-4.58-5.02-.847-.908-1.711-1.866-2.684-2.784s-1.87-1.966-2.932-2.909c-2.03-1.977-4.236-3.989-6.546-6.033-1.2-.976-2.319-2.073-3.568-3.058S51.69,34.9,50.408,33.907c-1.263-1.015-2.556-2.014-3.86-3.01-1.287-1.017-2.617-1.991-3.96-2.949-2.63-1.987-5.376-3.823-8.041-5.684L30.52,19.59l-3.97-2.559c-5.23-3.332-10.2-6.335-14.5-8.873l-10.257-6C-.86.607-.54-.28,2.561.08Z" transform="translate(119.244 148.173) rotate(-45)" fill="url(#linear-gradient-9)"/>
      <path id="Path_12" data-name="Path 12" d="M2.4.5a84.724,84.724,0,0,1,10.8,5.29c2.154,1.232,4.415,2.663,6.754,4.252,2.317,1.618,4.736,3.369,7.1,5.336,2.4,1.938,4.756,4.069,7.068,6.32,2.3,2.267,4.535,4.669,6.656,7.173q1.585,1.882,3.066,3.842c1.025,1.273,1.931,2.631,2.852,3.959.947,1.308,1.773,2.692,2.6,4.041.852,1.335,1.587,2.73,2.329,4.083a80.527,80.527,0,0,1,3.763,8.1c.551,1.307.983,2.637,1.424,3.905s.814,2.515,1.132,3.732c.7,2.395,1.111,4.689,1.494,6.7.313,2.036.509,3.831.65,5.308.088,1.5-1.236,2.047-1.813.785l-2.291-4.444c-.949-1.678-1.919-3.609-3.142-5.624-.584-1.022-1.176-2.092-1.871-3.153s-1.3-2.221-2.071-3.326c-1.44-2.27-3.031-4.612-4.71-7.008-.887-1.168-1.681-2.425-2.612-3.613s-1.8-2.438-2.759-3.642c-.938-1.219-1.9-2.429-2.884-3.641-.959-1.226-1.964-2.424-2.985-3.61-1.977-2.422-4.087-4.739-6.121-7.057l-3.1-3.381-3.07-3.263c-4.053-4.264-7.937-8.169-11.308-11.494L1.3,2.177C-.783.138-.321-.58,2.4.5Z" transform="translate(185.553 281.513) rotate(-45)" fill="url(#linear-gradient-9)"/>
      <path id="Path_13" data-name="Path 13" d="M2.219.138A82.571,82.571,0,0,1,13.232,2.878c2.237.706,4.619,1.571,7.106,2.564,2.474,1.024,5.073,2.147,7.669,3.477,2.621,1.3,5.254,2.774,7.873,4.369,2.612,1.611,5.2,3.358,7.7,5.216q1.874,1.4,3.673,2.888c1.226.955,2.364,2.01,3.509,3.035,1.164,1,2.235,2.094,3.3,3.156,1.084,1.045,2.077,2.165,3.066,3.245a79.944,79.944,0,0,1,5.308,6.6c.806,1.076,1.511,2.2,2.208,3.258s1.33,2.118,1.9,3.157c1.2,2.032,2.113,4.028,2.934,5.769.765,1.782,1.367,3.368,1.844,4.676.434,1.337-.63,2.088-1.45,1.055l-3.12-3.583c-1.254-1.337-2.586-2.9-4.167-4.487-.769-.813-1.557-1.668-2.435-2.5s-1.7-1.76-2.656-2.612c-1.837-1.778-3.826-3.592-5.909-5.44-1.077-.887-2.091-1.873-3.212-2.769s-2.2-1.861-3.351-2.767c-1.135-.924-2.293-1.834-3.463-2.743-1.155-.925-2.346-1.818-3.547-2.7-2.357-1.815-4.81-3.507-7.194-5.216l-3.6-2.468L23.69,15.7c-4.668-3.085-9.1-5.878-12.931-8.244l-9.141-5.6C-.747.41-.5-.325,2.219.138Z" transform="translate(133.534 332.931) rotate(-45)" fill="url(#linear-gradient-9)"/>
      <path id="Path_14" data-name="Path 14" d="M2.083.333a80.845,80.845,0,0,1,9.985,3.976c2.015.944,4.148,2.055,6.37,3.3,2.207,1.269,4.518,2.646,6.811,4.211,2.318,1.539,4.631,3.246,6.92,5.06s4.525,3.775,6.686,5.816q1.616,1.535,3.155,3.143C43.063,26.877,44.026,28,45,29.093c.993,1.075,1.89,2.224,2.79,3.342s1.738,2.267,2.562,3.394a79.371,79.371,0,0,1,4.352,6.78c.655,1.1,1.212,2.224,1.767,3.294s1.051,2.128,1.494,3.162c.934,2.031,1.613,3.993,2.224,5.708.556,1.745.979,3.288,1.309,4.559.288,1.292-.762,1.847-1.434.787L57.479,56.4c-1.048-1.4-2.148-3.014-3.478-4.686-.643-.85-1.3-1.743-2.043-2.621s-1.422-1.846-2.237-2.757c-1.55-1.88-3.238-3.815-5.009-5.792-.922-.959-1.777-2-2.739-2.975s-1.88-2-2.868-2.991c-.972-1-1.968-1.992-2.975-2.983s-2.018-1.984-3.056-2.951c-2.029-1.982-4.158-3.864-6.221-5.753L23.73,20.148,20.648,17.5c-4.063-3.457-7.931-6.614-11.281-9.3l-8-6.365C-.7.192-.4-.452,2.083.333Z" transform="translate(173.838 369.633) rotate(-45)" fill="url(#linear-gradient-9)"/>
    </g>
    <g id="Group_235" data-name="Group 235" transform="translate(186.992 -671.793)">
      <path id="Path_364" data-name="Path 364" d="M296.045,151.8c.03-1.838-1.114-9.222-.64-12.364a14.685,14.685,0,0,0-3.528,12.182c.223,1.17,1.037,3.9,2.722,3.657,1.408-.2,1.429-2.428,1.447-3.476" transform="translate(1893.908 2710.377)" fill="#91e1ff"/>
      <path id="Path_365" data-name="Path 365" d="M373,150.163c2.041.292,3.028-3.017,3.3-4.432a17.8,17.8,0,0,0-4.271-14.763c.571,3.807-.816,12.756-.779,14.982.022,1.268.046,3.969,1.753,4.213" transform="translate(1924.627 2707.11)" fill="#91e1ff"/>
      <path id="Path_366" data-name="Path 366" d="M301.769,145.462a5.727,5.727,0,0,1,3.667-1.4c4.062.108,6.711,3.885,10.723,4.183,3.786.281,7.244-1.8,10.823-2.668,2.393-.582,5.326-.6,7.291,1.055,7.386-7.064,12.239-18.982,12.239-32.493,0-21.683-7.333-39.263-22.471-30.984-16.117,8.813-33.349,9.3-33.349,30.984,0,12.792,4.349,24.152,11.078,31.32m20.388-56.9a2.622,2.622,0,0,0,2.332,1.236c3,0,3.581-3.772,1.724-5.217a9.986,9.986,0,0,1,14.147,5.656,5.427,5.427,0,0,0-5.014,3.456,4.238,4.238,0,0,0-.482,2.166q.1.748.2,1.5a5.6,5.6,0,0,0,1.445,2.479c.38.3.761.588,1.139.88.008.006.018.008.028.015a9.986,9.986,0,0,1-15.52-12.168" transform="translate(1893.54 2687.854)" fill="#fff"/>
      <path id="Path_367" data-name="Path 367" d="M322.452,128.105c-2.927.707-5.481,2.374-8.462,2.948s-5.5-.751-8.141-1.942c-1.515-.685-3.3-1.383-4.964-.866a2.963,2.963,0,0,0-1.142.664,21.394,21.394,0,0,0,30.2.475c-2.079-1.813-4.841-1.92-7.5-1.279" transform="translate(1897.033 2705.868)" fill="#59baff"/>
      <path id="Path_368" data-name="Path 368" d="M357.514,83.386c-15.226-8.328-22.6,9.356-22.6,31.168,0,14.969,5.922,27.993,14.645,34.692a3.932,3.932,0,0,1,2.644-2.556c3.15-.927,6.912-.06,10.088.3,3.972.455,7.52.593,11.222-1.16,2.442-1.157,5.476-2.98,8.214-1.874,5.731-7.23,9.338-17.726,9.338-29.408,0-21.812-17.336-22.3-33.55-31.168m1,16.451a9.985,9.985,0,0,1-16.5-10.965,2.194,2.194,0,0,0,.241.269,3.2,3.2,0,0,0,2.042.843l.768-.1a2.877,2.877,0,0,0,1.272-.74c.15-.194.3-.391.45-.585a2.888,2.888,0,0,0,.395-1.454v-.273a2.18,2.18,0,0,0-.249-1.112,2.137,2.137,0,0,0-.6-.927,2.2,2.2,0,0,0-.219-.208,9.985,9.985,0,0,1,13.74,4.219,5.686,5.686,0,0,0-5.459,5.62,5.824,5.824,0,0,0,4.12,5.416" transform="translate(1910.605 2687.937)" fill="#fff"/>
      <path id="Path_369" data-name="Path 369" d="M368.757,129.168a20.342,20.342,0,0,1-7.523.945c-2.952-.06-5.864-.513-8.806-.717a12.658,12.658,0,0,0-4.307.177,3.065,3.065,0,0,0-2.28,2.316,21.765,21.765,0,0,0,12.928,4.431c6.688,0,12.829-3.293,17.651-8.787-2.633-1-5.161.7-7.663,1.634" transform="translate(1914.823 2705.667)" fill="#59baff"/>
      <path id="Path_370" data-name="Path 370" d="M324.041,83.158c-16.117,8.813-33.351,9.3-33.351,30.984,0,.56.012,1.117.029,1.671.687-19.019,15.489-20.8,30.313-28.034a3.252,3.252,0,0,1,.105-1.257,3.636,3.636,0,0,1,2.506-2.46,4.444,4.444,0,0,1,3.057.279,9.969,9.969,0,0,1,12.946,4.274c4.381,5.506,6.64,15.532,6.846,26.867.011-.442.018-.893.018-1.34,0-21.683-7.333-39.263-22.47-30.984" transform="translate(1893.539 2687.854)" fill="#d1d1d1"/>
      <path id="Path_371" data-name="Path 371" d="M341.065,87.811a5.539,5.539,0,0,1-.1-2.442c-4.061,6.034-6.058,16.26-6.058,27.609,0,.45.007.9.017,1.35.2-10.85,2.262-20.5,6.252-26.19a2.542,2.542,0,0,1-.115-.327" transform="translate(1910.605 2689.513)" fill="#d1d1d1"/>
      <path id="Path_372" data-name="Path 372" d="M355.133,83.384c-5.824-3.186-10.5-2.561-14.053.64a4.368,4.368,0,0,1,3.283.243,9.968,9.968,0,0,1,12.04,2.861c15.481,8.047,31.541,9.2,32.25,29.1.018-.557.029-1.116.029-1.677,0-21.813-17.335-22.3-33.549-31.169" transform="translate(1912.986 2687.937)" fill="#d1d1d1"/>
      <path id="Path_373" data-name="Path 373" d="M306.061,131.706a17.114,17.114,0,0,0,9.685.862,23.153,23.153,0,0,0,4.16-1.655c2.115-1.006,4.223-1.987,6.371-2.9a10.037,10.037,0,0,0-4.884.1c-2.928.708-5.481,2.375-8.462,2.948s-5.506-.75-8.142-1.942c-.687-.31-3-1.109-2.1.771a2.734,2.734,0,0,0,1.573,1.154c.588.237,1.189.462,1.795.669" transform="translate(1898.091 2705.868)" fill="#91e1ff"/>
      <path id="Path_374" data-name="Path 374" d="M346.988,129.853a7.017,7.017,0,0,0,3.106,2.413c3.473,1.4,7.625.891,11.1-.223,3.983-1.281,7.876-3.477,12.168-3.481a13.384,13.384,0,0,1,1.518.159c.373-.385.743-.777,1.1-1.185-2.633-1-5.161.7-7.663,1.631a20.285,20.285,0,0,1-7.524.945c-2.951-.058-5.862-.51-8.8-.715a12.692,12.692,0,0,0-4.307.177,3.46,3.46,0,0,0-.69.279" transform="translate(1915.266 2705.667)" fill="#91e1ff"/>
      <path id="Path_375" data-name="Path 375" d="M317.807,133.244a28.323,28.323,0,0,1-9.9-.692,31.551,31.551,0,0,1-4.439-1.527c-.469-.19-1.028-.484-1.612-.729a21.519,21.519,0,0,0,12.435,4.113,21.276,21.276,0,0,0,11.567-3.524,28.477,28.477,0,0,1-8.051,2.359" transform="translate(1897.848 2706.851)" fill="#3890ff"/>
      <path id="Path_376" data-name="Path 376" d="M358.343,133.868a29.166,29.166,0,0,1-8.713-.1,20.634,20.634,0,0,0,7.678,1.5,22.136,22.136,0,0,0,14.068-5.321,42.417,42.417,0,0,1-13.033,3.919" transform="translate(1916.285 2706.717)" fill="#3890ff"/>
      <path id="Path_377" data-name="Path 377" d="M294.91,139.433a15.472,15.472,0,0,0-1.987,2.9,14.727,14.727,0,0,1,1.525,6.338,24.377,24.377,0,0,1-.413,6.611.564.564,0,0,0,.069,0c1.408-.2,1.429-2.428,1.447-3.476.031-1.838-1.113-9.222-.64-12.364" transform="translate(1894.401 2710.377)" fill="#59baff"/>
      <path id="Path_378" data-name="Path 378" d="M373.09,143.87a64.835,64.835,0,0,1,.093-11.423,18.652,18.652,0,0,0-1.16-1.479c.572,3.807-.815,12.756-.779,14.982.022,1.268.047,3.969,1.755,4.213a1.934,1.934,0,0,0,1.771-.783,14.734,14.734,0,0,1-1.68-5.51" transform="translate(1924.626 2707.11)" fill="#59baff"/>
      <path id="Path_379" data-name="Path 379" d="M332.627,128.88c-1.919-1.511-4.787-1.49-7.124-.96-3.5.793-6.878,2.686-10.576,2.431-3.921-.27-6.508-3.712-10.479-3.809a5.83,5.83,0,0,0-3.583,1.271c-2.488-2.471-5.121-5.063-6.84-8.492,1.073,3.829,4.845,8.489,6.84,10.539a5.71,5.71,0,0,1,3.583-1.317c3.971.1,6.558,3.662,10.479,3.942,3.7.265,7.079-1.694,10.576-2.514,2.337-.55,5.2-.57,7.124.994,1.725-1.59,6.766-8.35,7.366-10.03a23.9,23.9,0,0,1-7.366,7.945" transform="translate(1894.827 2702.615)" fill="#e0e0e0"/>
      <path id="Path_380" data-name="Path 380" d="M379.867,125.809c-2.744-1.02-5.779.66-8.224,1.724-3.706,1.612-7.255,1.486-11.232,1.067-3.176-.337-6.942-1.136-10.092-.281a3.8,3.8,0,0,0-2.647,2.351,31.1,31.1,0,0,1-7.9-8.289,40.744,40.744,0,0,0,4.306,7.351,28.81,28.81,0,0,0,3.6,3.131,3.836,3.836,0,0,1,2.647-2.432c3.15-.886,6.916-.058,10.092.288,3.976.437,7.526.567,11.232-1.1,2.445-1.1,5.48-2.837,8.224-1.785a34.434,34.434,0,0,0,2.093-2.818,30.612,30.612,0,0,0,2.073-5.248,35.216,35.216,0,0,1-4.166,6.045" transform="translate(1912.48 2702.787)" fill="#e0e0e0"/>
      <path id="Path_381" data-name="Path 381" d="M375.178,146.116a12.336,12.336,0,0,0,.351-1.36,17.128,17.128,0,0,0-1.867-11.263c-.549,4.54-.992,9.5,1.516,12.623" transform="translate(1925.395 2708.085)" fill="#fff"/>
      <path id="Path_382" data-name="Path 382" d="M293.725,148.8a25.74,25.74,0,0,0-.721-4.659c-.1-.46-.2-.976-.32-1.483a13.822,13.822,0,0,0-.808,7.717,6.988,6.988,0,0,0,1.307,3.064,15.4,15.4,0,0,0,.542-4.639" transform="translate(1893.908 2711.62)" fill="#fff"/>
      <path id="Path_383" data-name="Path 383" d="M365.252,128.307a4.645,4.645,0,0,0,3.382-1.008,8.617,8.617,0,0,0-4.84,1.041c.484-.017.97-.025,1.458-.033" transform="translate(1921.752 2705.668)" fill="#fff"/>
      <path id="Path_384" data-name="Path 384" d="M358.683,130.262c.71-.208,1.4-.467,2.091-.725h-.346c-2.951-.06-5.864-.511-8.8-.717a15.225,15.225,0,0,0-3.691.039c2.314,2.9,7.61,2.326,10.751,1.4" transform="translate(1915.63 2706.245)" fill="#fff"/>
      <path id="Path_385" data-name="Path 385" d="M311.455,130.529c3.468-.015,6.839-.158,9.093-2.777a12.178,12.178,0,0,0-2.6.352c-2.28.55-4.332,1.681-6.536,2.425Z" transform="translate(1901.536 2705.869)" fill="#fff"/>
      <path id="Path_386" data-name="Path 386" d="M307.531,130.955a17.79,17.79,0,0,0,2.3-.161,22.618,22.618,0,0,1-5.235-1.942,4.968,4.968,0,0,0-1.608-.432,5.57,5.57,0,0,0,4.544,2.535" transform="translate(1898.285 2706.127)" fill="#fff"/>
      <path id="Path_387" data-name="Path 387" d="M364.625,60.122c-4.866-4.608-22.79,8.449-21.253,15.876a16.184,16.184,0,0,1,18.692-1.537c9.121,4.993,16.131,13.316,16.131,13.316s-8.7-23.045-13.569-27.655" transform="translate(1913.834 2679.398)" fill="#222"/>
      <path id="Path_388" data-name="Path 388" d="M309.922,59.752C305.056,64.361,296.35,87.4,296.35,87.4s7.013-8.321,16.134-13.313a16.184,16.184,0,0,1,18.689,1.536c1.537-7.424-16.387-20.484-21.25-15.876" transform="translate(1895.724 2679.256)" fill="#222"/>
      <path id="Path_389" data-name="Path 389" d="M319.535,158.312c16.688,0,30.216-19.031,30.216-42.506,0-16.925-4.127-31.538-12.572-35.015,2.477.143,4.892.883,6.233,3.181a.119.119,0,0,0,.218-.1c-1.092-3.146-4.562-4.49-7.663-4.459a24.39,24.39,0,0,0-10.543,2.848c-7.316,4-15.389,6.395-22.681,10.429-5.979,3.31-11.847,6.761-14.468,13.439-.06.154.163.227.237.089a18.143,18.143,0,0,1,5.149-5.99c-2.723,3.748-4.339,8.668-4.339,15.575,0,23.475,13.525,42.506,30.213,42.506m0-4.267a22.519,22.519,0,0,1-15.364-6.483,2.963,2.963,0,0,1,1.142-.664c1.666-.517,3.45.183,4.964.866,2.636,1.192,5.169,2.513,8.141,1.942s5.535-2.241,8.462-2.948c2.654-.64,5.416-.534,7.5,1.279a22.317,22.317,0,0,1-14.84,6.008M324.976,83.8c15.137-8.279,22.47,9.3,22.47,30.984,0,13.511-4.852,25.429-12.238,32.493-1.967-1.658-4.9-1.637-7.291-1.055-3.578.87-7.038,2.949-10.823,2.668-4.014-.3-6.662-4.075-10.724-4.183a5.726,5.726,0,0,0-3.666,1.4c-6.73-7.168-11.079-18.528-11.079-31.32,0-21.683,17.234-22.171,33.351-30.984" transform="translate(1892.604 2687.215)" fill="#222"/>
      <path id="Path_390" data-name="Path 390" d="M376.166,90.59c-6.141-2.825-12.529-5.081-18.473-8.331-3.527-1.929-7.494-3.448-11.6-2.581a19.59,19.59,0,0,0-7.922,3.858c-.1.076.017.2.115.143a19.46,19.46,0,0,1,6.533-2.359c-7.689,4.263-11.453,18.318-11.453,34.48,0,23.475,13.525,42.506,30.214,42.506S393.8,139.276,393.8,115.8a27.822,27.822,0,0,0-2.68-12.861,25.084,25.084,0,0,1,4.725,6.37c.042.089.2.053.173-.051a15.673,15.673,0,0,0-3.7-7.322A52.561,52.561,0,0,0,376.166,90.59m-12.583,64.176a21.774,21.774,0,0,1-12.929-4.429,3.065,3.065,0,0,1,2.28-2.316,12.692,12.692,0,0,1,4.307-.177c2.942.205,5.854.657,8.8.717a20.314,20.314,0,0,0,7.524-.947c2.5-.934,5.029-2.635,7.663-1.631-4.822,5.491-10.964,8.784-17.65,8.784m28.075-39.5c0,11.682-3.608,22.176-9.337,29.408-2.74-1.107-5.772.717-8.216,1.874-3.7,1.753-7.25,1.616-11.222,1.16-3.175-.366-6.938-1.233-10.087-.3a3.922,3.922,0,0,0-2.644,2.554c-8.724-6.7-14.646-19.722-14.646-34.691,0-21.813,7.376-39.5,22.6-31.169,16.214,8.867,33.549,9.356,33.549,31.169" transform="translate(1910.01 2687.22)" fill="#222"/>
      <path id="Path_391" data-name="Path 391" d="M358.171,88.232a9.982,9.982,0,0,0-13.74-4.219,2.34,2.34,0,0,1,.219.205,3.214,3.214,0,0,1,.845,2.04v.273a2.883,2.883,0,0,1-.395,1.455c-.151.193-.3.389-.45.583a2.879,2.879,0,0,1-1.272.741l-.768.1a3.211,3.211,0,0,1-2.042-.844,2.205,2.205,0,0,1-.241-.27,9.985,9.985,0,0,0,16.5,10.967,5.826,5.826,0,0,1-4.12-5.416,5.684,5.684,0,0,1,5.459-5.619" transform="translate(1912.291 2688.507)" fill="#222"/>
      <path id="Path_392" data-name="Path 392" d="M322.477,102.736a9.949,9.949,0,0,0,6.785-2.661.179.179,0,0,1-.028-.015q-.567-.439-1.138-.88A5.6,5.6,0,0,1,326.65,96.7c-.068-.5-.133-1-.2-1.5A6.226,6.226,0,0,1,328.1,91.23a6.335,6.335,0,0,1,3.85-1.648A9.984,9.984,0,0,0,317.8,83.927c1.857,1.444,1.279,5.215-1.724,5.215a2.625,2.625,0,0,1-2.332-1.236,9.988,9.988,0,0,0,8.734,14.829" transform="translate(1901.953 2688.507)" fill="#222"/>
      <path id="Path_393" data-name="Path 393" d="M297.932,151.769c-.144-2.794-1.594-11.787-.362-14.239a14.594,14.594,0,0,0-6.867,11.413c-.183,2.946,0,7.427,3.311,8.576,3.566,1.242,4.036-3.433,3.918-5.75m-5.674.581a14.682,14.682,0,0,1,3.527-12.181c-.473,3.141.671,10.526.642,12.362-.018,1.048-.04,3.276-1.448,3.477-1.684.243-2.5-2.489-2.721-3.659" transform="translate(1893.526 2709.643)" fill="#222"/>
      <path id="Path_394" data-name="Path 394" d="M374.683,152.885c4.009-1.4,4.231-6.824,4.009-10.394a17.68,17.68,0,0,0-8.32-13.829c1.494,2.971-.265,13.868-.438,17.255-.144,2.807.428,8.471,4.748,6.968m-2.145-21.027a17.8,17.8,0,0,1,4.271,14.763c-.269,1.415-1.256,4.725-3.3,4.432-1.706-.244-1.731-2.944-1.753-4.213-.036-2.224,1.35-11.173.779-14.982" transform="translate(1924.114 2706.22)" fill="#222"/>
      <path id="Path_395" data-name="Path 395" d="M316.986,143.447a20.294,20.294,0,0,0,7.045-3.262,22.154,22.154,0,0,0,5.954-5.534c.13-.19-.121-.448-.3-.286a43.06,43.06,0,0,1-5.623,4.549,22.576,22.576,0,0,1-7.144,2.726c-4.646,1.013-10.357.68-14.369-2.062a.057.057,0,0,0-.065.093,16.594,16.594,0,0,0,14.506,3.777" transform="translate(1898.08 2708.402)" fill="#222"/>
      <path id="Path_396" data-name="Path 396" d="M367.4,140.867c-7.435.014-15.643-.694-21.864-5.161a.076.076,0,0,0-.09.123c6.009,5.2,14.22,8.558,22,5.319.129-.054.108-.281-.043-.281" transform="translate(1914.66 2708.932)" fill="#222"/>
      <path id="Path_397" data-name="Path 397" d="M373.219,132.24c3.088-3.75,5.483-8.22,5.4-13.219,0-.241-.356-.377-.446-.105-1.491,4.468-2.753,9.085-5.139,13.194a.112.112,0,0,0,.183.13" transform="translate(1925.311 2702.401)" fill="#222"/>
      <path id="Path_398" data-name="Path 398" d="M295.866,131.58a21.727,21.727,0,0,1-2.93-4.734.106.106,0,0,0-.194.086c.394.927.859,1.838,1.177,2.794a14.014,14.014,0,0,0,1.193,2.842,8.092,8.092,0,0,0,4.2,3.311.169.169,0,0,0,.157-.294,20.482,20.482,0,0,1-3.6-4.005" transform="translate(1894.328 2705.496)" fill="#222"/>
      <path id="Path_399" data-name="Path 399" d="M325.868,148.481a59.275,59.275,0,0,0-10.242,4.421,1.311,1.311,0,0,0-.6.55,1.223,1.223,0,0,0,.021.8,7,7,0,0,0,1.423,2.77c.4.475,1.762,1.145,1.951,1.511a3.713,3.713,0,0,1,.743-3.994c2.306-2.654,7.047-3.8,10.249-4.808a65.255,65.255,0,0,1,12.306-2.542,59.068,59.068,0,0,1,12.519-.147,17.446,17.446,0,0,1,6.174,1.551c1.664.861,2.445,1.75.912,2.578-.574.308-1.519.073-2.188.42a5.057,5.057,0,0,0-2.187,2.664c1.749-1.482,9.9-2.73,5.16-6.062-3.237-2.276-7.431-2.829-11.268-3.132a61.193,61.193,0,0,0-24.97,3.419" transform="translate(1902.906 2712.483)" fill="#222"/>
      <path id="Path_400" data-name="Path 400" d="M346.138,151.212a.311.311,0,0,0,.062-.593c-5.312-2.438-12.052-.062-17.147,1.865-.132.051-.069.281.069.241a30.589,30.589,0,0,1,8.769-1.171,44.166,44.166,0,0,0,8.246-.342" transform="translate(1908.317 2714.294)" fill="#222"/>
      <g id="Group_201" data-name="Group 201" transform="translate(2261.447 2774.251)" opacity="0.43">
        <g id="Group_200" data-name="Group 200">
          <g id="Group_199" data-name="Group 199" clip-path="url(#clip-path)">
            <path id="Path_401" data-name="Path 401" d="M363.437,92.225a8.572,8.572,0,0,0-1.816-4.105q-.838-.792-1.676-1.58a8.547,8.547,0,0,0-4.1-1.556,8.3,8.3,0,0,0-8.407,4.524,6.428,6.428,0,0,0-1.031,3.12l.051,2.2a8.527,8.527,0,0,0,1.816,4.105l1.676,1.583a8.6,8.6,0,0,0,4.1,1.556,8.313,8.313,0,0,0,8.408-4.525,6.439,6.439,0,0,0,1.028-3.12Z" transform="translate(-346.406 -84.914)" fill="#fff"/>
          </g>
        </g>
      </g>
      <g id="Group_204" data-name="Group 204" transform="translate(2251.692 2772.15)" opacity="0.43">
        <g id="Group_203" data-name="Group 203">
          <g id="Group_202" data-name="Group 202" clip-path="url(#clip-path-2)">
            <path id="Path_402" data-name="Path 402" d="M346.212,86.335a3.442,3.442,0,0,0-.732-1.649l-.672-.636a3.482,3.482,0,0,0-1.649-.625,3.845,3.845,0,0,0-2.531.751,3.835,3.835,0,0,0-1.261,2.321l.019.883a3.458,3.458,0,0,0,.729,1.649l.674.635a3.44,3.44,0,0,0,1.649.625,3.548,3.548,0,0,0,3.793-3.071Z" transform="translate(-339.367 -83.398)" fill="#fff"/>
          </g>
        </g>
      </g>
      <g id="Group_207" data-name="Group 207" transform="translate(2214.212 2771.335)" opacity="0.43">
        <g id="Group_206" data-name="Group 206">
          <g id="Group_205" data-name="Group 205" clip-path="url(#clip-path-3)">
            <path id="Path_403" data-name="Path 403" d="M316.664,82.81a4.048,4.048,0,0,0-4.321,3.5c-.205,1.942,1.365,4.323,3.5,4.323a4.05,4.05,0,0,0,4.321-3.5c.205-1.942-1.365-4.323-3.5-4.323" transform="translate(-312.324 -82.81)" fill="#fff"/>
          </g>
        </g>
      </g>
      <g id="Group_210" data-name="Group 210" transform="translate(2225.532 2776.488)" opacity="0.43">
        <g id="Group_209" data-name="Group 209">
          <g id="Group_208" data-name="Group 208" clip-path="url(#clip-path-4)">
            <path id="Path_404" data-name="Path 404" d="M329.883,86.577a6.041,6.041,0,0,0-.732-.05,8.495,8.495,0,0,0-5.772,1.713,8,8,0,0,0-2.873,5.291c-.24,3.885,2.606,8.641,7,8.641a8.5,8.5,0,0,0,5.771-1.709q.247-.2.484-.432c-.74-4.651-1.646-9.308-3.879-13.455" transform="translate(-320.492 -86.528)" fill="#fff"/>
          </g>
        </g>
      </g>
    </g>
  </g>
</svg>
