<svg xmlns="http://www.w3.org/2000/svg" xmlns:xlink="http://www.w3.org/1999/xlink" width="419.119" height="502.194" viewBox="0 0 419.119 502.194">
  <defs>
    <linearGradient id="linear-gradient" x1="0.5" y1="0.133" x2="0.89" y2="0.5" gradientUnits="objectBoundingBox">
      <stop offset="0" stop-color="#c4d143"/>
      <stop offset="1" stop-color="#7c8a1a"/>
    </linearGradient>
    <linearGradient id="linear-gradient-2" x1="1.148" y1="0.346" x2="0.5" y2="0.135" gradientUnits="objectBoundingBox">
      <stop offset="0" stop-color="#7c8a1a" stop-opacity="0"/>
      <stop offset="0.315" stop-color="#768319" stop-opacity="0.314"/>
      <stop offset="0.781" stop-color="#646f15" stop-opacity="0.78"/>
      <stop offset="1" stop-color="#5a6313"/>
    </linearGradient>
    <linearGradient id="linear-gradient-3" x1="0.423" y1="0.116" x2="0.658" y2="0.705" xlink:href="#linear-gradient"/>
    <linearGradient id="linear-gradient-4" x1="1" y1="1" x2="0.395" y2="0.356" xlink:href="#linear-gradient-2"/>
    <linearGradient id="linear-gradient-5" x1="0.246" y1="0.5" x2="0.5" y2="0.748" xlink:href="#linear-gradient"/>
    <linearGradient id="linear-gradient-6" x1="0.886" y1="0.362" x2="0.613" y2="0.084" xlink:href="#linear-gradient-2"/>
    <linearGradient id="linear-gradient-7" x1="0.586" y1="0.529" x2="0.427" y2="0.699" gradientUnits="objectBoundingBox">
      <stop offset="0" stop-color="#5a6313" stop-opacity="0"/>
      <stop offset="1" stop-color="#544f43"/>
    </linearGradient>
    <linearGradient id="linear-gradient-8" x1="0.337" y1="0.293" x2="0.642" y2="0.731" gradientUnits="objectBoundingBox">
      <stop offset="0" stop-color="#dd3b32"/>
      <stop offset="0.279" stop-color="#ff4f46"/>
      <stop offset="0.775" stop-color="#ff5b52"/>
      <stop offset="1" stop-color="#dd3b32"/>
    </linearGradient>
    <linearGradient id="linear-gradient-9" x1="-0.051" x2="1" y2="1" gradientUnits="objectBoundingBox">
      <stop offset="0" stop-color="#d30e03" stop-opacity="0"/>
      <stop offset="0.513" stop-color="#d5362e"/>
      <stop offset="1" stop-color="#c9251c"/>
    </linearGradient>
    <clipPath id="clip-path">
      <rect id="Rectangle_52" data-name="Rectangle 52" width="114.3" height="175.04" fill="none"/>
    </clipPath>
    <clipPath id="clip-path-2">
      <rect id="Rectangle_51" data-name="Rectangle 51" width="114.301" height="175.04" fill="none"/>
    </clipPath>
    <clipPath id="clip-path-3">
      <rect id="Rectangle_47" data-name="Rectangle 47" width="8.374" height="8.444" fill="none"/>
    </clipPath>
    <clipPath id="clip-path-4">
      <rect id="Rectangle_48" data-name="Rectangle 48" width="8.475" height="8.544" fill="none"/>
    </clipPath>
    <clipPath id="clip-path-5">
      <rect id="Rectangle_49" data-name="Rectangle 49" width="19.292" height="19.451" fill="none"/>
    </clipPath>
    <clipPath id="clip-path-6">
      <rect id="Rectangle_50" data-name="Rectangle 50" width="18.083" height="18.049" fill="none"/>
    </clipPath>
  </defs>
  <g id="Group_251" data-name="Group 251" transform="translate(-2660.881 -1891.282)">
    <g id="Group_159" data-name="Group 159" transform="translate(2668.274 1932.61)">
      <g id="Group_3" data-name="Group 3" transform="translate(92.802 18.709) rotate(-45)">
        <g id="Group_1" data-name="Group 1" transform="translate(0 0)">
          <path id="Path_1" data-name="Path 1" d="M24.367,41.36C11.892,68.752-2.74,120.169.441,145.641a2.885,2.885,0,0,0,4.71,2.132C26.48,133.4,55.75,88.6,68.225,61.212s6.148-32.978,2.967-58.451A2.885,2.885,0,0,0,66.482.629C45.153,15.008,36.842,13.967,24.367,41.36Z" fill="url(#linear-gradient)"/>
          <path id="Path_2" data-name="Path 2" d="M3.02,147.538C24.35,133.16,53.62,88.369,66.094,60.977S72.242,28,69.061,2.526A3.06,3.06,0,0,0,67.371,0L0,147.931a3.075,3.075,0,0,0,3.02-.393Z" transform="translate(2.131 0.235)" fill="url(#linear-gradient-2)"/>
        </g>
        <g id="Group_2" data-name="Group 2" transform="translate(6.22 79.045)">
          <path id="Path_3" data-name="Path 3" d="M87.1,7.471C59.709,19.959,14.933,49.165.622,70.475a2.885,2.885,0,0,0,2.156,4.7c25.53,3.143,77.007-11.458,104.393-23.946s26.276-20.855,40.588-42.166a2.885,2.885,0,0,0-2.156-4.7C120.071,1.222,114.482-5.017,87.1,7.471Z" fill="url(#linear-gradient-3)"/>
          <path id="Path_4" data-name="Path 4" d="M2.537,69.126C28.067,72.269,79.544,57.668,106.93,45.18s26.276-20.855,40.587-42.166A3.059,3.059,0,0,0,147.9,0L0,67.442A3.078,3.078,0,0,0,2.537,69.126Z" transform="translate(0.24 6.048)" fill="url(#linear-gradient-4)"/>
        </g>
      </g>
      <g id="Group_4" data-name="Group 4" transform="translate(119.755 40.968) rotate(-45)">
        <path id="Path_5" data-name="Path 5" d="M58.923,23.583C37.673,44.9,6.017,87.978.108,112.958a2.885,2.885,0,0,0,3.67,3.641C28.784,110.57,71.846,78.81,93.1,57.494s17.271-28.759,23.18-53.74a2.885,2.885,0,0,0-3.67-3.641C87.6,6.143,80.174,2.267,58.923,23.583Z" fill="url(#linear-gradient-5)"/>
        <path id="Path_6" data-name="Path 6" d="M2.968,115.8C27.973,109.772,71.035,78.012,92.286,56.7s17.271-28.759,23.18-53.74a3.062,3.062,0,0,0-.7-2.956L0,115.117A3.078,3.078,0,0,0,2.968,115.8Z" transform="translate(0.81 0.798)" fill="url(#linear-gradient-6)"/>
      </g>
      <path id="Path_7" data-name="Path 7" d="M11.012,0C3.68,24.476-1.6,51.438.441,67.756a2.862,2.862,0,0,0,2.907,2.753,2.762,2.762,0,0,0,2.875,3.114A2.893,2.893,0,0,0,9,76.333c16.34,2.012,43.3-3.248,67.781-10.568Z" transform="translate(147.876 73.781) rotate(-45)" fill="url(#linear-gradient-7)"/>
      <path id="Path_15" data-name="Path 15" d="M250.2,169.419C179.528,240.089,41.957,322.477,7.921,288.441S56.272,116.834,126.943,46.164s102.863-47.679,136.9-13.643,57.028,66.227-13.643,136.9Z" transform="translate(-7.393 251.307) rotate(-45)" fill="url(#linear-gradient-8)"/>
      <path id="Path_9" data-name="Path 9" d="M2.839.5A89.857,89.857,0,0,1,15.266,6.188c2.466,1.34,5.045,2.91,7.7,4.659,2.63,1.786,5.373,3.722,8.028,5.912a104.555,104.555,0,0,1,7.917,7.063c2.56,2.544,5.03,5.249,7.355,8.076q1.737,2.125,3.343,4.346c1.119,1.44,2.088,2.985,3.078,4.492,1.023,1.484,1.893,3.06,2.774,4.6.906,1.519,1.668,3.111,2.441,4.655a81.851,81.851,0,0,1,3.814,9.262c.548,1.5.952,3.026,1.371,4.48s.759,2.888,1.037,4.288a74.9,74.9,0,0,1,1.216,7.709c.2,2.348.282,4.421.324,6.126-.023,1.73-1.652,2.414-2.234.973l-2.36-5.064c-.992-1.909-1.986-4.112-3.277-6.4-.612-1.162-1.228-2.382-1.969-3.586C55.1,66.561,54.463,65.249,53.634,64,52.1,61.419,50.4,58.761,48.6,56.044c-.962-1.321-1.8-2.75-2.816-4.093s-1.945-2.76-2.989-4.121c-1.017-1.379-2.071-2.746-3.137-4.114-1.042-1.386-2.142-2.738-3.261-4.074-2.158-2.735-4.483-5.341-6.716-7.953l-3.416-3.8L22.871,24.22c-4.48-4.789-8.786-9.168-12.529-12.892L1.4,2.5C-.913.219-.307-.636,2.839.5Z" transform="translate(185.553 198.524) rotate(-45)" fill="url(#linear-gradient-9)"/>
      <path id="Path_10" data-name="Path 10" d="M2.561.08A86.918,86.918,0,0,1,15.109,2.565c2.544.682,5.246,1.543,8.067,2.548,2.8,1.043,5.746,2.2,8.678,3.593,2.962,1.357,5.929,2.928,8.874,4.639,2.936,1.731,5.834,3.624,8.635,5.656q2.1,1.53,4.1,3.172c1.369,1.048,2.63,2.221,3.9,3.356,1.295,1.107,2.478,2.329,3.66,3.514,1.2,1.163,2.291,2.422,3.379,3.634a81.206,81.206,0,0,1,5.8,7.45c.876,1.218,1.633,2.5,2.384,3.7s1.427,2.414,2.038,3.6a72.263,72.263,0,0,1,3.089,6.616c.79,2.052,1.4,3.882,1.885,5.393.431,1.548-.839,2.5-1.732,1.337l-3.417-4.021c-1.379-1.494-2.836-3.25-4.58-5.02-.846-.908-1.711-1.866-2.684-2.784s-1.87-1.966-2.933-2.909c-2.03-1.977-4.236-3.989-6.546-6.033-1.2-.976-2.319-2.073-3.568-3.058S51.69,34.9,50.409,33.908c-1.263-1.015-2.555-2.014-3.86-3.01-1.287-1.017-2.616-1.991-3.959-2.949-2.63-1.987-5.376-3.823-8.041-5.683L30.52,19.592l-3.97-2.559c-5.23-3.332-10.2-6.335-14.5-8.873l-10.257-6C-.86.607-.539-.28,2.561.08Z" transform="translate(118.801 247.532) rotate(-45)" fill="url(#linear-gradient-9)"/>
      <path id="Path_11" data-name="Path 11" d="M2.561.08A86.916,86.916,0,0,1,15.109,2.565c2.544.682,5.246,1.543,8.067,2.548,2.8,1.043,5.747,2.2,8.678,3.593,2.962,1.357,5.929,2.928,8.874,4.639,2.937,1.731,5.834,3.624,8.635,5.656q2.1,1.53,4.1,3.172c1.369,1.048,2.631,2.221,3.9,3.356,1.295,1.106,2.478,2.329,3.66,3.513,1.2,1.163,2.291,2.422,3.379,3.634a81.217,81.217,0,0,1,5.8,7.45c.876,1.218,1.633,2.5,2.384,3.7s1.427,2.414,2.037,3.6a72.257,72.257,0,0,1,3.089,6.616c.79,2.052,1.4,3.882,1.885,5.393.431,1.548-.839,2.5-1.732,1.337l-3.417-4.021c-1.379-1.494-2.837-3.25-4.58-5.02-.847-.908-1.711-1.866-2.684-2.784s-1.87-1.966-2.932-2.909c-2.03-1.977-4.236-3.989-6.546-6.033-1.2-.976-2.319-2.073-3.568-3.058S51.69,34.9,50.408,33.907c-1.263-1.015-2.556-2.014-3.86-3.01-1.287-1.017-2.617-1.991-3.96-2.949-2.63-1.987-5.376-3.823-8.041-5.684L30.52,19.59l-3.97-2.559c-5.23-3.332-10.2-6.335-14.5-8.873l-10.257-6C-.86.607-.54-.28,2.561.08Z" transform="translate(119.244 148.173) rotate(-45)" fill="url(#linear-gradient-9)"/>
      <path id="Path_12" data-name="Path 12" d="M2.4.5a84.724,84.724,0,0,1,10.8,5.29c2.154,1.232,4.415,2.663,6.754,4.252,2.317,1.618,4.736,3.369,7.1,5.336,2.4,1.938,4.756,4.069,7.068,6.32,2.3,2.267,4.535,4.669,6.656,7.173q1.585,1.882,3.066,3.842c1.025,1.273,1.931,2.631,2.852,3.959.947,1.308,1.773,2.692,2.6,4.041.852,1.335,1.587,2.73,2.329,4.083a80.527,80.527,0,0,1,3.763,8.1c.551,1.307.983,2.637,1.424,3.905s.814,2.515,1.132,3.732c.7,2.395,1.111,4.689,1.494,6.7.313,2.036.509,3.831.65,5.308.088,1.5-1.236,2.047-1.813.785l-2.291-4.444c-.949-1.678-1.919-3.609-3.142-5.624-.584-1.022-1.176-2.092-1.871-3.153s-1.3-2.221-2.071-3.326c-1.44-2.27-3.031-4.612-4.71-7.008-.887-1.168-1.681-2.425-2.612-3.613s-1.8-2.438-2.759-3.642c-.938-1.219-1.9-2.429-2.884-3.641-.959-1.226-1.964-2.424-2.985-3.61-1.977-2.422-4.087-4.739-6.121-7.057l-3.1-3.381-3.07-3.263c-4.053-4.264-7.937-8.169-11.308-11.494L1.3,2.177C-.783.138-.321-.58,2.4.5Z" transform="translate(185.553 281.513) rotate(-45)" fill="url(#linear-gradient-9)"/>
      <path id="Path_13" data-name="Path 13" d="M2.219.138A82.571,82.571,0,0,1,13.232,2.878c2.237.706,4.619,1.571,7.106,2.564,2.474,1.024,5.073,2.147,7.669,3.477,2.621,1.3,5.254,2.774,7.873,4.369,2.612,1.611,5.2,3.358,7.7,5.216q1.874,1.4,3.673,2.888c1.226.955,2.364,2.01,3.509,3.035,1.164,1,2.235,2.094,3.3,3.156,1.084,1.045,2.077,2.165,3.066,3.245a79.944,79.944,0,0,1,5.308,6.6c.806,1.076,1.511,2.2,2.208,3.258s1.33,2.118,1.9,3.157c1.2,2.032,2.113,4.028,2.934,5.769.765,1.782,1.367,3.368,1.844,4.676.434,1.337-.63,2.088-1.45,1.055l-3.12-3.583c-1.254-1.337-2.586-2.9-4.167-4.487-.769-.813-1.557-1.668-2.435-2.5s-1.7-1.76-2.656-2.612c-1.837-1.778-3.826-3.592-5.909-5.44-1.077-.887-2.091-1.873-3.212-2.769s-2.2-1.861-3.351-2.767c-1.135-.924-2.293-1.834-3.463-2.743-1.155-.925-2.346-1.818-3.547-2.7-2.357-1.815-4.81-3.507-7.194-5.216l-3.6-2.468L23.69,15.7c-4.668-3.085-9.1-5.878-12.931-8.244l-9.141-5.6C-.747.41-.5-.325,2.219.138Z" transform="translate(133.534 332.931) rotate(-45)" fill="url(#linear-gradient-9)"/>
      <path id="Path_14" data-name="Path 14" d="M2.083.333a80.845,80.845,0,0,1,9.985,3.976c2.015.944,4.148,2.055,6.37,3.3,2.207,1.269,4.518,2.646,6.811,4.211,2.318,1.539,4.631,3.246,6.92,5.06s4.525,3.775,6.686,5.816q1.616,1.535,3.155,3.143C43.063,26.877,44.026,28,45,29.093c.993,1.075,1.89,2.224,2.79,3.342s1.738,2.267,2.562,3.394a79.371,79.371,0,0,1,4.352,6.78c.655,1.1,1.212,2.224,1.767,3.294s1.051,2.128,1.494,3.162c.934,2.031,1.613,3.993,2.224,5.708.556,1.745.979,3.288,1.309,4.559.288,1.292-.762,1.847-1.434.787L57.479,56.4c-1.048-1.4-2.148-3.014-3.478-4.686-.643-.85-1.3-1.743-2.043-2.621s-1.422-1.846-2.237-2.757c-1.55-1.88-3.238-3.815-5.009-5.792-.922-.959-1.777-2-2.739-2.975s-1.88-2-2.868-2.991c-.972-1-1.968-1.992-2.975-2.983s-2.018-1.984-3.056-2.951c-2.029-1.982-4.158-3.864-6.221-5.753L23.73,20.148,20.648,17.5c-4.063-3.457-7.931-6.614-11.281-9.3l-8-6.365C-.7.192-.4-.452,2.083.333Z" transform="translate(173.838 369.633) rotate(-45)" fill="url(#linear-gradient-9)"/>
    </g>
    <g id="Group_186" data-name="Group 186" transform="translate(2813.29 2045.218)">
      <g id="Group_185" data-name="Group 185" clip-path="url(#clip-path)">
        <g id="Group_184" data-name="Group 184" transform="translate(0 0)">
          <g id="Group_183" data-name="Group 183" clip-path="url(#clip-path-2)">
            <path id="Path_287" data-name="Path 287" d="M53.93,104.2c1.8-2.251,1.8-14.177,1.8-14.177a124,124,0,0,1-13.055,1.125s-1.575,10.8.676,13.053,8.778,2.251,10.579,0" transform="translate(16.225 34.661)" fill="#fff"/>
            <path id="Path_288" data-name="Path 288" d="M33.479,105.963c2.474.9,10.352.45,11.476-1.8s0-12.828,0-12.828a57.829,57.829,0,0,1-14.177-1.8c-1.126,5.626.226,15.528,2.7,16.428" transform="translate(11.696 34.474)" fill="#fff"/>
            <path id="Path_289" data-name="Path 289" d="M44.043,110.131c-8.1-5.85-15.976,6.076-15.976,6.076,1.8,2.476,15.528,5.852,23.627,6.528s10.353-2.7,10.353-2.7c-8.328-16.877-18-9.9-18-9.9" transform="translate(10.807 41.782)" fill="#ffa4a7"/>
            <path id="Path_290" data-name="Path 290" d="M56.3,39.461C52.563,26.91,44.542,19.479,34.1,21.219,16.372,24.173,4.972,34.3,4.972,56.683s12,40.532,26.811,40.532c9.947,0,18.626-8.191,23.253-20.356a62.858,62.858,0,0,1-2.1-16.284A61.907,61.907,0,0,1,56.3,39.461m-14.764,49.1a3.559,3.559,0,0,0-1.712-.432,3.733,3.733,0,0,0-3.694,3.694,4.028,4.028,0,0,0,.3,1.373,8.886,8.886,0,0,1-11.845-8.382v-.125c.377.291.752.582,1.13.871a6.5,6.5,0,0,0,3.3.893h.161a4.933,4.933,0,0,0,2.519-.562A4.9,4.9,0,0,0,33.8,84.537a4.887,4.887,0,0,0,1.353-2.107,4.956,4.956,0,0,0,.565-2.521q-.121-.868-.235-1.741A6.542,6.542,0,0,0,34.4,75.975a8.892,8.892,0,0,1,7.129,12.587" transform="translate(1.914 8.073)" fill="#fff"/>
            <path id="Path_291" data-name="Path 291" d="M67.69,99.327C82.5,99.327,94.5,81.18,94.5,58.795S83.1,26.287,65.368,23.33C50.765,20.9,40.881,36.411,40.881,58.795s12,40.532,26.809,40.532M58.917,86.979c.377.289.752.582,1.127.871a6.5,6.5,0,0,0,3.3.893h.158a4.921,4.921,0,0,0,2.522-.564,5.889,5.889,0,0,0,3.458-3.458,4.914,4.914,0,0,0,.565-2.522q-.116-.87-.234-1.74a6.594,6.594,0,0,0-1.083-2.2,8.889,8.889,0,0,1,7.13,12.587,3.589,3.589,0,0,0-1.715-.431,3.736,3.736,0,0,0-3.7,3.694,4.057,4.057,0,0,0,.307,1.373A8.89,8.89,0,0,1,58.914,87.1c0-.042,0-.083,0-.125" transform="translate(15.741 8.886)" fill="#fff"/>
            <path id="Path_292" data-name="Path 292" d="M31.479,83.841c-13.949,0-25.317-16.684-25.854-37.573-.01.45-.021.9-.021,1.357,0,21.6,11.584,39.116,25.875,39.116,9.6,0,17.978-7.906,22.443-19.645q-.237-.875-.446-1.773c-4.564,11.116-12.708,18.518-22,18.518" transform="translate(2.158 17.815)" fill="#d1d1d1"/>
            <path id="Path_293" data-name="Path 293" d="M67.343,85.718c-13.814,0-25.066-16.569-25.54-37.281q-.019.748-.019,1.5c0,21.343,11.443,38.642,25.559,38.642S92.9,71.282,92.9,49.938c0-.452-.012-.893-.021-1.337-.53,20.633-11.76,37.116-25.539,37.116" transform="translate(16.088 18.65)" fill="#d1d1d1"/>
            <path id="Path_294" data-name="Path 294" d="M45.021,101.223c-1.536-1.535-1.289-7.058-.978-10.407-.474.017-.932.025-1.367.025,0,0-1.575,10.8.676,13.053s8.777,2.251,10.579,0a5.339,5.339,0,0,0,.777-1.927c-2.488,1.471-7.72,1.223-9.687-.744" transform="translate(16.225 34.967)" fill="#d1d1d1"/>
            <path id="Path_295" data-name="Path 295" d="M35.146,103.293c-2.076-.756-3.361-7.855-3.054-13.442-.83-.188-1.314-.317-1.314-.317-1.125,5.627.226,15.528,2.7,16.429s10.353.45,11.478-1.8a5.163,5.163,0,0,0,.373-1.578c-2.634,1.28-8.177,1.435-10.183.708" transform="translate(11.696 34.473)" fill="#d1d1d1"/>
            <path id="Path_296" data-name="Path 296" d="M54.6,110.2c-3.458.817-7.122,1.384-10.062-.554-3.174,1.053-6.526,1.409-9.572-.259a22.279,22.279,0,0,0-6.9,6.489c1.8,2.476,15.528,5.852,23.629,6.528s10.352-2.7,10.352-2.7c-2.458-4.985-5.035-7.884-7.446-9.5" transform="translate(10.807 42.116)" fill="#ff7075"/>
            <path id="Path_297" data-name="Path 297" d="M51.4,115.143a14.033,14.033,0,0,1-8.152-2.861,9.983,9.983,0,0,1-4.96,1,8.51,8.51,0,0,1-5.6-2.8,24.187,24.187,0,0,0-4.618,4.975c1.8,2.476,15.528,5.852,23.629,6.528s10.352-2.7,10.352-2.7a32.355,32.355,0,0,0-3.627-5.863,16.729,16.729,0,0,1-7.022,1.729" transform="translate(10.807 42.537)" fill="#ff5258"/>
            <path id="Path_298" data-name="Path 298" d="M43.4,40.6c-.139-.529-.287-1.05-.438-1.562A61.87,61.87,0,0,0,39.6,60.149a62.749,62.749,0,0,0,2.1,16.285q.463-1.215.871-2.483c.4,1.237.813,2.467,1.22,3.7-.292.841-.609,1.681-.943,2.518,4.774,13.784,14.325,23.19,25.331,23.19a20.105,20.105,0,0,0,8.771-2.075c2.9-1.413,5.026-3.681,7.741-5.313,2.839-1.7,7.156-1.633,9.533.766a8.156,8.156,0,0,0-2.885-3.05,3.917,3.917,0,0,0-.593-.266c-.652-.227-3.816-.655-4.242-.115,6.266-7.927,10.255-19.836,10.255-33.156,0-23.863-12.152-34.656-31.057-37.807-9.7-1.616-17.446,4.2-21.907,14.58.219.609.428,1.229.623,1.866A13.28,13.28,0,0,0,43.4,40.6M65.86,23.718C83.593,26.674,94.992,36.8,94.992,59.183s-12,40.53-26.809,40.53-26.81-18.145-26.81-40.53,9.884-37.9,24.487-35.465" transform="translate(15.248 8.499)" fill="#222"/>
            <path id="Path_299" data-name="Path 299" d="M15.857,93.824c-4.709-1.083-8.735,1.587-11.957,4.77a.064.064,0,0,0,.08.1c3.619-2.7,8.19-4.15,12.562-2.439,2,.783,3.94,1.753,5.881,2.679,3.882,1.85,6.95,2.914,11.323,2.58a21.1,21.1,0,0,0,9.867-3.478c6.127-4,10.349-10.438,13.064-17.18q-.629-1.818-1.147-3.735C50.9,89.285,42.223,97.476,32.276,97.476c-14.807,0-26.81-18.147-26.81-40.532s11.4-32.509,29.13-35.464c10.438-1.74,18.46,5.691,22.191,18.242q.4-1.087.839-2.114C53.372,25.69,45.2,18.813,34.751,20.556,15.848,23.7,3.694,34.5,3.694,58.361c0,14.7,4.859,27.685,12.28,35.49-.04-.008-.079-.019-.116-.028" transform="translate(1.422 7.811)" fill="#222"/>
            <path id="Path_300" data-name="Path 300" d="M42.466,36.472a13.15,13.15,0,0,1,1.024-1.813c-.2-.637-.406-1.255-.623-1.866q-.445,1.026-.838,2.115c.151.512.3,1.033.438,1.564" transform="translate(16.182 12.626)" fill="#222"/>
            <path id="Path_301" data-name="Path 301" d="M41.99,59.529c-.27.843-.562,1.672-.87,2.482q.515,1.916,1.147,3.734c.335-.835.652-1.676.943-2.517-.407-1.233-.819-2.464-1.22-3.7" transform="translate(15.833 22.921)" fill="#222"/>
            <path id="Path_302" data-name="Path 302" d="M62.792,80.653a8.872,8.872,0,0,0,2.958-.507,4.064,4.064,0,0,1-.307-1.373,3.736,3.736,0,0,1,3.7-3.694,3.584,3.584,0,0,1,1.713.431,8.889,8.889,0,0,0-7.13-12.587,6.548,6.548,0,0,1,1.083,2.2c.078.582.157,1.161.235,1.741a4.906,4.906,0,0,1-.565,2.521,5.893,5.893,0,0,1-3.46,3.46A4.913,4.913,0,0,1,58.5,73.4h-.159a6.5,6.5,0,0,1-3.3-.893c-.377-.289-.752-.582-1.129-.871,0,.042,0,.083,0,.125a8.89,8.89,0,0,0,8.891,8.889" transform="translate(20.754 24.227)" fill="#222"/>
            <path id="Path_303" data-name="Path 303" d="M28.95,60.683a6.558,6.558,0,0,1,1.084,2.194q.116.873.234,1.741a4.949,4.949,0,0,1-.564,2.522,4.886,4.886,0,0,1-1.355,2.105A4.894,4.894,0,0,1,26.246,70.6a4.924,4.924,0,0,1-2.521.562h-.161a6.489,6.489,0,0,1-3.3-.893q-.565-.434-1.129-.871c0,.042,0,.083,0,.125a8.888,8.888,0,0,0,11.846,8.384,4.077,4.077,0,0,1-.3-1.374,3.735,3.735,0,0,1,3.694-3.694,3.555,3.555,0,0,1,1.712.432A8.892,8.892,0,0,0,28.95,60.683" transform="translate(7.366 23.365)" fill="#222"/>
            <path id="Path_304" data-name="Path 304" d="M64.046,18.763c8.1-2.025,23.629,12.152,23.629,12.152S70.122,4.362,64.046,3.91s-9,13.053-17.777,19.579c-.452,4.951,9.676-2.7,17.777-4.726" transform="translate(17.809 1.501)" fill="#222"/>
            <path id="Path_305" data-name="Path 305" d="M33.488,14.864c8.1,2.025,18.227,9.677,17.776,4.726C42.491,13.064,39.564-.439,33.488.011s-23.63,27-23.63,27,15.528-14.177,23.63-12.151" transform="translate(3.796 0)" fill="#222"/>
            <path id="Path_306" data-name="Path 306" d="M100.824,78.181S80.8,91.909,58.968,92.584s-43.883-11.478-46.584-11.7-7.877,5.4-7.877,5.4c8.1-4.729,11.7,1.8,11.7,1.8s6.526,33.756,20.928,42.309c6.348,3.769,28.357,9.45,36.008,3.6S88.223,90.784,88.223,90.784s10.577-9,12.828-9.454,6.3,2.252,6.3,2.252c-2.7-6.528-6.528-5.4-6.528-5.4M57.166,95.734A123.847,123.847,0,0,0,70.22,94.608s0,11.928-1.8,14.179-8.325,2.251-10.577,0-.676-13.053-.676-13.053m-16.426-1.8a57.871,57.871,0,0,0,14.177,1.8s1.126,10.576,0,12.827-9,2.7-11.476,1.8-3.827-10.8-2.7-16.428m20.028,40.508c-8.1-.675-21.828-4.051-23.629-6.528,0,0,7.877-11.925,15.978-6.076,0,0,9.674-6.975,18,9.9,0,0-2.251,3.375-10.353,2.7" transform="translate(1.735 30.074)" fill="#222"/>
            <path id="Path_307" data-name="Path 307" d="M57.058,128.313a11.176,11.176,0,0,0,5.029-3.544,13.9,13.9,0,0,0,3.245-5.213.111.111,0,0,0-.206-.079,9.285,9.285,0,0,1-3.942,4.666,28.026,28.026,0,0,1-5.436,2.029,38.448,38.448,0,0,1-14.7,1c-.122-.015-.139.17-.019.188,5.36.878,10.636,2.742,16.026.949" transform="translate(15.767 45.976)" fill="#222"/>
            <path id="Path_308" data-name="Path 308" d="M79.933,88.488a.351.351,0,0,0,.249.548c1.543.133,2.647-1.22,3.108-2.554.687-1.99-.158-3.792-.661-5.688a.135.135,0,0,0-.266.042,11.612,11.612,0,0,1-.561,4.738,11.178,11.178,0,0,1-1.87,2.914" transform="translate(30.752 31.067)" fill="#222"/>
            <path id="Path_309" data-name="Path 309" d="M4.766,92.118a.448.448,0,0,0,.168-.684C4.062,90.546,2.85,90.15,2,89.2a3.84,3.84,0,0,1-.723-4.526c.042-.08-.087-.147-.139-.075a5.669,5.669,0,0,0-.832,5.155c.609,1.542,2.748,3.324,4.457,2.36" transform="translate(0 32.563)" fill="#222"/>
            <g id="Group_173" data-name="Group 173" transform="translate(36.959 94.317)" opacity="0.43">
              <g id="Group_172" data-name="Group 172">
                <g id="Group_171" data-name="Group 171" clip-path="url(#clip-path-3)">
                  <path id="Path_310" data-name="Path 310" d="M35.036,71.684a4.18,4.18,0,0,0-.892-2.014l-.82-.776a4.217,4.217,0,0,0-2.011-.762,3.129,3.129,0,0,0-1.6.176A3.8,3.8,0,0,0,27.19,70.35a3.147,3.147,0,0,0-.506,1.53c.008.357.017.717.024,1.076a4.205,4.205,0,0,0,.892,2.014l.823.776a4.172,4.172,0,0,0,2.008.76,3.136,3.136,0,0,0,1.6-.176,3.812,3.812,0,0,0,2.521-2.04,3.15,3.15,0,0,0,.5-1.53q-.01-.538-.024-1.076" transform="translate(-26.685 -68.097)" fill="#fff"/>
                </g>
              </g>
            </g>
            <g id="Group_176" data-name="Group 176" transform="translate(85.207 97.565)" opacity="0.43">
              <g id="Group_175" data-name="Group 175">
                <g id="Group_174" data-name="Group 174" clip-path="url(#clip-path-4)">
                  <path id="Path_311" data-name="Path 311" d="M69.97,74.072a4.281,4.281,0,0,0-.9-2.039c-.277-.26-.554-.524-.831-.783a4.274,4.274,0,0,0-2.035-.773,4.727,4.727,0,0,0-3.126.925,3.241,3.241,0,0,0-1.047,1.319,3.205,3.205,0,0,0-.511,1.55l.026,1.089a4.218,4.218,0,0,0,.9,2.036l.831.785a4.269,4.269,0,0,0,2.036.773,4.729,4.729,0,0,0,3.126-.928A4.756,4.756,0,0,0,70,75.16Z" transform="translate(-61.52 -70.442)" fill="#fff"/>
                </g>
              </g>
            </g>
            <g id="Group_179" data-name="Group 179" transform="translate(69.668 81.981)" opacity="0.43">
              <g id="Group_178" data-name="Group 178">
                <g id="Group_177" data-name="Group 177" clip-path="url(#clip-path-5)">
                  <path id="Path_312" data-name="Path 312" d="M69.537,67.449a9.673,9.673,0,0,0-2.053-4.638l-1.892-1.784a9.7,9.7,0,0,0-4.632-1.758,7.277,7.277,0,0,0-3.688.406,8.77,8.77,0,0,0-5.809,4.7A7.25,7.25,0,0,0,50.3,67.9q.027,1.238.055,2.479a9.661,9.661,0,0,0,2.053,4.638L54.3,76.807a9.689,9.689,0,0,0,4.633,1.755,7.241,7.241,0,0,0,3.687-.406,8.777,8.777,0,0,0,5.81-4.7,7.267,7.267,0,0,0,1.162-3.522c-.019-.828-.037-1.654-.055-2.482" transform="translate(-50.301 -59.191)" fill="#fff"/>
                </g>
              </g>
            </g>
            <g id="Group_182" data-name="Group 182" transform="translate(21.739 79.385)" opacity="0.43">
              <g id="Group_181" data-name="Group 181">
                <g id="Group_180" data-name="Group 180" clip-path="url(#clip-path-6)">
                  <path id="Path_313" data-name="Path 313" d="M25.684,57.316a9.8,9.8,0,0,0-6.658,1.972,9.234,9.234,0,0,0-3.314,6.1c-.278,4.483,3.008,9.972,8.078,9.972a9.808,9.808,0,0,0,6.658-1.972,9.243,9.243,0,0,0,3.314-6.1c.277-4.485-3.007-9.972-8.078-9.972" transform="translate(-15.696 -57.316)" fill="#fff"/>
                </g>
              </g>
            </g>
          </g>
        </g>
      </g>
    </g>
  </g>
</svg>
