<svg xmlns="http://www.w3.org/2000/svg" xmlns:xlink="http://www.w3.org/1999/xlink" width="419.119" height="502.194" viewBox="0 0 419.119 502.194">
  <defs>
    <linearGradient id="linear-gradient" x1="0.5" y1="0.133" x2="0.89" y2="0.5" gradientUnits="objectBoundingBox">
      <stop offset="0" stop-color="#c4d143"/>
      <stop offset="1" stop-color="#7c8a1a"/>
    </linearGradient>
    <linearGradient id="linear-gradient-2" x1="1.148" y1="0.346" x2="0.5" y2="0.135" gradientUnits="objectBoundingBox">
      <stop offset="0" stop-color="#7c8a1a" stop-opacity="0"/>
      <stop offset="0.315" stop-color="#768319" stop-opacity="0.314"/>
      <stop offset="0.781" stop-color="#646f15" stop-opacity="0.78"/>
      <stop offset="1" stop-color="#5a6313"/>
    </linearGradient>
    <linearGradient id="linear-gradient-3" x1="0.423" y1="0.116" x2="0.658" y2="0.705" xlink:href="#linear-gradient"/>
    <linearGradient id="linear-gradient-4" x1="1" y1="1" x2="0.395" y2="0.356" xlink:href="#linear-gradient-2"/>
    <linearGradient id="linear-gradient-5" x1="0.246" y1="0.5" x2="0.5" y2="0.748" xlink:href="#linear-gradient"/>
    <linearGradient id="linear-gradient-6" x1="0.886" y1="0.362" x2="0.613" y2="0.084" xlink:href="#linear-gradient-2"/>
    <linearGradient id="linear-gradient-7" x1="0.586" y1="0.529" x2="0.427" y2="0.699" gradientUnits="objectBoundingBox">
      <stop offset="0" stop-color="#5a6313" stop-opacity="0"/>
      <stop offset="1" stop-color="#544f43"/>
    </linearGradient>
    <linearGradient id="linear-gradient-8" x1="0.337" y1="0.293" x2="0.642" y2="0.731" gradientUnits="objectBoundingBox">
      <stop offset="0" stop-color="#dd3b32"/>
      <stop offset="0.279" stop-color="#ff4f46"/>
      <stop offset="0.775" stop-color="#ff5b52"/>
      <stop offset="1" stop-color="#dd3b32"/>
    </linearGradient>
    <linearGradient id="linear-gradient-9" x1="-0.051" x2="1" y2="1" gradientUnits="objectBoundingBox">
      <stop offset="0" stop-color="#d30e03" stop-opacity="0"/>
      <stop offset="0.513" stop-color="#d5362e"/>
      <stop offset="1" stop-color="#c9251c"/>
    </linearGradient>
    <clipPath id="clip-path">
      <rect id="Rectangle_26" data-name="Rectangle 26" width="124.894" height="158.593" fill="none"/>
    </clipPath>
    <clipPath id="clip-path-3">
      <rect id="Rectangle_23" data-name="Rectangle 23" width="4.636" height="4.615" fill="none"/>
    </clipPath>
    <clipPath id="clip-path-4">
      <rect id="Rectangle_24" data-name="Rectangle 24" width="4.458" height="4.438" fill="none"/>
    </clipPath>
  </defs>
  <g id="Group_113" data-name="Group 113" transform="translate(-2048.212 -1129.282)">
    <g id="Group_100" data-name="Group 100" transform="translate(2055.605 1170.61)">
      <g id="Group_3" data-name="Group 3" transform="translate(92.802 18.709) rotate(-45)">
        <g id="Group_1" data-name="Group 1" transform="translate(0 0)">
          <path id="Path_1" data-name="Path 1" d="M24.367,41.36C11.892,68.752-2.74,120.169.441,145.641a2.885,2.885,0,0,0,4.71,2.132C26.48,133.4,55.75,88.6,68.225,61.212s6.148-32.978,2.967-58.451A2.885,2.885,0,0,0,66.482.629C45.153,15.008,36.842,13.967,24.367,41.36Z" fill="url(#linear-gradient)"/>
          <path id="Path_2" data-name="Path 2" d="M3.02,147.538C24.35,133.16,53.62,88.369,66.094,60.977S72.242,28,69.061,2.526A3.06,3.06,0,0,0,67.371,0L0,147.931a3.075,3.075,0,0,0,3.02-.393Z" transform="translate(2.131 0.235)" fill="url(#linear-gradient-2)"/>
        </g>
        <g id="Group_2" data-name="Group 2" transform="translate(6.22 79.045)">
          <path id="Path_3" data-name="Path 3" d="M87.1,7.471C59.709,19.959,14.933,49.165.622,70.475a2.885,2.885,0,0,0,2.156,4.7c25.53,3.143,77.007-11.458,104.393-23.946s26.276-20.855,40.588-42.166a2.885,2.885,0,0,0-2.156-4.7C120.071,1.222,114.482-5.017,87.1,7.471Z" fill="url(#linear-gradient-3)"/>
          <path id="Path_4" data-name="Path 4" d="M2.537,69.126C28.067,72.269,79.544,57.668,106.93,45.18s26.276-20.855,40.587-42.166A3.059,3.059,0,0,0,147.9,0L0,67.442A3.078,3.078,0,0,0,2.537,69.126Z" transform="translate(0.24 6.048)" fill="url(#linear-gradient-4)"/>
        </g>
      </g>
      <g id="Group_4" data-name="Group 4" transform="translate(119.755 40.968) rotate(-45)">
        <path id="Path_5" data-name="Path 5" d="M58.923,23.583C37.673,44.9,6.017,87.978.108,112.958a2.885,2.885,0,0,0,3.67,3.641C28.784,110.57,71.846,78.81,93.1,57.494s17.271-28.759,23.18-53.74a2.885,2.885,0,0,0-3.67-3.641C87.6,6.143,80.174,2.267,58.923,23.583Z" fill="url(#linear-gradient-5)"/>
        <path id="Path_6" data-name="Path 6" d="M2.968,115.8C27.973,109.772,71.035,78.012,92.286,56.7s17.271-28.759,23.18-53.74a3.062,3.062,0,0,0-.7-2.956L0,115.117A3.078,3.078,0,0,0,2.968,115.8Z" transform="translate(0.81 0.798)" fill="url(#linear-gradient-6)"/>
      </g>
      <path id="Path_7" data-name="Path 7" d="M11.012,0C3.68,24.476-1.6,51.438.441,67.756a2.862,2.862,0,0,0,2.907,2.753,2.762,2.762,0,0,0,2.875,3.114A2.893,2.893,0,0,0,9,76.333c16.34,2.012,43.3-3.248,67.781-10.568Z" transform="translate(147.876 73.781) rotate(-45)" fill="url(#linear-gradient-7)"/>
      <path id="Path_15" data-name="Path 15" d="M250.2,169.419C179.528,240.089,41.957,322.477,7.921,288.441S56.272,116.834,126.943,46.164s102.863-47.679,136.9-13.643,57.028,66.227-13.643,136.9Z" transform="translate(-7.393 251.307) rotate(-45)" fill="url(#linear-gradient-8)"/>
      <path id="Path_9" data-name="Path 9" d="M2.839.5A89.857,89.857,0,0,1,15.266,6.188c2.466,1.34,5.045,2.91,7.7,4.659,2.63,1.786,5.373,3.722,8.028,5.912a104.555,104.555,0,0,1,7.917,7.063c2.56,2.544,5.03,5.249,7.355,8.076q1.737,2.125,3.343,4.346c1.119,1.44,2.088,2.985,3.078,4.492,1.023,1.484,1.893,3.06,2.774,4.6.906,1.519,1.668,3.111,2.441,4.655a81.851,81.851,0,0,1,3.814,9.262c.548,1.5.952,3.026,1.371,4.48s.759,2.888,1.037,4.288a74.9,74.9,0,0,1,1.216,7.709c.2,2.348.282,4.421.324,6.126-.023,1.73-1.652,2.414-2.234.973l-2.36-5.064c-.992-1.909-1.986-4.112-3.277-6.4-.612-1.162-1.228-2.382-1.969-3.586C55.1,66.561,54.463,65.249,53.634,64,52.1,61.419,50.4,58.761,48.6,56.044c-.962-1.321-1.8-2.75-2.816-4.093s-1.945-2.76-2.989-4.121c-1.017-1.379-2.071-2.746-3.137-4.114-1.042-1.386-2.142-2.738-3.261-4.074-2.158-2.735-4.483-5.341-6.716-7.953l-3.416-3.8L22.871,24.22c-4.48-4.789-8.786-9.168-12.529-12.892L1.4,2.5C-.913.219-.307-.636,2.839.5Z" transform="translate(185.553 198.524) rotate(-45)" fill="url(#linear-gradient-9)"/>
      <path id="Path_10" data-name="Path 10" d="M2.561.08A86.918,86.918,0,0,1,15.109,2.565c2.544.682,5.246,1.543,8.067,2.548,2.8,1.043,5.746,2.2,8.678,3.593,2.962,1.357,5.929,2.928,8.874,4.639,2.936,1.731,5.834,3.624,8.635,5.656q2.1,1.53,4.1,3.172c1.369,1.048,2.63,2.221,3.9,3.356,1.295,1.107,2.478,2.329,3.66,3.514,1.2,1.163,2.291,2.422,3.379,3.634a81.206,81.206,0,0,1,5.8,7.45c.876,1.218,1.633,2.5,2.384,3.7s1.427,2.414,2.038,3.6a72.263,72.263,0,0,1,3.089,6.616c.79,2.052,1.4,3.882,1.885,5.393.431,1.548-.839,2.5-1.732,1.337l-3.417-4.021c-1.379-1.494-2.836-3.25-4.58-5.02-.846-.908-1.711-1.866-2.684-2.784s-1.87-1.966-2.933-2.909c-2.03-1.977-4.236-3.989-6.546-6.033-1.2-.976-2.319-2.073-3.568-3.058S51.69,34.9,50.409,33.908c-1.263-1.015-2.555-2.014-3.86-3.01-1.287-1.017-2.616-1.991-3.959-2.949-2.63-1.987-5.376-3.823-8.041-5.683L30.52,19.592l-3.97-2.559c-5.23-3.332-10.2-6.335-14.5-8.873l-10.257-6C-.86.607-.539-.28,2.561.08Z" transform="translate(118.801 247.532) rotate(-45)" fill="url(#linear-gradient-9)"/>
      <path id="Path_11" data-name="Path 11" d="M2.561.08A86.916,86.916,0,0,1,15.109,2.565c2.544.682,5.246,1.543,8.067,2.548,2.8,1.043,5.747,2.2,8.678,3.593,2.962,1.357,5.929,2.928,8.874,4.639,2.937,1.731,5.834,3.624,8.635,5.656q2.1,1.53,4.1,3.172c1.369,1.048,2.631,2.221,3.9,3.356,1.295,1.106,2.478,2.329,3.66,3.513,1.2,1.163,2.291,2.422,3.379,3.634a81.217,81.217,0,0,1,5.8,7.45c.876,1.218,1.633,2.5,2.384,3.7s1.427,2.414,2.037,3.6a72.257,72.257,0,0,1,3.089,6.616c.79,2.052,1.4,3.882,1.885,5.393.431,1.548-.839,2.5-1.732,1.337l-3.417-4.021c-1.379-1.494-2.837-3.25-4.58-5.02-.847-.908-1.711-1.866-2.684-2.784s-1.87-1.966-2.932-2.909c-2.03-1.977-4.236-3.989-6.546-6.033-1.2-.976-2.319-2.073-3.568-3.058S51.69,34.9,50.408,33.907c-1.263-1.015-2.556-2.014-3.86-3.01-1.287-1.017-2.617-1.991-3.96-2.949-2.63-1.987-5.376-3.823-8.041-5.684L30.52,19.59l-3.97-2.559c-5.23-3.332-10.2-6.335-14.5-8.873l-10.257-6C-.86.607-.54-.28,2.561.08Z" transform="translate(119.244 148.173) rotate(-45)" fill="url(#linear-gradient-9)"/>
      <path id="Path_12" data-name="Path 12" d="M2.4.5a84.724,84.724,0,0,1,10.8,5.29c2.154,1.232,4.415,2.663,6.754,4.252,2.317,1.618,4.736,3.369,7.1,5.336,2.4,1.938,4.756,4.069,7.068,6.32,2.3,2.267,4.535,4.669,6.656,7.173q1.585,1.882,3.066,3.842c1.025,1.273,1.931,2.631,2.852,3.959.947,1.308,1.773,2.692,2.6,4.041.852,1.335,1.587,2.73,2.329,4.083a80.527,80.527,0,0,1,3.763,8.1c.551,1.307.983,2.637,1.424,3.905s.814,2.515,1.132,3.732c.7,2.395,1.111,4.689,1.494,6.7.313,2.036.509,3.831.65,5.308.088,1.5-1.236,2.047-1.813.785l-2.291-4.444c-.949-1.678-1.919-3.609-3.142-5.624-.584-1.022-1.176-2.092-1.871-3.153s-1.3-2.221-2.071-3.326c-1.44-2.27-3.031-4.612-4.71-7.008-.887-1.168-1.681-2.425-2.612-3.613s-1.8-2.438-2.759-3.642c-.938-1.219-1.9-2.429-2.884-3.641-.959-1.226-1.964-2.424-2.985-3.61-1.977-2.422-4.087-4.739-6.121-7.057l-3.1-3.381-3.07-3.263c-4.053-4.264-7.937-8.169-11.308-11.494L1.3,2.177C-.783.138-.321-.58,2.4.5Z" transform="translate(185.553 281.513) rotate(-45)" fill="url(#linear-gradient-9)"/>
      <path id="Path_13" data-name="Path 13" d="M2.219.138A82.571,82.571,0,0,1,13.232,2.878c2.237.706,4.619,1.571,7.106,2.564,2.474,1.024,5.073,2.147,7.669,3.477,2.621,1.3,5.254,2.774,7.873,4.369,2.612,1.611,5.2,3.358,7.7,5.216q1.874,1.4,3.673,2.888c1.226.955,2.364,2.01,3.509,3.035,1.164,1,2.235,2.094,3.3,3.156,1.084,1.045,2.077,2.165,3.066,3.245a79.944,79.944,0,0,1,5.308,6.6c.806,1.076,1.511,2.2,2.208,3.258s1.33,2.118,1.9,3.157c1.2,2.032,2.113,4.028,2.934,5.769.765,1.782,1.367,3.368,1.844,4.676.434,1.337-.63,2.088-1.45,1.055l-3.12-3.583c-1.254-1.337-2.586-2.9-4.167-4.487-.769-.813-1.557-1.668-2.435-2.5s-1.7-1.76-2.656-2.612c-1.837-1.778-3.826-3.592-5.909-5.44-1.077-.887-2.091-1.873-3.212-2.769s-2.2-1.861-3.351-2.767c-1.135-.924-2.293-1.834-3.463-2.743-1.155-.925-2.346-1.818-3.547-2.7-2.357-1.815-4.81-3.507-7.194-5.216l-3.6-2.468L23.69,15.7c-4.668-3.085-9.1-5.878-12.931-8.244l-9.141-5.6C-.747.41-.5-.325,2.219.138Z" transform="translate(133.534 332.931) rotate(-45)" fill="url(#linear-gradient-9)"/>
      <path id="Path_14" data-name="Path 14" d="M2.083.333a80.845,80.845,0,0,1,9.985,3.976c2.015.944,4.148,2.055,6.37,3.3,2.207,1.269,4.518,2.646,6.811,4.211,2.318,1.539,4.631,3.246,6.92,5.06s4.525,3.775,6.686,5.816q1.616,1.535,3.155,3.143C43.063,26.877,44.026,28,45,29.093c.993,1.075,1.89,2.224,2.79,3.342s1.738,2.267,2.562,3.394a79.371,79.371,0,0,1,4.352,6.78c.655,1.1,1.212,2.224,1.767,3.294s1.051,2.128,1.494,3.162c.934,2.031,1.613,3.993,2.224,5.708.556,1.745.979,3.288,1.309,4.559.288,1.292-.762,1.847-1.434.787L57.479,56.4c-1.048-1.4-2.148-3.014-3.478-4.686-.643-.85-1.3-1.743-2.043-2.621s-1.422-1.846-2.237-2.757c-1.55-1.88-3.238-3.815-5.009-5.792-.922-.959-1.777-2-2.739-2.975s-1.88-2-2.868-2.991c-.972-1-1.968-1.992-2.975-2.983s-2.018-1.984-3.056-2.951c-2.029-1.982-4.158-3.864-6.221-5.753L23.73,20.148,20.648,17.5c-4.063-3.457-7.931-6.614-11.281-9.3l-8-6.365C-.7.192-.4-.452,2.083.333Z" transform="translate(173.838 369.633) rotate(-45)" fill="url(#linear-gradient-9)"/>
    </g>
    <g id="Group_111" data-name="Group 111" transform="translate(2195.325 1287.326)">
      <g id="Group_110" data-name="Group 110" clip-path="url(#clip-path)">
        <g id="Group_109" data-name="Group 109">
          <g id="Group_108" data-name="Group 108" clip-path="url(#clip-path)">
            <path id="Path_155" data-name="Path 155" d="M46.434,182.74c1.672,3.38,4.343,4.367,7.638,5.451,2.485.818,4.483,2.6,6.616,4.026,3.547,2.365,7.714,2.086,11.4.213,9.633-4.9,15.194-16.55,16.811-26.725,2.822-17.781-.479-43.719-16.942-39.8-12.37,2.947-25.721,14.791-28.545,32.573A42.339,42.339,0,0,0,44.5,177.318a35.6,35.6,0,0,0,1.93,5.422m37.428-27.265c2.144,0,3.883,3.013,3.883,6.73s-1.738,6.73-3.883,6.73-3.88-3.013-3.88-6.73,1.738-6.73,3.88-6.73" transform="translate(-29.953 -87.758)" fill="#fff"/>
            <path id="Path_156" data-name="Path 156" d="M224.9,199.265c6.157,4.753,15.746,7.32,21.354.421a58.266,58.266,0,0,1,3.921-4.908c1.1-1.088,2.381-1.974,3.451-3.089,5.472-5.72,4.461-17.669,2.988-24.671-3.7-17.588-17.59-28.736-30.069-31.062-16.606-3.094-18.613,22.927-14.918,40.513,1.817,8.656,6.165,17.3,13.273,22.8M215.7,162.6c2.144,0,3.883,3.013,3.883,6.73s-1.739,6.73-3.883,6.73-3.878-3.013-3.878-6.73,1.736-6.73,3.878-6.73" transform="translate(-146.87 -94.884)" fill="#fff"/>
            <path id="Path_157" data-name="Path 157" d="M90.064,222.964c-1.557,9.808-6.915,21.037-16.2,25.756-3.553,1.806-7.572,2.073-10.989-.206-2.056-1.372-3.983-3.093-6.378-3.879-3.175-1.045-5.748-2-7.357-5.256a33.434,33.434,0,0,1-1.859-5.225,37.725,37.725,0,0,1-1.534-8.711,39.383,39.383,0,0,0,1.534,13.72,33.515,33.515,0,0,0,1.859,5.226c1.61,3.256,4.182,4.208,7.357,5.253,2.395.788,4.323,2.508,6.378,3.881,3.417,2.28,7.436,2.012,10.989.206,9.285-4.719,14.643-15.95,16.2-25.756a72.916,72.916,0,0,0,.828-13.768,71.3,71.3,0,0,1-.828,8.759" transform="translate(-31.934 -149.773)" fill="#d1d1d1"/>
            <path id="Path_158" data-name="Path 158" d="M254.646,241.229c-1.037,1.085-2.285,1.946-3.352,3A57.039,57.039,0,0,0,247.486,249c-5.446,6.7-14.76,4.21-20.74-.409-6.9-5.332-11.127-13.734-12.892-22.141a73.415,73.415,0,0,1-1.479-12.243,72.987,72.987,0,0,0,1.479,17.291c1.766,8.406,5.989,16.809,12.892,22.141,5.98,4.618,15.294,7.11,20.74.41a56.78,56.78,0,0,1,3.808-4.769c1.067-1.054,2.316-1.917,3.352-3,3.583-3.742,4.305-10.231,3.958-16.147-.287,4.3-1.382,8.408-3.958,11.1" transform="translate(-148.46 -149.773)" fill="#d1d1d1"/>
            <path id="Path_159" data-name="Path 159" d="M126.894,368.741c-.442-3.378-3.29-5.1-6.614-4.358a1.413,1.413,0,0,0-.559.223,1.883,1.883,0,0,0-.5,1.113c-.015.073-.034.145-.054.217a9.62,9.62,0,0,1-1.388,2.685C107.437,383.866,87.6,392.709,69.477,392.57c-.228,0-.454-.005-.682-.011l-.448-.012c-.489-.017-.977-.039-1.466-.067q-1.465-.085-2.923-.239a63.667,63.667,0,0,1-21.783-6.262,62.735,62.735,0,0,1-9.678-5.81,33.871,33.871,0,0,1-9.947-10.7c-.987-1.82-1.127-5.184-3.409-5.171-7.367.048-6.254,11.212-4,15.406a13.829,13.829,0,0,1,.488-3.965,4.69,4.69,0,0,1,2.5-2.972c2.654-1.088,4.36,1.606,5.845,3.229,1.416,1.546,2.9,3.032,4.428,4.472a55.9,55.9,0,0,0,9.435,7.078,63.7,63.7,0,0,0,22.6,8.323,63.023,63.023,0,0,0,23.465-.466,58.892,58.892,0,0,0,20.151-8.047,72.084,72.084,0,0,0,8.252-6.84c2.338-2.118,6.486-9.5,10.3-8.617a3.086,3.086,0,0,1,1.894,2.078,11.158,11.158,0,0,1,.667,5.551,22.7,22.7,0,0,0,1.733-10.789m-27.633,16.25-.127.069c-.055.029-.053.026.144-.078-.006,0-.01.006-.017.009" transform="translate(-9.402 -254.66)" fill="#222"/>
            <path id="Path_160" data-name="Path 160" d="M298.245,433.336l.127-.069c.008,0,.012-.007.017-.008-.2.1-.2.106-.144.077" transform="translate(-208.513 -302.937)" fill="#222"/>
            <path id="Path_161" data-name="Path 161" d="M203.8,156.412a83.533,83.533,0,0,0,1.6,12.171c2.019,9.612,6.847,19.22,14.742,25.316,6.837,5.279,17.487,8.129,23.714.467a64.482,64.482,0,0,1,4.354-5.45c1.218-1.207,2.647-2.193,3.832-3.432,6.081-6.35,4.954-19.621,3.321-27.4-4.1-19.532-19.534-31.913-33.394-34.5-12.257-2.283-17.352,9.715-18.187,23.753a83.306,83.306,0,0,1,.015,9.069m18.358-29.122c12.479,2.326,26.373,13.474,30.069,31.062,1.473,7,2.484,18.952-2.988,24.671-1.07,1.115-2.354,2-3.451,3.089a58.156,58.156,0,0,0-3.921,4.908c-5.607,6.9-15.2,4.333-21.353-.421-7.108-5.492-11.456-14.141-13.273-22.8-3.695-17.586-1.687-43.607,14.918-40.513" transform="translate(-142.49 -86.219)" fill="#222"/>
            <path id="Path_162" data-name="Path 162" d="M35.131,177.014c1.852,3.746,4.811,4.843,8.462,6.043,2.756.907,4.973,2.886,7.339,4.463,3.931,2.622,8.55,2.314,12.637.236,10.681-5.425,16.845-18.344,18.634-29.623a81.9,81.9,0,0,0,.887-8.528,77.659,77.659,0,0,1-.015-9.069c-.895-15.523-6.463-29.66-19.649-26.52-13.714,3.267-28.513,16.4-31.641,36.109A46.874,46.874,0,0,0,32.99,171a39.233,39.233,0,0,0,2.14,6.01m.107-26.877c2.824-17.782,16.175-29.627,28.545-32.574,16.463-3.921,19.764,22.017,16.942,39.8-1.617,10.175-7.178,21.828-16.811,26.725-3.688,1.873-7.855,2.152-11.4-.213-2.134-1.425-4.132-3.209-6.616-4.026-3.3-1.085-5.966-2.072-7.638-5.451a35.564,35.564,0,0,1-1.93-5.422,42.34,42.34,0,0,1-1.089-18.836" transform="translate(-21.776 -79.413)" fill="#222"/>
            <path id="Path_163" data-name="Path 163" d="M203.513,212.276a83.306,83.306,0,0,0-.015-9.069,77.723,77.723,0,0,0,.015,9.069" transform="translate(-142.199 -142.083)" fill="#222"/>
            <path id="Path_164" data-name="Path 164" d="M178.087,478.149s-7.328,7.666-21.194,7.778-20.4-6.537-20.4-6.537a20.648,20.648,0,0,0,20.178,13.526c15.894-.112,21.418-14.767,21.418-14.767" transform="translate(-95.436 -334.324)" fill="#222"/>
            <path id="Path_165" data-name="Path 165" d="M229.708,36a44.046,44.046,0,0,0,5.772-1.015c3.16-.775,6.225-1.9,9.4-2.619a19.653,19.653,0,0,1,9.654-.133,58.429,58.429,0,0,0-3.373-6.062,14.374,14.374,0,0,0-5.825-4.562c-4.7-1.783-9.314.115-13.049,3.056-1.963,1.547-8.3,7.1-6.379,10.237.729,1.189,2.413,1.247,3.8,1.1" transform="translate(-157.704 -14.629)" fill="#222"/>
            <path id="Path_166" data-name="Path 166" d="M96.327,63.147c3.666.364,7.242,1.406,10.91,1.763a4.235,4.235,0,0,0,3.345-.689c1.879-1.741-5.537-7.923-7.135-9.257-3.821-3.188-8.66-5.4-13.614-3.521-5.332,2.025-10.341,9.062-10,14.823a29.994,29.994,0,0,1,16.5-3.119" transform="translate(-55.807 -35.486)" fill="#222"/>
            <path id="Path_167" data-name="Path 167" d="M219.8,238.586c2.144,0,3.883-3.013,3.883-6.73s-1.739-6.73-3.883-6.73-3.878,3.013-3.878,6.73,1.736,6.73,3.878,6.73" transform="translate(-150.971 -157.408)" fill="#222"/>
            <path id="Path_168" data-name="Path 168" d="M170.2,238.586c2.144,0,3.883-3.013,3.883-6.73s-1.738-6.73-3.883-6.73-3.88,3.013-3.88,6.73,1.738,6.73,3.88,6.73" transform="translate(-116.294 -157.408)" fill="#222"/>
            <path id="Path_169" data-name="Path 169" d="M382.166,321.9c7.059-.769,7.7,11.147,8.457,15.7,1.62-2.757,1.669-7.888.595-10.878a7.66,7.66,0,0,0-4.011-4.613,8.024,8.024,0,0,0-5.146-.6c-.23.066-.117.421.105.4" transform="translate(-267.05 -224.653)" fill="#222"/>
            <path id="Path_170" data-name="Path 170" d="M8.89,324.087a.786.786,0,0,0,.881-1.219c-1.9-2.385-5.338-1.842-7.336.188-2.463,2.5-2.756,7.254-2.191,10.475-.6-3.429,4.812-10.575,8.646-9.444" transform="translate(0 -224.651)" fill="#222"/>
            <path id="Path_171" data-name="Path 171" d="M245.568,7.709a22.68,22.68,0,0,1,3.173-2.749,13.405,13.405,0,0,1,3.592-1.745,20.665,20.665,0,0,1,3.949-.89c.7-.091,1.4-.214,2.108-.255.731-.042,1.443.1,2.164.114a.375.375,0,0,0,.254-.672,7.029,7.029,0,0,0-4.179-1.5,9.255,9.255,0,0,0-4.747,1.182,21.448,21.448,0,0,0-3.608,2.775,39.58,39.58,0,0,0-3.173,3.3c-.238.273.212.705.467.442" transform="translate(-171.328 0)" fill="#222"/>
            <path id="Path_172" data-name="Path 172" d="M93.069,41.774a10.293,10.293,0,0,1,5.822-3.9,30.8,30.8,0,0,1,3.345-.575c.561-.047,1.126-.085,1.686-.144a6.859,6.859,0,0,0,1.656-.243.565.565,0,0,0,.1-.963c-.869-.8-2.543-.9-3.658-.812a8.814,8.814,0,0,0-3.824,1.139A20.165,20.165,0,0,0,95.05,38.45a12.388,12.388,0,0,0-2.376,3.041c-.156.266.207.54.4.283" transform="translate(-64.771 -24.547)" fill="#222"/>
            <path id="Path_173" data-name="Path 173" d="M222.934,114.268a11.533,11.533,0,0,1,5.888-3.362,18.271,18.271,0,0,1,6.594-.385c.175.016.29-.235.126-.335a8.566,8.566,0,0,0-7.083-.612,11.1,11.1,0,0,0-5.731,4.547.127.127,0,0,0,.206.147" transform="translate(-155.714 -76.279)" fill="#222"/>
            <g id="Group_104" data-name="Group 104" transform="translate(68.858 67.068)" opacity="0.43">
              <g id="Group_103" data-name="Group 103">
                <g id="Group_102" data-name="Group 102" clip-path="url(#clip-path-3)">
                  <path id="Path_174" data-name="Path 174" d="M231.478,222.97a2.389,2.389,0,0,0-2.549,2.064,2.336,2.336,0,0,0,2.063,2.55,2.392,2.392,0,0,0,2.552-2.064,2.341,2.341,0,0,0-2.066-2.55" transform="translate(-228.919 -222.97)" fill="#fff"/>
                </g>
              </g>
            </g>
            <g id="Group_107" data-name="Group 107" transform="translate(52.329 66.941)" opacity="0.43">
              <g id="Group_106" data-name="Group 106">
                <g id="Group_105" data-name="Group 105" clip-path="url(#clip-path-4)">
                  <path id="Path_175" data-name="Path 175" d="M176.431,222.548a2.3,2.3,0,0,0-2.451,1.986,2.247,2.247,0,0,0,1.985,2.452A2.3,2.3,0,0,0,178.417,225a2.246,2.246,0,0,0-1.986-2.451" transform="translate(-173.969 -222.548)" fill="#fff"/>
                </g>
              </g>
            </g>
          </g>
        </g>
      </g>
    </g>
  </g>
</svg>
