<svg xmlns="http://www.w3.org/2000/svg" xmlns:xlink="http://www.w3.org/1999/xlink" width="419.119" height="502.194" viewBox="0 0 419.119 502.194">
  <defs>
    <linearGradient id="linear-gradient" x1="0.5" y1="0.133" x2="0.89" y2="0.5" gradientUnits="objectBoundingBox">
      <stop offset="0" stop-color="#c4d143"/>
      <stop offset="1" stop-color="#7c8a1a"/>
    </linearGradient>
    <linearGradient id="linear-gradient-2" x1="1.148" y1="0.346" x2="0.5" y2="0.135" gradientUnits="objectBoundingBox">
      <stop offset="0" stop-color="#7c8a1a" stop-opacity="0"/>
      <stop offset="0.315" stop-color="#768319" stop-opacity="0.314"/>
      <stop offset="0.781" stop-color="#646f15" stop-opacity="0.78"/>
      <stop offset="1" stop-color="#5a6313"/>
    </linearGradient>
    <linearGradient id="linear-gradient-3" x1="0.423" y1="0.116" x2="0.658" y2="0.705" xlink:href="#linear-gradient"/>
    <linearGradient id="linear-gradient-4" x1="1" y1="1" x2="0.395" y2="0.356" xlink:href="#linear-gradient-2"/>
    <linearGradient id="linear-gradient-5" x1="0.246" y1="0.5" x2="0.5" y2="0.748" xlink:href="#linear-gradient"/>
    <linearGradient id="linear-gradient-6" x1="0.886" y1="0.362" x2="0.613" y2="0.084" xlink:href="#linear-gradient-2"/>
    <linearGradient id="linear-gradient-7" x1="0.586" y1="0.529" x2="0.427" y2="0.699" gradientUnits="objectBoundingBox">
      <stop offset="0" stop-color="#5a6313" stop-opacity="0"/>
      <stop offset="1" stop-color="#544f43"/>
    </linearGradient>
    <linearGradient id="linear-gradient-8" x1="0.337" y1="0.293" x2="0.642" y2="0.731" gradientUnits="objectBoundingBox">
      <stop offset="0" stop-color="#dd3b32"/>
      <stop offset="0.279" stop-color="#ff4f46"/>
      <stop offset="0.775" stop-color="#ff5b52"/>
      <stop offset="1" stop-color="#dd3b32"/>
    </linearGradient>
    <linearGradient id="linear-gradient-9" x1="-0.051" x2="1" y2="1" gradientUnits="objectBoundingBox">
      <stop offset="0" stop-color="#d30e03" stop-opacity="0"/>
      <stop offset="0.513" stop-color="#d5362e"/>
      <stop offset="1" stop-color="#c9251c"/>
    </linearGradient>
    <clipPath id="clip-path">
      <rect id="Rectangle_46" data-name="Rectangle 46" width="111.343" height="205.573" fill="none"/>
    </clipPath>
    <clipPath id="clip-path-3">
      <rect id="Rectangle_43" data-name="Rectangle 43" width="12.822" height="12.907" fill="none"/>
    </clipPath>
    <clipPath id="clip-path-4">
      <rect id="Rectangle_44" data-name="Rectangle 44" width="12.784" height="12.886" fill="none"/>
    </clipPath>
  </defs>
  <g id="Group_253" data-name="Group 253" transform="translate(-3100.881 -1891.282)">
    <g id="Group_159" data-name="Group 159" transform="translate(3108.274 1932.61)">
      <g id="Group_3" data-name="Group 3" transform="translate(92.802 18.709) rotate(-45)">
        <g id="Group_1" data-name="Group 1" transform="translate(0 0)">
          <path id="Path_1" data-name="Path 1" d="M24.367,41.36C11.892,68.752-2.74,120.169.441,145.641a2.885,2.885,0,0,0,4.71,2.132C26.48,133.4,55.75,88.6,68.225,61.212s6.148-32.978,2.967-58.451A2.885,2.885,0,0,0,66.482.629C45.153,15.008,36.842,13.967,24.367,41.36Z" fill="url(#linear-gradient)"/>
          <path id="Path_2" data-name="Path 2" d="M3.02,147.538C24.35,133.16,53.62,88.369,66.094,60.977S72.242,28,69.061,2.526A3.06,3.06,0,0,0,67.371,0L0,147.931a3.075,3.075,0,0,0,3.02-.393Z" transform="translate(2.131 0.235)" fill="url(#linear-gradient-2)"/>
        </g>
        <g id="Group_2" data-name="Group 2" transform="translate(6.22 79.045)">
          <path id="Path_3" data-name="Path 3" d="M87.1,7.471C59.709,19.959,14.933,49.165.622,70.475a2.885,2.885,0,0,0,2.156,4.7c25.53,3.143,77.007-11.458,104.393-23.946s26.276-20.855,40.588-42.166a2.885,2.885,0,0,0-2.156-4.7C120.071,1.222,114.482-5.017,87.1,7.471Z" fill="url(#linear-gradient-3)"/>
          <path id="Path_4" data-name="Path 4" d="M2.537,69.126C28.067,72.269,79.544,57.668,106.93,45.18s26.276-20.855,40.587-42.166A3.059,3.059,0,0,0,147.9,0L0,67.442A3.078,3.078,0,0,0,2.537,69.126Z" transform="translate(0.24 6.048)" fill="url(#linear-gradient-4)"/>
        </g>
      </g>
      <g id="Group_4" data-name="Group 4" transform="translate(119.755 40.968) rotate(-45)">
        <path id="Path_5" data-name="Path 5" d="M58.923,23.583C37.673,44.9,6.017,87.978.108,112.958a2.885,2.885,0,0,0,3.67,3.641C28.784,110.57,71.846,78.81,93.1,57.494s17.271-28.759,23.18-53.74a2.885,2.885,0,0,0-3.67-3.641C87.6,6.143,80.174,2.267,58.923,23.583Z" fill="url(#linear-gradient-5)"/>
        <path id="Path_6" data-name="Path 6" d="M2.968,115.8C27.973,109.772,71.035,78.012,92.286,56.7s17.271-28.759,23.18-53.74a3.062,3.062,0,0,0-.7-2.956L0,115.117A3.078,3.078,0,0,0,2.968,115.8Z" transform="translate(0.81 0.798)" fill="url(#linear-gradient-6)"/>
      </g>
      <path id="Path_7" data-name="Path 7" d="M11.012,0C3.68,24.476-1.6,51.438.441,67.756a2.862,2.862,0,0,0,2.907,2.753,2.762,2.762,0,0,0,2.875,3.114A2.893,2.893,0,0,0,9,76.333c16.34,2.012,43.3-3.248,67.781-10.568Z" transform="translate(147.876 73.781) rotate(-45)" fill="url(#linear-gradient-7)"/>
      <path id="Path_15" data-name="Path 15" d="M250.2,169.419C179.528,240.089,41.957,322.477,7.921,288.441S56.272,116.834,126.943,46.164s102.863-47.679,136.9-13.643,57.028,66.227-13.643,136.9Z" transform="translate(-7.393 251.307) rotate(-45)" fill="url(#linear-gradient-8)"/>
      <path id="Path_9" data-name="Path 9" d="M2.839.5A89.857,89.857,0,0,1,15.266,6.188c2.466,1.34,5.045,2.91,7.7,4.659,2.63,1.786,5.373,3.722,8.028,5.912a104.555,104.555,0,0,1,7.917,7.063c2.56,2.544,5.03,5.249,7.355,8.076q1.737,2.125,3.343,4.346c1.119,1.44,2.088,2.985,3.078,4.492,1.023,1.484,1.893,3.06,2.774,4.6.906,1.519,1.668,3.111,2.441,4.655a81.851,81.851,0,0,1,3.814,9.262c.548,1.5.952,3.026,1.371,4.48s.759,2.888,1.037,4.288a74.9,74.9,0,0,1,1.216,7.709c.2,2.348.282,4.421.324,6.126-.023,1.73-1.652,2.414-2.234.973l-2.36-5.064c-.992-1.909-1.986-4.112-3.277-6.4-.612-1.162-1.228-2.382-1.969-3.586C55.1,66.561,54.463,65.249,53.634,64,52.1,61.419,50.4,58.761,48.6,56.044c-.962-1.321-1.8-2.75-2.816-4.093s-1.945-2.76-2.989-4.121c-1.017-1.379-2.071-2.746-3.137-4.114-1.042-1.386-2.142-2.738-3.261-4.074-2.158-2.735-4.483-5.341-6.716-7.953l-3.416-3.8L22.871,24.22c-4.48-4.789-8.786-9.168-12.529-12.892L1.4,2.5C-.913.219-.307-.636,2.839.5Z" transform="translate(185.553 198.524) rotate(-45)" fill="url(#linear-gradient-9)"/>
      <path id="Path_10" data-name="Path 10" d="M2.561.08A86.918,86.918,0,0,1,15.109,2.565c2.544.682,5.246,1.543,8.067,2.548,2.8,1.043,5.746,2.2,8.678,3.593,2.962,1.357,5.929,2.928,8.874,4.639,2.936,1.731,5.834,3.624,8.635,5.656q2.1,1.53,4.1,3.172c1.369,1.048,2.63,2.221,3.9,3.356,1.295,1.107,2.478,2.329,3.66,3.514,1.2,1.163,2.291,2.422,3.379,3.634a81.206,81.206,0,0,1,5.8,7.45c.876,1.218,1.633,2.5,2.384,3.7s1.427,2.414,2.038,3.6a72.263,72.263,0,0,1,3.089,6.616c.79,2.052,1.4,3.882,1.885,5.393.431,1.548-.839,2.5-1.732,1.337l-3.417-4.021c-1.379-1.494-2.836-3.25-4.58-5.02-.846-.908-1.711-1.866-2.684-2.784s-1.87-1.966-2.933-2.909c-2.03-1.977-4.236-3.989-6.546-6.033-1.2-.976-2.319-2.073-3.568-3.058S51.69,34.9,50.409,33.908c-1.263-1.015-2.555-2.014-3.86-3.01-1.287-1.017-2.616-1.991-3.959-2.949-2.63-1.987-5.376-3.823-8.041-5.683L30.52,19.592l-3.97-2.559c-5.23-3.332-10.2-6.335-14.5-8.873l-10.257-6C-.86.607-.539-.28,2.561.08Z" transform="translate(118.801 247.532) rotate(-45)" fill="url(#linear-gradient-9)"/>
      <path id="Path_11" data-name="Path 11" d="M2.561.08A86.916,86.916,0,0,1,15.109,2.565c2.544.682,5.246,1.543,8.067,2.548,2.8,1.043,5.747,2.2,8.678,3.593,2.962,1.357,5.929,2.928,8.874,4.639,2.937,1.731,5.834,3.624,8.635,5.656q2.1,1.53,4.1,3.172c1.369,1.048,2.631,2.221,3.9,3.356,1.295,1.106,2.478,2.329,3.66,3.513,1.2,1.163,2.291,2.422,3.379,3.634a81.217,81.217,0,0,1,5.8,7.45c.876,1.218,1.633,2.5,2.384,3.7s1.427,2.414,2.037,3.6a72.257,72.257,0,0,1,3.089,6.616c.79,2.052,1.4,3.882,1.885,5.393.431,1.548-.839,2.5-1.732,1.337l-3.417-4.021c-1.379-1.494-2.837-3.25-4.58-5.02-.847-.908-1.711-1.866-2.684-2.784s-1.87-1.966-2.932-2.909c-2.03-1.977-4.236-3.989-6.546-6.033-1.2-.976-2.319-2.073-3.568-3.058S51.69,34.9,50.408,33.907c-1.263-1.015-2.556-2.014-3.86-3.01-1.287-1.017-2.617-1.991-3.96-2.949-2.63-1.987-5.376-3.823-8.041-5.684L30.52,19.59l-3.97-2.559c-5.23-3.332-10.2-6.335-14.5-8.873l-10.257-6C-.86.607-.54-.28,2.561.08Z" transform="translate(119.244 148.173) rotate(-45)" fill="url(#linear-gradient-9)"/>
      <path id="Path_12" data-name="Path 12" d="M2.4.5a84.724,84.724,0,0,1,10.8,5.29c2.154,1.232,4.415,2.663,6.754,4.252,2.317,1.618,4.736,3.369,7.1,5.336,2.4,1.938,4.756,4.069,7.068,6.32,2.3,2.267,4.535,4.669,6.656,7.173q1.585,1.882,3.066,3.842c1.025,1.273,1.931,2.631,2.852,3.959.947,1.308,1.773,2.692,2.6,4.041.852,1.335,1.587,2.73,2.329,4.083a80.527,80.527,0,0,1,3.763,8.1c.551,1.307.983,2.637,1.424,3.905s.814,2.515,1.132,3.732c.7,2.395,1.111,4.689,1.494,6.7.313,2.036.509,3.831.65,5.308.088,1.5-1.236,2.047-1.813.785l-2.291-4.444c-.949-1.678-1.919-3.609-3.142-5.624-.584-1.022-1.176-2.092-1.871-3.153s-1.3-2.221-2.071-3.326c-1.44-2.27-3.031-4.612-4.71-7.008-.887-1.168-1.681-2.425-2.612-3.613s-1.8-2.438-2.759-3.642c-.938-1.219-1.9-2.429-2.884-3.641-.959-1.226-1.964-2.424-2.985-3.61-1.977-2.422-4.087-4.739-6.121-7.057l-3.1-3.381-3.07-3.263c-4.053-4.264-7.937-8.169-11.308-11.494L1.3,2.177C-.783.138-.321-.58,2.4.5Z" transform="translate(185.553 281.513) rotate(-45)" fill="url(#linear-gradient-9)"/>
      <path id="Path_13" data-name="Path 13" d="M2.219.138A82.571,82.571,0,0,1,13.232,2.878c2.237.706,4.619,1.571,7.106,2.564,2.474,1.024,5.073,2.147,7.669,3.477,2.621,1.3,5.254,2.774,7.873,4.369,2.612,1.611,5.2,3.358,7.7,5.216q1.874,1.4,3.673,2.888c1.226.955,2.364,2.01,3.509,3.035,1.164,1,2.235,2.094,3.3,3.156,1.084,1.045,2.077,2.165,3.066,3.245a79.944,79.944,0,0,1,5.308,6.6c.806,1.076,1.511,2.2,2.208,3.258s1.33,2.118,1.9,3.157c1.2,2.032,2.113,4.028,2.934,5.769.765,1.782,1.367,3.368,1.844,4.676.434,1.337-.63,2.088-1.45,1.055l-3.12-3.583c-1.254-1.337-2.586-2.9-4.167-4.487-.769-.813-1.557-1.668-2.435-2.5s-1.7-1.76-2.656-2.612c-1.837-1.778-3.826-3.592-5.909-5.44-1.077-.887-2.091-1.873-3.212-2.769s-2.2-1.861-3.351-2.767c-1.135-.924-2.293-1.834-3.463-2.743-1.155-.925-2.346-1.818-3.547-2.7-2.357-1.815-4.81-3.507-7.194-5.216l-3.6-2.468L23.69,15.7c-4.668-3.085-9.1-5.878-12.931-8.244l-9.141-5.6C-.747.41-.5-.325,2.219.138Z" transform="translate(133.534 332.931) rotate(-45)" fill="url(#linear-gradient-9)"/>
      <path id="Path_14" data-name="Path 14" d="M2.083.333a80.845,80.845,0,0,1,9.985,3.976c2.015.944,4.148,2.055,6.37,3.3,2.207,1.269,4.518,2.646,6.811,4.211,2.318,1.539,4.631,3.246,6.92,5.06s4.525,3.775,6.686,5.816q1.616,1.535,3.155,3.143C43.063,26.877,44.026,28,45,29.093c.993,1.075,1.89,2.224,2.79,3.342s1.738,2.267,2.562,3.394a79.371,79.371,0,0,1,4.352,6.78c.655,1.1,1.212,2.224,1.767,3.294s1.051,2.128,1.494,3.162c.934,2.031,1.613,3.993,2.224,5.708.556,1.745.979,3.288,1.309,4.559.288,1.292-.762,1.847-1.434.787L57.479,56.4c-1.048-1.4-2.148-3.014-3.478-4.686-.643-.85-1.3-1.743-2.043-2.621s-1.422-1.846-2.237-2.757c-1.55-1.88-3.238-3.815-5.009-5.792-.922-.959-1.777-2-2.739-2.975s-1.88-2-2.868-2.991c-.972-1-1.968-1.992-2.975-2.983s-2.018-1.984-3.056-2.951c-2.029-1.982-4.158-3.864-6.221-5.753L23.73,20.148,20.648,17.5c-4.063-3.457-7.931-6.614-11.281-9.3l-8-6.365C-.7.192-.4-.452,2.083.333Z" transform="translate(173.838 369.633) rotate(-45)" fill="url(#linear-gradient-9)"/>
    </g>
    <g id="Group_170" data-name="Group 170" transform="translate(3252.608 2040.542)">
      <g id="Group_169" data-name="Group 169" clip-path="url(#clip-path)">
        <g id="Group_168" data-name="Group 168">
          <g id="Group_167" data-name="Group 167" clip-path="url(#clip-path)">
            <path id="Path_264" data-name="Path 264" d="M87.514,419.875c.841,2.105,6.59,8.978,8.271,10.242S104.9,432.78,114.3,433.2s18.654-3.083,20.337-4.208,7.434-9.959,7.434-9.959-8.556,6.734-27.07,7.576-27.491-6.734-27.491-6.734" transform="translate(-58.805 -281.571)" fill="#fff"/>
            <path id="Path_265" data-name="Path 265" d="M112.659,497.525c-2.989.757-5.367,3.317-8.275,4.464a18.55,18.55,0,0,1-9.289,1.12c4.024-.014,7.8-1.9,11.2-4.043.319-.2,4.641-3.771,4.933-3.277a5.359,5.359,0,0,0-3.946-2.408,10.04,10.04,0,0,0-4.691.676c-4.3,1.548-7.93,4.685-12.333,5.9-2.568.712-5.3.74-7.818,1.62-6.047,2.117-11.682,8.816-11.521,15.384.035,1.405.664,2.7-.092,4.03-1.162,2.045-3.95,2.2-5.928,2.942-3.562,1.345-6.848,4.884-5.428,8.953-.5-1.442,3.477-3.7,4.433-4.018a40.072,40.072,0,0,1,6.988-1.233c1.982-.268,3.957-.595,5.937-.865,3.46-.47,7.4-.772,10.8-2.1a9.018,9.018,0,0,0,4.415-3.6c.379-.584,2.168-5.381,2.715-5.239a3.4,3.4,0,0,0-3.143,1.341c-.785.9-1.3,2.009-2.052,2.942a3.666,3.666,0,0,1-3.049,1.595,5.739,5.739,0,0,0,3.175-3.314c1.048-2.217,1.611-3.507,3.809-4.7,2.173-1.184,4.719-1.39,7.134-1.655a37.381,37.381,0,0,0,12.255-3.105,20.935,20.935,0,0,0,5.855-4.092c1.739-1.773,2.341-3.775,3.469-5.861-2.548-1.995-6.522-2.214-9.555-1.447" transform="translate(-39.737 -331.487)" fill="#ff7075"/>
            <path id="Path_266" data-name="Path 266" d="M211.734,234.829c13.876-6.865,19.7-11.426,19.7-31.041,0-6.3-.319-15.872-4.885-20.786-3.291-3.544-8.652-3.622-13.175-4.141a20.544,20.544,0,0,1,.389,3.985,20.242,20.242,0,0,1-.5,4.508c-.263.037-.527.07-.792.107a5.108,5.108,0,0,0-2.249,1.311l-.8,1.033a5.077,5.077,0,0,0-.7,2.572v.2a3.842,3.842,0,0,0,.435,1.953,5.426,5.426,0,0,1-3.256,1.148c-4.335,0-7.853-5.745-7.853-12.832a18.212,18.212,0,0,1,1.863-8.3,15.911,15.911,0,0,1-1.269-.971c-6.114,6.262-10.19,17.449-10.19,30.209,0,19.615,12.642,36.3,23.282,31.041" transform="translate(-126.631 -116.637)" fill="#fff"/>
            <path id="Path_267" data-name="Path 267" d="M29.236,173.567a17.37,17.37,0,0,0,15.463-3.7c9.634-8.4,13.514-22.56,13.514-34.91,0-24.882-9.877-52.04-25.68-45.052-12.969,5.737-25.675,20.17-25.675,45.052,0,9.464.441,20.412,6.41,28.283a28.071,28.071,0,0,0,15.968,10.326m-1.6-66.7c4.34,0,7.855,5.748,7.855,12.834a20.509,20.509,0,0,1-.127,2.306,5.157,5.157,0,0,0-4.7,5.084,5.544,5.544,0,0,0,1.295,3.329,5.921,5.921,0,0,1-4.321,2.115c-4.337,0-7.854-5.745-7.854-12.835s3.517-12.834,7.854-12.834" transform="translate(-4.608 -59.663)" fill="#fff"/>
            <path id="Path_268" data-name="Path 268" d="M232.629,257.734c-.465,16.556-6.041,20.767-18.576,26.967-9.532,4.717-20.765-9.225-21.9-26.49-.051.961-.079,1.931-.079,2.912,0,18.529,11.944,34.292,21.989,29.323,13.112-6.487,18.609-10.793,18.609-29.323,0-1.047-.01-2.191-.048-3.39" transform="translate(-129.067 -173.185)" fill="#d1d1d1"/>
            <path id="Path_269" data-name="Path 269" d="M59.276,221.21c-.462,11.238-4.27,23.577-12.9,31.088a16.627,16.627,0,0,1-14.81,3.546,26.894,26.894,0,0,1-15.3-9.892c-4.888-6.447-5.909-15.047-6.1-23.073-.017.6-.026,1.2-.026,1.8,0,9.065.424,19.553,6.139,27.092a26.9,26.9,0,0,0,15.3,9.892A16.644,16.644,0,0,0,46.4,258.125c9.232-8.043,12.944-21.611,12.944-33.441q0-1.732-.065-3.473" transform="translate(-6.819 -148.643)" fill="#d1d1d1"/>
            <path id="Path_270" data-name="Path 270" d="M115,428.935c12.58-.573,20.56-3.864,24.386-5.916,1.473-2.123,2.685-3.985,2.685-3.985s-8.556,6.734-27.07,7.576-27.491-6.735-27.491-6.735A23,23,0,0,0,90.284,424c3.947,2.183,12.124,5.505,24.72,4.934" transform="translate(-58.805 -281.571)" fill="#d1d1d1"/>
            <path id="Path_271" data-name="Path 271" d="M194.75,493.381a10.039,10.039,0,0,0-4.691.676c-.255.092-.509.189-.757.294.134.056.266.114.4.178a9.658,9.658,0,0,1,4.4,4.286c1.011-.788,3.877-3.073,4.493-3.07.009-.028.016-.056.024-.081a5.412,5.412,0,0,0-3.864-2.282" transform="translate(-127.202 -331.487)" fill="#ff5258"/>
            <path id="Path_272" data-name="Path 272" d="M118.4,504.908c.272,5.807-6.28,8.428-11.235,9.541-3.346.751-6.773,1.055-10.145,1.681-2.977.553-6.5,1.365-8.8,3.248-2.084,1.7-3.087,4.334-4.595,6.717a13.663,13.663,0,0,1-4.853,4.938c-3.42,1.87-7.356,2.179-11.013,3.362-.251.081-.5.167-.748.26-.115.043-.493.2-.4.161-.288.132-.576.272-.853.43-.213.121-.417.253-.624.385l-.112.07s0,0-.01.007c-.283.259-.543.54-.825.8a.046.046,0,0,1-.011.015c-.052.076-.107.149-.155.227-.108.168-.2.342-.3.517-.035.065-.064.132-.1.2-.062.2-.137.393-.191.6-.07.237-.114.478-.162.72a13,13,0,0,1,3.417-2.124,40.03,40.03,0,0,1,6.988-1.233c1.982-.268,3.956-.595,5.937-.865,3.46-.47,7.4-.772,10.8-2.1a9.014,9.014,0,0,0,4.415-3.6c.379-.584,2.169-5.381,2.715-5.239a3.4,3.4,0,0,0-3.143,1.341c-.785.9-1.3,2.009-2.052,2.942a3.665,3.665,0,0,1-3.049,1.595,5.739,5.739,0,0,0,3.175-3.314c1.047-2.217,1.611-3.507,3.808-4.7,2.173-1.184,4.719-1.39,7.134-1.655a37.38,37.38,0,0,0,12.255-3.105,20.924,20.924,0,0,0,5.855-4.092c1.739-1.773,2.341-3.775,3.469-5.861a10.314,10.314,0,0,0-6.585-1.849" transform="translate(-42.511 -339.271)" fill="#ff5258"/>
            <path id="Path_273" data-name="Path 273" d="M141.294,526.141a1.9,1.9,0,0,0-.984-.229c-2.646.036-5.684,2.415-5.264,5.256a.641.641,0,0,0,.143.366.7.7,0,0,0,.691.059,25.517,25.517,0,0,0,5.055-2.276,1.842,1.842,0,0,0,.358-3.175" transform="translate(-90.719 -353.388)" fill="#ffa4a7"/>
            <path id="Path_274" data-name="Path 274" d="M96.278,530.491c.086.007.171.013.253.017.232-.006.471-.024.7-.017.031,0,.054-.007.08-.009.065-.013.131-.022.2-.037.231-.055.46-.106.689-.176.129-.041.795-.353.264-.081.207-.107.413-.207.611-.323.481-.276.944-.58,1.395-.9a10.693,10.693,0,0,0,1.073-.838,20.9,20.9,0,0,0,4.869-5.637,9.038,9.038,0,0,0,1.245-3.116c.027-.127.051-.253.07-.381,0-.027.008-.055.013-.091.011-.285.032-.563.025-.849,0-.014,0-.029,0-.043-.159.049-.32.1-.476.158a18.373,18.373,0,0,0-11.18,12.27c.06.017.117.03.173.049" transform="translate(-64.578 -348.081)" fill="#ffa4a7"/>
            <path id="Path_275" data-name="Path 275" d="M38.585,171.932c11.566-8,16.379-24.029,16.813-37.4q.031-1.027.032-2.053a103.7,103.7,0,0,0-1.548-17.921c-1.721-9.844-4.824-22.265-13-28.886-3.985-3.226-8.664-3.407-13.253-2.1-5.272,1.5-10.424,4.959-14.271,8-2.909,2.3-5.239,5.892-7.423,8.894A39.131,39.131,0,0,0,1.8,107.628c-.1.228.267.433.39.209A51.163,51.163,0,0,1,10.7,96.186a33.408,33.408,0,0,1,4.135-3.472C6.359,101.138,0,114.193,0,132.478c0,10.054.457,21.619,6.593,30.091,6.937,9.574,21.2,16.82,31.992,9.363M2.25,130.939c0-24.882,12.706-39.315,25.675-45.051C43.728,78.9,53.6,106.057,53.6,130.939c0,12.35-3.879,26.514-13.513,34.91a17.37,17.37,0,0,1-15.463,3.7A28.069,28.069,0,0,1,8.66,159.222c-5.969-7.871-6.41-18.818-6.41-28.283" transform="translate(0 -55.644)" fill="#222"/>
            <path id="Path_276" data-name="Path 276" d="M207.553,222.778c15.252-7.543,21.649-12.555,21.649-34.111,0-10.134-2.339-19.361-6.172-26.3a6.844,6.844,0,0,0,2.551-1.312c.23-.2.158-.705-.207-.7a28.014,28.014,0,0,0-3.8.584,34.954,34.954,0,0,1-4.009.43,35.655,35.655,0,0,1-8.136-.613,53.044,53.044,0,0,1-10.167-2.61,34.283,34.283,0,0,1-5.553-3.224,12.273,12.273,0,0,1-3.875-5.067c-.1-.266-.567-.14-.487.143a15.117,15.117,0,0,0,3.324,5.987c-6.445,6.968-10.7,19-10.7,32.68,0,21.556,13.893,39.893,25.585,34.111M194.285,157.54a15.967,15.967,0,0,0,1.269.971c.091-.172.178-.342.274-.506a4.549,4.549,0,0,0,1.79.877,81.582,81.582,0,0,0,8.358,1.886c.863.114,1.723.213,2.581.244a18.1,18.1,0,0,1,.457,1.81c4.523.519,9.884.6,13.175,4.141,4.566,4.914,4.885,14.49,4.885,20.786,0,19.615-5.819,24.176-19.7,31.041-10.64,5.263-23.282-11.426-23.282-31.041,0-12.76,4.076-23.946,10.19-30.209" transform="translate(-122.274 -100.598)" fill="#222"/>
            <path id="Path_277" data-name="Path 277" d="M226.254,99.422c-6.87,5.328-4.347,8.7-4.347,8.7s15.148,11.364,30.156,11.644c0,0-21.881-13.889-25.809-20.339" transform="translate(-148.807 -66.807)" fill="#222"/>
            <path id="Path_278" data-name="Path 278" d="M36.843,20.693C60.267,4,65.458,13.68,66.577,3.3,53.953-9.883,36.843,20.693,36.843,20.693" transform="translate(-24.757 0)" fill="#222"/>
            <path id="Path_279" data-name="Path 279" d="M225.557,197.668a5.426,5.426,0,0,0,3.256-1.148,3.837,3.837,0,0,1-.435-1.953v-.2a5.07,5.07,0,0,1,.7-2.572l.8-1.033a5.1,5.1,0,0,1,2.25-1.311c.264-.037.529-.07.792-.107a20.262,20.262,0,0,0,.5-4.508,20.577,20.577,0,0,0-.388-3.985c-.449-.051-.887-.107-1.315-.17a38.158,38.158,0,0,1-8.351-2.117,18.71,18.71,0,0,1-3.793-2.024,18.211,18.211,0,0,0-1.863,8.3c0,7.087,3.517,12.832,7.852,12.832" transform="translate(-146.288 -118.627)" fill="#222"/>
            <path id="Path_280" data-name="Path 280" d="M235.526,179.645c.428.064.866.119,1.315.17a18.11,18.11,0,0,0-.457-1.81c-.858-.031-1.718-.129-2.581-.243a81.676,81.676,0,0,1-8.358-1.886,4.552,4.552,0,0,1-1.789-.878c-.1.163-.183.334-.274.506a18.677,18.677,0,0,0,3.793,2.024,38.14,38.14,0,0,0,8.351,2.117" transform="translate(-150.102 -117.591)" fill="#222"/>
            <path id="Path_281" data-name="Path 281" d="M54.1,169.558a5.921,5.921,0,0,0,4.321-2.115,5.543,5.543,0,0,1-1.295-3.328,5.157,5.157,0,0,1,4.7-5.085,20.5,20.5,0,0,0,.127-2.306c0-7.086-3.515-12.834-7.855-12.834s-7.854,5.748-7.854,12.834,3.517,12.835,7.854,12.835" transform="translate(-31.074 -96.687)" fill="#222"/>
            <path id="Path_282" data-name="Path 282" d="M210.264,547.785a19.386,19.386,0,0,1-1.719,1.186c-.543.285-1.1.527-1.661.767-1.207.516-2.461.972-3.691,1.439-1.35.51-2.691,1.005-4.017,1.567a27.147,27.147,0,0,1-4.546,1.3.153.153,0,0,0,.045.3c1.6-.189,3.221-.412,4.829-.469a15,15,0,0,0,4.6-.906,12.451,12.451,0,0,0,3.546-1.978,14.05,14.05,0,0,0,2.9-2.94.2.2,0,0,0-.285-.27" transform="translate(-130.7 -368.061)" fill="#222"/>
            <path id="Path_283" data-name="Path 283" d="M71.639,386.519c-30.3-.842-45.866-20.338-45.866-20.338-1.4,4.908,1.4,12.481,1.4,12.481s1.262-4.629,4.069-2.8c.986.639,1.586,2.291,2.092,3.284,1.159,2.272,2.188,4.615,3.21,6.952,2.723,6.224,5.283,12.515,7.945,18.767,1.1,2.589,2.2,5.178,3.4,7.722.821,1.73,1.835,4.676,3.488,5.65-2.966,3.278-4.918,6.961-4.53,11.529.078.891.561,1.879.347,2.771-.261,1.129-1.61,1.607-2.579,1.931a34.316,34.316,0,0,0-3.686,1.189,10.34,10.34,0,0,0-5.544,5.658,7.732,7.732,0,0,0-.275,4.43,9.161,9.161,0,0,0,2.191,3.733.475.475,0,0,0,.83-.368,5.9,5.9,0,0,1,1.619-4.339,8.186,8.186,0,0,1,4.563-2.161,41.772,41.772,0,0,1,5.28-.387c1.928-.1,3.853-.132,5.78-.24,6.853-.391,13.408-1.521,17.291-7.711a20.508,20.508,0,0,1,3.783-5.074c1.837-1.552,3.836-1.971,6.047-2.559a49.2,49.2,0,0,0,7.826-3.151c4.555-2.144,8.871-5.306,11.19-9.894,6.733-13.325,16.409-41.659,18.232-43.623s4.209,2.385,4.209,2.385c.28-7.435-3.087-9.118-3.087-9.118s-18.935,24.126-49.232,23.286m24.422,30.9a20.929,20.929,0,0,1-5.855,4.092,37.391,37.391,0,0,1-12.255,3.106c-2.415.265-4.961.471-7.134,1.655-2.2,1.2-2.761,2.487-3.809,4.7a5.738,5.738,0,0,1-3.175,3.314,3.666,3.666,0,0,0,3.049-1.595c.75-.933,1.267-2.039,2.052-2.942a3.4,3.4,0,0,1,3.143-1.341c-.546-.142-2.336,4.655-2.715,5.239a9.017,9.017,0,0,1-4.415,3.6c-3.4,1.331-7.338,1.632-10.8,2.1-1.981.27-3.955.6-5.937.865a40.036,40.036,0,0,0-6.988,1.233c-.955.321-4.934,2.576-4.433,4.018-1.42-4.069,1.866-7.608,5.428-8.953,1.977-.744,4.766-.9,5.928-2.942.756-1.33.127-2.625.093-4.03-.161-6.569,5.474-13.268,11.521-15.384,2.514-.88,5.249-.908,7.818-1.62,4.4-1.215,8.036-4.353,12.333-5.9a10.04,10.04,0,0,1,4.691-.676,5.359,5.359,0,0,1,3.946,2.408c-.292-.494-4.614,3.08-4.933,3.278-3.407,2.144-7.179,4.03-11.2,4.043a18.55,18.55,0,0,0,9.289-1.12c2.907-1.148,5.286-3.708,8.275-4.465,3.033-.767,7.007-.547,9.555,1.447-1.129,2.086-1.731,4.088-3.469,5.861m4.262-35.884s-5.749,8.838-7.434,9.958-10.942,4.629-20.337,4.208-16.834-1.825-18.519-3.083-7.431-8.137-8.271-10.242c0,0,8.977,7.573,27.49,6.734s27.07-7.576,27.07-7.576" transform="translate(-17.055 -244.075)" fill="#222"/>
            <path id="Path_284" data-name="Path 284" d="M331.883,368.012c-.162-.213-.456.043-.317.257a7.984,7.984,0,0,1,1.072,5.148,11.757,11.757,0,0,1-.457,2.485,5.2,5.2,0,0,0-.463,2.258.367.367,0,0,0,.5.276c.809-.234,1.35-1.422,1.554-2.158a8.46,8.46,0,0,0,.319-3,10.355,10.355,0,0,0-2.207-5.265" transform="translate(-222.772 -247.233)" fill="#222"/>
            <g id="Group_163" data-name="Group 163" transform="translate(22.76 59.579)" opacity="0.43">
              <g id="Group_162" data-name="Group 162">
                <g id="Group_161" data-name="Group 161" clip-path="url(#clip-path-3)">
                  <path id="Path_285" data-name="Path 285" d="M81.68,185.418a4.836,4.836,0,0,0-1.5-2.036,4.733,4.733,0,0,0-2.067-1.359,6.383,6.383,0,0,0-3.2-.335.1.1,0,0,0-.018.007l-1.581.457a.338.338,0,0,0-.049.017s-.011,0-.018.01c-.247.151-.493.3-.743.451a5.979,5.979,0,0,0-.764.474c-.4.416-.791.838-1.186,1.254q-.391.737-.786,1.473c-.124.533-.253,1.068-.381,1.6q.019.823.04,1.646l.462,1.6c.3.491.6.984.9,1.473.419.4.834.791,1.255,1.186a4.858,4.858,0,0,0,2.272.976,3.226,3.226,0,0,0,1.624.17,3.193,3.193,0,0,0,1.623-.251,3.2,3.2,0,0,0,1.54-.68,3.24,3.24,0,0,0,1.331-1.078,6.769,6.769,0,0,0,1.768-4.189,6.308,6.308,0,0,0-.513-2.87" transform="translate(-69.381 -181.616)" fill="#fff"/>
                </g>
              </g>
            </g>
            <g id="Group_166" data-name="Group 166" transform="translate(78.721 68.209)" opacity="0.43">
              <g id="Group_165" data-name="Group 165">
                <g id="Group_164" data-name="Group 164" clip-path="url(#clip-path-4)">
                  <path id="Path_286" data-name="Path 286" d="M252.71,213.394a6.375,6.375,0,0,0-1.357-3.072c-.42-.395-.836-.79-1.254-1.184a6.423,6.423,0,0,0-3.07-1.162,6.61,6.61,0,0,0-7.063,5.72l.039,1.641a6.378,6.378,0,0,0,1.358,3.074q.63.592,1.255,1.184a6.433,6.433,0,0,0,3.07,1.163,6.61,6.61,0,0,0,7.063-5.721c-.013-.546-.026-1.095-.04-1.642" transform="translate(-239.966 -207.923)" fill="#fff"/>
                </g>
              </g>
            </g>
          </g>
        </g>
      </g>
    </g>
  </g>
</svg>
