<svg xmlns="http://www.w3.org/2000/svg" xmlns:xlink="http://www.w3.org/1999/xlink" width="419.119" height="502.194" viewBox="0 0 419.119 502.194">
  <defs>
    <linearGradient id="linear-gradient" x1="0.5" y1="0.133" x2="0.89" y2="0.5" gradientUnits="objectBoundingBox">
      <stop offset="0" stop-color="#c4d143"/>
      <stop offset="1" stop-color="#7c8a1a"/>
    </linearGradient>
    <linearGradient id="linear-gradient-2" x1="1.148" y1="0.346" x2="0.5" y2="0.135" gradientUnits="objectBoundingBox">
      <stop offset="0" stop-color="#7c8a1a" stop-opacity="0"/>
      <stop offset="0.315" stop-color="#768319" stop-opacity="0.314"/>
      <stop offset="0.781" stop-color="#646f15" stop-opacity="0.78"/>
      <stop offset="1" stop-color="#5a6313"/>
    </linearGradient>
    <linearGradient id="linear-gradient-3" x1="0.423" y1="0.116" x2="0.658" y2="0.705" xlink:href="#linear-gradient"/>
    <linearGradient id="linear-gradient-4" x1="1" y1="1" x2="0.395" y2="0.356" xlink:href="#linear-gradient-2"/>
    <linearGradient id="linear-gradient-5" x1="0.246" y1="0.5" x2="0.5" y2="0.748" xlink:href="#linear-gradient"/>
    <linearGradient id="linear-gradient-6" x1="0.886" y1="0.362" x2="0.613" y2="0.084" xlink:href="#linear-gradient-2"/>
    <linearGradient id="linear-gradient-7" x1="0.586" y1="0.529" x2="0.427" y2="0.699" gradientUnits="objectBoundingBox">
      <stop offset="0" stop-color="#5a6313" stop-opacity="0"/>
      <stop offset="1" stop-color="#544f43"/>
    </linearGradient>
    <linearGradient id="linear-gradient-8" x1="0.337" y1="0.293" x2="0.642" y2="0.731" gradientUnits="objectBoundingBox">
      <stop offset="0" stop-color="#dd3b32"/>
      <stop offset="0.279" stop-color="#ff4f46"/>
      <stop offset="0.775" stop-color="#ff5b52"/>
      <stop offset="1" stop-color="#dd3b32"/>
    </linearGradient>
    <linearGradient id="linear-gradient-9" x1="-0.051" x2="1" y2="1" gradientUnits="objectBoundingBox">
      <stop offset="0" stop-color="#d30e03" stop-opacity="0"/>
      <stop offset="0.513" stop-color="#d5362e"/>
      <stop offset="1" stop-color="#c9251c"/>
    </linearGradient>
    <clipPath id="clip-path">
      <rect id="Rectangle_55" data-name="Rectangle 55" width="11.791" height="11.887" fill="none"/>
    </clipPath>
    <clipPath id="clip-path-2">
      <rect id="Rectangle_56" data-name="Rectangle 56" width="10.298" height="10.251" fill="none"/>
    </clipPath>
  </defs>
  <g id="Group_244" data-name="Group 244" transform="translate(419.119 -1891.282)">
    <g id="Group_159" data-name="Group 159" transform="translate(-411.726 1932.61)">
      <g id="Group_3" data-name="Group 3" transform="translate(92.802 18.709) rotate(-45)">
        <g id="Group_1" data-name="Group 1" transform="translate(0 0)">
          <path id="Path_1" data-name="Path 1" d="M24.367,41.36C11.892,68.752-2.74,120.169.441,145.641a2.885,2.885,0,0,0,4.71,2.132C26.48,133.4,55.75,88.6,68.225,61.212s6.148-32.978,2.967-58.451A2.885,2.885,0,0,0,66.482.629C45.153,15.008,36.842,13.967,24.367,41.36Z" fill="url(#linear-gradient)"/>
          <path id="Path_2" data-name="Path 2" d="M3.02,147.538C24.35,133.16,53.62,88.369,66.094,60.977S72.242,28,69.061,2.526A3.06,3.06,0,0,0,67.371,0L0,147.931a3.075,3.075,0,0,0,3.02-.393Z" transform="translate(2.131 0.235)" fill="url(#linear-gradient-2)"/>
        </g>
        <g id="Group_2" data-name="Group 2" transform="translate(6.22 79.045)">
          <path id="Path_3" data-name="Path 3" d="M87.1,7.471C59.709,19.959,14.933,49.165.622,70.475a2.885,2.885,0,0,0,2.156,4.7c25.53,3.143,77.007-11.458,104.393-23.946s26.276-20.855,40.588-42.166a2.885,2.885,0,0,0-2.156-4.7C120.071,1.222,114.482-5.017,87.1,7.471Z" fill="url(#linear-gradient-3)"/>
          <path id="Path_4" data-name="Path 4" d="M2.537,69.126C28.067,72.269,79.544,57.668,106.93,45.18s26.276-20.855,40.587-42.166A3.059,3.059,0,0,0,147.9,0L0,67.442A3.078,3.078,0,0,0,2.537,69.126Z" transform="translate(0.24 6.048)" fill="url(#linear-gradient-4)"/>
        </g>
      </g>
      <g id="Group_4" data-name="Group 4" transform="translate(119.755 40.968) rotate(-45)">
        <path id="Path_5" data-name="Path 5" d="M58.923,23.583C37.673,44.9,6.017,87.978.108,112.958a2.885,2.885,0,0,0,3.67,3.641C28.784,110.57,71.846,78.81,93.1,57.494s17.271-28.759,23.18-53.74a2.885,2.885,0,0,0-3.67-3.641C87.6,6.143,80.174,2.267,58.923,23.583Z" fill="url(#linear-gradient-5)"/>
        <path id="Path_6" data-name="Path 6" d="M2.968,115.8C27.973,109.772,71.035,78.012,92.286,56.7s17.271-28.759,23.18-53.74a3.062,3.062,0,0,0-.7-2.956L0,115.117A3.078,3.078,0,0,0,2.968,115.8Z" transform="translate(0.81 0.798)" fill="url(#linear-gradient-6)"/>
      </g>
      <path id="Path_7" data-name="Path 7" d="M11.012,0C3.68,24.476-1.6,51.438.441,67.756a2.862,2.862,0,0,0,2.907,2.753,2.762,2.762,0,0,0,2.875,3.114A2.893,2.893,0,0,0,9,76.333c16.34,2.012,43.3-3.248,67.781-10.568Z" transform="translate(147.876 73.781) rotate(-45)" fill="url(#linear-gradient-7)"/>
      <path id="Path_15" data-name="Path 15" d="M250.2,169.419C179.528,240.089,41.957,322.477,7.921,288.441S56.272,116.834,126.943,46.164s102.863-47.679,136.9-13.643,57.028,66.227-13.643,136.9Z" transform="translate(-7.393 251.307) rotate(-45)" fill="url(#linear-gradient-8)"/>
      <path id="Path_9" data-name="Path 9" d="M2.839.5A89.857,89.857,0,0,1,15.266,6.188c2.466,1.34,5.045,2.91,7.7,4.659,2.63,1.786,5.373,3.722,8.028,5.912a104.555,104.555,0,0,1,7.917,7.063c2.56,2.544,5.03,5.249,7.355,8.076q1.737,2.125,3.343,4.346c1.119,1.44,2.088,2.985,3.078,4.492,1.023,1.484,1.893,3.06,2.774,4.6.906,1.519,1.668,3.111,2.441,4.655a81.851,81.851,0,0,1,3.814,9.262c.548,1.5.952,3.026,1.371,4.48s.759,2.888,1.037,4.288a74.9,74.9,0,0,1,1.216,7.709c.2,2.348.282,4.421.324,6.126-.023,1.73-1.652,2.414-2.234.973l-2.36-5.064c-.992-1.909-1.986-4.112-3.277-6.4-.612-1.162-1.228-2.382-1.969-3.586C55.1,66.561,54.463,65.249,53.634,64,52.1,61.419,50.4,58.761,48.6,56.044c-.962-1.321-1.8-2.75-2.816-4.093s-1.945-2.76-2.989-4.121c-1.017-1.379-2.071-2.746-3.137-4.114-1.042-1.386-2.142-2.738-3.261-4.074-2.158-2.735-4.483-5.341-6.716-7.953l-3.416-3.8L22.871,24.22c-4.48-4.789-8.786-9.168-12.529-12.892L1.4,2.5C-.913.219-.307-.636,2.839.5Z" transform="translate(185.553 198.524) rotate(-45)" fill="url(#linear-gradient-9)"/>
      <path id="Path_10" data-name="Path 10" d="M2.561.08A86.918,86.918,0,0,1,15.109,2.565c2.544.682,5.246,1.543,8.067,2.548,2.8,1.043,5.746,2.2,8.678,3.593,2.962,1.357,5.929,2.928,8.874,4.639,2.936,1.731,5.834,3.624,8.635,5.656q2.1,1.53,4.1,3.172c1.369,1.048,2.63,2.221,3.9,3.356,1.295,1.107,2.478,2.329,3.66,3.514,1.2,1.163,2.291,2.422,3.379,3.634a81.206,81.206,0,0,1,5.8,7.45c.876,1.218,1.633,2.5,2.384,3.7s1.427,2.414,2.038,3.6a72.263,72.263,0,0,1,3.089,6.616c.79,2.052,1.4,3.882,1.885,5.393.431,1.548-.839,2.5-1.732,1.337l-3.417-4.021c-1.379-1.494-2.836-3.25-4.58-5.02-.846-.908-1.711-1.866-2.684-2.784s-1.87-1.966-2.933-2.909c-2.03-1.977-4.236-3.989-6.546-6.033-1.2-.976-2.319-2.073-3.568-3.058S51.69,34.9,50.409,33.908c-1.263-1.015-2.555-2.014-3.86-3.01-1.287-1.017-2.616-1.991-3.959-2.949-2.63-1.987-5.376-3.823-8.041-5.683L30.52,19.592l-3.97-2.559c-5.23-3.332-10.2-6.335-14.5-8.873l-10.257-6C-.86.607-.539-.28,2.561.08Z" transform="translate(118.801 247.532) rotate(-45)" fill="url(#linear-gradient-9)"/>
      <path id="Path_11" data-name="Path 11" d="M2.561.08A86.916,86.916,0,0,1,15.109,2.565c2.544.682,5.246,1.543,8.067,2.548,2.8,1.043,5.747,2.2,8.678,3.593,2.962,1.357,5.929,2.928,8.874,4.639,2.937,1.731,5.834,3.624,8.635,5.656q2.1,1.53,4.1,3.172c1.369,1.048,2.631,2.221,3.9,3.356,1.295,1.106,2.478,2.329,3.66,3.513,1.2,1.163,2.291,2.422,3.379,3.634a81.217,81.217,0,0,1,5.8,7.45c.876,1.218,1.633,2.5,2.384,3.7s1.427,2.414,2.037,3.6a72.257,72.257,0,0,1,3.089,6.616c.79,2.052,1.4,3.882,1.885,5.393.431,1.548-.839,2.5-1.732,1.337l-3.417-4.021c-1.379-1.494-2.837-3.25-4.58-5.02-.847-.908-1.711-1.866-2.684-2.784s-1.87-1.966-2.932-2.909c-2.03-1.977-4.236-3.989-6.546-6.033-1.2-.976-2.319-2.073-3.568-3.058S51.69,34.9,50.408,33.907c-1.263-1.015-2.556-2.014-3.86-3.01-1.287-1.017-2.617-1.991-3.96-2.949-2.63-1.987-5.376-3.823-8.041-5.684L30.52,19.59l-3.97-2.559c-5.23-3.332-10.2-6.335-14.5-8.873l-10.257-6C-.86.607-.54-.28,2.561.08Z" transform="translate(119.244 148.173) rotate(-45)" fill="url(#linear-gradient-9)"/>
      <path id="Path_12" data-name="Path 12" d="M2.4.5a84.724,84.724,0,0,1,10.8,5.29c2.154,1.232,4.415,2.663,6.754,4.252,2.317,1.618,4.736,3.369,7.1,5.336,2.4,1.938,4.756,4.069,7.068,6.32,2.3,2.267,4.535,4.669,6.656,7.173q1.585,1.882,3.066,3.842c1.025,1.273,1.931,2.631,2.852,3.959.947,1.308,1.773,2.692,2.6,4.041.852,1.335,1.587,2.73,2.329,4.083a80.527,80.527,0,0,1,3.763,8.1c.551,1.307.983,2.637,1.424,3.905s.814,2.515,1.132,3.732c.7,2.395,1.111,4.689,1.494,6.7.313,2.036.509,3.831.65,5.308.088,1.5-1.236,2.047-1.813.785l-2.291-4.444c-.949-1.678-1.919-3.609-3.142-5.624-.584-1.022-1.176-2.092-1.871-3.153s-1.3-2.221-2.071-3.326c-1.44-2.27-3.031-4.612-4.71-7.008-.887-1.168-1.681-2.425-2.612-3.613s-1.8-2.438-2.759-3.642c-.938-1.219-1.9-2.429-2.884-3.641-.959-1.226-1.964-2.424-2.985-3.61-1.977-2.422-4.087-4.739-6.121-7.057l-3.1-3.381-3.07-3.263c-4.053-4.264-7.937-8.169-11.308-11.494L1.3,2.177C-.783.138-.321-.58,2.4.5Z" transform="translate(185.553 281.513) rotate(-45)" fill="url(#linear-gradient-9)"/>
      <path id="Path_13" data-name="Path 13" d="M2.219.138A82.571,82.571,0,0,1,13.232,2.878c2.237.706,4.619,1.571,7.106,2.564,2.474,1.024,5.073,2.147,7.669,3.477,2.621,1.3,5.254,2.774,7.873,4.369,2.612,1.611,5.2,3.358,7.7,5.216q1.874,1.4,3.673,2.888c1.226.955,2.364,2.01,3.509,3.035,1.164,1,2.235,2.094,3.3,3.156,1.084,1.045,2.077,2.165,3.066,3.245a79.944,79.944,0,0,1,5.308,6.6c.806,1.076,1.511,2.2,2.208,3.258s1.33,2.118,1.9,3.157c1.2,2.032,2.113,4.028,2.934,5.769.765,1.782,1.367,3.368,1.844,4.676.434,1.337-.63,2.088-1.45,1.055l-3.12-3.583c-1.254-1.337-2.586-2.9-4.167-4.487-.769-.813-1.557-1.668-2.435-2.5s-1.7-1.76-2.656-2.612c-1.837-1.778-3.826-3.592-5.909-5.44-1.077-.887-2.091-1.873-3.212-2.769s-2.2-1.861-3.351-2.767c-1.135-.924-2.293-1.834-3.463-2.743-1.155-.925-2.346-1.818-3.547-2.7-2.357-1.815-4.81-3.507-7.194-5.216l-3.6-2.468L23.69,15.7c-4.668-3.085-9.1-5.878-12.931-8.244l-9.141-5.6C-.747.41-.5-.325,2.219.138Z" transform="translate(133.534 332.931) rotate(-45)" fill="url(#linear-gradient-9)"/>
      <path id="Path_14" data-name="Path 14" d="M2.083.333a80.845,80.845,0,0,1,9.985,3.976c2.015.944,4.148,2.055,6.37,3.3,2.207,1.269,4.518,2.646,6.811,4.211,2.318,1.539,4.631,3.246,6.92,5.06s4.525,3.775,6.686,5.816q1.616,1.535,3.155,3.143C43.063,26.877,44.026,28,45,29.093c.993,1.075,1.89,2.224,2.79,3.342s1.738,2.267,2.562,3.394a79.371,79.371,0,0,1,4.352,6.78c.655,1.1,1.212,2.224,1.767,3.294s1.051,2.128,1.494,3.162c.934,2.031,1.613,3.993,2.224,5.708.556,1.745.979,3.288,1.309,4.559.288,1.292-.762,1.847-1.434.787L57.479,56.4c-1.048-1.4-2.148-3.014-3.478-4.686-.643-.85-1.3-1.743-2.043-2.621s-1.422-1.846-2.237-2.757c-1.55-1.88-3.238-3.815-5.009-5.792-.922-.959-1.777-2-2.739-2.975s-1.88-2-2.868-2.991c-.972-1-1.968-1.992-2.975-2.983s-2.018-1.984-3.056-2.951c-2.029-1.982-4.158-3.864-6.221-5.753L23.73,20.148,20.648,17.5c-4.063-3.457-7.931-6.614-11.281-9.3l-8-6.365C-.7.192-.4-.452,2.083.333Z" transform="translate(173.838 369.633) rotate(-45)" fill="url(#linear-gradient-9)"/>
    </g>
    <g id="Group_239" data-name="Group 239" transform="translate(-2242.452 -1013.937)">
      <path id="Path_333" data-name="Path 333" d="M181.485,386.622a137.535,137.535,0,0,1,21.027-2.161c9.434,0,11.989-6.092,11.989-6.092-23.189-7.272-33.017,8.253-33.017,8.253" transform="translate(1835.695 2848.539)" fill="#ffa4a7"/>
      <path id="Path_334" data-name="Path 334" d="M190,377.22c1.573-.2.983-9.826.983-9.826a42.122,42.122,0,0,1-9.63-.981s-.786,7.663,0,9.236,7.075,1.768,8.647,1.571" transform="translate(1835.438 2843.201)" fill="#fff"/>
      <path id="Path_335" data-name="Path 335" d="M190.42,377.209c1.567.236,7.858.195,8.683-1.357s.228-9.234.228-9.234a42.2,42.2,0,0,1-9.648.745s-.831,9.612.737,9.846" transform="translate(1839.947 2843.311)" fill="#fff"/>
      <path id="Path_336" data-name="Path 336" d="M212.562,291.639c-18.325-3.261-29.282,17.764-29.282,45.582s15.089,50.369,33.7,50.369,33.7-22.551,33.7-50.369-16.392-41.714-38.123-45.582m-6.486,68.228c-9.552,0-17.295-8.755-17.295-19.553s7.743-19.554,17.295-19.554,17.292,8.755,17.292,19.554-7.741,19.553-17.292,19.553" transform="translate(1836.652 2803.173)" fill="#fff"/>
      <path id="Path_337" data-name="Path 337" d="M201.862,314.53c-5.663-9.866-14.644-15.372-24.368-11.635-15.754,6.057-30.582,13.355-30.619,36.063a50.625,50.625,0,0,0,6.239,24.984,31.4,31.4,0,0,0,9.389,10.147c3.5,2.345,8.358,2.1,12.363,2.269,10.278.429,21.217-2.9,26.695-12.009.829-1.377,3.132-4.61,3.834-7.026a74.9,74.9,0,0,1-4.777-26.784,99.088,99.088,0,0,1,1.243-16.009m-20.4,47.255c-9.55,0-17.293-8.755-17.293-19.553s7.743-19.554,17.293-19.554,17.293,8.756,17.293,19.554-7.743,19.553-17.293,19.553" transform="translate(1817.25 2808.722)" fill="#fff"/>
      <path id="Path_338" data-name="Path 338" d="M175.037,316.261c-8.9,0-16.114,8.158-16.114,18.221s7.214,18.221,16.114,18.221,16.116-8.158,16.116-18.221-7.216-18.221-16.116-18.221m0,34.885c-8.14,0-14.736-7.461-14.736-16.665s6.6-16.666,14.736-16.666,14.739,7.464,14.739,16.666-6.6,16.665-14.739,16.665" transform="translate(1823.671 2816.473)" fill="#fff"/>
      <path id="Path_339" data-name="Path 339" d="M197.222,323.881a3.226,3.226,0,1,0,3.225,3.227,3.262,3.262,0,0,0-3.225-3.227" transform="translate(1842.362 2820.534)" fill="#fff"/>
      <path id="Path_340" data-name="Path 340" d="M202.351,314.366c-6.673,0-12.08,6.115-12.08,13.657s5.407,13.659,12.08,13.659,12.08-6.115,12.08-13.659-5.41-13.657-12.08-13.657m0,23.434c-4.778,0-8.649-4.377-8.649-9.777s3.871-9.777,8.649-9.777S211,322.624,211,328.023s-3.872,9.777-8.646,9.777" transform="translate(1840.378 2815.463)" fill="#fff"/>
      <path id="Path_341" data-name="Path 341" d="M203.754,311.389c-8.9,0-16.116,8.157-16.116,18.221s7.216,18.221,16.116,18.221,16.114-8.158,16.114-18.221-7.214-18.221-16.114-18.221m0,34.885c-8.141,0-14.741-7.462-14.741-16.665s6.6-16.666,14.741-16.666S218.49,320.4,218.49,329.61s-6.6,16.665-14.736,16.665" transform="translate(1838.975 2813.876)" fill="#fff"/>
      <path id="Path_342" data-name="Path 342" d="M173.635,319.236c-6.67,0-12.08,6.116-12.08,13.659s5.41,13.657,12.08,13.657,12.08-6.115,12.08-13.657-5.408-13.659-12.08-13.659m0,23.436c-4.775,0-8.647-4.378-8.647-9.777s3.872-9.776,8.647-9.776,8.649,4.377,8.649,9.776-3.874,9.777-8.649,9.777" transform="translate(1825.074 2818.059)" fill="#fff"/>
      <path id="Path_343" data-name="Path 343" d="M172.607,323.331a3.226,3.226,0,1,0,3.227,3.225,3.263,3.263,0,0,0-3.227-3.225" transform="translate(1829.244 2820.241)" fill="#fff"/>
      <path id="Path_344" data-name="Path 344" d="M216.248,365.408c-16.931,0-30.751-19.91-31.55-44.917q-.039,1.32-.038,2.667c0,26.072,14.143,47.209,31.588,47.209s31.586-21.136,31.586-47.209q0-1.232-.043-2.424c-.883,24.892-14.669,44.673-31.543,44.673" transform="translate(1837.388 2818.727)" fill="#d1d1d1"/>
      <path id="Path_345" data-name="Path 345" d="M199.672,346.04c-5.191,8.623-15.546,11.778-25.278,11.371-3.794-.159-8.4.072-11.706-2.149a29.725,29.725,0,0,1-8.891-9.607,47.212,47.212,0,0,1-5.844-21.014q-.06,1.152-.066,2.367a47.923,47.923,0,0,0,5.909,23.656,29.726,29.726,0,0,0,8.891,9.607c3.307,2.22,7.911,1.991,11.706,2.149,9.733.4,20.088-2.749,25.278-11.371.783-1.3,2.965-4.366,3.628-6.653q-.515-1.334-.975-2.723c-.914,1.738-2.115,3.469-2.653,4.366" transform="translate(1817.79 2820.94)" fill="#d1d1d1"/>
      <path id="Path_346" data-name="Path 346" d="M190.97,367.054c-.189.008-.379.014-.57.017.066,2.862,0,7.36-1.075,7.495-1.429.179-6.768.032-8.309-1.182a5.637,5.637,0,0,0,.325,1.925c.785,1.571,7.073,1.768,8.646,1.571s.983-9.826.983-9.826" transform="translate(1835.446 2843.543)" fill="#d1d1d1"/>
      <path id="Path_347" data-name="Path 347" d="M199.3,366.618s-.187.038-.518.1c.1,2.391.153,5.837-.373,6.822-.823,1.551-7.114,1.593-8.683,1.357a.453.453,0,0,1-.205-.1c.118,1.34.374,2.341.868,2.416,1.567.235,7.858.195,8.683-1.358s.228-9.233.228-9.233" transform="translate(1839.978 2843.311)" fill="#d1d1d1"/>
      <path id="Path_348" data-name="Path 348" d="M191.141,378.621a23.562,23.562,0,0,0-9.656,7.78,137.537,137.537,0,0,1,21.027-2.161c9.434,0,11.988-6.092,11.988-6.092a44.791,44.791,0,0,0-5.2-1.3c-5.765,2.666-11.992,3.851-18.164,1.778" transform="translate(1835.695 2848.76)" fill="#ff7075"/>
      <path id="Path_349" data-name="Path 349" d="M200.011,382.077c-4.26.7-10.079,1.536-14.359-.325a20.526,20.526,0,0,0-4.167,4.395,137.658,137.658,0,0,1,21.027-2.16c9.434,0,11.989-6.093,11.989-6.093-.674-.212-1.338-.4-1.988-.575a31.972,31.972,0,0,1-12.5,4.758" transform="translate(1835.695 2849.014)" fill="#ff5258"/>
      <path id="Path_350" data-name="Path 350" d="M232.307,288.986c-4.628-.823-8.528.392-12.964,1.334-3.435.73-7.533,1.19-10.079-1.826-.15-.176-.492,0-.365.221a8.21,8.21,0,0,0,6.146,4.268c.308.048.615.078.926.1-6.029,4.835-10.392,13.314-12.785,23.977a28.5,28.5,0,0,0-8.908-8.954,5.6,5.6,0,0,0,2.69-5.048,6.193,6.193,0,0,0-1.133-3.271c-.055-.084-.2,0-.155.094.722,1.446.486,4.131-.927,5.166-1.114.817-2.3.343-3.584.255-4.128-.281-8.738-.124-12.638,1.375-16.714,6.426-32.448,14.172-32.489,38.267-.025,14.425,5.246,29.452,16.959,38.442a17.749,17.749,0,0,0-2.563,2.434c-2.352,3.047,2.367,5.224,4.728,5.328a.048.048,0,0,0,.012-.1c-2.457-.346-4.53-3.317-2.266-5.126,2.885-2.3,7.652-.747,10.97-.455a46.176,46.176,0,0,0,10.268-.15c4.784-.651,10.738-2.45,14.517-5.58a14.66,14.66,0,0,1-6.267,5.644,12.241,12.241,0,0,0,6.454-3.642,27.783,27.783,0,0,0,4.326-5.765q1-1.745,2.1-3.457c2.839-4.433,6.245,3.117,7.7,5.073a40.469,40.469,0,0,0,7.01,7.378,27.4,27.4,0,0,0,17.036,6.4,25.689,25.689,0,0,0,11.817-2.971,42.642,42.642,0,0,0,7.321-4.962c2.669-2.187,5.215-4.455,7.924-6.572,1.41-1.1,2.657-2.276,4.59-2.2.044,0,.064-.064.02-.08-2.281-.8-4.561.1-6.494,1.409,6.653-9.754,10.783-23.342,10.783-38.371,0-29.684-17.489-44.511-40.68-48.639M202,371.434c-5.476,9.107-16.416,12.438-26.693,12.009-4.007-.166-8.87.077-12.363-2.269a31.424,31.424,0,0,1-9.391-10.147,50.624,50.624,0,0,1-6.238-24.984c.035-22.708,14.863-30.007,30.618-36.062,9.723-3.737,18.706,1.768,24.368,11.635a99.262,99.262,0,0,0-1.243,16.009,74.9,74.9,0,0,0,4.777,26.784c-.7,2.416-3,5.649-3.834,7.026m34.825,17.692c-18.615,0-33.7-22.55-33.7-50.369s10.959-48.843,29.282-45.582c21.731,3.868,38.123,17.764,38.123,45.582s-15.089,50.369-33.7,50.369" transform="translate(1816.806 2801.637)" fill="#222"/>
      <path id="Path_351" data-name="Path 351" d="M204.164,310.519c-9.552,0-17.295,8.755-17.295,19.554s7.743,19.554,17.295,19.554,17.292-8.755,17.292-19.554-7.741-19.554-17.292-19.554m0,37.775c-8.9,0-16.116-8.158-16.116-18.221s7.216-18.219,16.116-18.219,16.114,8.157,16.114,18.219-7.214,18.221-16.114,18.221" transform="translate(1838.565 2813.413)" fill="#222"/>
      <path id="Path_352" data-name="Path 352" d="M203.276,312.4c-8.141,0-14.741,7.461-14.741,16.665s6.6,16.665,14.741,16.665,14.736-7.461,14.736-16.665-6.6-16.665-14.736-16.665m0,30.323c-6.673,0-12.08-6.115-12.08-13.659s5.407-13.657,12.08-13.657,12.08,6.115,12.08,13.657-5.41,13.659-12.08,13.659" transform="translate(1839.453 2814.417)" fill="#222"/>
      <path id="Path_353" data-name="Path 353" d="M201.159,316.9c-4.778,0-8.649,4.378-8.649,9.777s3.871,9.777,8.649,9.777,8.644-4.377,8.644-9.777-3.871-9.777-8.644-9.777m-3.146,17.158a3.226,3.226,0,1,1,3.225-3.225,3.281,3.281,0,0,1-3.225,3.225" transform="translate(1841.571 2816.812)" fill="#222"/>
      <path id="Path_354" data-name="Path 354" d="M175.447,315.391c-9.55,0-17.293,8.755-17.293,19.553S165.9,354.5,175.447,354.5s17.293-8.755,17.293-19.554S185,315.391,175.447,315.391m0,37.773c-8.9,0-16.114-8.157-16.114-18.221s7.214-18.219,16.114-18.219,16.116,8.157,16.116,18.219-7.216,18.221-16.116,18.221" transform="translate(1823.261 2816.009)" fill="#222"/>
      <path id="Path_355" data-name="Path 355" d="M174.558,317.275c-8.14,0-14.736,7.462-14.736,16.666s6.6,16.665,14.736,16.665,14.739-7.461,14.739-16.665-6.6-16.666-14.739-16.666m0,30.323c-6.67,0-12.08-6.115-12.08-13.657s5.41-13.659,12.08-13.659,12.08,6.116,12.08,13.659S181.23,347.6,174.558,347.6" transform="translate(1824.15 2817.013)" fill="#222"/>
      <path id="Path_356" data-name="Path 356" d="M172.44,321.769c-4.775,0-8.647,4.377-8.647,9.776s3.872,9.777,8.647,9.777,8.649-4.378,8.649-9.777-3.874-9.776-8.649-9.776m3.144,8.847a3.226,3.226,0,1,1,3.227-3.227,3.282,3.282,0,0,1-3.227,3.227" transform="translate(1826.267 2819.408)" fill="#222"/>
      <path id="Path_357" data-name="Path 357" d="M199.49,289.352c8.632,1.252,27.495.228,31.312.809s8.01,4.68,8.01,4.68-5.129-18.426-11.661-18.519-34.8,7.269-40.405-.828c0,0,4.113,12.605,12.745,13.858" transform="translate(1838.499 2794.747)" fill="#222"/>
      <path id="Path_358" data-name="Path 358" d="M177.41,275.715c-9.429-2.75-25.153,25.94-25.153,25.94,15.132-12.969,37.142-18.472,37.142-18.472s-2.557-4.717-11.989-7.469" transform="translate(1820.119 2794.765)" fill="#222"/>
      <path id="Path_359" data-name="Path 359" d="M202.149,386.431a9.949,9.949,0,0,0-3.881-.491,23.47,23.47,0,0,0-4.186.923c-2.834.822-5.355,2.324-8.048,3.494-.1.041-.055.213.052.184,5.315-1.409,10.9-1.728,16.074-3.676a.236.236,0,0,0-.011-.434" transform="translate(1838.09 2853.588)" fill="#222"/>
      <path id="Path_360" data-name="Path 360" d="M226.354,361.279c1.367-2.2,2.329-5.007,1.66-7.591a6.768,6.768,0,0,0-4.412-4.665.146.146,0,0,0-.135.254c1.577,1.122,2.338,3.3,2.657,5.146a19.378,19.378,0,0,1-.12,6.722.2.2,0,0,0,.35.133" transform="translate(1858.038 2833.928)" fill="#222"/>
      <path id="Path_361" data-name="Path 361" d="M162.443,361.9a5.415,5.415,0,0,0,2.519-.658.53.53,0,0,0-.026-.835c-1.545-1.076-4.387.322-5.8,1.1a15.232,15.232,0,0,0-4.674,4.094c-.146.187.139.376.293.21a11.99,11.99,0,0,1,3.541-2.634c1.1-.546,4.429.164,5.542.6,7.544,2.93,15.656,10.021,17.923,18.041,1.237,4.381,1.375,8.965,2.537,13.344,1.254,4.729,7.671,4.9,11.627,4.806,5.818-.132,11.482-1.732,17.284-2.056a53.489,53.489,0,0,0,7.068-.492c7.7-1.469,13.521-9.417,17.515-15.575a102.927,102.927,0,0,0,5.951-10.533c1.065-2.166,5.862-13.639,9.386-10.34a2.925,2.925,0,0,1,.8,2.3,8.526,8.526,0,0,1-.612,2.428,12.624,12.624,0,0,0,2.615-3.569,6.019,6.019,0,0,0,.645-4.271,7.785,7.785,0,0,0-2.142-3.038c-.026-.026-.049-.049-.074-.075a.794.794,0,0,0-.506-.27.9.9,0,0,0-.564.277c-4.794,4.015-9.164,8.23-14.753,11.129a59.606,59.606,0,0,1-17.843,5.819c-13.66,2.23-27.716,0-40.884-3.84-3.8-1.11-7.541-2.379-11.281-3.681a33.034,33.034,0,0,0-5.419-1.4,13.552,13.552,0,0,0-3.357-.218l.008,0a16.954,16.954,0,0,1,2.683-.656m66.482,28.169s-2.555,6.092-11.989,6.092a137.537,137.537,0,0,0-21.027,2.161s9.826-15.524,33.017-8.253m-20.568-16.235a42.137,42.137,0,0,0,9.648-.743s.6,7.682-.228,9.234-7.116,1.593-8.683,1.357-.737-9.848-.737-9.848m-12.841-1.058a42.168,42.168,0,0,0,9.628.983s.59,9.628-.981,9.825-7.862,0-8.647-1.571,0-9.236,0-9.236" transform="translate(1821.272 2836.839)" fill="#222"/>
      <g id="Group_195" data-name="Group 195" transform="translate(2033.814 3141.62)" opacity="0.43">
        <g id="Group_194" data-name="Group 194">
          <g id="Group_193" data-name="Group 193" clip-path="url(#clip-path)">
            <path id="Path_362" data-name="Path 362" d="M204.094,327.106a5.909,5.909,0,0,0-1.255-2.834c-.386-.365-.77-.728-1.157-1.093a5.921,5.921,0,0,0-2.828-1.073,6.1,6.1,0,0,0-6.517,5.278c.009.5.023,1.009.034,1.514a5.913,5.913,0,0,0,1.254,2.834q.577.547,1.157,1.091a5.9,5.9,0,0,0,2.83,1.073,6.092,6.092,0,0,0,6.515-5.275l-.032-1.516" transform="translate(-192.336 -322.058)" fill="#fff"/>
          </g>
        </g>
      </g>
      <g id="Group_198" data-name="Group 198" transform="translate(1996.751 3142.088)" opacity="0.43">
        <g id="Group_197" data-name="Group 197">
          <g id="Group_196" data-name="Group 196" clip-path="url(#clip-path-2)">
            <path id="Path_363" data-name="Path 363" d="M173.847,322.363c-2.781,0-5.353,1.616-5.666,4.588-.267,2.543,1.79,5.663,4.588,5.663,2.781,0,5.352-1.614,5.663-4.588.27-2.543-1.789-5.663-4.585-5.663" transform="translate(-168.158 -322.363)" fill="#fff"/>
          </g>
        </g>
      </g>
    </g>
  </g>
</svg>
