<svg xmlns="http://www.w3.org/2000/svg" xmlns:xlink="http://www.w3.org/1999/xlink" width="419.119" height="502.194" viewBox="0 0 419.119 502.194">
  <defs>
    <linearGradient id="linear-gradient" x1="0.5" y1="0.133" x2="0.89" y2="0.5" gradientUnits="objectBoundingBox">
      <stop offset="0" stop-color="#c4d143"/>
      <stop offset="1" stop-color="#7c8a1a"/>
    </linearGradient>
    <linearGradient id="linear-gradient-2" x1="1.148" y1="0.346" x2="0.5" y2="0.135" gradientUnits="objectBoundingBox">
      <stop offset="0" stop-color="#7c8a1a" stop-opacity="0"/>
      <stop offset="0.315" stop-color="#768319" stop-opacity="0.314"/>
      <stop offset="0.781" stop-color="#646f15" stop-opacity="0.78"/>
      <stop offset="1" stop-color="#5a6313"/>
    </linearGradient>
    <linearGradient id="linear-gradient-3" x1="0.423" y1="0.116" x2="0.658" y2="0.705" xlink:href="#linear-gradient"/>
    <linearGradient id="linear-gradient-4" x1="1" y1="1" x2="0.395" y2="0.356" xlink:href="#linear-gradient-2"/>
    <linearGradient id="linear-gradient-5" x1="0.246" y1="0.5" x2="0.5" y2="0.748" xlink:href="#linear-gradient"/>
    <linearGradient id="linear-gradient-6" x1="0.886" y1="0.362" x2="0.613" y2="0.084" xlink:href="#linear-gradient-2"/>
    <linearGradient id="linear-gradient-7" x1="0.586" y1="0.529" x2="0.427" y2="0.699" gradientUnits="objectBoundingBox">
      <stop offset="0" stop-color="#5a6313" stop-opacity="0"/>
      <stop offset="1" stop-color="#544f43"/>
    </linearGradient>
    <linearGradient id="linear-gradient-8" x1="0.337" y1="0.293" x2="0.642" y2="0.731" gradientUnits="objectBoundingBox">
      <stop offset="0" stop-color="#dd3b32"/>
      <stop offset="0.279" stop-color="#ff4f46"/>
      <stop offset="0.775" stop-color="#ff5b52"/>
      <stop offset="1" stop-color="#dd3b32"/>
    </linearGradient>
    <linearGradient id="linear-gradient-9" x1="-0.051" x2="1" y2="1" gradientUnits="objectBoundingBox">
      <stop offset="0" stop-color="#d30e03" stop-opacity="0"/>
      <stop offset="0.513" stop-color="#d5362e"/>
      <stop offset="1" stop-color="#c9251c"/>
    </linearGradient>
    <clipPath id="clip-path">
      <rect id="Rectangle_53" data-name="Rectangle 53" width="11.849" height="11.945" fill="none"/>
    </clipPath>
    <clipPath id="clip-path-2">
      <rect id="Rectangle_54" data-name="Rectangle 54" width="13.306" height="13.283" fill="none"/>
    </clipPath>
  </defs>
  <g id="Group_246" data-name="Group 246" transform="translate(-460.881 -1891.282)">
    <g id="Group_159" data-name="Group 159" transform="translate(468.274 1932.61)">
      <g id="Group_3" data-name="Group 3" transform="translate(92.802 18.709) rotate(-45)">
        <g id="Group_1" data-name="Group 1" transform="translate(0 0)">
          <path id="Path_1" data-name="Path 1" d="M24.367,41.36C11.892,68.752-2.74,120.169.441,145.641a2.885,2.885,0,0,0,4.71,2.132C26.48,133.4,55.75,88.6,68.225,61.212s6.148-32.978,2.967-58.451A2.885,2.885,0,0,0,66.482.629C45.153,15.008,36.842,13.967,24.367,41.36Z" fill="url(#linear-gradient)"/>
          <path id="Path_2" data-name="Path 2" d="M3.02,147.538C24.35,133.16,53.62,88.369,66.094,60.977S72.242,28,69.061,2.526A3.06,3.06,0,0,0,67.371,0L0,147.931a3.075,3.075,0,0,0,3.02-.393Z" transform="translate(2.131 0.235)" fill="url(#linear-gradient-2)"/>
        </g>
        <g id="Group_2" data-name="Group 2" transform="translate(6.22 79.045)">
          <path id="Path_3" data-name="Path 3" d="M87.1,7.471C59.709,19.959,14.933,49.165.622,70.475a2.885,2.885,0,0,0,2.156,4.7c25.53,3.143,77.007-11.458,104.393-23.946s26.276-20.855,40.588-42.166a2.885,2.885,0,0,0-2.156-4.7C120.071,1.222,114.482-5.017,87.1,7.471Z" fill="url(#linear-gradient-3)"/>
          <path id="Path_4" data-name="Path 4" d="M2.537,69.126C28.067,72.269,79.544,57.668,106.93,45.18s26.276-20.855,40.587-42.166A3.059,3.059,0,0,0,147.9,0L0,67.442A3.078,3.078,0,0,0,2.537,69.126Z" transform="translate(0.24 6.048)" fill="url(#linear-gradient-4)"/>
        </g>
      </g>
      <g id="Group_4" data-name="Group 4" transform="translate(119.755 40.968) rotate(-45)">
        <path id="Path_5" data-name="Path 5" d="M58.923,23.583C37.673,44.9,6.017,87.978.108,112.958a2.885,2.885,0,0,0,3.67,3.641C28.784,110.57,71.846,78.81,93.1,57.494s17.271-28.759,23.18-53.74a2.885,2.885,0,0,0-3.67-3.641C87.6,6.143,80.174,2.267,58.923,23.583Z" fill="url(#linear-gradient-5)"/>
        <path id="Path_6" data-name="Path 6" d="M2.968,115.8C27.973,109.772,71.035,78.012,92.286,56.7s17.271-28.759,23.18-53.74a3.062,3.062,0,0,0-.7-2.956L0,115.117A3.078,3.078,0,0,0,2.968,115.8Z" transform="translate(0.81 0.798)" fill="url(#linear-gradient-6)"/>
      </g>
      <path id="Path_7" data-name="Path 7" d="M11.012,0C3.68,24.476-1.6,51.438.441,67.756a2.862,2.862,0,0,0,2.907,2.753,2.762,2.762,0,0,0,2.875,3.114A2.893,2.893,0,0,0,9,76.333c16.34,2.012,43.3-3.248,67.781-10.568Z" transform="translate(147.876 73.781) rotate(-45)" fill="url(#linear-gradient-7)"/>
      <path id="Path_15" data-name="Path 15" d="M250.2,169.419C179.528,240.089,41.957,322.477,7.921,288.441S56.272,116.834,126.943,46.164s102.863-47.679,136.9-13.643,57.028,66.227-13.643,136.9Z" transform="translate(-7.393 251.307) rotate(-45)" fill="url(#linear-gradient-8)"/>
      <path id="Path_9" data-name="Path 9" d="M2.839.5A89.857,89.857,0,0,1,15.266,6.188c2.466,1.34,5.045,2.91,7.7,4.659,2.63,1.786,5.373,3.722,8.028,5.912a104.555,104.555,0,0,1,7.917,7.063c2.56,2.544,5.03,5.249,7.355,8.076q1.737,2.125,3.343,4.346c1.119,1.44,2.088,2.985,3.078,4.492,1.023,1.484,1.893,3.06,2.774,4.6.906,1.519,1.668,3.111,2.441,4.655a81.851,81.851,0,0,1,3.814,9.262c.548,1.5.952,3.026,1.371,4.48s.759,2.888,1.037,4.288a74.9,74.9,0,0,1,1.216,7.709c.2,2.348.282,4.421.324,6.126-.023,1.73-1.652,2.414-2.234.973l-2.36-5.064c-.992-1.909-1.986-4.112-3.277-6.4-.612-1.162-1.228-2.382-1.969-3.586C55.1,66.561,54.463,65.249,53.634,64,52.1,61.419,50.4,58.761,48.6,56.044c-.962-1.321-1.8-2.75-2.816-4.093s-1.945-2.76-2.989-4.121c-1.017-1.379-2.071-2.746-3.137-4.114-1.042-1.386-2.142-2.738-3.261-4.074-2.158-2.735-4.483-5.341-6.716-7.953l-3.416-3.8L22.871,24.22c-4.48-4.789-8.786-9.168-12.529-12.892L1.4,2.5C-.913.219-.307-.636,2.839.5Z" transform="translate(185.553 198.524) rotate(-45)" fill="url(#linear-gradient-9)"/>
      <path id="Path_10" data-name="Path 10" d="M2.561.08A86.918,86.918,0,0,1,15.109,2.565c2.544.682,5.246,1.543,8.067,2.548,2.8,1.043,5.746,2.2,8.678,3.593,2.962,1.357,5.929,2.928,8.874,4.639,2.936,1.731,5.834,3.624,8.635,5.656q2.1,1.53,4.1,3.172c1.369,1.048,2.63,2.221,3.9,3.356,1.295,1.107,2.478,2.329,3.66,3.514,1.2,1.163,2.291,2.422,3.379,3.634a81.206,81.206,0,0,1,5.8,7.45c.876,1.218,1.633,2.5,2.384,3.7s1.427,2.414,2.038,3.6a72.263,72.263,0,0,1,3.089,6.616c.79,2.052,1.4,3.882,1.885,5.393.431,1.548-.839,2.5-1.732,1.337l-3.417-4.021c-1.379-1.494-2.836-3.25-4.58-5.02-.846-.908-1.711-1.866-2.684-2.784s-1.87-1.966-2.933-2.909c-2.03-1.977-4.236-3.989-6.546-6.033-1.2-.976-2.319-2.073-3.568-3.058S51.69,34.9,50.409,33.908c-1.263-1.015-2.555-2.014-3.86-3.01-1.287-1.017-2.616-1.991-3.959-2.949-2.63-1.987-5.376-3.823-8.041-5.683L30.52,19.592l-3.97-2.559c-5.23-3.332-10.2-6.335-14.5-8.873l-10.257-6C-.86.607-.539-.28,2.561.08Z" transform="translate(118.801 247.532) rotate(-45)" fill="url(#linear-gradient-9)"/>
      <path id="Path_11" data-name="Path 11" d="M2.561.08A86.916,86.916,0,0,1,15.109,2.565c2.544.682,5.246,1.543,8.067,2.548,2.8,1.043,5.747,2.2,8.678,3.593,2.962,1.357,5.929,2.928,8.874,4.639,2.937,1.731,5.834,3.624,8.635,5.656q2.1,1.53,4.1,3.172c1.369,1.048,2.631,2.221,3.9,3.356,1.295,1.106,2.478,2.329,3.66,3.513,1.2,1.163,2.291,2.422,3.379,3.634a81.217,81.217,0,0,1,5.8,7.45c.876,1.218,1.633,2.5,2.384,3.7s1.427,2.414,2.037,3.6a72.257,72.257,0,0,1,3.089,6.616c.79,2.052,1.4,3.882,1.885,5.393.431,1.548-.839,2.5-1.732,1.337l-3.417-4.021c-1.379-1.494-2.837-3.25-4.58-5.02-.847-.908-1.711-1.866-2.684-2.784s-1.87-1.966-2.932-2.909c-2.03-1.977-4.236-3.989-6.546-6.033-1.2-.976-2.319-2.073-3.568-3.058S51.69,34.9,50.408,33.907c-1.263-1.015-2.556-2.014-3.86-3.01-1.287-1.017-2.617-1.991-3.96-2.949-2.63-1.987-5.376-3.823-8.041-5.684L30.52,19.59l-3.97-2.559c-5.23-3.332-10.2-6.335-14.5-8.873l-10.257-6C-.86.607-.54-.28,2.561.08Z" transform="translate(119.244 148.173) rotate(-45)" fill="url(#linear-gradient-9)"/>
      <path id="Path_12" data-name="Path 12" d="M2.4.5a84.724,84.724,0,0,1,10.8,5.29c2.154,1.232,4.415,2.663,6.754,4.252,2.317,1.618,4.736,3.369,7.1,5.336,2.4,1.938,4.756,4.069,7.068,6.32,2.3,2.267,4.535,4.669,6.656,7.173q1.585,1.882,3.066,3.842c1.025,1.273,1.931,2.631,2.852,3.959.947,1.308,1.773,2.692,2.6,4.041.852,1.335,1.587,2.73,2.329,4.083a80.527,80.527,0,0,1,3.763,8.1c.551,1.307.983,2.637,1.424,3.905s.814,2.515,1.132,3.732c.7,2.395,1.111,4.689,1.494,6.7.313,2.036.509,3.831.65,5.308.088,1.5-1.236,2.047-1.813.785l-2.291-4.444c-.949-1.678-1.919-3.609-3.142-5.624-.584-1.022-1.176-2.092-1.871-3.153s-1.3-2.221-2.071-3.326c-1.44-2.27-3.031-4.612-4.71-7.008-.887-1.168-1.681-2.425-2.612-3.613s-1.8-2.438-2.759-3.642c-.938-1.219-1.9-2.429-2.884-3.641-.959-1.226-1.964-2.424-2.985-3.61-1.977-2.422-4.087-4.739-6.121-7.057l-3.1-3.381-3.07-3.263c-4.053-4.264-7.937-8.169-11.308-11.494L1.3,2.177C-.783.138-.321-.58,2.4.5Z" transform="translate(185.553 281.513) rotate(-45)" fill="url(#linear-gradient-9)"/>
      <path id="Path_13" data-name="Path 13" d="M2.219.138A82.571,82.571,0,0,1,13.232,2.878c2.237.706,4.619,1.571,7.106,2.564,2.474,1.024,5.073,2.147,7.669,3.477,2.621,1.3,5.254,2.774,7.873,4.369,2.612,1.611,5.2,3.358,7.7,5.216q1.874,1.4,3.673,2.888c1.226.955,2.364,2.01,3.509,3.035,1.164,1,2.235,2.094,3.3,3.156,1.084,1.045,2.077,2.165,3.066,3.245a79.944,79.944,0,0,1,5.308,6.6c.806,1.076,1.511,2.2,2.208,3.258s1.33,2.118,1.9,3.157c1.2,2.032,2.113,4.028,2.934,5.769.765,1.782,1.367,3.368,1.844,4.676.434,1.337-.63,2.088-1.45,1.055l-3.12-3.583c-1.254-1.337-2.586-2.9-4.167-4.487-.769-.813-1.557-1.668-2.435-2.5s-1.7-1.76-2.656-2.612c-1.837-1.778-3.826-3.592-5.909-5.44-1.077-.887-2.091-1.873-3.212-2.769s-2.2-1.861-3.351-2.767c-1.135-.924-2.293-1.834-3.463-2.743-1.155-.925-2.346-1.818-3.547-2.7-2.357-1.815-4.81-3.507-7.194-5.216l-3.6-2.468L23.69,15.7c-4.668-3.085-9.1-5.878-12.931-8.244l-9.141-5.6C-.747.41-.5-.325,2.219.138Z" transform="translate(133.534 332.931) rotate(-45)" fill="url(#linear-gradient-9)"/>
      <path id="Path_14" data-name="Path 14" d="M2.083.333a80.845,80.845,0,0,1,9.985,3.976c2.015.944,4.148,2.055,6.37,3.3,2.207,1.269,4.518,2.646,6.811,4.211,2.318,1.539,4.631,3.246,6.92,5.06s4.525,3.775,6.686,5.816q1.616,1.535,3.155,3.143C43.063,26.877,44.026,28,45,29.093c.993,1.075,1.89,2.224,2.79,3.342s1.738,2.267,2.562,3.394a79.371,79.371,0,0,1,4.352,6.78c.655,1.1,1.212,2.224,1.767,3.294s1.051,2.128,1.494,3.162c.934,2.031,1.613,3.993,2.224,5.708.556,1.745.979,3.288,1.309,4.559.288,1.292-.762,1.847-1.434.787L57.479,56.4c-1.048-1.4-2.148-3.014-3.478-4.686-.643-.85-1.3-1.743-2.043-2.621s-1.422-1.846-2.237-2.757c-1.55-1.88-3.238-3.815-5.009-5.792-.922-.959-1.777-2-2.739-2.975s-1.88-2-2.868-2.991c-.972-1-1.968-1.992-2.975-2.983s-2.018-1.984-3.056-2.951c-2.029-1.982-4.158-3.864-6.221-5.753L23.73,20.148,20.648,17.5c-4.063-3.457-7.931-6.614-11.281-9.3l-8-6.365C-.7.192-.4-.452,2.083.333Z" transform="translate(173.838 369.633) rotate(-45)" fill="url(#linear-gradient-9)"/>
    </g>
    <g id="Group_241" data-name="Group 241" transform="translate(-1148.556 -729.119)">
      <path id="Path_314" data-name="Path 314" d="M23.4,114.035c-12.6,6.51-22.1,18.256-22.1,35.379,0,11.141,3.964,22.505,11.954,30.443,3.264,3.241,8.169,7.116,12.872,7.859,6.12.967,12.356-.46,18.3-1.786,2.66-.592,4.709-.9,6.952-2.5a34.689,34.689,0,0,0,5.591-5.008c7.087-7.858,10.59-18.515,10.59-29.011,0-16.257-8.011-32.92-19.784-38.391a13.191,13.191,0,0,1-4.1,2.738c-3.832,1.505-12.409,1.1-20.275.274m23.846,28.536a3.459,3.459,0,0,0,1.915.57,3.638,3.638,0,0,0,3.6-3.6,3.941,3.941,0,0,0-.541-1.823,6.56,6.56,0,0,1,2.12-.356c4.539,0,8.22,4.711,8.22,10.522s-3.681,10.522-8.22,10.522-8.22-4.711-8.22-10.522a12.791,12.791,0,0,1,1.127-5.315" transform="translate(1739.666 2707.093)" fill="#fff"/>
      <path id="Path_315" data-name="Path 315" d="M73.918,191.989c4.656,0,8.79-2.477,12.539-4.991a42.226,42.226,0,0,1,8.085-4.438c1.694-.662,3.645-1.119,5.41-1.784,13.188-4.974,20.216-21.831,20.216-35.037,0-25.025-16.171-44.271-34.62-38.229C62.689,115,48.79,126.862,48.79,151.887s5.712,40.1,25.128,40.1m18.989-52.227a4.5,4.5,0,0,0,2.488.74,4.719,4.719,0,0,0,4.666-4.669,5.075,5.075,0,0,0-.7-2.365,8.524,8.524,0,0,1,2.752-.461c5.891,0,10.665,6.113,10.665,13.651S108,160.308,102.109,160.308s-10.665-6.113-10.665-13.651a16.6,16.6,0,0,1,1.462-6.9" transform="translate(1764.976 2704.624)" fill="#fff"/>
      <path id="Path_316" data-name="Path 316" d="M54.1,157.089a31.889,31.889,0,0,1-5.12,4.585c-2.054,1.462-3.93,1.744-6.368,2.287-5.442,1.214-11.155,2.52-16.76,1.636-4.3-.682-8.8-4.229-11.785-7.2-6.36-6.316-9.93-15-10.757-23.866-.121,1.255-.192,2.546-.192,3.874,0,10.2,3.633,20.609,10.948,27.877,2.988,2.969,7.482,6.517,11.785,7.2,5.6.886,11.318-.422,16.76-1.636,2.437-.543,4.314-.825,6.368-2.286a31.829,31.829,0,0,0,5.12-4.587c6.487-7.2,9.7-16.954,9.7-26.566,0-1.34-.063-2.683-.179-4.021a39.09,39.09,0,0,1-9.518,22.7" transform="translate(1740.636 2719.543)" fill="#d1d1d1"/>
      <path id="Path_317" data-name="Path 317" d="M97.894,159.055c-1.634.616-3.441,1.039-5.01,1.651a39.165,39.165,0,0,0-7.488,4.11c-3.472,2.33-7.3,4.623-11.615,4.623-16.68,0-22.438-12.02-23.184-32.262-.052,1.012-.087,2.036-.087,3.1,0,23.178,5.292,37.139,23.272,37.139,4.314,0,8.143-2.293,11.615-4.623a39.169,39.169,0,0,1,7.488-4.11c1.568-.612,3.376-1.035,5.01-1.651,12.213-4.608,18.722-20.218,18.722-32.449q0-2.221-.181-4.369c-1.124,11.523-7.5,24.68-18.541,28.845" transform="translate(1765.893 2717.318)" fill="#d1d1d1"/>
      <path id="Path_318" data-name="Path 318" d="M73.3,196.6c6.316,0,10.5-2.427,15.953-5.348a35.24,35.24,0,0,1,14.828-4.334,20.431,20.431,0,0,1,7.548.782c1.334.48,4.895,1.761,5.368,3.265a10.99,10.99,0,0,0-7.154-7.041,10.054,10.054,0,0,0-1.186-.287,23.815,23.815,0,0,0-3.815-.1,34.13,34.13,0,0,0,7.2-6.61A48.1,48.1,0,0,0,122.491,147.4c0-16.311-6.458-30.311-15.972-37.232.176,0,.351,0,.526,0,2.949-.077,5.848-1.187,6.625-4.386a5.476,5.476,0,0,0-.411-3.452,9.111,9.111,0,0,1-6.54,4.528c-3.491.641-6.834-.575-10.252-1.016a24.075,24.075,0,0,0-10.8.9c-24.312,7.961-39.1,20.584-39.1,47.205S52.641,196.6,73.3,196.6m13.439-86.923c18.451-6.043,34.62,13.2,34.62,38.23,0,13.2-7.029,30.061-20.216,35.035-1.763.667-3.714,1.122-5.408,1.784a42.193,42.193,0,0,0-8.086,4.438c-3.75,2.514-7.882,4.991-12.539,4.991-19.416,0-25.128-15.075-25.128-40.1s13.9-36.892,36.758-44.377" transform="translate(1763.79 2702.459)" fill="#222"/>
      <path id="Path_319" data-name="Path 319" d="M0,149.2c0,11.759,4.162,23.747,12.555,32.157a33.646,33.646,0,0,0,13.5,8.394c.538.172,1.088.313,1.645.431a18.8,18.8,0,0,0-5.745,3.219.15.15,0,0,0,.19.233c2.814-1.942,6.061-2.4,9.342-2.962,5.065-.874,10.907-1.3,15.92-2.661,15.346-4.168,22.835-24.565,22.835-38.811,0-16.494-7.781-33.383-19.392-39.886a24.873,24.873,0,0,1-2.385,2.612C60.237,117.4,68.25,134.066,68.25,150.321c0,10.5-3.5,21.155-10.591,29.011a34.487,34.487,0,0,1-5.591,5.008c-2.243,1.6-4.291,1.905-6.95,2.5-5.948,1.328-12.182,2.755-18.3,1.786-4.7-.743-9.607-4.617-12.871-7.859-7.99-7.935-11.954-19.3-11.954-30.443,0-17.123,9.5-28.868,22.1-35.379-1.783-.185-3.53-.4-5.178-.609C7.861,121.575,0,133.164,0,149.2" transform="translate(1738.974 2706.184)" fill="#222"/>
      <path id="Path_320" data-name="Path 320" d="M69.26,115.112c6.543-1.423,21.109-18.673,27.869-16.78,7.11,1.991,13.652,11.091,13.652,11.091s-4.551-24.742-12.8-27.869a6.843,6.843,0,0,0-3.967.143,7.343,7.343,0,0,1-.224,3.561,6.093,6.093,0,0,0-2.359-4.518c1.318,2.563,1.194,5.6,1.039,8.477-.149-2.781-.1-6.665-3.32-4.66a56.37,56.37,0,0,0-5.552,4.2c-3.855,3.132-7.519,6.494-11.152,9.874-5.025,4.679-9.648,9.313-16.714,10.541a9.377,9.377,0,0,0,1.539,2.313,13.014,13.014,0,0,0,11.988,3.625" transform="translate(1768.677 2690.954)" fill="#222"/>
      <path id="Path_321" data-name="Path 321" d="M26.747,110.478a53.618,53.618,0,0,0-11.034,4.2c7.866.825,16.442,1.229,20.275-.276a13.212,13.212,0,0,0,4.1-2.736,19.347,19.347,0,0,0-13.344-1.193" transform="translate(1747.348 2706.445)" fill="#222"/>
      <path id="Path_322" data-name="Path 322" d="M48.082,113.785a55.005,55.005,0,0,0,7.162-12.849S27.375,113.163,5.193,117.144c0,0,4.769.86,10.947,1.659a55.039,55.039,0,0,1,16.214-7.091,20.649,20.649,0,0,1,15.728,2.074" transform="translate(1741.742 2701.717)" fill="#222"/>
      <path id="Path_323" data-name="Path 323" d="M28.548,111.708A19.347,19.347,0,0,1,41.892,112.9a24.893,24.893,0,0,0,2.384-2.614,20.649,20.649,0,0,0-15.728-2.074A55.038,55.038,0,0,0,12.334,115.3c1.648.212,3.4.422,5.18.609a53.618,53.618,0,0,1,11.034-4.2" transform="translate(1745.547 2705.215)" fill="#222"/>
      <path id="Path_324" data-name="Path 324" d="M87.279,151.055c5.891,0,10.665-6.112,10.665-13.651s-4.774-13.651-10.665-13.651a8.508,8.508,0,0,0-2.75.461,5.1,5.1,0,0,1,.7,2.367,4.719,4.719,0,0,1-4.666,4.668,4.5,4.5,0,0,1-2.488-.74,16.61,16.61,0,0,0-1.461,6.9c0,7.539,4.775,13.651,10.663,13.651" transform="translate(1779.806 2713.877)" fill="#222"/>
      <path id="Path_325" data-name="Path 325" d="M38.754,149.25c4.538,0,8.218-4.711,8.218-10.522s-3.681-10.522-8.218-10.522a6.553,6.553,0,0,0-2.12.356,3.941,3.941,0,0,1,.541,1.823,3.639,3.639,0,0,1-3.6,3.6,3.457,3.457,0,0,1-1.916-.572,12.767,12.767,0,0,0-1.127,5.315c0,5.811,3.681,10.522,8.22,10.522" transform="translate(1755.247 2716.25)" fill="#222"/>
      <path id="Path_326" data-name="Path 326" d="M40.359,186.959c-4.493-1.409-8.5-4.116-13.145-5.063-3.627-.742-7.677,0-10.084,3.011-.13.164.123.412.273.259,2.952-2.977,7.473-2.844,11.145-1.429,3.921,1.511,7.194,4.262,11.1,5.821a14.933,14.933,0,0,0,10.964.173c3.369-1.278,5.631-4.248,8.79-5.862,3.615-1.846,7.318.149,10.738,1.6,3.576,1.515,7.473,3.031,11.416,2.166,3.917-.86,7.027-3.6,10.116-5.982,3.253-2.511,6.435-5.146,9.851-7.439,4.214-2.828,12.493-7.64,17.5-4.285,3.449,2.312,4.91,7.717,5.279,11.609,2.894-2.643,4.974-8.3,4.387-12.236a3.423,3.423,0,0,0-.984-1.905c-2.1-2.148-6.924-2.687-9.288-2.813a27.9,27.9,0,0,0-13.5,2.929,58.834,58.834,0,0,0-10.72,7.039c-3.245,2.568-6.205,5.539-9.674,7.818a9.926,9.926,0,0,1-5.7,1.861,18.519,18.519,0,0,1-6.245-1.62c-3.662-1.461-7.285-3.08-11.322-2.828-4.47.281-6.052,3.345-9.366,5.71a13,13,0,0,1-11.523,1.47" transform="translate(1748.084 2735.618)" fill="#222"/>
      <path id="Path_327" data-name="Path 327" d="M50.135,184.323c2.028.587,3.93,1.675,5.9,2.427a15.09,15.09,0,0,0,5.644,1.349,8.724,8.724,0,0,0,4.835-1.988.141.141,0,0,0-.11-.247c-2.027.411-4.11-.239-6.1-.647a46.39,46.39,0,0,1-6.172-2.12,12.79,12.79,0,0,0-5.551-.851,16.046,16.046,0,0,0-5.957,2.306.139.139,0,0,0,.11.256,12.3,12.3,0,0,1,7.4-.484" transform="translate(1761.65 2745.026)" fill="#222"/>
      <path id="Path_328" data-name="Path 328" d="M70.037,87.442c1.993-1.864,4.068-3.633,6.08-5.476a28.744,28.744,0,0,1,5.424-4.082c3.845-2.152,8.955-3.23,12.515.009.149.136.376-.109.244-.259-3.219-3.667-8.187-5.535-12.653-2.916-2.215,1.3-3.815,3.4-5.5,5.29-2.131,2.391-4.153,4.875-6.294,7.257-.1.109.08.276.185.176" transform="translate(1776.185 2687.092)" fill="#222"/>
      <path id="Path_329" data-name="Path 329" d="M15.036,177.763c.146-.161-.112-.392-.273-.258a10.027,10.027,0,0,0-3.6,7.323c-.074,2.138,1.6,5.531,4.222,4.163a.292.292,0,0,0-.015-.535c-1.933-1.013-2.146-3.253-2.1-5.217a8.007,8.007,0,0,1,1.763-5.477" transform="translate(1744.922 2742.502)" fill="#222"/>
      <path id="Path_330" data-name="Path 330" d="M92.433,185.757a14.448,14.448,0,0,1-4.829,2.082.333.333,0,0,0-.066.635c3.578,1.357,7.542-.789,9.851-3.464,2.94-3.4,3.412-8.154,4.479-12.345.037-.144-.172-.233-.224-.084a31.016,31.016,0,0,1-5.537,9.889,19.185,19.185,0,0,1-3.674,3.288" transform="translate(1785.516 2739.858)" fill="#222"/>
      <g id="Group_189" data-name="Group 189" transform="translate(1783.002 2841.628)" opacity="0.43">
        <g id="Group_188" data-name="Group 188">
          <g id="Group_187" data-name="Group 187" clip-path="url(#clip-path)">
            <path id="Path_331" data-name="Path 331" d="M40.534,131.432a5.933,5.933,0,0,0-1.26-2.848l-1.162-1.1a5.962,5.962,0,0,0-2.845-1.079,4.468,4.468,0,0,0-2.264.25,5.371,5.371,0,0,0-3.567,2.888,4.484,4.484,0,0,0-.714,2.163c.011.509.023,1.016.034,1.524a5.955,5.955,0,0,0,1.26,2.848l1.162,1.1a5.921,5.921,0,0,0,2.845,1.079,4.433,4.433,0,0,0,2.264-.25,5.373,5.373,0,0,0,3.567-2.888,4.433,4.433,0,0,0,.716-2.163c-.012-.509-.023-1.016-.035-1.524" transform="translate(-28.721 -126.361)" fill="#fff"/>
          </g>
        </g>
      </g>
      <g id="Group_192" data-name="Group 192" transform="translate(1854.327 2834.448)" opacity="0.43">
        <g id="Group_191" data-name="Group 191">
          <g id="Group_190" data-name="Group 190" clip-path="url(#clip-path-2)">
            <path id="Path_332" data-name="Path 332" d="M82.6,121.677c-3.486,0-7.1,2.086-7.34,5.943-.2,3.3,2.212,7.34,5.943,7.34,3.487,0,7.1-2.086,7.34-5.943.205-3.3-2.212-7.34-5.943-7.34" transform="translate(-75.25 -121.677)" fill="#fff"/>
          </g>
        </g>
      </g>
    </g>
  </g>
</svg>
