<svg xmlns="http://www.w3.org/2000/svg" xmlns:xlink="http://www.w3.org/1999/xlink" width="419.119" height="502.194" viewBox="0 0 419.119 502.194">
  <defs>
    <linearGradient id="linear-gradient" x1="0.5" y1="0.133" x2="0.89" y2="0.5" gradientUnits="objectBoundingBox">
      <stop offset="0" stop-color="#c4d143"/>
      <stop offset="1" stop-color="#7c8a1a"/>
    </linearGradient>
    <linearGradient id="linear-gradient-2" x1="1.148" y1="0.346" x2="0.5" y2="0.135" gradientUnits="objectBoundingBox">
      <stop offset="0" stop-color="#7c8a1a" stop-opacity="0"/>
      <stop offset="0.315" stop-color="#768319" stop-opacity="0.314"/>
      <stop offset="0.781" stop-color="#646f15" stop-opacity="0.78"/>
      <stop offset="1" stop-color="#5a6313"/>
    </linearGradient>
    <linearGradient id="linear-gradient-3" x1="0.423" y1="0.116" x2="0.658" y2="0.705" xlink:href="#linear-gradient"/>
    <linearGradient id="linear-gradient-4" x1="1" y1="1" x2="0.395" y2="0.356" xlink:href="#linear-gradient-2"/>
    <linearGradient id="linear-gradient-5" x1="0.246" y1="0.5" x2="0.5" y2="0.748" xlink:href="#linear-gradient"/>
    <linearGradient id="linear-gradient-6" x1="0.886" y1="0.362" x2="0.613" y2="0.084" xlink:href="#linear-gradient-2"/>
    <linearGradient id="linear-gradient-7" x1="0.586" y1="0.529" x2="0.427" y2="0.699" gradientUnits="objectBoundingBox">
      <stop offset="0" stop-color="#5a6313" stop-opacity="0"/>
      <stop offset="1" stop-color="#544f43"/>
    </linearGradient>
    <linearGradient id="linear-gradient-8" x1="0.337" y1="0.293" x2="0.642" y2="0.731" gradientUnits="objectBoundingBox">
      <stop offset="0" stop-color="#dd3b32"/>
      <stop offset="0.279" stop-color="#ff4f46"/>
      <stop offset="0.775" stop-color="#ff5b52"/>
      <stop offset="1" stop-color="#dd3b32"/>
    </linearGradient>
    <linearGradient id="linear-gradient-9" x1="-0.051" x2="1" y2="1" gradientUnits="objectBoundingBox">
      <stop offset="0" stop-color="#d30e03" stop-opacity="0"/>
      <stop offset="0.513" stop-color="#d5362e"/>
      <stop offset="1" stop-color="#c9251c"/>
    </linearGradient>
    <clipPath id="clip-path">
      <rect id="Rectangle_65" data-name="Rectangle 65" width="10.943" height="11.031" fill="none"/>
    </clipPath>
    <clipPath id="clip-path-2">
      <rect id="Rectangle_66" data-name="Rectangle 66" width="12.289" height="12.267" fill="none"/>
    </clipPath>
  </defs>
  <g id="Group_248" data-name="Group 248" transform="translate(-1340.881 -1891.282)">
    <g id="Group_159" data-name="Group 159" transform="translate(1348.274 1932.61)">
      <g id="Group_3" data-name="Group 3" transform="translate(92.802 18.709) rotate(-45)">
        <g id="Group_1" data-name="Group 1" transform="translate(0 0)">
          <path id="Path_1" data-name="Path 1" d="M24.367,41.36C11.892,68.752-2.74,120.169.441,145.641a2.885,2.885,0,0,0,4.71,2.132C26.48,133.4,55.75,88.6,68.225,61.212s6.148-32.978,2.967-58.451A2.885,2.885,0,0,0,66.482.629C45.153,15.008,36.842,13.967,24.367,41.36Z" fill="url(#linear-gradient)"/>
          <path id="Path_2" data-name="Path 2" d="M3.02,147.538C24.35,133.16,53.62,88.369,66.094,60.977S72.242,28,69.061,2.526A3.06,3.06,0,0,0,67.371,0L0,147.931a3.075,3.075,0,0,0,3.02-.393Z" transform="translate(2.131 0.235)" fill="url(#linear-gradient-2)"/>
        </g>
        <g id="Group_2" data-name="Group 2" transform="translate(6.22 79.045)">
          <path id="Path_3" data-name="Path 3" d="M87.1,7.471C59.709,19.959,14.933,49.165.622,70.475a2.885,2.885,0,0,0,2.156,4.7c25.53,3.143,77.007-11.458,104.393-23.946s26.276-20.855,40.588-42.166a2.885,2.885,0,0,0-2.156-4.7C120.071,1.222,114.482-5.017,87.1,7.471Z" fill="url(#linear-gradient-3)"/>
          <path id="Path_4" data-name="Path 4" d="M2.537,69.126C28.067,72.269,79.544,57.668,106.93,45.18s26.276-20.855,40.587-42.166A3.059,3.059,0,0,0,147.9,0L0,67.442A3.078,3.078,0,0,0,2.537,69.126Z" transform="translate(0.24 6.048)" fill="url(#linear-gradient-4)"/>
        </g>
      </g>
      <g id="Group_4" data-name="Group 4" transform="translate(119.755 40.968) rotate(-45)">
        <path id="Path_5" data-name="Path 5" d="M58.923,23.583C37.673,44.9,6.017,87.978.108,112.958a2.885,2.885,0,0,0,3.67,3.641C28.784,110.57,71.846,78.81,93.1,57.494s17.271-28.759,23.18-53.74a2.885,2.885,0,0,0-3.67-3.641C87.6,6.143,80.174,2.267,58.923,23.583Z" fill="url(#linear-gradient-5)"/>
        <path id="Path_6" data-name="Path 6" d="M2.968,115.8C27.973,109.772,71.035,78.012,92.286,56.7s17.271-28.759,23.18-53.74a3.062,3.062,0,0,0-.7-2.956L0,115.117A3.078,3.078,0,0,0,2.968,115.8Z" transform="translate(0.81 0.798)" fill="url(#linear-gradient-6)"/>
      </g>
      <path id="Path_7" data-name="Path 7" d="M11.012,0C3.68,24.476-1.6,51.438.441,67.756a2.862,2.862,0,0,0,2.907,2.753,2.762,2.762,0,0,0,2.875,3.114A2.893,2.893,0,0,0,9,76.333c16.34,2.012,43.3-3.248,67.781-10.568Z" transform="translate(147.876 73.781) rotate(-45)" fill="url(#linear-gradient-7)"/>
      <path id="Path_15" data-name="Path 15" d="M250.2,169.419C179.528,240.089,41.957,322.477,7.921,288.441S56.272,116.834,126.943,46.164s102.863-47.679,136.9-13.643,57.028,66.227-13.643,136.9Z" transform="translate(-7.393 251.307) rotate(-45)" fill="url(#linear-gradient-8)"/>
      <path id="Path_9" data-name="Path 9" d="M2.839.5A89.857,89.857,0,0,1,15.266,6.188c2.466,1.34,5.045,2.91,7.7,4.659,2.63,1.786,5.373,3.722,8.028,5.912a104.555,104.555,0,0,1,7.917,7.063c2.56,2.544,5.03,5.249,7.355,8.076q1.737,2.125,3.343,4.346c1.119,1.44,2.088,2.985,3.078,4.492,1.023,1.484,1.893,3.06,2.774,4.6.906,1.519,1.668,3.111,2.441,4.655a81.851,81.851,0,0,1,3.814,9.262c.548,1.5.952,3.026,1.371,4.48s.759,2.888,1.037,4.288a74.9,74.9,0,0,1,1.216,7.709c.2,2.348.282,4.421.324,6.126-.023,1.73-1.652,2.414-2.234.973l-2.36-5.064c-.992-1.909-1.986-4.112-3.277-6.4-.612-1.162-1.228-2.382-1.969-3.586C55.1,66.561,54.463,65.249,53.634,64,52.1,61.419,50.4,58.761,48.6,56.044c-.962-1.321-1.8-2.75-2.816-4.093s-1.945-2.76-2.989-4.121c-1.017-1.379-2.071-2.746-3.137-4.114-1.042-1.386-2.142-2.738-3.261-4.074-2.158-2.735-4.483-5.341-6.716-7.953l-3.416-3.8L22.871,24.22c-4.48-4.789-8.786-9.168-12.529-12.892L1.4,2.5C-.913.219-.307-.636,2.839.5Z" transform="translate(185.553 198.524) rotate(-45)" fill="url(#linear-gradient-9)"/>
      <path id="Path_10" data-name="Path 10" d="M2.561.08A86.918,86.918,0,0,1,15.109,2.565c2.544.682,5.246,1.543,8.067,2.548,2.8,1.043,5.746,2.2,8.678,3.593,2.962,1.357,5.929,2.928,8.874,4.639,2.936,1.731,5.834,3.624,8.635,5.656q2.1,1.53,4.1,3.172c1.369,1.048,2.63,2.221,3.9,3.356,1.295,1.107,2.478,2.329,3.66,3.514,1.2,1.163,2.291,2.422,3.379,3.634a81.206,81.206,0,0,1,5.8,7.45c.876,1.218,1.633,2.5,2.384,3.7s1.427,2.414,2.038,3.6a72.263,72.263,0,0,1,3.089,6.616c.79,2.052,1.4,3.882,1.885,5.393.431,1.548-.839,2.5-1.732,1.337l-3.417-4.021c-1.379-1.494-2.836-3.25-4.58-5.02-.846-.908-1.711-1.866-2.684-2.784s-1.87-1.966-2.933-2.909c-2.03-1.977-4.236-3.989-6.546-6.033-1.2-.976-2.319-2.073-3.568-3.058S51.69,34.9,50.409,33.908c-1.263-1.015-2.555-2.014-3.86-3.01-1.287-1.017-2.616-1.991-3.959-2.949-2.63-1.987-5.376-3.823-8.041-5.683L30.52,19.592l-3.97-2.559c-5.23-3.332-10.2-6.335-14.5-8.873l-10.257-6C-.86.607-.539-.28,2.561.08Z" transform="translate(118.801 247.532) rotate(-45)" fill="url(#linear-gradient-9)"/>
      <path id="Path_11" data-name="Path 11" d="M2.561.08A86.916,86.916,0,0,1,15.109,2.565c2.544.682,5.246,1.543,8.067,2.548,2.8,1.043,5.747,2.2,8.678,3.593,2.962,1.357,5.929,2.928,8.874,4.639,2.937,1.731,5.834,3.624,8.635,5.656q2.1,1.53,4.1,3.172c1.369,1.048,2.631,2.221,3.9,3.356,1.295,1.106,2.478,2.329,3.66,3.513,1.2,1.163,2.291,2.422,3.379,3.634a81.217,81.217,0,0,1,5.8,7.45c.876,1.218,1.633,2.5,2.384,3.7s1.427,2.414,2.037,3.6a72.257,72.257,0,0,1,3.089,6.616c.79,2.052,1.4,3.882,1.885,5.393.431,1.548-.839,2.5-1.732,1.337l-3.417-4.021c-1.379-1.494-2.837-3.25-4.58-5.02-.847-.908-1.711-1.866-2.684-2.784s-1.87-1.966-2.932-2.909c-2.03-1.977-4.236-3.989-6.546-6.033-1.2-.976-2.319-2.073-3.568-3.058S51.69,34.9,50.408,33.907c-1.263-1.015-2.556-2.014-3.86-3.01-1.287-1.017-2.617-1.991-3.96-2.949-2.63-1.987-5.376-3.823-8.041-5.684L30.52,19.59l-3.97-2.559c-5.23-3.332-10.2-6.335-14.5-8.873l-10.257-6C-.86.607-.54-.28,2.561.08Z" transform="translate(119.244 148.173) rotate(-45)" fill="url(#linear-gradient-9)"/>
      <path id="Path_12" data-name="Path 12" d="M2.4.5a84.724,84.724,0,0,1,10.8,5.29c2.154,1.232,4.415,2.663,6.754,4.252,2.317,1.618,4.736,3.369,7.1,5.336,2.4,1.938,4.756,4.069,7.068,6.32,2.3,2.267,4.535,4.669,6.656,7.173q1.585,1.882,3.066,3.842c1.025,1.273,1.931,2.631,2.852,3.959.947,1.308,1.773,2.692,2.6,4.041.852,1.335,1.587,2.73,2.329,4.083a80.527,80.527,0,0,1,3.763,8.1c.551,1.307.983,2.637,1.424,3.905s.814,2.515,1.132,3.732c.7,2.395,1.111,4.689,1.494,6.7.313,2.036.509,3.831.65,5.308.088,1.5-1.236,2.047-1.813.785l-2.291-4.444c-.949-1.678-1.919-3.609-3.142-5.624-.584-1.022-1.176-2.092-1.871-3.153s-1.3-2.221-2.071-3.326c-1.44-2.27-3.031-4.612-4.71-7.008-.887-1.168-1.681-2.425-2.612-3.613s-1.8-2.438-2.759-3.642c-.938-1.219-1.9-2.429-2.884-3.641-.959-1.226-1.964-2.424-2.985-3.61-1.977-2.422-4.087-4.739-6.121-7.057l-3.1-3.381-3.07-3.263c-4.053-4.264-7.937-8.169-11.308-11.494L1.3,2.177C-.783.138-.321-.58,2.4.5Z" transform="translate(185.553 281.513) rotate(-45)" fill="url(#linear-gradient-9)"/>
      <path id="Path_13" data-name="Path 13" d="M2.219.138A82.571,82.571,0,0,1,13.232,2.878c2.237.706,4.619,1.571,7.106,2.564,2.474,1.024,5.073,2.147,7.669,3.477,2.621,1.3,5.254,2.774,7.873,4.369,2.612,1.611,5.2,3.358,7.7,5.216q1.874,1.4,3.673,2.888c1.226.955,2.364,2.01,3.509,3.035,1.164,1,2.235,2.094,3.3,3.156,1.084,1.045,2.077,2.165,3.066,3.245a79.944,79.944,0,0,1,5.308,6.6c.806,1.076,1.511,2.2,2.208,3.258s1.33,2.118,1.9,3.157c1.2,2.032,2.113,4.028,2.934,5.769.765,1.782,1.367,3.368,1.844,4.676.434,1.337-.63,2.088-1.45,1.055l-3.12-3.583c-1.254-1.337-2.586-2.9-4.167-4.487-.769-.813-1.557-1.668-2.435-2.5s-1.7-1.76-2.656-2.612c-1.837-1.778-3.826-3.592-5.909-5.44-1.077-.887-2.091-1.873-3.212-2.769s-2.2-1.861-3.351-2.767c-1.135-.924-2.293-1.834-3.463-2.743-1.155-.925-2.346-1.818-3.547-2.7-2.357-1.815-4.81-3.507-7.194-5.216l-3.6-2.468L23.69,15.7c-4.668-3.085-9.1-5.878-12.931-8.244l-9.141-5.6C-.747.41-.5-.325,2.219.138Z" transform="translate(133.534 332.931) rotate(-45)" fill="url(#linear-gradient-9)"/>
      <path id="Path_14" data-name="Path 14" d="M2.083.333a80.845,80.845,0,0,1,9.985,3.976c2.015.944,4.148,2.055,6.37,3.3,2.207,1.269,4.518,2.646,6.811,4.211,2.318,1.539,4.631,3.246,6.92,5.06s4.525,3.775,6.686,5.816q1.616,1.535,3.155,3.143C43.063,26.877,44.026,28,45,29.093c.993,1.075,1.89,2.224,2.79,3.342s1.738,2.267,2.562,3.394a79.371,79.371,0,0,1,4.352,6.78c.655,1.1,1.212,2.224,1.767,3.294s1.051,2.128,1.494,3.162c.934,2.031,1.613,3.993,2.224,5.708.556,1.745.979,3.288,1.309,4.559.288,1.292-.762,1.847-1.434.787L57.479,56.4c-1.048-1.4-2.148-3.014-3.478-4.686-.643-.85-1.3-1.743-2.043-2.621s-1.422-1.846-2.237-2.757c-1.55-1.88-3.238-3.815-5.009-5.792-.922-.959-1.777-2-2.739-2.975s-1.88-2-2.868-2.991c-.972-1-1.968-1.992-2.975-2.983s-2.018-1.984-3.056-2.951c-2.029-1.982-4.158-3.864-6.221-5.753L23.73,20.148,20.648,17.5c-4.063-3.457-7.931-6.614-11.281-9.3l-8-6.365C-.7.192-.4-.452,2.083.333Z" transform="translate(173.838 369.633) rotate(-45)" fill="url(#linear-gradient-9)"/>
    </g>
    <g id="Group_237" data-name="Group 237" transform="translate(-958.516 -722.519)">
      <path id="Path_454" data-name="Path 454" d="M471.7,113.8c-11.634,6.012-20.405,16.859-20.405,32.672,0,10.289,3.661,20.783,11.039,28.114,3.014,2.993,7.544,6.571,11.887,7.258,5.651.893,11.409-.425,16.9-1.649,2.456-.546,4.349-.831,6.419-2.306a31.984,31.984,0,0,0,5.164-4.625c6.545-7.257,9.779-17.1,9.779-26.791,0-15.013-7.4-30.4-18.271-35.454a12.181,12.181,0,0,1-3.79,2.528c-3.538,1.39-11.46,1.016-18.725.253m22.023,26.352a3.194,3.194,0,0,0,1.768.527,3.36,3.36,0,0,0,3.324-3.324,3.657,3.657,0,0,0-.5-1.683,6.057,6.057,0,0,1,1.958-.328c4.192,0,7.591,4.35,7.591,9.717s-3.4,9.717-7.591,9.717-7.591-4.35-7.591-9.717a11.789,11.789,0,0,1,1.041-4.908" transform="translate(1979.339 2702.691)" fill="#fff"/>
      <path id="Path_455" data-name="Path 455" d="M521.995,185.44c4.3,0,8.117-2.288,11.581-4.609a38.912,38.912,0,0,1,7.466-4.1c1.564-.612,3.365-1.033,5-1.648,12.177-4.594,18.668-20.16,18.668-32.356,0-23.111-14.934-40.884-31.971-35.3-21.11,6.913-33.946,17.871-33.946,40.982s5.275,37.034,23.206,37.034m17.537-48.231a4.15,4.15,0,0,0,2.3.684,4.359,4.359,0,0,0,4.311-4.312,4.719,4.719,0,0,0-.65-2.184,7.864,7.864,0,0,1,2.54-.426c5.442,0,9.85,5.646,9.85,12.606s-4.408,12.606-9.85,12.606-9.847-5.646-9.847-12.606a15.331,15.331,0,0,1,1.351-6.368" transform="translate(1999.078 2700.766)" fill="#fff"/>
      <path id="Path_456" data-name="Path 456" d="M500.2,155.352a29.269,29.269,0,0,1-4.728,4.234c-1.9,1.351-3.628,1.611-5.879,2.112-5.026,1.121-10.3,2.327-15.477,1.511-3.975-.63-8.123-3.906-10.884-6.648a35.693,35.693,0,0,1-9.935-22.04c-.11,1.159-.176,2.351-.176,3.577,0,9.421,3.354,19.032,10.111,25.744,2.761,2.742,6.908,6.018,10.884,6.647,5.176.818,10.452-.389,15.477-1.511,2.251-.5,3.984-.762,5.879-2.111a29.215,29.215,0,0,0,4.728-4.236c5.992-6.647,8.956-15.657,8.956-24.533,0-1.237-.058-2.477-.164-3.713a36.092,36.092,0,0,1-8.791,20.967" transform="translate(1980.095 2712.402)" fill="#d1d1d1"/>
      <path id="Path_457" data-name="Path 457" d="M544.268,156.848c-1.508.569-3.178.96-4.626,1.525a36.17,36.17,0,0,0-6.915,3.8c-3.206,2.152-6.743,4.27-10.725,4.27-15.405,0-20.721-11.1-21.413-29.794-.047.934-.079,1.88-.079,2.86,0,21.4,4.887,34.3,21.493,34.3,3.982,0,7.519-2.118,10.725-4.27a36.173,36.173,0,0,1,6.915-3.8c1.448-.565,3.119-.956,4.626-1.525,11.279-4.255,17.291-18.671,17.291-29.967q0-2.051-.167-4.035c-1.039,10.641-6.93,22.792-17.124,26.638" transform="translate(1999.793 2710.666)" fill="#d1d1d1"/>
      <path id="Path_458" data-name="Path 458" d="M521.249,189.385c5.832,0,9.7-2.241,14.736-4.939a32.532,32.532,0,0,1,13.692-4,18.858,18.858,0,0,1,6.969.722c1.233.443,4.522,1.627,4.959,3.015a10.149,10.149,0,0,0-6.607-6.5,9.4,9.4,0,0,0-1.094-.265,22,22,0,0,0-3.524-.1,31.512,31.512,0,0,0,6.648-6.1,44.416,44.416,0,0,0,9.653-27.263c0-15.063-5.964-27.992-14.75-34.383.163,0,.324,0,.486,0,2.725-.071,5.4-1.1,6.117-4.05a5.048,5.048,0,0,0-.378-3.188,8.414,8.414,0,0,1-6.039,4.182c-3.223.592-6.311-.531-9.468-.939a22.231,22.231,0,0,0-9.978.827c-22.454,7.352-36.109,19.009-36.109,43.594s5.613,39.393,24.686,39.393m12.412-80.272c17.038-5.581,31.971,12.193,31.971,35.305,0,12.194-6.491,27.761-18.67,32.355-1.629.616-3.43,1.036-4.994,1.648a38.909,38.909,0,0,0-7.466,4.1c-3.466,2.322-7.282,4.609-11.581,4.609-17.931,0-23.207-13.922-23.207-37.034s12.837-34.069,33.947-40.982" transform="translate(1998.153 2699.077)" fill="#222"/>
      <path id="Path_459" data-name="Path 459" d="M450,146.152c0,10.86,3.845,21.93,11.594,29.7a31.071,31.071,0,0,0,12.468,7.752,15.637,15.637,0,0,0,1.519.4,17.361,17.361,0,0,0-5.306,2.973.139.139,0,0,0,.176.215c2.6-1.794,5.6-2.213,8.628-2.735,4.676-.807,10.071-1.2,14.7-2.458,14.172-3.849,21.088-22.686,21.088-35.842,0-15.232-7.186-30.829-17.908-36.834a22.96,22.96,0,0,1-2.2,2.412c10.872,5.052,18.272,20.442,18.272,35.454,0,9.693-3.236,19.536-9.781,26.791a31.847,31.847,0,0,1-5.163,4.625c-2.07,1.475-3.962,1.76-6.419,2.306-5.493,1.226-11.252,2.544-16.9,1.649-4.342-.687-8.872-4.264-11.886-7.258-7.378-7.327-11.039-17.823-11.039-28.114,0-15.813,8.77-26.66,20.405-32.672-1.646-.171-3.26-.365-4.782-.562-10.2,6.688-17.461,17.39-17.461,32.2" transform="translate(1978.799 2701.982)" fill="#222"/>
      <path id="Path_460" data-name="Path 460" d="M518.225,112.482c6.042-1.314,19.492-17.244,25.738-15.5,6.563,1.839,12.607,10.242,12.607,10.242s-4.2-22.849-11.819-25.737a6.319,6.319,0,0,0-3.664.132,6.8,6.8,0,0,1-.205,3.289A5.641,5.641,0,0,0,538.7,80.74c1.215,2.367,1.1,5.17.958,7.829-.137-2.568-.09-6.155-3.066-4.3a52.222,52.222,0,0,0-5.128,3.88c-3.559,2.892-6.944,6-10.3,9.118-4.641,4.321-8.91,8.6-15.435,9.734a8.622,8.622,0,0,0,1.421,2.136,12.017,12.017,0,0,0,11.07,3.348" transform="translate(2001.965 2690.104)" fill="#222"/>
      <path id="Path_461" data-name="Path 461" d="M475.9,110.427a49.579,49.579,0,0,0-10.19,3.883c7.265.762,15.186,1.135,18.724-.255a12.184,12.184,0,0,0,3.79-2.527,17.865,17.865,0,0,0-12.323-1.1" transform="translate(1985.33 2702.186)" fill="#222"/>
      <path id="Path_462" data-name="Path 462" d="M494.8,112.8a50.8,50.8,0,0,0,6.614-11.866s-25.737,11.291-46.221,14.968c0,0,4.4.794,10.109,1.532a50.835,50.835,0,0,1,14.972-6.549A19.072,19.072,0,0,1,494.8,112.8" transform="translate(1980.957 2698.498)" fill="#222"/>
      <path id="Path_463" data-name="Path 463" d="M477.306,111.386a17.865,17.865,0,0,1,12.323,1.1,22.835,22.835,0,0,0,2.2-2.414,19.073,19.073,0,0,0-14.526-1.915,50.819,50.819,0,0,0-14.972,6.549c1.522.2,3.136.389,4.782.562a49.578,49.578,0,0,1,10.19-3.883" transform="translate(1983.926 2701.227)" fill="#222"/>
      <path id="Path_464" data-name="Path 464" d="M536.462,148.966c5.442,0,9.85-5.644,9.85-12.606s-4.408-12.606-9.85-12.606a7.864,7.864,0,0,0-2.54.426,4.71,4.71,0,0,1,.65,2.186,4.359,4.359,0,0,1-4.311,4.311,4.15,4.15,0,0,1-2.3-.684,15.341,15.341,0,0,0-1.35,6.368c0,6.962,4.41,12.606,9.847,12.606" transform="translate(2010.645 2707.982)" fill="#222"/>
      <path id="Path_465" data-name="Path 465" d="M488.125,147.64c4.192,0,7.591-4.35,7.591-9.717s-3.4-9.717-7.591-9.717a6.058,6.058,0,0,0-1.958.328,3.656,3.656,0,0,1,.5,1.683,3.362,3.362,0,0,1-3.324,3.325,3.2,3.2,0,0,1-1.77-.528,11.812,11.812,0,0,0-1.039,4.908c0,5.367,3.4,9.717,7.591,9.717" transform="translate(1991.491 2709.833)" fill="#222"/>
      <path id="Path_466" data-name="Path 466" d="M488.579,185.244c-4.149-1.3-7.846-3.8-12.138-4.676-3.352-.685-7.091,0-9.315,2.78-.118.151.115.381.255.239,2.724-2.749,6.9-2.626,10.29-1.319,3.621,1.4,6.644,3.936,10.248,5.375a13.794,13.794,0,0,0,10.126.16c3.112-1.181,5.2-3.923,8.116-5.413,3.338-1.7,6.76.137,9.918,1.474,3.3,1.4,6.9,2.8,10.541,2,3.618-.794,6.489-3.321,9.342-5.524,3.005-2.319,5.943-4.752,9.1-6.87,3.89-2.612,11.536-7.056,16.163-3.957,3.181,2.135,4.534,7.126,4.874,10.721a14.659,14.659,0,0,0,4.052-11.3,3.176,3.176,0,0,0-.907-1.76c-1.947-1.983-6.4-2.482-8.579-2.6a25.756,25.756,0,0,0-12.468,2.705,54.235,54.235,0,0,0-9.9,6.5c-3,2.371-5.732,5.115-8.934,7.22a9.169,9.169,0,0,1-5.266,1.719,17.085,17.085,0,0,1-5.767-1.5c-3.383-1.349-6.727-2.844-10.457-2.612-4.128.259-5.588,3.089-8.648,5.273a12.008,12.008,0,0,1-10.643,1.358" transform="translate(1985.904 2724.938)" fill="#222"/>
      <path id="Path_467" data-name="Path 467" d="M499.554,184.161c1.873.542,3.63,1.547,5.452,2.241a13.935,13.935,0,0,0,5.212,1.246,8.044,8.044,0,0,0,4.464-1.836.13.13,0,0,0-.1-.228c-1.872.379-3.8-.221-5.633-.6a42.841,42.841,0,0,1-5.7-1.958,11.811,11.811,0,0,0-5.126-.786,14.818,14.818,0,0,0-5.5,2.129.129.129,0,0,0,.1.236,11.353,11.353,0,0,1,6.829-.447" transform="translate(1996.484 2732.276)" fill="#222"/>
      <path id="Path_468" data-name="Path 468" d="M520.02,86.375c1.84-1.721,3.757-3.355,5.616-5.057a26.523,26.523,0,0,1,5.006-3.77c3.552-1.988,8.272-2.983,11.557.009.139.126.348-.1.227-.239-2.973-3.386-7.561-5.112-11.686-2.693-2.044,1.2-3.522,3.139-5.078,4.885-1.966,2.208-3.836,4.5-5.813,6.7-.091.1.074.255.171.163" transform="translate(2007.821 2687.092)" fill="#222"/>
      <path id="Path_469" data-name="Path 469" d="M464.741,177.74c.134-.149-.1-.362-.253-.238a9.267,9.267,0,0,0-3.327,6.763c-.067,1.975,1.478,5.108,3.9,3.845a.271.271,0,0,0-.013-.494c-1.788-.936-1.983-3-1.935-4.817a7.394,7.394,0,0,1,1.628-5.058" transform="translate(1983.437 2730.308)" fill="#222"/>
      <path id="Path_470" data-name="Path 470" d="M542.043,184.743a13.35,13.35,0,0,1-4.461,1.922.307.307,0,0,0-.061.586c3.3,1.253,6.968-.729,9.1-3.2,2.717-3.144,3.153-7.53,4.137-11.4.035-.133-.157-.215-.207-.078a28.639,28.639,0,0,1-5.112,9.132,17.759,17.759,0,0,1-3.393,3.037" transform="translate(2015.098 2728.245)" fill="#222"/>
      <g id="Group_225" data-name="Group 225" transform="translate(2469.458 2835.427)" opacity="0.43">
        <g id="Group_224" data-name="Group 224">
          <g id="Group_223" data-name="Group 223" clip-path="url(#clip-path)">
            <path id="Path_471" data-name="Path 471" d="M489.63,131.044a5.476,5.476,0,0,0-1.162-2.63l-1.073-1.012a5.516,5.516,0,0,0-2.629-1,5.661,5.661,0,0,0-6.045,4.9c.01.47.023.939.031,1.407a5.5,5.5,0,0,0,1.164,2.63l1.074,1.012a5.457,5.457,0,0,0,2.627,1,4.094,4.094,0,0,0,2.091-.231,5.661,5.661,0,0,0,3.955-4.665c-.011-.47-.021-.939-.034-1.407" transform="translate(-478.721 -126.361)" fill="#fff"/>
          </g>
        </g>
      </g>
      <g id="Group_228" data-name="Group 228" transform="translate(2535.326 2828.797)" opacity="0.43">
        <g id="Group_227" data-name="Group 227">
          <g id="Group_226" data-name="Group 226" clip-path="url(#clip-path-2)">
            <path id="Path_472" data-name="Path 472" d="M532.038,121.677c-3.219,0-6.559,1.927-6.778,5.489-.188,3.048,2.043,6.778,5.488,6.778,3.221,0,6.556-1.927,6.778-5.488.19-3.048-2.043-6.778-5.489-6.778" transform="translate(-525.249 -121.677)" fill="#fff"/>
          </g>
        </g>
      </g>
    </g>
  </g>
</svg>
