<svg xmlns="http://www.w3.org/2000/svg" xmlns:xlink="http://www.w3.org/1999/xlink" width="419.119" height="502.194" viewBox="0 0 419.119 502.194">
  <defs>
    <linearGradient id="linear-gradient" x1="0.5" y1="0.133" x2="0.89" y2="0.5" gradientUnits="objectBoundingBox">
      <stop offset="0" stop-color="#c4d143"/>
      <stop offset="1" stop-color="#7c8a1a"/>
    </linearGradient>
    <linearGradient id="linear-gradient-2" x1="1.148" y1="0.346" x2="0.5" y2="0.135" gradientUnits="objectBoundingBox">
      <stop offset="0" stop-color="#7c8a1a" stop-opacity="0"/>
      <stop offset="0.315" stop-color="#768319" stop-opacity="0.314"/>
      <stop offset="0.781" stop-color="#646f15" stop-opacity="0.78"/>
      <stop offset="1" stop-color="#5a6313"/>
    </linearGradient>
    <linearGradient id="linear-gradient-3" x1="0.423" y1="0.116" x2="0.658" y2="0.705" xlink:href="#linear-gradient"/>
    <linearGradient id="linear-gradient-4" x1="1" y1="1" x2="0.395" y2="0.356" xlink:href="#linear-gradient-2"/>
    <linearGradient id="linear-gradient-5" x1="0.246" y1="0.5" x2="0.5" y2="0.748" xlink:href="#linear-gradient"/>
    <linearGradient id="linear-gradient-6" x1="0.886" y1="0.362" x2="0.613" y2="0.084" xlink:href="#linear-gradient-2"/>
    <linearGradient id="linear-gradient-7" x1="0.586" y1="0.529" x2="0.427" y2="0.699" gradientUnits="objectBoundingBox">
      <stop offset="0" stop-color="#5a6313" stop-opacity="0"/>
      <stop offset="1" stop-color="#544f43"/>
    </linearGradient>
    <linearGradient id="linear-gradient-8" x1="0.337" y1="0.293" x2="0.642" y2="0.731" gradientUnits="objectBoundingBox">
      <stop offset="0" stop-color="#dd3b32"/>
      <stop offset="0.279" stop-color="#ff4f46"/>
      <stop offset="0.775" stop-color="#ff5b52"/>
      <stop offset="1" stop-color="#dd3b32"/>
    </linearGradient>
    <linearGradient id="linear-gradient-9" x1="-0.051" x2="1" y2="1" gradientUnits="objectBoundingBox">
      <stop offset="0" stop-color="#d30e03" stop-opacity="0"/>
      <stop offset="0.513" stop-color="#d5362e"/>
      <stop offset="1" stop-color="#c9251c"/>
    </linearGradient>
    <clipPath id="clip-path">
      <rect id="Rectangle_67" data-name="Rectangle 67" width="5.995" height="5.963" fill="none"/>
    </clipPath>
    <clipPath id="clip-path-2">
      <rect id="Rectangle_68" data-name="Rectangle 68" width="7.314" height="7.281" fill="none"/>
    </clipPath>
  </defs>
  <g id="Group_247" data-name="Group 247" transform="translate(-900.881 -1891.282)">
    <g id="Group_159" data-name="Group 159" transform="translate(908.274 1932.61)">
      <g id="Group_3" data-name="Group 3" transform="translate(92.802 18.709) rotate(-45)">
        <g id="Group_1" data-name="Group 1" transform="translate(0 0)">
          <path id="Path_1" data-name="Path 1" d="M24.367,41.36C11.892,68.752-2.74,120.169.441,145.641a2.885,2.885,0,0,0,4.71,2.132C26.48,133.4,55.75,88.6,68.225,61.212s6.148-32.978,2.967-58.451A2.885,2.885,0,0,0,66.482.629C45.153,15.008,36.842,13.967,24.367,41.36Z" fill="url(#linear-gradient)"/>
          <path id="Path_2" data-name="Path 2" d="M3.02,147.538C24.35,133.16,53.62,88.369,66.094,60.977S72.242,28,69.061,2.526A3.06,3.06,0,0,0,67.371,0L0,147.931a3.075,3.075,0,0,0,3.02-.393Z" transform="translate(2.131 0.235)" fill="url(#linear-gradient-2)"/>
        </g>
        <g id="Group_2" data-name="Group 2" transform="translate(6.22 79.045)">
          <path id="Path_3" data-name="Path 3" d="M87.1,7.471C59.709,19.959,14.933,49.165.622,70.475a2.885,2.885,0,0,0,2.156,4.7c25.53,3.143,77.007-11.458,104.393-23.946s26.276-20.855,40.588-42.166a2.885,2.885,0,0,0-2.156-4.7C120.071,1.222,114.482-5.017,87.1,7.471Z" fill="url(#linear-gradient-3)"/>
          <path id="Path_4" data-name="Path 4" d="M2.537,69.126C28.067,72.269,79.544,57.668,106.93,45.18s26.276-20.855,40.587-42.166A3.059,3.059,0,0,0,147.9,0L0,67.442A3.078,3.078,0,0,0,2.537,69.126Z" transform="translate(0.24 6.048)" fill="url(#linear-gradient-4)"/>
        </g>
      </g>
      <g id="Group_4" data-name="Group 4" transform="translate(119.755 40.968) rotate(-45)">
        <path id="Path_5" data-name="Path 5" d="M58.923,23.583C37.673,44.9,6.017,87.978.108,112.958a2.885,2.885,0,0,0,3.67,3.641C28.784,110.57,71.846,78.81,93.1,57.494s17.271-28.759,23.18-53.74a2.885,2.885,0,0,0-3.67-3.641C87.6,6.143,80.174,2.267,58.923,23.583Z" fill="url(#linear-gradient-5)"/>
        <path id="Path_6" data-name="Path 6" d="M2.968,115.8C27.973,109.772,71.035,78.012,92.286,56.7s17.271-28.759,23.18-53.74a3.062,3.062,0,0,0-.7-2.956L0,115.117A3.078,3.078,0,0,0,2.968,115.8Z" transform="translate(0.81 0.798)" fill="url(#linear-gradient-6)"/>
      </g>
      <path id="Path_7" data-name="Path 7" d="M11.012,0C3.68,24.476-1.6,51.438.441,67.756a2.862,2.862,0,0,0,2.907,2.753,2.762,2.762,0,0,0,2.875,3.114A2.893,2.893,0,0,0,9,76.333c16.34,2.012,43.3-3.248,67.781-10.568Z" transform="translate(147.876 73.781) rotate(-45)" fill="url(#linear-gradient-7)"/>
      <path id="Path_15" data-name="Path 15" d="M250.2,169.419C179.528,240.089,41.957,322.477,7.921,288.441S56.272,116.834,126.943,46.164s102.863-47.679,136.9-13.643,57.028,66.227-13.643,136.9Z" transform="translate(-7.393 251.307) rotate(-45)" fill="url(#linear-gradient-8)"/>
      <path id="Path_9" data-name="Path 9" d="M2.839.5A89.857,89.857,0,0,1,15.266,6.188c2.466,1.34,5.045,2.91,7.7,4.659,2.63,1.786,5.373,3.722,8.028,5.912a104.555,104.555,0,0,1,7.917,7.063c2.56,2.544,5.03,5.249,7.355,8.076q1.737,2.125,3.343,4.346c1.119,1.44,2.088,2.985,3.078,4.492,1.023,1.484,1.893,3.06,2.774,4.6.906,1.519,1.668,3.111,2.441,4.655a81.851,81.851,0,0,1,3.814,9.262c.548,1.5.952,3.026,1.371,4.48s.759,2.888,1.037,4.288a74.9,74.9,0,0,1,1.216,7.709c.2,2.348.282,4.421.324,6.126-.023,1.73-1.652,2.414-2.234.973l-2.36-5.064c-.992-1.909-1.986-4.112-3.277-6.4-.612-1.162-1.228-2.382-1.969-3.586C55.1,66.561,54.463,65.249,53.634,64,52.1,61.419,50.4,58.761,48.6,56.044c-.962-1.321-1.8-2.75-2.816-4.093s-1.945-2.76-2.989-4.121c-1.017-1.379-2.071-2.746-3.137-4.114-1.042-1.386-2.142-2.738-3.261-4.074-2.158-2.735-4.483-5.341-6.716-7.953l-3.416-3.8L22.871,24.22c-4.48-4.789-8.786-9.168-12.529-12.892L1.4,2.5C-.913.219-.307-.636,2.839.5Z" transform="translate(185.553 198.524) rotate(-45)" fill="url(#linear-gradient-9)"/>
      <path id="Path_10" data-name="Path 10" d="M2.561.08A86.918,86.918,0,0,1,15.109,2.565c2.544.682,5.246,1.543,8.067,2.548,2.8,1.043,5.746,2.2,8.678,3.593,2.962,1.357,5.929,2.928,8.874,4.639,2.936,1.731,5.834,3.624,8.635,5.656q2.1,1.53,4.1,3.172c1.369,1.048,2.63,2.221,3.9,3.356,1.295,1.107,2.478,2.329,3.66,3.514,1.2,1.163,2.291,2.422,3.379,3.634a81.206,81.206,0,0,1,5.8,7.45c.876,1.218,1.633,2.5,2.384,3.7s1.427,2.414,2.038,3.6a72.263,72.263,0,0,1,3.089,6.616c.79,2.052,1.4,3.882,1.885,5.393.431,1.548-.839,2.5-1.732,1.337l-3.417-4.021c-1.379-1.494-2.836-3.25-4.58-5.02-.846-.908-1.711-1.866-2.684-2.784s-1.87-1.966-2.933-2.909c-2.03-1.977-4.236-3.989-6.546-6.033-1.2-.976-2.319-2.073-3.568-3.058S51.69,34.9,50.409,33.908c-1.263-1.015-2.555-2.014-3.86-3.01-1.287-1.017-2.616-1.991-3.959-2.949-2.63-1.987-5.376-3.823-8.041-5.683L30.52,19.592l-3.97-2.559c-5.23-3.332-10.2-6.335-14.5-8.873l-10.257-6C-.86.607-.539-.28,2.561.08Z" transform="translate(118.801 247.532) rotate(-45)" fill="url(#linear-gradient-9)"/>
      <path id="Path_11" data-name="Path 11" d="M2.561.08A86.916,86.916,0,0,1,15.109,2.565c2.544.682,5.246,1.543,8.067,2.548,2.8,1.043,5.747,2.2,8.678,3.593,2.962,1.357,5.929,2.928,8.874,4.639,2.937,1.731,5.834,3.624,8.635,5.656q2.1,1.53,4.1,3.172c1.369,1.048,2.631,2.221,3.9,3.356,1.295,1.106,2.478,2.329,3.66,3.513,1.2,1.163,2.291,2.422,3.379,3.634a81.217,81.217,0,0,1,5.8,7.45c.876,1.218,1.633,2.5,2.384,3.7s1.427,2.414,2.037,3.6a72.257,72.257,0,0,1,3.089,6.616c.79,2.052,1.4,3.882,1.885,5.393.431,1.548-.839,2.5-1.732,1.337l-3.417-4.021c-1.379-1.494-2.837-3.25-4.58-5.02-.847-.908-1.711-1.866-2.684-2.784s-1.87-1.966-2.932-2.909c-2.03-1.977-4.236-3.989-6.546-6.033-1.2-.976-2.319-2.073-3.568-3.058S51.69,34.9,50.408,33.907c-1.263-1.015-2.556-2.014-3.86-3.01-1.287-1.017-2.617-1.991-3.96-2.949-2.63-1.987-5.376-3.823-8.041-5.684L30.52,19.59l-3.97-2.559c-5.23-3.332-10.2-6.335-14.5-8.873l-10.257-6C-.86.607-.54-.28,2.561.08Z" transform="translate(119.244 148.173) rotate(-45)" fill="url(#linear-gradient-9)"/>
      <path id="Path_12" data-name="Path 12" d="M2.4.5a84.724,84.724,0,0,1,10.8,5.29c2.154,1.232,4.415,2.663,6.754,4.252,2.317,1.618,4.736,3.369,7.1,5.336,2.4,1.938,4.756,4.069,7.068,6.32,2.3,2.267,4.535,4.669,6.656,7.173q1.585,1.882,3.066,3.842c1.025,1.273,1.931,2.631,2.852,3.959.947,1.308,1.773,2.692,2.6,4.041.852,1.335,1.587,2.73,2.329,4.083a80.527,80.527,0,0,1,3.763,8.1c.551,1.307.983,2.637,1.424,3.905s.814,2.515,1.132,3.732c.7,2.395,1.111,4.689,1.494,6.7.313,2.036.509,3.831.65,5.308.088,1.5-1.236,2.047-1.813.785l-2.291-4.444c-.949-1.678-1.919-3.609-3.142-5.624-.584-1.022-1.176-2.092-1.871-3.153s-1.3-2.221-2.071-3.326c-1.44-2.27-3.031-4.612-4.71-7.008-.887-1.168-1.681-2.425-2.612-3.613s-1.8-2.438-2.759-3.642c-.938-1.219-1.9-2.429-2.884-3.641-.959-1.226-1.964-2.424-2.985-3.61-1.977-2.422-4.087-4.739-6.121-7.057l-3.1-3.381-3.07-3.263c-4.053-4.264-7.937-8.169-11.308-11.494L1.3,2.177C-.783.138-.321-.58,2.4.5Z" transform="translate(185.553 281.513) rotate(-45)" fill="url(#linear-gradient-9)"/>
      <path id="Path_13" data-name="Path 13" d="M2.219.138A82.571,82.571,0,0,1,13.232,2.878c2.237.706,4.619,1.571,7.106,2.564,2.474,1.024,5.073,2.147,7.669,3.477,2.621,1.3,5.254,2.774,7.873,4.369,2.612,1.611,5.2,3.358,7.7,5.216q1.874,1.4,3.673,2.888c1.226.955,2.364,2.01,3.509,3.035,1.164,1,2.235,2.094,3.3,3.156,1.084,1.045,2.077,2.165,3.066,3.245a79.944,79.944,0,0,1,5.308,6.6c.806,1.076,1.511,2.2,2.208,3.258s1.33,2.118,1.9,3.157c1.2,2.032,2.113,4.028,2.934,5.769.765,1.782,1.367,3.368,1.844,4.676.434,1.337-.63,2.088-1.45,1.055l-3.12-3.583c-1.254-1.337-2.586-2.9-4.167-4.487-.769-.813-1.557-1.668-2.435-2.5s-1.7-1.76-2.656-2.612c-1.837-1.778-3.826-3.592-5.909-5.44-1.077-.887-2.091-1.873-3.212-2.769s-2.2-1.861-3.351-2.767c-1.135-.924-2.293-1.834-3.463-2.743-1.155-.925-2.346-1.818-3.547-2.7-2.357-1.815-4.81-3.507-7.194-5.216l-3.6-2.468L23.69,15.7c-4.668-3.085-9.1-5.878-12.931-8.244l-9.141-5.6C-.747.41-.5-.325,2.219.138Z" transform="translate(133.534 332.931) rotate(-45)" fill="url(#linear-gradient-9)"/>
      <path id="Path_14" data-name="Path 14" d="M2.083.333a80.845,80.845,0,0,1,9.985,3.976c2.015.944,4.148,2.055,6.37,3.3,2.207,1.269,4.518,2.646,6.811,4.211,2.318,1.539,4.631,3.246,6.92,5.06s4.525,3.775,6.686,5.816q1.616,1.535,3.155,3.143C43.063,26.877,44.026,28,45,29.093c.993,1.075,1.89,2.224,2.79,3.342s1.738,2.267,2.562,3.394a79.371,79.371,0,0,1,4.352,6.78c.655,1.1,1.212,2.224,1.767,3.294s1.051,2.128,1.494,3.162c.934,2.031,1.613,3.993,2.224,5.708.556,1.745.979,3.288,1.309,4.559.288,1.292-.762,1.847-1.434.787L57.479,56.4c-1.048-1.4-2.148-3.014-3.478-4.686-.643-.85-1.3-1.743-2.043-2.621s-1.422-1.846-2.237-2.757c-1.55-1.88-3.238-3.815-5.009-5.792-.922-.959-1.777-2-2.739-2.975s-1.88-2-2.868-2.991c-.972-1-1.968-1.992-2.975-2.983s-2.018-1.984-3.056-2.951c-2.029-1.982-4.158-3.864-6.221-5.753L23.73,20.148,20.648,17.5c-4.063-3.457-7.931-6.614-11.281-9.3l-8-6.365C-.7.192-.4-.452,2.083.333Z" transform="translate(173.838 369.633) rotate(-45)" fill="url(#linear-gradient-9)"/>
    </g>
    <g id="Group_242" data-name="Group 242" transform="translate(-865.931 -672.401)">
      <path id="Path_473" data-name="Path 473" d="M176.222,77.876c-13.567,0-18.673,17.235-18.673,38.491s17.172,32.75,30.739,32.75,18.383-11.489,18.383-32.75-16.885-38.491-30.449-38.491m-2.4,45.447a7.216,7.216,0,1,1,7.217-7.217,7.216,7.216,0,0,1-7.217,7.217" transform="translate(1822.939 2689.427)" fill="#fff"/>
      <path id="Path_474" data-name="Path 474" d="M169.6,100.111a4.145,4.145,0,1,0,4.147,4.145,4.144,4.144,0,0,0-4.147-4.145" transform="translate(1827.154 2701.277)" fill="#fff"/>
      <path id="Path_475" data-name="Path 475" d="M145.552,106.807a4.564,4.564,0,1,0-4.565-4.564,4.564,4.564,0,0,0,4.565,4.564" transform="translate(1814.112 2699.981)" fill="#fff"/>
      <path id="Path_476" data-name="Path 476" d="M146.941,171.478c18.254,5.069,28.735-1.015,28.735-1.015-18.254-7.774-28.735,1.015-28.735,1.015" transform="translate(1817.286 2737.06)" fill="#fff"/>
      <path id="Path_477" data-name="Path 477" d="M143.414,129.7c18.254,8.788,35.155-1.015,35.155-1.015-18.253-7.1-35.155,1.015-35.155,1.015" transform="translate(1815.406 2714.952)" fill="#fff"/>
      <path id="Path_478" data-name="Path 478" d="M137.965,151.407c14.932,0,33.837-12.647,33.837-36.05S167.128,72.983,152.2,72.983s-34.468,18.97-34.468,42.374,5.306,36.05,20.238,36.05m19.983-43.945A7.944,7.944,0,1,1,150,115.406a7.943,7.943,0,0,1,7.947-7.944" transform="translate(1801.716 2686.819)" fill="#fff"/>
      <path id="Path_479" data-name="Path 479" d="M175.922,129.959a27.122,27.122,0,0,0,2.647-1.277c-18.254-7.1-35.155,1.015-35.155,1.015.858.414,1.718.786,2.571,1.121,5.112-1.815,16.991-4.95,29.937-.858" transform="translate(1815.406 2714.952)" fill="#d1d1d1"/>
      <path id="Path_480" data-name="Path 480" d="M173.259,168.728c-3.763,1.4-12.113,3.448-24.182.6a13.758,13.758,0,0,0-2.135,1.367c18.254,5.069,28.735-1.015,28.735-1.015q-1.232-.524-2.417-.95" transform="translate(1817.286 2737.846)" fill="#d1d1d1"/>
      <path id="Path_481" data-name="Path 481" d="M187.5,129c-10.591,0-23.379-7-28.481-20.187,3.674,14.906,17.163,22.87,28.154,22.87,8.2,0,13.018-4.438,15.438-12.872C199.8,125.5,194.977,129,187.5,129" transform="translate(1823.724 2705.914)" fill="#d1d1d1"/>
      <path id="Path_482" data-name="Path 482" d="M136.82,129.451c-8.506,0-13.887-4.111-16.945-11.974,2.592,9.854,7.965,15.037,17.282,15.037,12.3,0,27.432-9.031,31.248-25.919-5.447,14.923-19.76,22.856-31.585,22.856" transform="translate(1802.861 2704.733)" fill="#d1d1d1"/>
      <path id="Path_483" data-name="Path 483" d="M209.153,118.222c0-22.724-18.049-41.147-32.547-41.147s-19.96,18.423-19.96,41.147,18.357,35,32.856,35,19.652-12.28,19.652-35m-20.384,31.321c-13.567,0-30.739-11.489-30.739-32.748S163.139,78.3,176.7,78.3s30.45,17.235,30.45,38.492-4.821,32.748-18.385,32.748" transform="translate(1822.457 2689)" fill="#222"/>
      <path id="Path_484" data-name="Path 484" d="M138.146,156.153c15.961,0,36.167-13.519,36.167-38.535s-5-45.3-20.957-45.3S116.51,92.6,116.51,117.618s5.672,38.535,21.636,38.535m14.7-82.817c14.932,0,19.606,18.97,19.606,42.374s-18.9,36.052-33.837,36.052-20.238-12.648-20.238-36.052,19.536-42.374,34.468-42.374" transform="translate(1801.067 2686.467)" fill="#222"/>
      <path id="Path_485" data-name="Path 485" d="M198.232,124.156c.071-.251-.178-.595-.457-.434-2.546,1.449-4.377,3.891-6.707,5.635a11.566,11.566,0,0,1-4.611,2.283,31.569,31.569,0,0,1-6.031.365c-.179,0-.293.288-.08.339,3.734.907,7.519,1.349,11.125-.343a13.313,13.313,0,0,0,6.76-7.844" transform="translate(1835.027 2713.839)" fill="#222"/>
      <path id="Path_486" data-name="Path 486" d="M136.519,131.043a.362.362,0,0,0-.2-.687,39.211,39.211,0,0,1-7.173-.446c-2.522-.343-5.011-.724-7.171-2.149a.369.369,0,0,0-.429.6c2.111,1.789,4.311,3.475,7.07,4.056a10.8,10.8,0,0,0,7.9-1.375" transform="translate(1803.676 2715.976)" fill="#222"/>
      <path id="Path_487" data-name="Path 487" d="M143.672,64.994a18.332,18.332,0,0,0-5.9,2.5c-3.777,2.37-6.48,6.084-9.471,9.313-.077.083.066.218.149.14a45.214,45.214,0,0,1,9.845-7.159c3.408-1.84,7.551-3.63,11.446-3.914.205-.015.25-.359.044-.409a14.078,14.078,0,0,0-6.118-.472" transform="translate(1807.342 2682.471)" fill="#222"/>
      <path id="Path_488" data-name="Path 488" d="M175.3,66.836a9.928,9.928,0,0,0-5.758,0c-4.168,1.206-5.932,4.726-8,8.187a.147.147,0,0,0,.239.172,14.517,14.517,0,0,1,8.387-6.044,26.355,26.355,0,0,1,4.663-.556,16.428,16.428,0,0,1,5.926,1.164c.294.092.558-.316.268-.5a23.163,23.163,0,0,0-5.729-2.424" transform="translate(1825.055 2683.317)" fill="#222"/>
      <path id="Path_489" data-name="Path 489" d="M193.758,79.965s.676-17.239-3.719-20.958-26.368,1.691-28.395-.676c0,0-1.352,4.395,5.408,6.425s16.9,0,20.284,3.716,6.421,11.494,6.421,11.494" transform="translate(1825.063 2678.653)" fill="#222"/>
      <path id="Path_490" data-name="Path 490" d="M157.622,52.641c-1.884,2.482-24.138-1.619-28.3,2.352s-2.474,21.141-2.474,21.141,2.577-7.941,5.73-11.851,13.4-2.485,20.029-4.91,5.019-6.731,5.019-6.731" transform="translate(1806.393 2675.978)" fill="#222"/>
      <path id="Path_491" data-name="Path 491" d="M170.671,98.107a7.217,7.217,0,1,0,7.217,7.217,7.216,7.216,0,0,0-7.217-7.217m0,11.362a4.145,4.145,0,1,1,4.147-4.145,4.144,4.144,0,0,1-4.147,4.145" transform="translate(1826.087 2700.209)" fill="#222"/>
      <path id="Path_492" data-name="Path 492" d="M146.728,111.364a7.944,7.944,0,1,0-7.947-7.944,7.945,7.945,0,0,0,7.947,7.944m0-12.507a4.564,4.564,0,1,1-4.565,4.564,4.563,4.563,0,0,1,4.565-4.564" transform="translate(1812.937 2698.806)" fill="#222"/>
      <path id="Path_493" data-name="Path 493" d="M201.7,139.224c-4.518-6.952-13.7-10.6-21.26-12.943-10.786-3.34-20.958-2.068-31.309,2.24-5.537,2.3-11.669,5.522-15.037,10.7-4.393,6.76,5.071,49.69,14.535,54.087a46.474,46.474,0,0,0,38.537,0c9.464-4.4,18.932-47.327,14.534-54.087m-47.325,55.1s10.481-8.788,28.735-1.013c0,0-10.479,6.083-28.735,1.013m-5.407-63.889s16.9-8.112,35.155-1.015c0,0-16.9,9.8-35.155,1.015" transform="translate(1809.849 2714.214)" fill="#222"/>
      <path id="Path_494" data-name="Path 494" d="M151.532,174.957a.177.177,0,0,0-.08.34c4.689,1.469,9.472,2.851,14.026.08.274-.167.3-.668-.106-.688-4.568-.225-9.32,1.05-13.841.268" transform="translate(1819.631 2741.008)" fill="#222"/>
      <path id="Path_495" data-name="Path 495" d="M188.981,130.383c-1.887,1.081-4.424.934-6.478.547-.1-.02-.143.149-.041.179,2.416.753,4.7,1.593,6.73-.382.15-.149.006-.468-.21-.345" transform="translate(1836.184 2717.396)" fill="#222"/>
      <path id="Path_496" data-name="Path 496" d="M125.871,133.091c2.758,1.478,7.045,1.421,9.064-1.3a.307.307,0,0,0-.371-.457c-2.891,1.312-5.307,2.3-8.529,1.453-.173-.049-.354.2-.164.307" transform="translate(1806.013 2717.902)" fill="#222"/>
      <g id="Group_231" data-name="Group 231" transform="translate(1998.017 2799.175)" opacity="0.43">
        <g id="Group_230" data-name="Group 230">
          <g id="Group_229" data-name="Group 229" clip-path="url(#clip-path)">
            <path id="Path_497" data-name="Path 497" d="M172.295,98.667A3.091,3.091,0,0,0,169,101.333a3.023,3.023,0,0,0,2.669,3.3,3.092,3.092,0,0,0,3.294-2.669,3.018,3.018,0,0,0-2.669-3.294" transform="translate(-168.984 -98.667)" fill="#fff"/>
          </g>
        </g>
      </g>
      <g id="Group_234" data-name="Group 234" transform="translate(1960.898 2795.33)" opacity="0.43">
        <g id="Group_233" data-name="Group 233">
          <g id="Group_232" data-name="Group 232" clip-path="url(#clip-path-2)">
            <path id="Path_498" data-name="Path 498" d="M148.808,96.159a3.768,3.768,0,0,0-4.021,3.259c-.192,1.807,1.268,4.022,3.256,4.022a3.771,3.771,0,0,0,4.024-3.256c.19-1.81-1.272-4.026-3.259-4.026" transform="translate(-144.77 -96.159)" fill="#fff"/>
          </g>
        </g>
      </g>
    </g>
  </g>
</svg>
