<svg xmlns="http://www.w3.org/2000/svg" xmlns:xlink="http://www.w3.org/1999/xlink" width="419.119" height="502.194" viewBox="0 0 419.119 502.194">
  <defs>
    <linearGradient id="linear-gradient" x1="0.5" y1="0.133" x2="0.89" y2="0.5" gradientUnits="objectBoundingBox">
      <stop offset="0" stop-color="#c4d143"/>
      <stop offset="1" stop-color="#7c8a1a"/>
    </linearGradient>
    <linearGradient id="linear-gradient-2" x1="1.148" y1="0.346" x2="0.5" y2="0.135" gradientUnits="objectBoundingBox">
      <stop offset="0" stop-color="#7c8a1a" stop-opacity="0"/>
      <stop offset="0.315" stop-color="#768319" stop-opacity="0.314"/>
      <stop offset="0.781" stop-color="#646f15" stop-opacity="0.78"/>
      <stop offset="1" stop-color="#5a6313"/>
    </linearGradient>
    <linearGradient id="linear-gradient-3" x1="0.423" y1="0.116" x2="0.658" y2="0.705" xlink:href="#linear-gradient"/>
    <linearGradient id="linear-gradient-4" x1="1" y1="1" x2="0.395" y2="0.356" xlink:href="#linear-gradient-2"/>
    <linearGradient id="linear-gradient-5" x1="0.246" y1="0.5" x2="0.5" y2="0.748" xlink:href="#linear-gradient"/>
    <linearGradient id="linear-gradient-6" x1="0.886" y1="0.362" x2="0.613" y2="0.084" xlink:href="#linear-gradient-2"/>
    <linearGradient id="linear-gradient-7" x1="0.586" y1="0.529" x2="0.427" y2="0.699" gradientUnits="objectBoundingBox">
      <stop offset="0" stop-color="#5a6313" stop-opacity="0"/>
      <stop offset="1" stop-color="#544f43"/>
    </linearGradient>
    <linearGradient id="linear-gradient-8" x1="0.337" y1="0.293" x2="0.642" y2="0.731" gradientUnits="objectBoundingBox">
      <stop offset="0" stop-color="#dd3b32"/>
      <stop offset="0.279" stop-color="#ff4f46"/>
      <stop offset="0.775" stop-color="#ff5b52"/>
      <stop offset="1" stop-color="#dd3b32"/>
    </linearGradient>
    <linearGradient id="linear-gradient-9" x1="-0.051" x2="1" y2="1" gradientUnits="objectBoundingBox">
      <stop offset="0" stop-color="#d30e03" stop-opacity="0"/>
      <stop offset="0.513" stop-color="#d5362e"/>
      <stop offset="1" stop-color="#c9251c"/>
    </linearGradient>
    <clipPath id="clip-path">
      <rect id="Rectangle_34" data-name="Rectangle 34" width="111.413" height="194.303" fill="none"/>
    </clipPath>
    <clipPath id="clip-path-3">
      <rect id="Rectangle_31" data-name="Rectangle 31" width="3.846" height="3.827" fill="none"/>
    </clipPath>
    <clipPath id="clip-path-4">
      <rect id="Rectangle_32" data-name="Rectangle 32" width="3.771" height="3.803" fill="none"/>
    </clipPath>
  </defs>
  <g id="Group_136" data-name="Group 136" transform="translate(-960 -1283.282)">
    <g id="Group_124" data-name="Group 124" transform="translate(967.393 1324.61)">
      <g id="Group_3" data-name="Group 3" transform="translate(92.802 18.709) rotate(-45)">
        <g id="Group_1" data-name="Group 1" transform="translate(0 0)">
          <path id="Path_1" data-name="Path 1" d="M24.367,41.36C11.892,68.752-2.74,120.169.441,145.641a2.885,2.885,0,0,0,4.71,2.132C26.48,133.4,55.75,88.6,68.225,61.212s6.148-32.978,2.967-58.451A2.885,2.885,0,0,0,66.482.629C45.153,15.008,36.842,13.967,24.367,41.36Z" fill="url(#linear-gradient)"/>
          <path id="Path_2" data-name="Path 2" d="M3.02,147.538C24.35,133.16,53.62,88.369,66.094,60.977S72.242,28,69.061,2.526A3.06,3.06,0,0,0,67.371,0L0,147.931a3.075,3.075,0,0,0,3.02-.393Z" transform="translate(2.131 0.235)" fill="url(#linear-gradient-2)"/>
        </g>
        <g id="Group_2" data-name="Group 2" transform="translate(6.22 79.045)">
          <path id="Path_3" data-name="Path 3" d="M87.1,7.471C59.709,19.959,14.933,49.165.622,70.475a2.885,2.885,0,0,0,2.156,4.7c25.53,3.143,77.007-11.458,104.393-23.946s26.276-20.855,40.588-42.166a2.885,2.885,0,0,0-2.156-4.7C120.071,1.222,114.482-5.017,87.1,7.471Z" fill="url(#linear-gradient-3)"/>
          <path id="Path_4" data-name="Path 4" d="M2.537,69.126C28.067,72.269,79.544,57.668,106.93,45.18s26.276-20.855,40.587-42.166A3.059,3.059,0,0,0,147.9,0L0,67.442A3.078,3.078,0,0,0,2.537,69.126Z" transform="translate(0.24 6.048)" fill="url(#linear-gradient-4)"/>
        </g>
      </g>
      <g id="Group_4" data-name="Group 4" transform="translate(119.755 40.968) rotate(-45)">
        <path id="Path_5" data-name="Path 5" d="M58.923,23.583C37.673,44.9,6.017,87.978.108,112.958a2.885,2.885,0,0,0,3.67,3.641C28.784,110.57,71.846,78.81,93.1,57.494s17.271-28.759,23.18-53.74a2.885,2.885,0,0,0-3.67-3.641C87.6,6.143,80.174,2.267,58.923,23.583Z" fill="url(#linear-gradient-5)"/>
        <path id="Path_6" data-name="Path 6" d="M2.968,115.8C27.973,109.772,71.035,78.012,92.286,56.7s17.271-28.759,23.18-53.74a3.062,3.062,0,0,0-.7-2.956L0,115.117A3.078,3.078,0,0,0,2.968,115.8Z" transform="translate(0.81 0.798)" fill="url(#linear-gradient-6)"/>
      </g>
      <path id="Path_7" data-name="Path 7" d="M11.012,0C3.68,24.476-1.6,51.438.441,67.756a2.862,2.862,0,0,0,2.907,2.753,2.762,2.762,0,0,0,2.875,3.114A2.893,2.893,0,0,0,9,76.333c16.34,2.012,43.3-3.248,67.781-10.568Z" transform="translate(147.876 73.781) rotate(-45)" fill="url(#linear-gradient-7)"/>
      <path id="Path_15" data-name="Path 15" d="M250.2,169.419C179.528,240.089,41.957,322.477,7.921,288.441S56.272,116.834,126.943,46.164s102.863-47.679,136.9-13.643,57.028,66.227-13.643,136.9Z" transform="translate(-7.393 251.307) rotate(-45)" fill="url(#linear-gradient-8)"/>
      <path id="Path_9" data-name="Path 9" d="M2.839.5A89.857,89.857,0,0,1,15.266,6.188c2.466,1.34,5.045,2.91,7.7,4.659,2.63,1.786,5.373,3.722,8.028,5.912a104.555,104.555,0,0,1,7.917,7.063c2.56,2.544,5.03,5.249,7.355,8.076q1.737,2.125,3.343,4.346c1.119,1.44,2.088,2.985,3.078,4.492,1.023,1.484,1.893,3.06,2.774,4.6.906,1.519,1.668,3.111,2.441,4.655a81.851,81.851,0,0,1,3.814,9.262c.548,1.5.952,3.026,1.371,4.48s.759,2.888,1.037,4.288a74.9,74.9,0,0,1,1.216,7.709c.2,2.348.282,4.421.324,6.126-.023,1.73-1.652,2.414-2.234.973l-2.36-5.064c-.992-1.909-1.986-4.112-3.277-6.4-.612-1.162-1.228-2.382-1.969-3.586C55.1,66.561,54.463,65.249,53.634,64,52.1,61.419,50.4,58.761,48.6,56.044c-.962-1.321-1.8-2.75-2.816-4.093s-1.945-2.76-2.989-4.121c-1.017-1.379-2.071-2.746-3.137-4.114-1.042-1.386-2.142-2.738-3.261-4.074-2.158-2.735-4.483-5.341-6.716-7.953l-3.416-3.8L22.871,24.22c-4.48-4.789-8.786-9.168-12.529-12.892L1.4,2.5C-.913.219-.307-.636,2.839.5Z" transform="translate(185.553 198.524) rotate(-45)" fill="url(#linear-gradient-9)"/>
      <path id="Path_10" data-name="Path 10" d="M2.561.08A86.918,86.918,0,0,1,15.109,2.565c2.544.682,5.246,1.543,8.067,2.548,2.8,1.043,5.746,2.2,8.678,3.593,2.962,1.357,5.929,2.928,8.874,4.639,2.936,1.731,5.834,3.624,8.635,5.656q2.1,1.53,4.1,3.172c1.369,1.048,2.63,2.221,3.9,3.356,1.295,1.107,2.478,2.329,3.66,3.514,1.2,1.163,2.291,2.422,3.379,3.634a81.206,81.206,0,0,1,5.8,7.45c.876,1.218,1.633,2.5,2.384,3.7s1.427,2.414,2.038,3.6a72.263,72.263,0,0,1,3.089,6.616c.79,2.052,1.4,3.882,1.885,5.393.431,1.548-.839,2.5-1.732,1.337l-3.417-4.021c-1.379-1.494-2.836-3.25-4.58-5.02-.846-.908-1.711-1.866-2.684-2.784s-1.87-1.966-2.933-2.909c-2.03-1.977-4.236-3.989-6.546-6.033-1.2-.976-2.319-2.073-3.568-3.058S51.69,34.9,50.409,33.908c-1.263-1.015-2.555-2.014-3.86-3.01-1.287-1.017-2.616-1.991-3.959-2.949-2.63-1.987-5.376-3.823-8.041-5.683L30.52,19.592l-3.97-2.559c-5.23-3.332-10.2-6.335-14.5-8.873l-10.257-6C-.86.607-.539-.28,2.561.08Z" transform="translate(118.801 247.532) rotate(-45)" fill="url(#linear-gradient-9)"/>
      <path id="Path_11" data-name="Path 11" d="M2.561.08A86.916,86.916,0,0,1,15.109,2.565c2.544.682,5.246,1.543,8.067,2.548,2.8,1.043,5.747,2.2,8.678,3.593,2.962,1.357,5.929,2.928,8.874,4.639,2.937,1.731,5.834,3.624,8.635,5.656q2.1,1.53,4.1,3.172c1.369,1.048,2.631,2.221,3.9,3.356,1.295,1.106,2.478,2.329,3.66,3.513,1.2,1.163,2.291,2.422,3.379,3.634a81.217,81.217,0,0,1,5.8,7.45c.876,1.218,1.633,2.5,2.384,3.7s1.427,2.414,2.037,3.6a72.257,72.257,0,0,1,3.089,6.616c.79,2.052,1.4,3.882,1.885,5.393.431,1.548-.839,2.5-1.732,1.337l-3.417-4.021c-1.379-1.494-2.837-3.25-4.58-5.02-.847-.908-1.711-1.866-2.684-2.784s-1.87-1.966-2.932-2.909c-2.03-1.977-4.236-3.989-6.546-6.033-1.2-.976-2.319-2.073-3.568-3.058S51.69,34.9,50.408,33.907c-1.263-1.015-2.556-2.014-3.86-3.01-1.287-1.017-2.617-1.991-3.96-2.949-2.63-1.987-5.376-3.823-8.041-5.684L30.52,19.59l-3.97-2.559c-5.23-3.332-10.2-6.335-14.5-8.873l-10.257-6C-.86.607-.54-.28,2.561.08Z" transform="translate(119.244 148.173) rotate(-45)" fill="url(#linear-gradient-9)"/>
      <path id="Path_12" data-name="Path 12" d="M2.4.5a84.724,84.724,0,0,1,10.8,5.29c2.154,1.232,4.415,2.663,6.754,4.252,2.317,1.618,4.736,3.369,7.1,5.336,2.4,1.938,4.756,4.069,7.068,6.32,2.3,2.267,4.535,4.669,6.656,7.173q1.585,1.882,3.066,3.842c1.025,1.273,1.931,2.631,2.852,3.959.947,1.308,1.773,2.692,2.6,4.041.852,1.335,1.587,2.73,2.329,4.083a80.527,80.527,0,0,1,3.763,8.1c.551,1.307.983,2.637,1.424,3.905s.814,2.515,1.132,3.732c.7,2.395,1.111,4.689,1.494,6.7.313,2.036.509,3.831.65,5.308.088,1.5-1.236,2.047-1.813.785l-2.291-4.444c-.949-1.678-1.919-3.609-3.142-5.624-.584-1.022-1.176-2.092-1.871-3.153s-1.3-2.221-2.071-3.326c-1.44-2.27-3.031-4.612-4.71-7.008-.887-1.168-1.681-2.425-2.612-3.613s-1.8-2.438-2.759-3.642c-.938-1.219-1.9-2.429-2.884-3.641-.959-1.226-1.964-2.424-2.985-3.61-1.977-2.422-4.087-4.739-6.121-7.057l-3.1-3.381-3.07-3.263c-4.053-4.264-7.937-8.169-11.308-11.494L1.3,2.177C-.783.138-.321-.58,2.4.5Z" transform="translate(185.553 281.513) rotate(-45)" fill="url(#linear-gradient-9)"/>
      <path id="Path_13" data-name="Path 13" d="M2.219.138A82.571,82.571,0,0,1,13.232,2.878c2.237.706,4.619,1.571,7.106,2.564,2.474,1.024,5.073,2.147,7.669,3.477,2.621,1.3,5.254,2.774,7.873,4.369,2.612,1.611,5.2,3.358,7.7,5.216q1.874,1.4,3.673,2.888c1.226.955,2.364,2.01,3.509,3.035,1.164,1,2.235,2.094,3.3,3.156,1.084,1.045,2.077,2.165,3.066,3.245a79.944,79.944,0,0,1,5.308,6.6c.806,1.076,1.511,2.2,2.208,3.258s1.33,2.118,1.9,3.157c1.2,2.032,2.113,4.028,2.934,5.769.765,1.782,1.367,3.368,1.844,4.676.434,1.337-.63,2.088-1.45,1.055l-3.12-3.583c-1.254-1.337-2.586-2.9-4.167-4.487-.769-.813-1.557-1.668-2.435-2.5s-1.7-1.76-2.656-2.612c-1.837-1.778-3.826-3.592-5.909-5.44-1.077-.887-2.091-1.873-3.212-2.769s-2.2-1.861-3.351-2.767c-1.135-.924-2.293-1.834-3.463-2.743-1.155-.925-2.346-1.818-3.547-2.7-2.357-1.815-4.81-3.507-7.194-5.216l-3.6-2.468L23.69,15.7c-4.668-3.085-9.1-5.878-12.931-8.244l-9.141-5.6C-.747.41-.5-.325,2.219.138Z" transform="translate(133.534 332.931) rotate(-45)" fill="url(#linear-gradient-9)"/>
      <path id="Path_14" data-name="Path 14" d="M2.083.333a80.845,80.845,0,0,1,9.985,3.976c2.015.944,4.148,2.055,6.37,3.3,2.207,1.269,4.518,2.646,6.811,4.211,2.318,1.539,4.631,3.246,6.92,5.06s4.525,3.775,6.686,5.816q1.616,1.535,3.155,3.143C43.063,26.877,44.026,28,45,29.093c.993,1.075,1.89,2.224,2.79,3.342s1.738,2.267,2.562,3.394a79.371,79.371,0,0,1,4.352,6.78c.655,1.1,1.212,2.224,1.767,3.294s1.051,2.128,1.494,3.162c.934,2.031,1.613,3.993,2.224,5.708.556,1.745.979,3.288,1.309,4.559.288,1.292-.762,1.847-1.434.787L57.479,56.4c-1.048-1.4-2.148-3.014-3.478-4.686-.643-.85-1.3-1.743-2.043-2.621s-1.422-1.846-2.237-2.757c-1.55-1.88-3.238-3.815-5.009-5.792-.922-.959-1.777-2-2.739-2.975s-1.88-2-2.868-2.991c-.972-1-1.968-1.992-2.975-2.983s-2.018-1.984-3.056-2.951c-2.029-1.982-4.158-3.864-6.221-5.753L23.73,20.148,20.648,17.5c-4.063-3.457-7.931-6.614-11.281-9.3l-8-6.365C-.7.192-.4-.452,2.083.333Z" transform="translate(173.838 369.633) rotate(-45)" fill="url(#linear-gradient-9)"/>
    </g>
    <g id="Group_134" data-name="Group 134" transform="translate(1113.853 1432.804)">
      <g id="Group_133" data-name="Group 133" clip-path="url(#clip-path)">
        <g id="Group_132" data-name="Group 132">
          <g id="Group_131" data-name="Group 131" clip-path="url(#clip-path)">
            <path id="Path_194" data-name="Path 194" d="M194.349,126.925c13.352,0,24.179-12.717,24.179-28.4s-10.827-28.4-24.179-28.4-24.18,12.715-24.18,28.4,10.825,28.4,24.18,28.4M190.276,98.7a3.386,3.386,0,1,1-3.384,3.384,3.388,3.388,0,0,1,3.384-3.384" transform="translate(-110.904 -45.699)" fill="#fff"/>
            <path id="Path_195" data-name="Path 195" d="M62.642,291.52a17.215,17.215,0,0,1,1.056-8.467s5.485,3.612,23.707,3.812c19.471.21,29.418-3.388,29.418-3.388,2.327,3.81,1.06,8.677,1.06,8.677s6.138,1.482,7.618,0,3.808-12.911,2.54-14.814-6.986-9.1-13.123-9.947-20.774,2.635-26.276,2.848-22.828-2.848-25.368-2.848-10.793,8.467-10.793,8.467c-.634,2.75.211,13.12,1.905,14.814s8.255.847,8.255.847" transform="translate(-34.067 -174.181)" fill="#fff"/>
            <path id="Path_196" data-name="Path 196" d="M137.826,352.326c-7.831,2.116-2.965,11.43-2.328,13.335s-1.482,4.446-4.021,4.446-4.021-2.542-3.177-4.233,4.679-13.759-3.811-13.759c-5.712,0-7.194,22.434-7.194,22.434s4.444-1.692,6.983-1.058,6.563,3.387,6.563,3.387,4.02-4.021,8.041-3.6a23.678,23.678,0,0,1,7.833,2.539s-1.058-25.61-8.889-23.494" transform="translate(-76.445 -229.484)" fill="#a7252d"/>
            <path id="Path_197" data-name="Path 197" d="M117.287,433.218c-5.289-3.174-14.6-6.349-14.6-6.349s9.376,6.8,7.2,11.426c-1.7,3.6-21.379,6.562-32.383,6.352-17.586-.338-26.457-5.291-28.362-8.046s5.293-9.733,5.293-9.733-11.643,3.174-14.182,8.254a38.022,38.022,0,0,0-3.176,11.428s22.224,14.4,41.486,14.4c24.339,0,42.752-13.759,42.752-13.759s1.273-10.794-4.021-13.969" transform="translate(-24.16 -278.204)" fill="#d1d1d1"/>
            <path id="Path_198" data-name="Path 198" d="M106.468,420.809s-3.339-4.446-7.618-4.446c-7.409,0-18.626,7.2-18.626,11.43s15.238,8.678,26.244,8.254,22.223-2.116,26.244-5.925c2.965-4.445-8.886-11.005-15.023-13.335s-11.221,4.022-11.221,4.022" transform="translate(-52.284 -271.299)" fill="#ff7075"/>
            <path id="Path_199" data-name="Path 199" d="M29.6,127.157c13.325,0,24.128-12.689,24.128-28.34S42.928,70.475,29.6,70.475,5.475,83.162,5.475,98.817s10.8,28.34,24.128,28.34m3.281-28.335a3.386,3.386,0,1,1-3.388,3.384,3.386,3.386,0,0,1,3.388-3.384" transform="translate(-3.568 -45.931)" fill="#fff"/>
            <path id="Path_200" data-name="Path 200" d="M195.922,171.854c-12.258,0-22.307-11.1-23.264-25.208-.049.727-.076,1.464-.076,2.206,0,15.142,10.449,27.412,23.34,27.412s23.339-12.27,23.339-27.412c0-.742-.025-1.479-.076-2.206-.957,14.107-11.007,25.208-23.262,25.208" transform="translate(-112.477 -95.574)" fill="#d1d1d1"/>
            <path id="Path_201" data-name="Path 201" d="M31.529,172.11c-12.128,0-22.074-10.98-23.022-24.939-.049.718-.076,1.45-.076,2.185,0,14.985,10.341,27.131,23.1,27.131s23.1-12.147,23.1-27.131c0-.735-.025-1.467-.074-2.185-.948,13.959-10.9,24.939-23.022,24.939" transform="translate(-5.495 -95.916)" fill="#d1d1d1"/>
            <path id="Path_202" data-name="Path 202" d="M114.41,452.881a23.628,23.628,0,0,0-4.554,1.477c-1.839,3.577-21.4,6.515-32.356,6.305-17.587-.338-26.457-5.291-28.362-8.046a1.65,1.65,0,0,1-.2-.382c-.365-.127-.756-.248-1.122-.351a17.413,17.413,0,0,0-1.881-.382,10.015,10.015,0,0,0-6.476,1.395,40.084,40.084,0,0,0-2.387,9.67s22.224,14.4,41.486,14.4c24.339,0,42.751-13.759,42.751-13.759a26.1,26.1,0,0,0-.655-9.04,7.389,7.389,0,0,0-6.244-1.282" transform="translate(-24.161 -294.22)" fill="#fff"/>
            <path id="Path_203" data-name="Path 203" d="M52.478,278.046s8.254-8.467,10.793-8.467,19.865,3.058,25.369,2.848,20.138-3.7,26.276-2.848,11.854,8.041,13.124,9.948a2.724,2.724,0,0,1,.321,1.175,6.617,6.617,0,0,0-.321-3.362c-1.269-1.9-6.986-9.1-13.124-9.948s-20.774,2.635-26.276,2.848-22.828-2.848-25.369-2.848-10.793,8.467-10.793,8.467a18.117,18.117,0,0,0-.193,3.982,10.408,10.408,0,0,1,.193-1.8" transform="translate(-34.063 -174.182)" fill="#d1d1d1"/>
            <path id="Path_204" data-name="Path 204" d="M232.78,435.429c.783-2.138-.729-4.689-2.579-6.809-2.7-1.062-4.735-1.751-4.735-1.751s6.1,4.42,7.314,8.56" transform="translate(-146.943 -278.204)" fill="#d1d1d1"/>
            <path id="Path_205" data-name="Path 205" d="M71.107,434.005c1.18-3.139,5.3-7.136,5.3-7.136s-1.339.365-3.2,1.044c-1.621,2.126-3.063,4.669-2.1,6.092" transform="translate(-46.139 -278.204)" fill="#d1d1d1"/>
            <path id="Path_206" data-name="Path 206" d="M121.309,475.021S102.9,488.779,78.557,488.779c-17.852,0-38.245-12.36-41.134-14.17-.257,1.43-.352,2.361-.352,2.361s22.224,14.4,41.486,14.4c24.339,0,42.752-13.759,42.752-13.759a28.175,28.175,0,0,0,.11-4.062c-.042.909-.11,1.477-.11,1.477" transform="translate(-24.16 -308.623)" fill="#d1d1d1"/>
            <path id="Path_207" data-name="Path 207" d="M63.221,305.959a28.689,28.689,0,0,1-3.883-1.143,17.241,17.241,0,0,1-7.066-4.518c.008,4.155.811,10.6,2.115,11.907,1.694,1.694,8.255.847,8.255.847a17.285,17.285,0,0,1,.578-7.092" transform="translate(-34.068 -195.714)" fill="#d1d1d1"/>
            <path id="Path_208" data-name="Path 208" d="M249.922,294.324a21.882,21.882,0,0,1-9.544,7.814c-.127.254-.255.5-.39.751a13.5,13.5,0,0,1,.236,6.9s6.138,1.482,7.618,0,3.808-12.911,2.54-14.814c-.116-.176-.272-.4-.461-.654" transform="translate(-156.408 -191.82)" fill="#d1d1d1"/>
            <path id="Path_209" data-name="Path 209" d="M128.55,434.489a8.98,8.98,0,0,1-2.455,3.335,15.964,15.964,0,0,1-6.93,3.188,58.918,58.918,0,0,1-12.985.9,64.27,64.27,0,0,1-9.305-.8c-3.643-.558-7.7-1.379-10.764-3.541a8.884,8.884,0,0,1-2.663-2.788c-1.961,1.707-3.225,3.46-3.225,4.882,0,4.233,15.239,8.678,26.245,8.254s22.222-2.116,26.244-5.925c1.494-2.236-.767-5.008-4.161-7.5" transform="translate(-52.284 -283.17)" fill="#ff5258"/>
            <path id="Path_210" data-name="Path 210" d="M113.344,424.051a21.059,21.059,0,0,0,7.412,2.359,29.831,29.831,0,0,0,8.237-.216,19.63,19.63,0,0,0,12.077-7.016,50.579,50.579,0,0,0-5.256-2.39c-6.14-2.329-11.221,4.021-11.221,4.021s-3.339-4.445-7.618-4.445a21.975,21.975,0,0,0-8.94,2.4,13.39,13.39,0,0,0,5.309,5.287" transform="translate(-70.41 -271.299)" fill="#ffa4a7"/>
            <path id="Path_211" data-name="Path 211" d="M149.335,397.4a21.19,21.19,0,0,0-1.3-2.169,15.031,15.031,0,0,0-5.867-4.986l-.128-.066a.556.556,0,0,1-.07-.024c-.154-.064-.309-.122-.465-.179-.357-.13-.716-.247-1.083-.35a15.791,15.791,0,0,0-1.638-.372c.1.25.181.457.235.612.634,1.9-1.482,4.446-4.021,4.446s-4.021-2.542-3.176-4.233c.035-.074.076-.164.12-.271-.236.078-.473.154-.708.24-.059.02-.7.272-.689.259a19.622,19.622,0,0,0-2.2,1.129q-.459.273-.906.574c-.186.124-.372.25-.551.381-.017.013-.163.125-.207.155a15.437,15.437,0,0,0-1.677,1.542c-.219.235-.433.475-.636.725-.046.056-.113.145-.126.161-.1.14-.2.281-.293.422a11.508,11.508,0,0,0-.641,1.094c-.059.111-.113.223-.167.34-.027.063-.118.267-.139.326-.11.318-.213.636-.294.962-.005.014-.005.024-.01.037a11.438,11.438,0,0,1,5.1-.46c2.541.636,6.564,3.387,6.564,3.387s4.02-4.021,8.04-3.6a23.682,23.682,0,0,1,7.833,2.539s-.012-.25-.039-.7a15.174,15.174,0,0,0-.865-1.922" transform="translate(-79.969 -253.688)" fill="#8c141d"/>
            <path id="Path_212" data-name="Path 212" d="M26.668,126.7c14.73,0,26.67-14.027,26.67-31.325S41.4,64.048,26.668,64.048,0,78.073,0,95.373,11.94,126.7,26.668,126.7m-.634-60.412c13.325,0,24.128,12.687,24.128,28.342s-10.8,28.34-24.128,28.34S1.907,110.279,1.907,94.628s10.8-28.342,24.128-28.342" transform="translate(0 -41.742)" fill="#222"/>
            <path id="Path_213" data-name="Path 213" d="M187.718,126.7c14.729,0,26.668-14.027,26.668-31.325s-11.939-31.325-26.668-31.325S161.05,78.073,161.05,95.373,172.99,126.7,187.718,126.7m.688-60.536c13.352,0,24.179,12.715,24.179,28.4s-10.827,28.4-24.179,28.4-24.18-12.716-24.18-28.4,10.825-28.4,24.18-28.4" transform="translate(-104.961 -41.742)" fill="#222"/>
            <path id="Path_214" data-name="Path 214" d="M99.042,261.2c-7.405-2.113-20.952,2.967-29.418,2.753s-20.531-3.6-25.186-2.542-13.759,9.948-13.759,9.948c-3.387,7.833-8.257,62.018-4.866,66.884s27.48,16.721,45.081,16.721c20.107,0,40.213-11.853,45.507-16.085s-1.06-63.284-3.178-66.46-6.771-9.1-14.18-11.219M34.488,271.573s8.254-8.467,10.793-8.467,19.865,3.061,25.369,2.848,20.138-3.693,26.276-2.848,11.854,8.042,13.124,9.947-1.06,13.333-2.54,14.814-7.618,0-7.618,0,1.267-4.866-1.06-8.677c0,0-9.948,3.6-29.419,3.388-18.222-.2-23.707-3.812-23.707-3.812a17.21,17.21,0,0,0-1.056,8.467s-6.562.847-8.256-.847-2.539-12.064-1.9-14.814m44.023,42.12c-4.021-.424-8.041,3.6-8.041,3.6s-4.023-2.752-6.564-3.388-6.982,1.058-6.982,1.058,1.483-22.434,7.194-22.434c8.49,0,4.658,12.062,3.811,13.759s.636,4.232,3.176,4.232,4.655-2.542,4.021-4.446-5.5-11.219,2.328-13.335,8.889,23.494,8.889,23.494a23.669,23.669,0,0,0-7.833-2.539M96.5,328.719c-4.021,3.809-15.237,5.5-26.244,5.925s-26.245-4.021-26.245-8.254,11.217-11.43,18.626-11.43c4.28,0,7.618,4.446,7.618,4.446s5.081-6.35,11.221-4.021,17.988,8.89,15.023,13.335m16.721,10.159S94.809,352.638,70.47,352.638c-19.261,0-41.486-14.4-41.486-14.4a38.023,38.023,0,0,1,3.176-11.428c2.539-5.079,14.182-8.254,14.182-8.254s-7.2,6.984-5.292,9.733S51.826,336,69.412,336.339c11,.21,30.688-2.753,32.383-6.352,2.177-4.625-7.2-11.427-7.2-11.427s9.315,3.174,14.6,6.349,4.021,13.969,4.021,13.969" transform="translate(-16.074 -169.896)" fill="#222"/>
            <path id="Path_215" data-name="Path 215" d="M304.427,190.035a24.4,24.4,0,0,1-1.406,3.3c-.463,1.073-.9,2.148-1.38,3.217a23.267,23.267,0,0,1-4.038,6.006c-.2.226.161.563.386.365a35.8,35.8,0,0,0,5.634-5.519,7.594,7.594,0,0,0,1.319-7.312c-.059-.232-.44-.341-.514-.054" transform="translate(-193.918 -123.739)" fill="#222"/>
            <path id="Path_216" data-name="Path 216" d="M12.595,64.45C10.306,66.992,9.141,70.1,7.427,73c-.072.118.1.245.176.125a29.709,29.709,0,0,1,6.078-6.709,24.934,24.934,0,0,1,6.942-4.481.39.39,0,0,0-.113-.74,10.255,10.255,0,0,0-7.916,3.259" transform="translate(-4.829 -39.876)" fill="#222"/>
            <path id="Path_217" data-name="Path 217" d="M248.551,57.791a23.315,23.315,0,0,0-3.132-.025c-1.056-.025-2.108-.084-3.164-.056-.089.005-.084.156.005.161a14.119,14.119,0,0,1,3.232.368,23.1,23.1,0,0,1,2.681,1.16c.906.368,1.849.668,2.76,1.038a5.558,5.558,0,0,0,2.361.543.408.408,0,0,0,.311-.566c-.937-1.58-3.317-2.343-5.054-2.622" transform="translate(-157.842 -37.606)" fill="#222"/>
            <path id="Path_218" data-name="Path 218" d="M50.652,245.693a10.683,10.683,0,0,1-4.479-1.559c-.145-.1-.3.114-.161.228a13.238,13.238,0,0,0,4.328,2.647,9.128,9.128,0,0,0,4.884-.37.119.119,0,0,0-.037-.235,19.481,19.481,0,0,1-4.535-.712" transform="translate(-29.952 -159.092)" fill="#222"/>
            <path id="Path_219" data-name="Path 219" d="M77.836,158.639a3.386,3.386,0,1,0-3.388-3.388,3.388,3.388,0,0,0,3.388,3.388" transform="translate(-48.52 -98.977)" fill="#222"/>
            <path id="Path_220" data-name="Path 220" d="M221.569,158.941a3.386,3.386,0,1,0-3.384-3.387,3.387,3.387,0,0,0,3.384,3.387" transform="translate(-142.198 -99.174)" fill="#222"/>
            <path id="Path_221" data-name="Path 221" d="M205.114,11.83s9.1-5.08,14.6-2.541,12.064,6.138,12.064,6.138-9.523-32.17-26.667-3.6" transform="translate(-133.679 0)" fill="#222"/>
            <path id="Path_222" data-name="Path 222" d="M64.653,11.83c-17.144-28.573-26.668,3.6-26.668,3.6s6.562-3.6,12.065-6.138,14.6,2.541,14.6,2.541" transform="translate(-24.756 0)" fill="#222"/>
            <path id="Path_223" data-name="Path 223" d="M150.479,549.506c-3.945.238-7.818-.115-11.736-.122,1.1,1.679,3.353,2.349,5.23,2.691a12.013,12.013,0,0,0,9.808-2.85c-.526.021-1.051.071-1.577.125-.575.059-1.153.122-1.724.156" transform="translate(-90.423 -357.947)" fill="#222"/>
            <g id="Group_127" data-name="Group 127" transform="translate(77.718 54.108)" opacity="0.43">
              <g id="Group_126" data-name="Group 126">
                <g id="Group_125" data-name="Group 125" clip-path="url(#clip-path-3)">
                  <path id="Path_224" data-name="Path 224" d="M225.278,155.363a1.981,1.981,0,0,0-2.114,1.714,1.937,1.937,0,0,0,1.712,2.113,1.983,1.983,0,0,0,2.116-1.711,1.94,1.94,0,0,0-1.714-2.116" transform="translate(-223.155 -155.363)" fill="#fff"/>
                </g>
              </g>
            </g>
            <g id="Group_130" data-name="Group 130" transform="translate(27.799 54.402)" opacity="0.43">
              <g id="Group_129" data-name="Group 129">
                <g id="Group_128" data-name="Group 128" clip-path="url(#clip-path-4)">
                  <path id="Path_225" data-name="Path 225" d="M83.58,157.822a1.876,1.876,0,0,0-.4-.908c-.122-.117-.247-.232-.372-.35a1.862,1.862,0,0,0-.9-.343,1.413,1.413,0,0,0-.72.08,1.438,1.438,0,0,0-.673.331,1.467,1.467,0,0,0-.465.588,1.384,1.384,0,0,0-.225.688c0,.164.007.325.008.487a1.944,1.944,0,0,0,.4.908c.121.115.248.23.37.346a1.88,1.88,0,0,0,.9.343,1.4,1.4,0,0,0,.723-.077,1.717,1.717,0,0,0,1.134-.92,1.416,1.416,0,0,0,.228-.69c0-.161-.007-.325-.012-.483" transform="translate(-79.821 -156.206)" fill="#fff"/>
                </g>
              </g>
            </g>
          </g>
        </g>
      </g>
    </g>
  </g>
</svg>
