<svg xmlns="http://www.w3.org/2000/svg" xmlns:xlink="http://www.w3.org/1999/xlink" width="419.119" height="502.194" viewBox="0 0 419.119 502.194">
  <defs>
    <linearGradient id="linear-gradient" x1="0.5" y1="0.133" x2="0.89" y2="0.5" gradientUnits="objectBoundingBox">
      <stop offset="0" stop-color="#c4d143"/>
      <stop offset="1" stop-color="#7c8a1a"/>
    </linearGradient>
    <linearGradient id="linear-gradient-2" x1="1.148" y1="0.346" x2="0.5" y2="0.135" gradientUnits="objectBoundingBox">
      <stop offset="0" stop-color="#7c8a1a" stop-opacity="0"/>
      <stop offset="0.315" stop-color="#768319" stop-opacity="0.314"/>
      <stop offset="0.781" stop-color="#646f15" stop-opacity="0.78"/>
      <stop offset="1" stop-color="#5a6313"/>
    </linearGradient>
    <linearGradient id="linear-gradient-3" x1="0.423" y1="0.116" x2="0.658" y2="0.705" xlink:href="#linear-gradient"/>
    <linearGradient id="linear-gradient-4" x1="1" y1="1" x2="0.395" y2="0.356" xlink:href="#linear-gradient-2"/>
    <linearGradient id="linear-gradient-5" x1="0.246" y1="0.5" x2="0.5" y2="0.748" xlink:href="#linear-gradient"/>
    <linearGradient id="linear-gradient-6" x1="0.886" y1="0.362" x2="0.613" y2="0.084" xlink:href="#linear-gradient-2"/>
    <linearGradient id="linear-gradient-7" x1="0.586" y1="0.529" x2="0.427" y2="0.699" gradientUnits="objectBoundingBox">
      <stop offset="0" stop-color="#5a6313" stop-opacity="0"/>
      <stop offset="1" stop-color="#544f43"/>
    </linearGradient>
    <linearGradient id="linear-gradient-8" x1="0.337" y1="0.293" x2="0.642" y2="0.731" gradientUnits="objectBoundingBox">
      <stop offset="0" stop-color="#dd3b32"/>
      <stop offset="0.279" stop-color="#ff4f46"/>
      <stop offset="0.775" stop-color="#ff5b52"/>
      <stop offset="1" stop-color="#dd3b32"/>
    </linearGradient>
    <linearGradient id="linear-gradient-9" x1="-0.051" x2="1" y2="1" gradientUnits="objectBoundingBox">
      <stop offset="0" stop-color="#d30e03" stop-opacity="0"/>
      <stop offset="0.513" stop-color="#d5362e"/>
      <stop offset="1" stop-color="#c9251c"/>
    </linearGradient>
    <clipPath id="clip-path">
      <rect id="Rectangle_30" data-name="Rectangle 30" width="155.151" height="133.144" fill="none"/>
    </clipPath>
    <clipPath id="clip-path-3">
      <rect id="Rectangle_27" data-name="Rectangle 27" width="11.919" height="12.017" fill="none"/>
    </clipPath>
    <clipPath id="clip-path-4">
      <rect id="Rectangle_28" data-name="Rectangle 28" width="11.871" height="11.97" fill="none"/>
    </clipPath>
  </defs>
  <g id="Group_137" data-name="Group 137" transform="translate(-1537.212 -1283.282)">
    <g id="Group_112" data-name="Group 112" transform="translate(1544.605 1324.61)">
      <g id="Group_3" data-name="Group 3" transform="translate(92.802 18.709) rotate(-45)">
        <g id="Group_1" data-name="Group 1" transform="translate(0 0)">
          <path id="Path_1" data-name="Path 1" d="M24.367,41.36C11.892,68.752-2.74,120.169.441,145.641a2.885,2.885,0,0,0,4.71,2.132C26.48,133.4,55.75,88.6,68.225,61.212s6.148-32.978,2.967-58.451A2.885,2.885,0,0,0,66.482.629C45.153,15.008,36.842,13.967,24.367,41.36Z" fill="url(#linear-gradient)"/>
          <path id="Path_2" data-name="Path 2" d="M3.02,147.538C24.35,133.16,53.62,88.369,66.094,60.977S72.242,28,69.061,2.526A3.06,3.06,0,0,0,67.371,0L0,147.931a3.075,3.075,0,0,0,3.02-.393Z" transform="translate(2.131 0.235)" fill="url(#linear-gradient-2)"/>
        </g>
        <g id="Group_2" data-name="Group 2" transform="translate(6.22 79.045)">
          <path id="Path_3" data-name="Path 3" d="M87.1,7.471C59.709,19.959,14.933,49.165.622,70.475a2.885,2.885,0,0,0,2.156,4.7c25.53,3.143,77.007-11.458,104.393-23.946s26.276-20.855,40.588-42.166a2.885,2.885,0,0,0-2.156-4.7C120.071,1.222,114.482-5.017,87.1,7.471Z" fill="url(#linear-gradient-3)"/>
          <path id="Path_4" data-name="Path 4" d="M2.537,69.126C28.067,72.269,79.544,57.668,106.93,45.18s26.276-20.855,40.587-42.166A3.059,3.059,0,0,0,147.9,0L0,67.442A3.078,3.078,0,0,0,2.537,69.126Z" transform="translate(0.24 6.048)" fill="url(#linear-gradient-4)"/>
        </g>
      </g>
      <g id="Group_4" data-name="Group 4" transform="translate(119.755 40.968) rotate(-45)">
        <path id="Path_5" data-name="Path 5" d="M58.923,23.583C37.673,44.9,6.017,87.978.108,112.958a2.885,2.885,0,0,0,3.67,3.641C28.784,110.57,71.846,78.81,93.1,57.494s17.271-28.759,23.18-53.74a2.885,2.885,0,0,0-3.67-3.641C87.6,6.143,80.174,2.267,58.923,23.583Z" fill="url(#linear-gradient-5)"/>
        <path id="Path_6" data-name="Path 6" d="M2.968,115.8C27.973,109.772,71.035,78.012,92.286,56.7s17.271-28.759,23.18-53.74a3.062,3.062,0,0,0-.7-2.956L0,115.117A3.078,3.078,0,0,0,2.968,115.8Z" transform="translate(0.81 0.798)" fill="url(#linear-gradient-6)"/>
      </g>
      <path id="Path_7" data-name="Path 7" d="M11.012,0C3.68,24.476-1.6,51.438.441,67.756a2.862,2.862,0,0,0,2.907,2.753,2.762,2.762,0,0,0,2.875,3.114A2.893,2.893,0,0,0,9,76.333c16.34,2.012,43.3-3.248,67.781-10.568Z" transform="translate(147.876 73.781) rotate(-45)" fill="url(#linear-gradient-7)"/>
      <path id="Path_15" data-name="Path 15" d="M250.2,169.419C179.528,240.089,41.957,322.477,7.921,288.441S56.272,116.834,126.943,46.164s102.863-47.679,136.9-13.643,57.028,66.227-13.643,136.9Z" transform="translate(-7.393 251.307) rotate(-45)" fill="url(#linear-gradient-8)"/>
      <path id="Path_9" data-name="Path 9" d="M2.839.5A89.857,89.857,0,0,1,15.266,6.188c2.466,1.34,5.045,2.91,7.7,4.659,2.63,1.786,5.373,3.722,8.028,5.912a104.555,104.555,0,0,1,7.917,7.063c2.56,2.544,5.03,5.249,7.355,8.076q1.737,2.125,3.343,4.346c1.119,1.44,2.088,2.985,3.078,4.492,1.023,1.484,1.893,3.06,2.774,4.6.906,1.519,1.668,3.111,2.441,4.655a81.851,81.851,0,0,1,3.814,9.262c.548,1.5.952,3.026,1.371,4.48s.759,2.888,1.037,4.288a74.9,74.9,0,0,1,1.216,7.709c.2,2.348.282,4.421.324,6.126-.023,1.73-1.652,2.414-2.234.973l-2.36-5.064c-.992-1.909-1.986-4.112-3.277-6.4-.612-1.162-1.228-2.382-1.969-3.586C55.1,66.561,54.463,65.249,53.634,64,52.1,61.419,50.4,58.761,48.6,56.044c-.962-1.321-1.8-2.75-2.816-4.093s-1.945-2.76-2.989-4.121c-1.017-1.379-2.071-2.746-3.137-4.114-1.042-1.386-2.142-2.738-3.261-4.074-2.158-2.735-4.483-5.341-6.716-7.953l-3.416-3.8L22.871,24.22c-4.48-4.789-8.786-9.168-12.529-12.892L1.4,2.5C-.913.219-.307-.636,2.839.5Z" transform="translate(185.553 198.524) rotate(-45)" fill="url(#linear-gradient-9)"/>
      <path id="Path_10" data-name="Path 10" d="M2.561.08A86.918,86.918,0,0,1,15.109,2.565c2.544.682,5.246,1.543,8.067,2.548,2.8,1.043,5.746,2.2,8.678,3.593,2.962,1.357,5.929,2.928,8.874,4.639,2.936,1.731,5.834,3.624,8.635,5.656q2.1,1.53,4.1,3.172c1.369,1.048,2.63,2.221,3.9,3.356,1.295,1.107,2.478,2.329,3.66,3.514,1.2,1.163,2.291,2.422,3.379,3.634a81.206,81.206,0,0,1,5.8,7.45c.876,1.218,1.633,2.5,2.384,3.7s1.427,2.414,2.038,3.6a72.263,72.263,0,0,1,3.089,6.616c.79,2.052,1.4,3.882,1.885,5.393.431,1.548-.839,2.5-1.732,1.337l-3.417-4.021c-1.379-1.494-2.836-3.25-4.58-5.02-.846-.908-1.711-1.866-2.684-2.784s-1.87-1.966-2.933-2.909c-2.03-1.977-4.236-3.989-6.546-6.033-1.2-.976-2.319-2.073-3.568-3.058S51.69,34.9,50.409,33.908c-1.263-1.015-2.555-2.014-3.86-3.01-1.287-1.017-2.616-1.991-3.959-2.949-2.63-1.987-5.376-3.823-8.041-5.683L30.52,19.592l-3.97-2.559c-5.23-3.332-10.2-6.335-14.5-8.873l-10.257-6C-.86.607-.539-.28,2.561.08Z" transform="translate(118.801 247.532) rotate(-45)" fill="url(#linear-gradient-9)"/>
      <path id="Path_11" data-name="Path 11" d="M2.561.08A86.916,86.916,0,0,1,15.109,2.565c2.544.682,5.246,1.543,8.067,2.548,2.8,1.043,5.747,2.2,8.678,3.593,2.962,1.357,5.929,2.928,8.874,4.639,2.937,1.731,5.834,3.624,8.635,5.656q2.1,1.53,4.1,3.172c1.369,1.048,2.631,2.221,3.9,3.356,1.295,1.106,2.478,2.329,3.66,3.513,1.2,1.163,2.291,2.422,3.379,3.634a81.217,81.217,0,0,1,5.8,7.45c.876,1.218,1.633,2.5,2.384,3.7s1.427,2.414,2.037,3.6a72.257,72.257,0,0,1,3.089,6.616c.79,2.052,1.4,3.882,1.885,5.393.431,1.548-.839,2.5-1.732,1.337l-3.417-4.021c-1.379-1.494-2.837-3.25-4.58-5.02-.847-.908-1.711-1.866-2.684-2.784s-1.87-1.966-2.932-2.909c-2.03-1.977-4.236-3.989-6.546-6.033-1.2-.976-2.319-2.073-3.568-3.058S51.69,34.9,50.408,33.907c-1.263-1.015-2.556-2.014-3.86-3.01-1.287-1.017-2.617-1.991-3.96-2.949-2.63-1.987-5.376-3.823-8.041-5.684L30.52,19.59l-3.97-2.559c-5.23-3.332-10.2-6.335-14.5-8.873l-10.257-6C-.86.607-.54-.28,2.561.08Z" transform="translate(119.244 148.173) rotate(-45)" fill="url(#linear-gradient-9)"/>
      <path id="Path_12" data-name="Path 12" d="M2.4.5a84.724,84.724,0,0,1,10.8,5.29c2.154,1.232,4.415,2.663,6.754,4.252,2.317,1.618,4.736,3.369,7.1,5.336,2.4,1.938,4.756,4.069,7.068,6.32,2.3,2.267,4.535,4.669,6.656,7.173q1.585,1.882,3.066,3.842c1.025,1.273,1.931,2.631,2.852,3.959.947,1.308,1.773,2.692,2.6,4.041.852,1.335,1.587,2.73,2.329,4.083a80.527,80.527,0,0,1,3.763,8.1c.551,1.307.983,2.637,1.424,3.905s.814,2.515,1.132,3.732c.7,2.395,1.111,4.689,1.494,6.7.313,2.036.509,3.831.65,5.308.088,1.5-1.236,2.047-1.813.785l-2.291-4.444c-.949-1.678-1.919-3.609-3.142-5.624-.584-1.022-1.176-2.092-1.871-3.153s-1.3-2.221-2.071-3.326c-1.44-2.27-3.031-4.612-4.71-7.008-.887-1.168-1.681-2.425-2.612-3.613s-1.8-2.438-2.759-3.642c-.938-1.219-1.9-2.429-2.884-3.641-.959-1.226-1.964-2.424-2.985-3.61-1.977-2.422-4.087-4.739-6.121-7.057l-3.1-3.381-3.07-3.263c-4.053-4.264-7.937-8.169-11.308-11.494L1.3,2.177C-.783.138-.321-.58,2.4.5Z" transform="translate(185.553 281.513) rotate(-45)" fill="url(#linear-gradient-9)"/>
      <path id="Path_13" data-name="Path 13" d="M2.219.138A82.571,82.571,0,0,1,13.232,2.878c2.237.706,4.619,1.571,7.106,2.564,2.474,1.024,5.073,2.147,7.669,3.477,2.621,1.3,5.254,2.774,7.873,4.369,2.612,1.611,5.2,3.358,7.7,5.216q1.874,1.4,3.673,2.888c1.226.955,2.364,2.01,3.509,3.035,1.164,1,2.235,2.094,3.3,3.156,1.084,1.045,2.077,2.165,3.066,3.245a79.944,79.944,0,0,1,5.308,6.6c.806,1.076,1.511,2.2,2.208,3.258s1.33,2.118,1.9,3.157c1.2,2.032,2.113,4.028,2.934,5.769.765,1.782,1.367,3.368,1.844,4.676.434,1.337-.63,2.088-1.45,1.055l-3.12-3.583c-1.254-1.337-2.586-2.9-4.167-4.487-.769-.813-1.557-1.668-2.435-2.5s-1.7-1.76-2.656-2.612c-1.837-1.778-3.826-3.592-5.909-5.44-1.077-.887-2.091-1.873-3.212-2.769s-2.2-1.861-3.351-2.767c-1.135-.924-2.293-1.834-3.463-2.743-1.155-.925-2.346-1.818-3.547-2.7-2.357-1.815-4.81-3.507-7.194-5.216l-3.6-2.468L23.69,15.7c-4.668-3.085-9.1-5.878-12.931-8.244l-9.141-5.6C-.747.41-.5-.325,2.219.138Z" transform="translate(133.534 332.931) rotate(-45)" fill="url(#linear-gradient-9)"/>
      <path id="Path_14" data-name="Path 14" d="M2.083.333a80.845,80.845,0,0,1,9.985,3.976c2.015.944,4.148,2.055,6.37,3.3,2.207,1.269,4.518,2.646,6.811,4.211,2.318,1.539,4.631,3.246,6.92,5.06s4.525,3.775,6.686,5.816q1.616,1.535,3.155,3.143C43.063,26.877,44.026,28,45,29.093c.993,1.075,1.89,2.224,2.79,3.342s1.738,2.267,2.562,3.394a79.371,79.371,0,0,1,4.352,6.78c.655,1.1,1.212,2.224,1.767,3.294s1.051,2.128,1.494,3.162c.934,2.031,1.613,3.993,2.224,5.708.556,1.745.979,3.288,1.309,4.559.288,1.292-.762,1.847-1.434.787L57.479,56.4c-1.048-1.4-2.148-3.014-3.478-4.686-.643-.85-1.3-1.743-2.043-2.621s-1.422-1.846-2.237-2.757c-1.55-1.88-3.238-3.815-5.009-5.792-.922-.959-1.777-2-2.739-2.975s-1.88-2-2.868-2.991c-.972-1-1.968-1.992-2.975-2.983s-2.018-1.984-3.056-2.951c-2.029-1.982-4.158-3.864-6.221-5.753L23.73,20.148,20.648,17.5c-4.063-3.457-7.931-6.614-11.281-9.3l-8-6.365C-.7.192-.4-.452,2.083.333Z" transform="translate(173.838 369.633) rotate(-45)" fill="url(#linear-gradient-9)"/>
    </g>
    <g id="Group_123" data-name="Group 123" transform="translate(1676.413 1449.546)">
      <g id="Group_122" data-name="Group 122" clip-path="url(#clip-path)">
        <g id="Group_121" data-name="Group 121">
          <g id="Group_120" data-name="Group 120" clip-path="url(#clip-path)">
            <path id="Path_176" data-name="Path 176" d="M263.162,136.433c0,18.337,12.319,33.2,27.514,33.2s27.509-14.866,27.509-33.2a36.087,36.087,0,0,0-3.083-15.289A6.763,6.763,0,0,0,309.475,117a22.645,22.645,0,0,1,.316,3.79c0,8.542-4.661,15.464-10.413,15.464a7.225,7.225,0,0,1-2.414-.418c.007-.153.008-.305,0-.46a5.749,5.749,0,0,0-5.654-5.652c-.141,0-.284.008-.425.021a20.867,20.867,0,0,1-1.925-8.956c0-.055,0-.108,0-.16a58.734,58.734,0,0,1-15.508,1.607,15.236,15.236,0,0,0-5.362.209c-5,1.553-4.936,9.974-4.936,13.985" transform="translate(-186.698 -83.006)" fill="#fff"/>
            <path id="Path_177" data-name="Path 177" d="M47.97,178.74c17.641,0,31.942-17.181,31.942-38.378,0-4.634.079-14.366-5.73-16.163a9.879,9.879,0,0,0-2.749-.391,22.672,22.672,0,0,1,.24,3.3c0,8.542-4.662,15.466-10.413,15.466a7.382,7.382,0,0,1-3.293-.79,4.312,4.312,0,0,0,.259-1.67,6.294,6.294,0,0,0-1.657-4c-.379-.3-.761-.59-1.142-.885a5.624,5.624,0,0,0-2.852-.77c-.152.019-.306.039-.456.06a21.512,21.512,0,0,1-1.274-7.416,22.2,22.2,0,0,1,.5-4.722c-6.457-1.308-12.883-3.093-19.372-4.187-5.562-.936-9.962-.52-12.366,4.49a41.619,41.619,0,0,0-3.576,17.672c0,21.2,14.3,38.378,31.939,38.378" transform="translate(-11.373 -83.573)" fill="#fff"/>
            <path id="Path_178" data-name="Path 178" d="M293.093,204.083c-14.071,0-25.58-13.222-26.467-29.932-.059,1.265-.056,2.434-.056,3.361,0,17.678,11.874,32.009,26.524,32.009s26.521-14.331,26.521-32.009c0-.922-.031-1.858-.09-2.8-1.111,16.444-12.52,29.373-26.431,29.373" transform="translate(-189.115 -123.55)" fill="#d1d1d1"/>
            <path id="Path_179" data-name="Path 179" d="M50.5,220.694c-16.32,0-29.685-15.2-30.825-34.466-.051.938-.077,1.869-.077,2.788,0,20.51,13.834,37.135,30.9,37.135s30.905-16.626,30.905-37.135c0-.958,0-2.142-.046-3.431-.873,19.567-14.355,35.108-30.859,35.108" transform="translate(-13.904 -131.662)" fill="#d1d1d1"/>
            <path id="Path_180" data-name="Path 180" d="M422.866,121.347a22.913,22.913,0,0,1,6.017,1.4c-.217-.544-.448-1.083-.7-1.6A6.764,6.764,0,0,0,422.557,117a22.65,22.65,0,0,1,.316,3.79c0,.186,0,.371-.007.556" transform="translate(-299.78 -83.005)" fill="#d1d1d1"/>
            <path id="Path_181" data-name="Path 181" d="M268.25,134.88a18.7,18.7,0,0,1,6.5-.938A95.982,95.982,0,0,0,291,132.769c.357-.066.715-.133,1.072-.2a23.146,23.146,0,0,1-.186-2.913c0-.055,0-.108,0-.16a58.746,58.746,0,0,1-15.508,1.607,15.236,15.236,0,0,0-5.362.209,6.094,6.094,0,0,0-3.74,4c.309-.156.632-.3.972-.432" transform="translate(-189.618 -91.869)" fill="#d1d1d1"/>
            <path id="Path_182" data-name="Path 182" d="M29.553,123.437c5.068-.881,10.031-.03,15.077.554,4.312.5,8.635.932,12.932,1.557a21.907,21.907,0,0,1,.444-3.161c-6.458-1.308-12.883-3.093-19.372-4.187-5.562-.936-9.962-.52-12.366,4.49-.306.638-.587,1.292-.849,1.958a18.866,18.866,0,0,1,4.135-1.211" transform="translate(-18.033 -83.573)" fill="#d1d1d1"/>
            <path id="Path_183" data-name="Path 183" d="M213.539,142.876a6.743,6.743,0,0,0-4.086-4.009,9.877,9.877,0,0,0-2.749-.391,22.521,22.521,0,0,1,.233,2.87,19.753,19.753,0,0,1,6.6,1.529" transform="translate(-146.645 -98.241)" fill="#d1d1d1"/>
            <path id="Path_184" data-name="Path 184" d="M49.673,31.366c5.594,1.709,25.335,17.873,32.8,15.7S89,34.631,89,34.631,52.314,23.438,46.562,26.081,34.751,36.651,34.751,36.651s9.326-6.994,14.922-5.284" transform="translate(-24.654 -18.217)" fill="#222"/>
            <path id="Path_185" data-name="Path 185" d="M262.839,21.387c6.92,2.176,25.233-13.99,30.423-15.7s13.843,5.287,13.843,5.287S301.483,3.046,296.146.4s-39.365,8.55-39.365,8.55-.867,10.259,6.058,12.435" transform="translate(-182.147 0.001)" fill="#222"/>
            <path id="Path_186" data-name="Path 186" d="M137.128,145.72l.455-.06a5.628,5.628,0,0,1,2.852.77c.381.3.763.589,1.142.885a6.3,6.3,0,0,1,1.657,4,4.312,4.312,0,0,1-.259,1.67,7.382,7.382,0,0,0,3.293.79c5.751,0,10.413-6.924,10.413-15.466a22.674,22.674,0,0,0-.24-3.3c-1.152-.021-2.325.087-3.479.148a65.353,65.353,0,0,1-16.608-1.57,22.2,22.2,0,0,0-.5,4.722,21.512,21.512,0,0,0,1.274,7.416" transform="translate(-96.381 -94.769)" fill="#222"/>
            <path id="Path_187" data-name="Path 187" d="M35.975,150.662c18.929,0,34.274-18.437,34.274-41.179,0-4.3.061-12.695-3.953-16.129a5.1,5.1,0,0,0,.922-.124,6.217,6.217,0,0,0,4.119-2.937,6.022,6.022,0,0,0,.44-1.041A12.049,12.049,0,0,0,77.2,91.246c-4.376,2.551-4.313,10.818-4.313,14.91,0,20.2,13.569,36.581,30.309,36.581s30.308-16.38,30.308-36.581a39.807,39.807,0,0,0-3.395-16.846,7.412,7.412,0,0,0-5.627-4.471c2.786-.224,5.834.064,7.777,2.054a.46.46,0,0,0,.714-.578c-2.383-3.168-6.266-3.737-9.957-3.061-4.332.792-8.531,2.257-12.763,3.447-3.586.824-7.165,1.707-10.753,2.421-.2.029-.4.059-.6.083a75.987,75.987,0,0,1-8.509.635c-3.568.047-9.466.488-12.441-1.886-3.265-2.605-2.571-7.578-.209-10.5.147-.182-.141-.461-.3-.288a17.691,17.691,0,0,0-2.52,3.32c-.829-1.964-2.358-3.6-3.561-5.326-.135-.195-.407.035-.283.231a11.561,11.561,0,0,1,2.139,6.779,5.8,5.8,0,0,1-1.228,3.762,12.848,12.848,0,0,0-2.615-5.717.168.168,0,0,0-.285.171,9.792,9.792,0,0,1,1.052,4.338,9.016,9.016,0,0,1-.839,4.179c-1.554,2.736-8.108,2.63-10.832,2.9a54.368,54.368,0,0,1-13.3-.52c-8.895-1.32-17.491-4.091-26.352-5.582-2.859-.48-7-1.489-9.743-.307-3.486,1.5-6.078,5.295-7.758,8.538A16.833,16.833,0,0,0,0,97.945c-.042.177.252.245.309.073a14.8,14.8,0,0,1,4.5-6.358c.107-.088.217-.175.327-.263A45.474,45.474,0,0,0,1.7,109.483c0,22.743,15.343,41.179,34.272,41.179M81.4,92.713a15.235,15.235,0,0,1,5.362-.209A58.735,58.735,0,0,0,102.269,90.9c0,.053,0,.106,0,.16a20.867,20.867,0,0,0,1.925,8.956c.141-.013.284-.021.424-.021a5.749,5.749,0,0,1,5.654,5.652c.006.154,0,.307,0,.46a7.227,7.227,0,0,0,2.415.418c5.752,0,10.413-6.922,10.413-15.464a22.645,22.645,0,0,0-.316-3.79,6.763,6.763,0,0,1,5.627,4.142,36.088,36.088,0,0,1,3.083,15.289c0,18.337-12.317,33.2-27.509,33.2s-27.514-14.866-27.514-33.2c0-4.011-.066-12.431,4.936-13.985M8.234,92.387c2.4-5.01,6.8-5.426,12.366-4.49,6.489,1.094,12.915,2.879,19.372,4.187.085-.4.178-.8.288-1.183a81.027,81.027,0,0,0,11.7,1.219c2.606.062,5.21-.034,7.809-.221.116.523.216,1.06.295,1.606a9.878,9.878,0,0,1,2.749.391c5.809,1.8,5.73,11.529,5.73,16.163,0,21.2-14.3,38.378-31.942,38.378S4.657,131.256,4.657,110.059A41.625,41.625,0,0,1,8.234,92.387" transform="translate(0 -53.27)" fill="#222"/>
            <path id="Path_188" data-name="Path 188" d="M154.181,132.266c1.154-.062,2.327-.169,3.479-.149-.079-.547-.179-1.083-.295-1.606-2.6.187-5.2.283-7.808.221a80.987,80.987,0,0,1-11.7-1.219c-.11.386-.2.781-.287,1.183a65.367,65.367,0,0,0,16.608,1.57" transform="translate(-97.6 -91.882)" fill="#222"/>
            <path id="Path_189" data-name="Path 189" d="M254,358.52c1.692-1.169,2.967-2.173,2.589-4.456a6.4,6.4,0,0,0-.67-1.98,4.968,4.968,0,0,0-1.616-1.817,3.83,3.83,0,0,0-4.28-.031,4.373,4.373,0,0,1,2.892,1.576,2.886,2.886,0,0,1,.258,3.17c-1.921,3.091-7.025,2.8-9.756,5.134-2.7,2.311-4.855,6.428-1.963,9.476,2.005,2.114,5.977,1.911,8.612,1.625,1.544-.168,3.2-.73,4.568,0a3.258,3.258,0,0,1,1.271,3.993c-1.942,4.893-10.683,2.57-14.262,1.252a3.193,3.193,0,0,0-2.52-.241,2.8,2.8,0,0,0-.766.67,26.335,26.335,0,0,0-3.081,4.273,13.393,13.393,0,0,1,10.088-1.973c1.289.267,2.533.728,3.829.957,3.277.576,7.094-.59,8.955-3.478a5.027,5.027,0,0,0,.458-4.845c-1.011-2.039-4-3.6-6.047-4.206a10.9,10.9,0,0,0,.9-7.38,1.733,1.733,0,0,1,0-1.2,1.593,1.593,0,0,1,.54-.516" transform="translate(-166.913 -248.019)" fill="#222"/>
            <path id="Path_190" data-name="Path 190" d="M331.555,304.488c7.137-1.67,15.056-2.837,20.929-7.5A15.53,15.53,0,0,0,354,295.677a8.1,8.1,0,0,0,1.655-8.524c-.86,3.59-3.119,6.124-6,8.272a32.173,32.173,0,0,1-8.185,4.243c-5.724,2.12-11.73,3.4-17.36,5.795a31.416,31.416,0,0,0-8.162,4.81c-2.716,2.318-3.758,5.015-4.964,8.3.244-.665,2-1.531,2.589-1.908,3.361-2.142,7.545-2.86,11.437-3.3,4.149-.473,8.5-.326,12.7-.558,3.148-.173,6.237-.431,9.36-.889,3.038-.443,6.5-1.1,9.041-2.925a.219.219,0,0,0-.226-.37c-4.565,2.322-9.244,2.5-14.212,2.817-6.263.4-12.584-.2-18.84.248a19.211,19.211,0,0,0-7.877,2.115c4.049-5.4,10.18-7.856,16.594-9.314" transform="translate(-220.625 -203.718)" fill="#222"/>
            <path id="Path_191" data-name="Path 191" d="M488.21,256.227c-.255-.948-.51-1.9-.674-2.863q-5.864-.776-11.722-1.634c.484,1.647,3.447,11.836,4.054,13.3-.224-.542-2.117-.267-2.519-.16a4.95,4.95,0,0,0-2.94,2.291,2.9,2.9,0,0,0-.436,1.994c.589,3.121,7.721.734,7.462-2.653a5.991,5.991,0,0,0-.243-1.148c-.823-2.936-1.646-5.878-2.719-8.732,1.032-.169,8.99,1.053,9.033,1.094.06.054,2.169,7.244,2.775,8.712-.225-.542-2.117-.269-2.519-.16a5.867,5.867,0,0,0-3.816,3.066c-1.292,2.961,3.362,2.861,4.967,2.238a3.5,3.5,0,0,0,2.463-3.492c.085-2.61-1.253-5.08-1.969-7.491-.431-1.448-.805-2.909-1.2-4.366" transform="translate(-336.23 -178.588)" fill="#222"/>
            <g id="Group_116" data-name="Group 116" transform="translate(37.456 49.052)" opacity="0.43">
              <g id="Group_115" data-name="Group 115">
                <g id="Group_114" data-name="Group 114" clip-path="url(#clip-path-3)">
                  <path id="Path_192" data-name="Path 192" d="M140.794,173.921a5.963,5.963,0,0,0-1.269-2.865c-.388-.367-.78-.735-1.169-1.1a5.97,5.97,0,0,0-2.861-1.084,5.792,5.792,0,0,0-5.867,3.155,4.451,4.451,0,0,0-.719,2.176c.011.513.023,1.022.035,1.534a5.949,5.949,0,0,0,1.268,2.864c.389.369.779.735,1.166,1.1a5.985,5.985,0,0,0,2.864,1.085,5.8,5.8,0,0,0,5.867-3.158,4.488,4.488,0,0,0,.719-2.176c-.011-.511-.022-1.022-.034-1.533" transform="translate(-128.909 -168.819)" fill="#fff"/>
                </g>
              </g>
            </g>
            <g id="Group_119" data-name="Group 119" transform="translate(100.466 44.158)" opacity="0.43">
              <g id="Group_118" data-name="Group 118">
                <g id="Group_117" data-name="Group 117" clip-path="url(#clip-path-4)">
                  <path id="Path_193" data-name="Path 193" d="M357.6,157.058a5.912,5.912,0,0,0-1.264-2.854q-.582-.548-1.164-1.1a5.966,5.966,0,0,0-2.85-1.08,6.133,6.133,0,0,0-6.559,5.313q.017.763.034,1.525a5.928,5.928,0,0,0,1.263,2.856q.582.548,1.163,1.1a5.989,5.989,0,0,0,2.85,1.081,6.142,6.142,0,0,0,6.56-5.315q-.019-.763-.035-1.525" transform="translate(-345.769 -151.976)" fill="#fff"/>
                </g>
              </g>
            </g>
          </g>
        </g>
      </g>
    </g>
  </g>
</svg>
