<svg xmlns="http://www.w3.org/2000/svg" xmlns:xlink="http://www.w3.org/1999/xlink" width="419.119" height="502.194" viewBox="0 0 419.119 502.194">
  <defs>
    <linearGradient id="linear-gradient" x1="0.5" y1="0.133" x2="0.89" y2="0.5" gradientUnits="objectBoundingBox">
      <stop offset="0" stop-color="#c4d143"/>
      <stop offset="1" stop-color="#7c8a1a"/>
    </linearGradient>
    <linearGradient id="linear-gradient-2" x1="1.148" y1="0.346" x2="0.5" y2="0.135" gradientUnits="objectBoundingBox">
      <stop offset="0" stop-color="#7c8a1a" stop-opacity="0"/>
      <stop offset="0.315" stop-color="#768319" stop-opacity="0.314"/>
      <stop offset="0.781" stop-color="#646f15" stop-opacity="0.78"/>
      <stop offset="1" stop-color="#5a6313"/>
    </linearGradient>
    <linearGradient id="linear-gradient-3" x1="0.423" y1="0.116" x2="0.658" y2="0.705" xlink:href="#linear-gradient"/>
    <linearGradient id="linear-gradient-4" x1="1" y1="1" x2="0.395" y2="0.356" xlink:href="#linear-gradient-2"/>
    <linearGradient id="linear-gradient-5" x1="0.246" y1="0.5" x2="0.5" y2="0.748" xlink:href="#linear-gradient"/>
    <linearGradient id="linear-gradient-6" x1="0.886" y1="0.362" x2="0.613" y2="0.084" xlink:href="#linear-gradient-2"/>
    <linearGradient id="linear-gradient-7" x1="0.586" y1="0.529" x2="0.427" y2="0.699" gradientUnits="objectBoundingBox">
      <stop offset="0" stop-color="#5a6313" stop-opacity="0"/>
      <stop offset="1" stop-color="#544f43"/>
    </linearGradient>
    <linearGradient id="linear-gradient-8" x1="0.337" y1="0.293" x2="0.642" y2="0.731" gradientUnits="objectBoundingBox">
      <stop offset="0" stop-color="#dd3b32"/>
      <stop offset="0.279" stop-color="#ff4f46"/>
      <stop offset="0.775" stop-color="#ff5b52"/>
      <stop offset="1" stop-color="#dd3b32"/>
    </linearGradient>
    <linearGradient id="linear-gradient-9" x1="-0.051" x2="1" y2="1" gradientUnits="objectBoundingBox">
      <stop offset="0" stop-color="#d30e03" stop-opacity="0"/>
      <stop offset="0.513" stop-color="#d5362e"/>
      <stop offset="1" stop-color="#c9251c"/>
    </linearGradient>
    <clipPath id="clip-path">
      <rect id="Rectangle_63" data-name="Rectangle 63" width="9.059" height="9.133" fill="none"/>
    </clipPath>
    <clipPath id="clip-path-2">
      <rect id="Rectangle_64" data-name="Rectangle 64" width="8.6" height="8.669" fill="none"/>
    </clipPath>
  </defs>
  <g id="Group_249" data-name="Group 249" transform="translate(-1780.881 -1891.282)">
    <g id="Group_159" data-name="Group 159" transform="translate(1788.274 1932.61)">
      <g id="Group_3" data-name="Group 3" transform="translate(92.802 18.709) rotate(-45)">
        <g id="Group_1" data-name="Group 1" transform="translate(0 0)">
          <path id="Path_1" data-name="Path 1" d="M24.367,41.36C11.892,68.752-2.74,120.169.441,145.641a2.885,2.885,0,0,0,4.71,2.132C26.48,133.4,55.75,88.6,68.225,61.212s6.148-32.978,2.967-58.451A2.885,2.885,0,0,0,66.482.629C45.153,15.008,36.842,13.967,24.367,41.36Z" fill="url(#linear-gradient)"/>
          <path id="Path_2" data-name="Path 2" d="M3.02,147.538C24.35,133.16,53.62,88.369,66.094,60.977S72.242,28,69.061,2.526A3.06,3.06,0,0,0,67.371,0L0,147.931a3.075,3.075,0,0,0,3.02-.393Z" transform="translate(2.131 0.235)" fill="url(#linear-gradient-2)"/>
        </g>
        <g id="Group_2" data-name="Group 2" transform="translate(6.22 79.045)">
          <path id="Path_3" data-name="Path 3" d="M87.1,7.471C59.709,19.959,14.933,49.165.622,70.475a2.885,2.885,0,0,0,2.156,4.7c25.53,3.143,77.007-11.458,104.393-23.946s26.276-20.855,40.588-42.166a2.885,2.885,0,0,0-2.156-4.7C120.071,1.222,114.482-5.017,87.1,7.471Z" fill="url(#linear-gradient-3)"/>
          <path id="Path_4" data-name="Path 4" d="M2.537,69.126C28.067,72.269,79.544,57.668,106.93,45.18s26.276-20.855,40.587-42.166A3.059,3.059,0,0,0,147.9,0L0,67.442A3.078,3.078,0,0,0,2.537,69.126Z" transform="translate(0.24 6.048)" fill="url(#linear-gradient-4)"/>
        </g>
      </g>
      <g id="Group_4" data-name="Group 4" transform="translate(119.755 40.968) rotate(-45)">
        <path id="Path_5" data-name="Path 5" d="M58.923,23.583C37.673,44.9,6.017,87.978.108,112.958a2.885,2.885,0,0,0,3.67,3.641C28.784,110.57,71.846,78.81,93.1,57.494s17.271-28.759,23.18-53.74a2.885,2.885,0,0,0-3.67-3.641C87.6,6.143,80.174,2.267,58.923,23.583Z" fill="url(#linear-gradient-5)"/>
        <path id="Path_6" data-name="Path 6" d="M2.968,115.8C27.973,109.772,71.035,78.012,92.286,56.7s17.271-28.759,23.18-53.74a3.062,3.062,0,0,0-.7-2.956L0,115.117A3.078,3.078,0,0,0,2.968,115.8Z" transform="translate(0.81 0.798)" fill="url(#linear-gradient-6)"/>
      </g>
      <path id="Path_7" data-name="Path 7" d="M11.012,0C3.68,24.476-1.6,51.438.441,67.756a2.862,2.862,0,0,0,2.907,2.753,2.762,2.762,0,0,0,2.875,3.114A2.893,2.893,0,0,0,9,76.333c16.34,2.012,43.3-3.248,67.781-10.568Z" transform="translate(147.876 73.781) rotate(-45)" fill="url(#linear-gradient-7)"/>
      <path id="Path_15" data-name="Path 15" d="M250.2,169.419C179.528,240.089,41.957,322.477,7.921,288.441S56.272,116.834,126.943,46.164s102.863-47.679,136.9-13.643,57.028,66.227-13.643,136.9Z" transform="translate(-7.393 251.307) rotate(-45)" fill="url(#linear-gradient-8)"/>
      <path id="Path_9" data-name="Path 9" d="M2.839.5A89.857,89.857,0,0,1,15.266,6.188c2.466,1.34,5.045,2.91,7.7,4.659,2.63,1.786,5.373,3.722,8.028,5.912a104.555,104.555,0,0,1,7.917,7.063c2.56,2.544,5.03,5.249,7.355,8.076q1.737,2.125,3.343,4.346c1.119,1.44,2.088,2.985,3.078,4.492,1.023,1.484,1.893,3.06,2.774,4.6.906,1.519,1.668,3.111,2.441,4.655a81.851,81.851,0,0,1,3.814,9.262c.548,1.5.952,3.026,1.371,4.48s.759,2.888,1.037,4.288a74.9,74.9,0,0,1,1.216,7.709c.2,2.348.282,4.421.324,6.126-.023,1.73-1.652,2.414-2.234.973l-2.36-5.064c-.992-1.909-1.986-4.112-3.277-6.4-.612-1.162-1.228-2.382-1.969-3.586C55.1,66.561,54.463,65.249,53.634,64,52.1,61.419,50.4,58.761,48.6,56.044c-.962-1.321-1.8-2.75-2.816-4.093s-1.945-2.76-2.989-4.121c-1.017-1.379-2.071-2.746-3.137-4.114-1.042-1.386-2.142-2.738-3.261-4.074-2.158-2.735-4.483-5.341-6.716-7.953l-3.416-3.8L22.871,24.22c-4.48-4.789-8.786-9.168-12.529-12.892L1.4,2.5C-.913.219-.307-.636,2.839.5Z" transform="translate(185.553 198.524) rotate(-45)" fill="url(#linear-gradient-9)"/>
      <path id="Path_10" data-name="Path 10" d="M2.561.08A86.918,86.918,0,0,1,15.109,2.565c2.544.682,5.246,1.543,8.067,2.548,2.8,1.043,5.746,2.2,8.678,3.593,2.962,1.357,5.929,2.928,8.874,4.639,2.936,1.731,5.834,3.624,8.635,5.656q2.1,1.53,4.1,3.172c1.369,1.048,2.63,2.221,3.9,3.356,1.295,1.107,2.478,2.329,3.66,3.514,1.2,1.163,2.291,2.422,3.379,3.634a81.206,81.206,0,0,1,5.8,7.45c.876,1.218,1.633,2.5,2.384,3.7s1.427,2.414,2.038,3.6a72.263,72.263,0,0,1,3.089,6.616c.79,2.052,1.4,3.882,1.885,5.393.431,1.548-.839,2.5-1.732,1.337l-3.417-4.021c-1.379-1.494-2.836-3.25-4.58-5.02-.846-.908-1.711-1.866-2.684-2.784s-1.87-1.966-2.933-2.909c-2.03-1.977-4.236-3.989-6.546-6.033-1.2-.976-2.319-2.073-3.568-3.058S51.69,34.9,50.409,33.908c-1.263-1.015-2.555-2.014-3.86-3.01-1.287-1.017-2.616-1.991-3.959-2.949-2.63-1.987-5.376-3.823-8.041-5.683L30.52,19.592l-3.97-2.559c-5.23-3.332-10.2-6.335-14.5-8.873l-10.257-6C-.86.607-.539-.28,2.561.08Z" transform="translate(118.801 247.532) rotate(-45)" fill="url(#linear-gradient-9)"/>
      <path id="Path_11" data-name="Path 11" d="M2.561.08A86.916,86.916,0,0,1,15.109,2.565c2.544.682,5.246,1.543,8.067,2.548,2.8,1.043,5.747,2.2,8.678,3.593,2.962,1.357,5.929,2.928,8.874,4.639,2.937,1.731,5.834,3.624,8.635,5.656q2.1,1.53,4.1,3.172c1.369,1.048,2.631,2.221,3.9,3.356,1.295,1.106,2.478,2.329,3.66,3.513,1.2,1.163,2.291,2.422,3.379,3.634a81.217,81.217,0,0,1,5.8,7.45c.876,1.218,1.633,2.5,2.384,3.7s1.427,2.414,2.037,3.6a72.257,72.257,0,0,1,3.089,6.616c.79,2.052,1.4,3.882,1.885,5.393.431,1.548-.839,2.5-1.732,1.337l-3.417-4.021c-1.379-1.494-2.837-3.25-4.58-5.02-.847-.908-1.711-1.866-2.684-2.784s-1.87-1.966-2.932-2.909c-2.03-1.977-4.236-3.989-6.546-6.033-1.2-.976-2.319-2.073-3.568-3.058S51.69,34.9,50.408,33.907c-1.263-1.015-2.556-2.014-3.86-3.01-1.287-1.017-2.617-1.991-3.96-2.949-2.63-1.987-5.376-3.823-8.041-5.684L30.52,19.59l-3.97-2.559c-5.23-3.332-10.2-6.335-14.5-8.873l-10.257-6C-.86.607-.54-.28,2.561.08Z" transform="translate(119.244 148.173) rotate(-45)" fill="url(#linear-gradient-9)"/>
      <path id="Path_12" data-name="Path 12" d="M2.4.5a84.724,84.724,0,0,1,10.8,5.29c2.154,1.232,4.415,2.663,6.754,4.252,2.317,1.618,4.736,3.369,7.1,5.336,2.4,1.938,4.756,4.069,7.068,6.32,2.3,2.267,4.535,4.669,6.656,7.173q1.585,1.882,3.066,3.842c1.025,1.273,1.931,2.631,2.852,3.959.947,1.308,1.773,2.692,2.6,4.041.852,1.335,1.587,2.73,2.329,4.083a80.527,80.527,0,0,1,3.763,8.1c.551,1.307.983,2.637,1.424,3.905s.814,2.515,1.132,3.732c.7,2.395,1.111,4.689,1.494,6.7.313,2.036.509,3.831.65,5.308.088,1.5-1.236,2.047-1.813.785l-2.291-4.444c-.949-1.678-1.919-3.609-3.142-5.624-.584-1.022-1.176-2.092-1.871-3.153s-1.3-2.221-2.071-3.326c-1.44-2.27-3.031-4.612-4.71-7.008-.887-1.168-1.681-2.425-2.612-3.613s-1.8-2.438-2.759-3.642c-.938-1.219-1.9-2.429-2.884-3.641-.959-1.226-1.964-2.424-2.985-3.61-1.977-2.422-4.087-4.739-6.121-7.057l-3.1-3.381-3.07-3.263c-4.053-4.264-7.937-8.169-11.308-11.494L1.3,2.177C-.783.138-.321-.58,2.4.5Z" transform="translate(185.553 281.513) rotate(-45)" fill="url(#linear-gradient-9)"/>
      <path id="Path_13" data-name="Path 13" d="M2.219.138A82.571,82.571,0,0,1,13.232,2.878c2.237.706,4.619,1.571,7.106,2.564,2.474,1.024,5.073,2.147,7.669,3.477,2.621,1.3,5.254,2.774,7.873,4.369,2.612,1.611,5.2,3.358,7.7,5.216q1.874,1.4,3.673,2.888c1.226.955,2.364,2.01,3.509,3.035,1.164,1,2.235,2.094,3.3,3.156,1.084,1.045,2.077,2.165,3.066,3.245a79.944,79.944,0,0,1,5.308,6.6c.806,1.076,1.511,2.2,2.208,3.258s1.33,2.118,1.9,3.157c1.2,2.032,2.113,4.028,2.934,5.769.765,1.782,1.367,3.368,1.844,4.676.434,1.337-.63,2.088-1.45,1.055l-3.12-3.583c-1.254-1.337-2.586-2.9-4.167-4.487-.769-.813-1.557-1.668-2.435-2.5s-1.7-1.76-2.656-2.612c-1.837-1.778-3.826-3.592-5.909-5.44-1.077-.887-2.091-1.873-3.212-2.769s-2.2-1.861-3.351-2.767c-1.135-.924-2.293-1.834-3.463-2.743-1.155-.925-2.346-1.818-3.547-2.7-2.357-1.815-4.81-3.507-7.194-5.216l-3.6-2.468L23.69,15.7c-4.668-3.085-9.1-5.878-12.931-8.244l-9.141-5.6C-.747.41-.5-.325,2.219.138Z" transform="translate(133.534 332.931) rotate(-45)" fill="url(#linear-gradient-9)"/>
      <path id="Path_14" data-name="Path 14" d="M2.083.333a80.845,80.845,0,0,1,9.985,3.976c2.015.944,4.148,2.055,6.37,3.3,2.207,1.269,4.518,2.646,6.811,4.211,2.318,1.539,4.631,3.246,6.92,5.06s4.525,3.775,6.686,5.816q1.616,1.535,3.155,3.143C43.063,26.877,44.026,28,45,29.093c.993,1.075,1.89,2.224,2.79,3.342s1.738,2.267,2.562,3.394a79.371,79.371,0,0,1,4.352,6.78c.655,1.1,1.212,2.224,1.767,3.294s1.051,2.128,1.494,3.162c.934,2.031,1.613,3.993,2.224,5.708.556,1.745.979,3.288,1.309,4.559.288,1.292-.762,1.847-1.434.787L57.479,56.4c-1.048-1.4-2.148-3.014-3.478-4.686-.643-.85-1.3-1.743-2.043-2.621s-1.422-1.846-2.237-2.757c-1.55-1.88-3.238-3.815-5.009-5.792-.922-.959-1.777-2-2.739-2.975s-1.88-2-2.868-2.991c-.972-1-1.968-1.992-2.975-2.983s-2.018-1.984-3.056-2.951c-2.029-1.982-4.158-3.864-6.221-5.753L23.73,20.148,20.648,17.5c-4.063-3.457-7.931-6.614-11.281-9.3l-8-6.365C-.7.192-.4-.452,2.083.333Z" transform="translate(173.838 369.633) rotate(-45)" fill="url(#linear-gradient-9)"/>
    </g>
    <g id="Group_240" data-name="Group 240" transform="translate(116.904 -889.627)">
      <path id="Path_426" data-name="Path 426" d="M102,264.615c0-20.279-9.483-36.315-25.019-30.667-12.46,4.53-23,10.387-23,30.667,0,12.078,3.149,17.721,8.424,20.943a89.741,89.741,0,0,1,21.129,5.4C95.759,290.8,102,281.608,102,264.615M85.03,272.988a2.272,2.272,0,0,0,.986.227h.153a1.712,1.712,0,0,0,.883-.2,2.078,2.078,0,0,0,1.216-1.214,1.729,1.729,0,0,0,.2-.884c-.029-.2-.057-.408-.081-.61-.025-.077-.052-.152-.08-.225a5.635,5.635,0,1,1-3.274,2.9" transform="translate(1767.742 2771.994)" fill="#fff"/>
      <path id="Path_427" data-name="Path 427" d="M117.091,232.014c-16.234-5.988-26.144,11.007-26.144,32.5,0,18.006,6.518,27.746,19.3,27.916a92.622,92.622,0,0,1,22.081-5.724c5.511-3.415,8.8-9.4,8.8-22.192,0-21.492-11.013-27.7-24.035-32.5m-13.6,50.3a5.625,5.625,0,0,1-4.951-8.293,2.143,2.143,0,0,0,1.516.563,2.289,2.289,0,0,0,2-3.328,5.738,5.738,0,0,1,1.432-.19,5.624,5.624,0,0,1,0,11.249" transform="translate(1787.444 2770.927)" fill="#fff"/>
      <path id="Path_428" data-name="Path 428" d="M80.678,294.883s-2.163,11.68-.927,17.416c.129.023.268.048.414.075a46.4,46.4,0,0,0,7.383.877,4.935,4.935,0,0,0,2.577-.4c.7-1.432.339-10.875-.362-17.531a61.8,61.8,0,0,1-9.084-.434" transform="translate(1781.274 2805.08)" fill="#fff"/>
      <path id="Path_429" data-name="Path 429" d="M99.2,295.465c-.434,4.326-.075,12.656.346,13.942,1.815.333,9.17-.1,9.866-1.018.546-1,.713-16.051.6-20.278A32.519,32.519,0,0,1,99.2,295.465" transform="translate(1791.737 2801.471)" fill="#fff"/>
      <path id="Path_430" data-name="Path 430" d="M89.254,295.768c.018,5.9.323,14.092.812,15.952a20.732,20.732,0,0,0,4.959.544c2.83,0,4.389-.526,4.544-.688,1.8-3.7.5-17.538.5-17.538a43.521,43.521,0,0,1-10.815,1.731" transform="translate(1786.542 2804.629)" fill="#fff"/>
      <path id="Path_431" data-name="Path 431" d="M69.689,310a6.621,6.621,0,0,0,.886.049c3.1,0,9.271-1.137,10.571-1.869V295.5a47.324,47.324,0,0,1-9.95-2.6S69.033,304.154,69.689,310" transform="translate(1776.048 2804.027)" fill="#fff"/>
      <path id="Path_432" data-name="Path 432" d="M89.735,295.166c-.31.014-.8.021-1.4.02.535,6.316.739,13.792.127,15.05a4.93,4.93,0,0,1-2.577.4,40.944,40.944,0,0,1-6.461-.717,16.722,16.722,0,0,0,.3,2.224c.13.025.27.048.415.075a46.4,46.4,0,0,0,7.383.877,4.941,4.941,0,0,0,2.577-.4c.7-1.432.339-10.875-.362-17.531" transform="translate(1781.301 2805.23)" fill="#d1d1d1"/>
      <path id="Path_433" data-name="Path 433" d="M109.932,288.11s-.572.627-1.607,1.55c-.009,6.072-.207,15.489-.636,16.269-.576.763-5.765,1.191-8.535,1.122a13.814,13.814,0,0,0,.311,2.356c1.815.331,9.17-.1,9.866-1.019.546-1,.714-16.05.6-20.278" transform="translate(1791.818 2801.47)" fill="#d1d1d1"/>
      <path id="Path_434" data-name="Path 434" d="M99.893,294.037c-.414.14-.9.274-1.423.409.271,4.259.564,12.038-.717,14.669-.153.163-1.712.69-4.544.69a23.915,23.915,0,0,1-3.625-.271,16.017,16.017,0,0,0,.307,2.188,20.815,20.815,0,0,0,4.959.544c2.83,0,4.389-.527,4.542-.69,1.8-3.694.5-17.538.5-17.538" transform="translate(1786.717 2804.629)" fill="#d1d1d1"/>
      <path id="Path_435" data-name="Path 435" d="M79.506,294.45V304.9c-1.214.685-6.7,1.726-9.941,1.855a22.68,22.68,0,0,0,.124,2.425,6.631,6.631,0,0,0,.886.049c3.1,0,9.273-1.139,10.571-1.87V294.68c-.533-.052-1.084-.13-1.64-.23" transform="translate(1776.048 2804.849)" fill="#d1d1d1"/>
      <path id="Path_436" data-name="Path 436" d="M82.868,276.422a85.338,85.338,0,0,0-20.121-5.141c-4.771-2.917-7.714-7.919-8-18.277-.014.484-.023.972-.023,1.475,0,11.5,3,16.875,8.019,19.945a85.415,85.415,0,0,1,20.121,5.143c11.646-.152,17.584-8.9,17.584-25.088,0-.521-.011-1.036-.02-1.55-.383,15.162-6.307,23.348-17.564,23.494" transform="translate(1768.141 2782.72)" fill="#d1d1d1"/>
      <path id="Path_437" data-name="Path 437" d="M131.3,271.8a88.839,88.839,0,0,0-21.176,5.49c-11.868-.158-18.107-8.92-18.49-25.149-.014.51-.021,1.024-.021,1.536,0,17.273,6.253,26.616,18.512,26.779a88.847,88.847,0,0,1,21.176-5.491c5.287-3.276,8.442-9.011,8.442-21.288,0-.5-.012-.976-.023-1.455-.285,11.1-3.385,16.458-8.419,19.579" transform="translate(1787.8 2782.3)" fill="#d1d1d1"/>
      <path id="Path_438" data-name="Path 438" d="M144.023,265.168c0-22.971-11.773-29.606-25.694-34.74-17.354-6.4-27.947,11.768-27.947,34.74,0,19.249,6.967,29.662,20.63,29.843a4.038,4.038,0,0,0,1.018-.136c-.553.353-1.1.711-1.633,1.095a54.859,54.859,0,0,0-4.226,3.566.076.076,0,0,0,.1.118,40.426,40.426,0,0,1,4.591-2.926c1.511-.877,3.049-1.715,4.614-2.5a47.139,47.139,0,0,1,13.746-4.472,42.892,42.892,0,0,1,6.713-.659c1.539,0,5.181-.018,6.282,1.275a5.47,5.47,0,0,0-2.028-1.87,7.6,7.6,0,0,0-2.836-.868c-.287-.029-.575-.052-.863-.067,4.757-3.838,7.536-10.235,7.536-22.4m-11.4,22.427a92.674,92.674,0,0,0-22.081,5.724c-12.777-.17-19.3-9.912-19.3-27.918,0-21.49,9.909-38.485,26.143-32.5,13.024,4.8,24.035,11.007,24.035,32.5,0,12.8-3.288,18.777-8.8,22.194" transform="translate(1787.143 2770.038)" fill="#222"/>
      <path id="Path_439" data-name="Path 439" d="M103.765,265.54c0-21.74-10.166-38.934-26.822-32.877C63.585,237.522,52.286,243.8,52.286,265.54c0,12.95,3.376,19,9.029,22.452a96.127,96.127,0,0,1,22.651,5.793c13.111-.172,19.8-10.025,19.8-28.245m-48.884-.2c0-20.279,10.539-26.137,23-30.667,15.538-5.649,25.019,10.387,25.019,30.667,0,16.993-6.238,26.184-18.466,26.344a89.723,89.723,0,0,0-21.129-5.4c-5.273-3.222-8.424-8.865-8.424-20.943" transform="translate(1766.84 2771.265)" fill="#222"/>
      <path id="Path_440" data-name="Path 440" d="M160.647,315.2c2.876-2.054,4.777-36.76-4.326-40.663.179-.025,2.163-1.729,6.524,2.6-1.766-4.76-4.5-4.967-6-4.942a9.692,9.692,0,0,0-4.908,1.757,11.062,11.062,0,0,0-1.99,1.542c-.051.051-.1.107-.149.161-7.659,6.7-13.9,28.152-41.061,29.6-14.125.753-27.855-1.994-39.712-9.973a12.735,12.735,0,0,0-4.419-2.31,8.814,8.814,0,0,0-5.292.074,6.293,6.293,0,0,0-3.348,2.974c-.08.15.123.308.224.158a5.3,5.3,0,0,1,3.842-2.056,9.534,9.534,0,0,1,2.919.118c-7.245,2.5-10.743,16.15-10.882,17.072-1.68,11.214,8.45,6.984,25.672,2.5-.345,2.959-.6,6.319-.149,7.449.866,2.161,14.709-1.3,14.709-1.731v-8.958c.346-.06.7-.121,1.047-.179-.583,4.113-1.826,14.413.25,14.759,2.6.434,10.815,2.164,12.546,0,1.4-1.752.529-12.319.149-16.255.385-.025.77-.043,1.156-.06.038,3.858.235,14.313,1.291,15.018,1.3.866,10.815,1.731,11.678,0,.973-1.944,1.384-11.017,1.334-14.765.365.029.727.06,1.088.093.176,3.425.192,9.311,1.041,9.481,2.163.432,10.815.432,12.112-1.731.564-.94.8-3.354.889-5.779,12.748,2.367,21.86,5.411,23.768,4.048m-70.079,4.027c-1.3.731-7.473,1.87-10.571,1.87a6.913,6.913,0,0,1-.886-.049c-.655-5.848,1.507-17.1,1.507-17.1a47.224,47.224,0,0,0,9.95,2.6Zm14.2,5.719a4.941,4.941,0,0,1-2.577.4,46.378,46.378,0,0,1-7.383-.877l-.415-.075c-1.236-5.736.929-17.416.929-17.416a61.793,61.793,0,0,0,9.084.434c.7,6.656,1.058,16.1.362,17.531m14.712-1.723c-.153.163-1.712.688-4.544.688a20.8,20.8,0,0,1-4.958-.544c-.491-1.859-.8-10.056-.814-15.952a43.535,43.535,0,0,0,10.816-1.732s1.3,13.844-.5,17.54m15.038-6.346c-.7.92-8.051,1.35-9.866,1.019-.42-1.288-.779-9.618-.346-13.944a32.494,32.494,0,0,0,10.813-7.354c.113,4.228-.055,19.28-.6,20.278" transform="translate(1766.626 2792.984)" fill="#222"/>
      <path id="Path_441" data-name="Path 441" d="M124.083,267.024c-.084-.023-.136.1-.049.13,4.539,1.611,6.44,7.711,6.934,12a74.274,74.274,0,0,1,.294,13.386c.708-2.937,3.489-10.171,1.639-16.614-1.6-5.563-7.122-8.488-8.817-8.9" transform="translate(1805.053 2790.231)" fill="#222"/>
      <path id="Path_442" data-name="Path 442" d="M50.011,290.095a25.658,25.658,0,0,1,5.494-6.871,14.844,14.844,0,0,1,3.432-2.146,12.6,12.6,0,0,1,4-1.168.172.172,0,0,0,.037-.33c-2.972-.984-6,.227-8.138,2.391-2.218,2.247-3.552,5.264-4.981,8.037-.048.09.107.173.159.086" transform="translate(1765.537 2796.74)" fill="#222"/>
      <path id="Path_443" data-name="Path 443" d="M79.5,268.175a5.624,5.624,0,1,0-1.8-10.95c.028.074.055.149.078.224.026.2.054.409.083.612a1.752,1.752,0,0,1-.2.885,2.081,2.081,0,0,1-1.216,1.213,1.714,1.714,0,0,1-.885.2h-.153a2.243,2.243,0,0,1-.984-.227,5.616,5.616,0,0,0,5.069,8.046" transform="translate(1778.345 2784.852)" fill="#222"/>
      <path id="Path_444" data-name="Path 444" d="M101.086,257.069a5.738,5.738,0,0,0-1.432.19,2.289,2.289,0,0,1-2,3.328,2.143,2.143,0,0,1-1.516-.563,5.624,5.624,0,1,0,4.951-2.956" transform="translate(1789.85 2784.927)" fill="#222"/>
      <path id="Path_445" data-name="Path 445" d="M129.738,298.939c-.138.661-.153,1.34-.293,2a9.573,9.573,0,0,1-.771,2.091,6.577,6.577,0,0,1-1.817,2.462c-.987.724-2.421.333-3.555.305-.707-.015-1.43-.117-2.135-.094a11.668,11.668,0,0,1-2.266-.109c-.064-.011-.074.089-.012.1A10.635,10.635,0,0,1,120.3,306c.4.123.757.307,1.16.415.794.222,1.58.48,2.378.691,1.446.379,2.864.625,4.136-.354a5.155,5.155,0,0,0,1.746-3.17,17.837,17.837,0,0,0,.3-2.384,8.356,8.356,0,0,0,.029-2.272.158.158,0,0,0-.311.008" transform="translate(1802.313 2807.168)" fill="#222"/>
      <path id="Path_446" data-name="Path 446" d="M97.365,232.892a19.682,19.682,0,0,1,2.985-2.762c.51-.4,1.075-.754,1.6-1.134a15.907,15.907,0,0,1,1.625-1.035,7.55,7.55,0,0,1,3.541-.9,11.164,11.164,0,0,1,1.919.12,8.373,8.373,0,0,0,1.869.207.272.272,0,0,0,.117-.484,6.35,6.35,0,0,0-1.927-.8,19.347,19.347,0,0,0-2.014-.529,6.137,6.137,0,0,0-4.17.624,10.065,10.065,0,0,0-3.026,2.957c-.422.575-.894,1.116-1.314,1.7-.461.639-.906,1.285-1.381,1.913-.081.11.086.227.175.124" transform="translate(1790.76 2768.08)" fill="#222"/>
      <path id="Path_447" data-name="Path 447" d="M80.984,228.576a8.28,8.28,0,0,0-5.428-.178,13.914,13.914,0,0,0-2.776,1.257c-.93.523-1.9.984-2.83,1.5-1.958,1.087-3.888,2.211-5.859,3.27-.092.048-.029.2.064.149,1.84-.921,3.713-1.72,5.62-2.491a32.645,32.645,0,0,1,5.562-1.959,12.3,12.3,0,0,1,2.5-.331,11.831,11.831,0,0,1,2.444.327,10.214,10.214,0,0,1,4.22,2.03c.241.189.472-.139.337-.359a8.4,8.4,0,0,0-3.854-3.216" transform="translate(1773.107 2769.449)" fill="#222"/>
      <path id="Path_448" data-name="Path 448" d="M93.111,217.54s-18.6-2.6-23.359,0-11.681,24.225-11.681,24.225,16.438-12.546,21.63-12.546,11.247-.432,13.41-11.679" transform="translate(1769.923 2763.246)" fill="#222"/>
      <path id="Path_449" data-name="Path 449" d="M115.115,208.49c-6.057-3.894-21.628,9.949-21.628,9.949s1.3,5.192,3.892,6.489,17.3,0,21.628,3.029,9.518,11.246,9.518,11.246-7.354-26.819-13.41-30.713" transform="translate(1788.797 2758.669)" fill="#222"/>
      <path id="Path_450" data-name="Path 450" d="M106.568,205.208c-2.552.846-4.3,2.972-6.224,4.721a.1.1,0,0,0,.121.147,22.515,22.515,0,0,1,6.262-3.2,9.873,9.873,0,0,1,6.356-.2c.161.052.356-.156.212-.294a6.733,6.733,0,0,0-6.727-1.17" transform="translate(1792.435 2757.074)" fill="#222"/>
      <path id="Path_451" data-name="Path 451" d="M53.213,308.718a3.135,3.135,0,0,1-1.187-.29,3.72,3.72,0,0,1-.885-.756,7.222,7.222,0,0,1-1.4-2.137,9.847,9.847,0,0,1-1.021-2.494,6.069,6.069,0,0,1,.2-2.956c.075-.2-.215-.3-.3-.115a6.157,6.157,0,0,0-.579,3.1,11.562,11.562,0,0,0,.414,3.359,4.508,4.508,0,0,0,2.045,2.589,3.165,3.165,0,0,0,2.768.06.188.188,0,0,0-.055-.357" transform="translate(1764.568 2807.74)" fill="#222"/>
      <g id="Group_219" data-name="Group 219" transform="translate(1849.161 3038.685)" opacity="0.43">
        <g id="Group_218" data-name="Group 218">
          <g id="Group_217" data-name="Group 217" clip-path="url(#clip-path)">
            <path id="Path_452" data-name="Path 452" d="M80.911,258.787a4.536,4.536,0,0,0-.963-2.178c-.3-.279-.593-.56-.889-.837a4.562,4.562,0,0,0-2.174-.826,5.074,5.074,0,0,0-3.343.992A5.067,5.067,0,0,0,71.879,259q.014.584.026,1.165a4.533,4.533,0,0,0,.966,2.178l.886.839a4.565,4.565,0,0,0,2.175.826,5.08,5.08,0,0,0,3.343-.993,5.046,5.046,0,0,0,1.663-3.061Z" transform="translate(-71.88 -254.909)" fill="#fff"/>
          </g>
        </g>
      </g>
      <g id="Group_222" data-name="Group 222" transform="translate(1883.536 3039.062)" opacity="0.43">
        <g id="Group_221" data-name="Group 221">
          <g id="Group_220" data-name="Group 220" clip-path="url(#clip-path-2)">
            <path id="Path_453" data-name="Path 453" d="M102.878,258.836a4.308,4.308,0,0,0-.917-2.068c-.277-.264-.558-.53-.842-.794a4.308,4.308,0,0,0-2.065-.783,4.786,4.786,0,0,0-3.173.94,4.837,4.837,0,0,0-1.579,2.908c.009.368.017.736.026,1.107a4.333,4.333,0,0,0,.914,2.066l.845.794a4.287,4.287,0,0,0,2.065.783,4.809,4.809,0,0,0,3.173-.94,4.806,4.806,0,0,0,1.579-2.908q-.012-.552-.026-1.105" transform="translate(-94.304 -255.155)" fill="#fff"/>
          </g>
        </g>
      </g>
    </g>
  </g>
</svg>
