<svg xmlns="http://www.w3.org/2000/svg" xmlns:xlink="http://www.w3.org/1999/xlink" width="419.119" height="502.194" viewBox="0 0 419.119 502.194">
  <defs>
    <linearGradient id="linear-gradient" x1="0.5" y1="0.133" x2="0.89" y2="0.5" gradientUnits="objectBoundingBox">
      <stop offset="0" stop-color="#c4d143"/>
      <stop offset="1" stop-color="#7c8a1a"/>
    </linearGradient>
    <linearGradient id="linear-gradient-2" x1="1.148" y1="0.346" x2="0.5" y2="0.135" gradientUnits="objectBoundingBox">
      <stop offset="0" stop-color="#7c8a1a" stop-opacity="0"/>
      <stop offset="0.315" stop-color="#768319" stop-opacity="0.314"/>
      <stop offset="0.781" stop-color="#646f15" stop-opacity="0.78"/>
      <stop offset="1" stop-color="#5a6313"/>
    </linearGradient>
    <linearGradient id="linear-gradient-3" x1="0.423" y1="0.116" x2="0.658" y2="0.705" xlink:href="#linear-gradient"/>
    <linearGradient id="linear-gradient-4" x1="1" y1="1" x2="0.395" y2="0.356" xlink:href="#linear-gradient-2"/>
    <linearGradient id="linear-gradient-5" x1="0.246" y1="0.5" x2="0.5" y2="0.748" xlink:href="#linear-gradient"/>
    <linearGradient id="linear-gradient-6" x1="0.886" y1="0.362" x2="0.613" y2="0.084" xlink:href="#linear-gradient-2"/>
    <linearGradient id="linear-gradient-7" x1="0.586" y1="0.529" x2="0.427" y2="0.699" gradientUnits="objectBoundingBox">
      <stop offset="0" stop-color="#5a6313" stop-opacity="0"/>
      <stop offset="1" stop-color="#544f43"/>
    </linearGradient>
    <linearGradient id="linear-gradient-8" x1="0.337" y1="0.293" x2="0.642" y2="0.731" gradientUnits="objectBoundingBox">
      <stop offset="0" stop-color="#dd3b32"/>
      <stop offset="0.279" stop-color="#ff4f46"/>
      <stop offset="0.775" stop-color="#ff5b52"/>
      <stop offset="1" stop-color="#dd3b32"/>
    </linearGradient>
    <linearGradient id="linear-gradient-9" x1="-0.051" x2="1" y2="1" gradientUnits="objectBoundingBox">
      <stop offset="0" stop-color="#d30e03" stop-opacity="0"/>
      <stop offset="0.513" stop-color="#d5362e"/>
      <stop offset="1" stop-color="#c9251c"/>
    </linearGradient>
    <clipPath id="clip-path">
      <rect id="Rectangle_22" data-name="Rectangle 22" width="119.934" height="158.041" fill="none"/>
    </clipPath>
    <clipPath id="clip-path-3">
      <rect id="Rectangle_19" data-name="Rectangle 19" width="9.771" height="9.849" fill="none"/>
    </clipPath>
    <clipPath id="clip-path-4">
      <rect id="Rectangle_20" data-name="Rectangle 20" width="9.787" height="9.771" fill="none"/>
    </clipPath>
  </defs>
  <g id="Group_101" data-name="Group 101" transform="translate(-2577.212 -1129.282)">
    <g id="Group_66" data-name="Group 66" transform="translate(2584.605 1170.61)">
      <g id="Group_3" data-name="Group 3" transform="translate(92.802 18.709) rotate(-45)">
        <g id="Group_1" data-name="Group 1" transform="translate(0 0)">
          <path id="Path_1" data-name="Path 1" d="M24.367,41.36C11.892,68.752-2.74,120.169.441,145.641a2.885,2.885,0,0,0,4.71,2.132C26.48,133.4,55.75,88.6,68.225,61.212s6.148-32.978,2.967-58.451A2.885,2.885,0,0,0,66.482.629C45.153,15.008,36.842,13.967,24.367,41.36Z" fill="url(#linear-gradient)"/>
          <path id="Path_2" data-name="Path 2" d="M3.02,147.538C24.35,133.16,53.62,88.369,66.094,60.977S72.242,28,69.061,2.526A3.06,3.06,0,0,0,67.371,0L0,147.931a3.075,3.075,0,0,0,3.02-.393Z" transform="translate(2.131 0.235)" fill="url(#linear-gradient-2)"/>
        </g>
        <g id="Group_2" data-name="Group 2" transform="translate(6.22 79.045)">
          <path id="Path_3" data-name="Path 3" d="M87.1,7.471C59.709,19.959,14.933,49.165.622,70.475a2.885,2.885,0,0,0,2.156,4.7c25.53,3.143,77.007-11.458,104.393-23.946s26.276-20.855,40.588-42.166a2.885,2.885,0,0,0-2.156-4.7C120.071,1.222,114.482-5.017,87.1,7.471Z" fill="url(#linear-gradient-3)"/>
          <path id="Path_4" data-name="Path 4" d="M2.537,69.126C28.067,72.269,79.544,57.668,106.93,45.18s26.276-20.855,40.587-42.166A3.059,3.059,0,0,0,147.9,0L0,67.442A3.078,3.078,0,0,0,2.537,69.126Z" transform="translate(0.24 6.048)" fill="url(#linear-gradient-4)"/>
        </g>
      </g>
      <g id="Group_4" data-name="Group 4" transform="translate(119.755 40.968) rotate(-45)">
        <path id="Path_5" data-name="Path 5" d="M58.923,23.583C37.673,44.9,6.017,87.978.108,112.958a2.885,2.885,0,0,0,3.67,3.641C28.784,110.57,71.846,78.81,93.1,57.494s17.271-28.759,23.18-53.74a2.885,2.885,0,0,0-3.67-3.641C87.6,6.143,80.174,2.267,58.923,23.583Z" fill="url(#linear-gradient-5)"/>
        <path id="Path_6" data-name="Path 6" d="M2.968,115.8C27.973,109.772,71.035,78.012,92.286,56.7s17.271-28.759,23.18-53.74a3.062,3.062,0,0,0-.7-2.956L0,115.117A3.078,3.078,0,0,0,2.968,115.8Z" transform="translate(0.81 0.798)" fill="url(#linear-gradient-6)"/>
      </g>
      <path id="Path_7" data-name="Path 7" d="M11.012,0C3.68,24.476-1.6,51.438.441,67.756a2.862,2.862,0,0,0,2.907,2.753,2.762,2.762,0,0,0,2.875,3.114A2.893,2.893,0,0,0,9,76.333c16.34,2.012,43.3-3.248,67.781-10.568Z" transform="translate(147.876 73.781) rotate(-45)" fill="url(#linear-gradient-7)"/>
      <path id="Path_15" data-name="Path 15" d="M250.2,169.419C179.528,240.089,41.957,322.477,7.921,288.441S56.272,116.834,126.943,46.164s102.863-47.679,136.9-13.643,57.028,66.227-13.643,136.9Z" transform="translate(-7.393 251.307) rotate(-45)" fill="url(#linear-gradient-8)"/>
      <path id="Path_9" data-name="Path 9" d="M2.839.5A89.857,89.857,0,0,1,15.266,6.188c2.466,1.34,5.045,2.91,7.7,4.659,2.63,1.786,5.373,3.722,8.028,5.912a104.555,104.555,0,0,1,7.917,7.063c2.56,2.544,5.03,5.249,7.355,8.076q1.737,2.125,3.343,4.346c1.119,1.44,2.088,2.985,3.078,4.492,1.023,1.484,1.893,3.06,2.774,4.6.906,1.519,1.668,3.111,2.441,4.655a81.851,81.851,0,0,1,3.814,9.262c.548,1.5.952,3.026,1.371,4.48s.759,2.888,1.037,4.288a74.9,74.9,0,0,1,1.216,7.709c.2,2.348.282,4.421.324,6.126-.023,1.73-1.652,2.414-2.234.973l-2.36-5.064c-.992-1.909-1.986-4.112-3.277-6.4-.612-1.162-1.228-2.382-1.969-3.586C55.1,66.561,54.463,65.249,53.634,64,52.1,61.419,50.4,58.761,48.6,56.044c-.962-1.321-1.8-2.75-2.816-4.093s-1.945-2.76-2.989-4.121c-1.017-1.379-2.071-2.746-3.137-4.114-1.042-1.386-2.142-2.738-3.261-4.074-2.158-2.735-4.483-5.341-6.716-7.953l-3.416-3.8L22.871,24.22c-4.48-4.789-8.786-9.168-12.529-12.892L1.4,2.5C-.913.219-.307-.636,2.839.5Z" transform="translate(185.553 198.524) rotate(-45)" fill="url(#linear-gradient-9)"/>
      <path id="Path_10" data-name="Path 10" d="M2.561.08A86.918,86.918,0,0,1,15.109,2.565c2.544.682,5.246,1.543,8.067,2.548,2.8,1.043,5.746,2.2,8.678,3.593,2.962,1.357,5.929,2.928,8.874,4.639,2.936,1.731,5.834,3.624,8.635,5.656q2.1,1.53,4.1,3.172c1.369,1.048,2.63,2.221,3.9,3.356,1.295,1.107,2.478,2.329,3.66,3.514,1.2,1.163,2.291,2.422,3.379,3.634a81.206,81.206,0,0,1,5.8,7.45c.876,1.218,1.633,2.5,2.384,3.7s1.427,2.414,2.038,3.6a72.263,72.263,0,0,1,3.089,6.616c.79,2.052,1.4,3.882,1.885,5.393.431,1.548-.839,2.5-1.732,1.337l-3.417-4.021c-1.379-1.494-2.836-3.25-4.58-5.02-.846-.908-1.711-1.866-2.684-2.784s-1.87-1.966-2.933-2.909c-2.03-1.977-4.236-3.989-6.546-6.033-1.2-.976-2.319-2.073-3.568-3.058S51.69,34.9,50.409,33.908c-1.263-1.015-2.555-2.014-3.86-3.01-1.287-1.017-2.616-1.991-3.959-2.949-2.63-1.987-5.376-3.823-8.041-5.683L30.52,19.592l-3.97-2.559c-5.23-3.332-10.2-6.335-14.5-8.873l-10.257-6C-.86.607-.539-.28,2.561.08Z" transform="translate(118.801 247.532) rotate(-45)" fill="url(#linear-gradient-9)"/>
      <path id="Path_11" data-name="Path 11" d="M2.561.08A86.916,86.916,0,0,1,15.109,2.565c2.544.682,5.246,1.543,8.067,2.548,2.8,1.043,5.747,2.2,8.678,3.593,2.962,1.357,5.929,2.928,8.874,4.639,2.937,1.731,5.834,3.624,8.635,5.656q2.1,1.53,4.1,3.172c1.369,1.048,2.631,2.221,3.9,3.356,1.295,1.106,2.478,2.329,3.66,3.513,1.2,1.163,2.291,2.422,3.379,3.634a81.217,81.217,0,0,1,5.8,7.45c.876,1.218,1.633,2.5,2.384,3.7s1.427,2.414,2.037,3.6a72.257,72.257,0,0,1,3.089,6.616c.79,2.052,1.4,3.882,1.885,5.393.431,1.548-.839,2.5-1.732,1.337l-3.417-4.021c-1.379-1.494-2.837-3.25-4.58-5.02-.847-.908-1.711-1.866-2.684-2.784s-1.87-1.966-2.932-2.909c-2.03-1.977-4.236-3.989-6.546-6.033-1.2-.976-2.319-2.073-3.568-3.058S51.69,34.9,50.408,33.907c-1.263-1.015-2.556-2.014-3.86-3.01-1.287-1.017-2.617-1.991-3.96-2.949-2.63-1.987-5.376-3.823-8.041-5.684L30.52,19.59l-3.97-2.559c-5.23-3.332-10.2-6.335-14.5-8.873l-10.257-6C-.86.607-.54-.28,2.561.08Z" transform="translate(119.244 148.173) rotate(-45)" fill="url(#linear-gradient-9)"/>
      <path id="Path_12" data-name="Path 12" d="M2.4.5a84.724,84.724,0,0,1,10.8,5.29c2.154,1.232,4.415,2.663,6.754,4.252,2.317,1.618,4.736,3.369,7.1,5.336,2.4,1.938,4.756,4.069,7.068,6.32,2.3,2.267,4.535,4.669,6.656,7.173q1.585,1.882,3.066,3.842c1.025,1.273,1.931,2.631,2.852,3.959.947,1.308,1.773,2.692,2.6,4.041.852,1.335,1.587,2.73,2.329,4.083a80.527,80.527,0,0,1,3.763,8.1c.551,1.307.983,2.637,1.424,3.905s.814,2.515,1.132,3.732c.7,2.395,1.111,4.689,1.494,6.7.313,2.036.509,3.831.65,5.308.088,1.5-1.236,2.047-1.813.785l-2.291-4.444c-.949-1.678-1.919-3.609-3.142-5.624-.584-1.022-1.176-2.092-1.871-3.153s-1.3-2.221-2.071-3.326c-1.44-2.27-3.031-4.612-4.71-7.008-.887-1.168-1.681-2.425-2.612-3.613s-1.8-2.438-2.759-3.642c-.938-1.219-1.9-2.429-2.884-3.641-.959-1.226-1.964-2.424-2.985-3.61-1.977-2.422-4.087-4.739-6.121-7.057l-3.1-3.381-3.07-3.263c-4.053-4.264-7.937-8.169-11.308-11.494L1.3,2.177C-.783.138-.321-.58,2.4.5Z" transform="translate(185.553 281.513) rotate(-45)" fill="url(#linear-gradient-9)"/>
      <path id="Path_13" data-name="Path 13" d="M2.219.138A82.571,82.571,0,0,1,13.232,2.878c2.237.706,4.619,1.571,7.106,2.564,2.474,1.024,5.073,2.147,7.669,3.477,2.621,1.3,5.254,2.774,7.873,4.369,2.612,1.611,5.2,3.358,7.7,5.216q1.874,1.4,3.673,2.888c1.226.955,2.364,2.01,3.509,3.035,1.164,1,2.235,2.094,3.3,3.156,1.084,1.045,2.077,2.165,3.066,3.245a79.944,79.944,0,0,1,5.308,6.6c.806,1.076,1.511,2.2,2.208,3.258s1.33,2.118,1.9,3.157c1.2,2.032,2.113,4.028,2.934,5.769.765,1.782,1.367,3.368,1.844,4.676.434,1.337-.63,2.088-1.45,1.055l-3.12-3.583c-1.254-1.337-2.586-2.9-4.167-4.487-.769-.813-1.557-1.668-2.435-2.5s-1.7-1.76-2.656-2.612c-1.837-1.778-3.826-3.592-5.909-5.44-1.077-.887-2.091-1.873-3.212-2.769s-2.2-1.861-3.351-2.767c-1.135-.924-2.293-1.834-3.463-2.743-1.155-.925-2.346-1.818-3.547-2.7-2.357-1.815-4.81-3.507-7.194-5.216l-3.6-2.468L23.69,15.7c-4.668-3.085-9.1-5.878-12.931-8.244l-9.141-5.6C-.747.41-.5-.325,2.219.138Z" transform="translate(133.534 332.931) rotate(-45)" fill="url(#linear-gradient-9)"/>
      <path id="Path_14" data-name="Path 14" d="M2.083.333a80.845,80.845,0,0,1,9.985,3.976c2.015.944,4.148,2.055,6.37,3.3,2.207,1.269,4.518,2.646,6.811,4.211,2.318,1.539,4.631,3.246,6.92,5.06s4.525,3.775,6.686,5.816q1.616,1.535,3.155,3.143C43.063,26.877,44.026,28,45,29.093c.993,1.075,1.89,2.224,2.79,3.342s1.738,2.267,2.562,3.394a79.371,79.371,0,0,1,4.352,6.78c.655,1.1,1.212,2.224,1.767,3.294s1.051,2.128,1.494,3.162c.934,2.031,1.613,3.993,2.224,5.708.556,1.745.979,3.288,1.309,4.559.288,1.292-.762,1.847-1.434.787L57.479,56.4c-1.048-1.4-2.148-3.014-3.478-4.686-.643-.85-1.3-1.743-2.043-2.621s-1.422-1.846-2.237-2.757c-1.55-1.88-3.238-3.815-5.009-5.792-.922-.959-1.777-2-2.739-2.975s-1.88-2-2.868-2.991c-.972-1-1.968-1.992-2.975-2.983s-2.018-1.984-3.056-2.951c-2.029-1.982-4.158-3.864-6.221-5.753L23.73,20.148,20.648,17.5c-4.063-3.457-7.931-6.614-11.281-9.3l-8-6.365C-.7.192-.4-.452,2.083.333Z" transform="translate(173.838 369.633) rotate(-45)" fill="url(#linear-gradient-9)"/>
    </g>
    <g id="Group_99" data-name="Group 99" transform="translate(2718.461 1289.772)">
      <g id="Group_98" data-name="Group 98" clip-path="url(#clip-path)">
        <g id="Group_97" data-name="Group 97">
          <g id="Group_96" data-name="Group 96" clip-path="url(#clip-path)">
            <path id="Path_138" data-name="Path 138" d="M42.743,129.223c-.028.063-.057.121-.081.183-4.513-8.059-11.115-13.1-17.871-10.657-11.611,4.194-21.02,15.216-21.02,33.189s10.009,32.544,22.356,32.544c7.237,0,13.669-5.007,17.755-12.77a49.5,49.5,0,0,1-4.813-21.728,57.541,57.541,0,0,1,3.674-20.76M27.738,162.665c-3.176,0-5.752-4.019-5.752-8.977a13.557,13.557,0,0,1,.331-3.007,3.084,3.084,0,0,0,.96.152,3.207,3.207,0,0,0,3.17-3.168,3.415,3.415,0,0,0-.957-2.24,4.025,4.025,0,0,1,2.248-.715c3.177,0,5.753,4.021,5.753,8.978s-2.576,8.977-5.753,8.977" transform="translate(-2.637 -82.609)" fill="#fff"/>
            <path id="Path_139" data-name="Path 139" d="M149.531,172.3c13.431,0,24.318-15.287,24.318-34.145s.309-25.131-19.733-35.385c-11.956-6.118-28.9,9.476-28.9,35.385,0,18.857,10.887,34.145,24.315,34.145m-4.072-34.5a3.066,3.066,0,0,0,1.9.649,3.206,3.206,0,0,0,3.17-3.17,3.373,3.373,0,0,0-1.367-2.59,3.88,3.88,0,0,1,1.592-.347c3.177,0,5.753,4.019,5.753,8.977s-2.576,8.978-5.753,8.978S145,146.282,145,141.323a13.4,13.4,0,0,1,.459-3.519" transform="translate(-87.564 -70.942)" fill="#fff"/>
            <path id="Path_140" data-name="Path 140" d="M29.685,256.672c-10.942,0-19.886-12.442-20.524-28.135q-.035.9-.037,1.834c0,16.531,9.206,29.933,20.561,29.933,6.655,0,12.573-4.606,16.331-11.747-.324-.654-.627-1.327-.919-2.013-3.767,6.21-9.275,10.127-15.412,10.127" transform="translate(-6.38 -159.817)" fill="#d1d1d1"/>
            <path id="Path_141" data-name="Path 141" d="M153.227,247.066c-12.126,0-22.034-13.336-22.69-30.134-.025.631-.036,1.267-.036,1.912,0,17.626,10.175,31.913,22.726,31.913s22.729-14.288,22.729-31.913q0-1.8,0-3.442c-.095,17.512-10.232,31.664-22.726,31.664" transform="translate(-91.26 -150.632)" fill="#d1d1d1"/>
            <path id="Path_142" data-name="Path 142" d="M124.833,107.514a57.534,57.534,0,0,0-3.675,20.76A49.492,49.492,0,0,0,125.971,150c.159-.3.315-.609.467-.921.191.556.4,1.1.646,1.654a9.249,9.249,0,0,0,.674,1.246c-.121.222-.245.444-.37.662,5,8.511,12.576,13.936,21.051,13.936,15.064,0,27.281-17.151,27.281-38.306s.346-28.2-22.14-39.7c-9.225-4.72-21.1,2.081-27.612,16.246.064.108.131.216.2.324a14.139,14.139,0,0,0-1.332,2.369m26.446-14.782c20.042,10.254,19.733,16.53,19.733,35.385s-10.887,34.145-24.318,34.145-24.315-15.287-24.315-34.145c0-25.909,16.945-41.5,28.9-35.385" transform="translate(-84.726 -60.9)" fill="#222"/>
            <path id="Path_143" data-name="Path 143" d="M24.1,163c7.469,0,14.145-4.95,18.563-12.716-.5-.851-.969-1.734-1.417-2.641-4.086,7.762-10.518,12.77-17.755,12.77-12.347,0-22.356-14.57-22.356-32.544s9.409-28.995,21.02-33.189c6.756-2.44,13.359,2.6,17.871,10.657.025-.061.054-.119.082-.182q.539-1.386,1.136-2.693C37.429,96.155,32.39,91.815,27.022,91.5c.155-.1.306-.2.458-.3a11.722,11.722,0,0,0,3.064-3.307,8.993,8.993,0,0,0,1.472-3.844c.046-.34-.49-.479-.59-.142a7.494,7.494,0,0,1-2.1,3.223A7.179,7.179,0,0,1,27.8,88.207c-.648.358-1.324.778-1.912,1.124-3.826,2.242-8.349,4.107-11.637,7.112a48.932,48.932,0,0,0-7.373,7.667C1.985,111.025,0,119.536,0,127.921,0,147.293,10.789,163,24.1,163" transform="translate(0.001 -58.541)" fill="#222"/>
            <path id="Path_144" data-name="Path 144" d="M138.278,294.911c-.245-.549-.456-1.1-.646-1.654-.152.312-.308.617-.467.921.448.908.92,1.791,1.417,2.641.125-.219.249-.441.37-.662a9.246,9.246,0,0,1-.674-1.246" transform="translate(-95.92 -205.077)" fill="#222"/>
            <path id="Path_145" data-name="Path 145" d="M134.711,146.389c-.066-.108-.133-.216-.2-.324q-.6,1.3-1.136,2.693a14.139,14.139,0,0,1,1.333-2.369" transform="translate(-93.272 -102.144)" fill="#222"/>
            <path id="Path_146" data-name="Path 146" d="M153.257,23.716c3.012-.311,5.661-2.027,8.4-3.306a25.235,25.235,0,0,1,16.744-1.884,19.765,19.765,0,0,1,7.862,4.06c1.03.877,5.054,3.764,4.908,5.258.463-4.737-.831-8.106-2.864-12.234a49.9,49.9,0,0,0-9.447-13.227A7.518,7.518,0,0,0,175.439.109c-2.007-.464-4.017.635-5.75,1.744-6.912,4.424-12.477,9.847-18.3,15.571-1.343,1.319-3.288,2.735-4.92,1.8.238,3.018,3.777,4.8,6.788,4.494" transform="translate(-102.426 0)" fill="#222"/>
            <path id="Path_147" data-name="Path 147" d="M27.963,38.279c1.96-.76,3.866,1.048,5.636,2.191a7.387,7.387,0,0,0,6.148,1.049,7.646,7.646,0,0,0,4.469-4.561,19.158,19.158,0,0,0,1.077-6.475A2.425,2.425,0,0,1,42.2,31.621,8.049,8.049,0,0,1,39.337,29.4a37.614,37.614,0,0,0-5.419-4.581c-5.28-3.669-8.7-.244-10.855,5.184-1.983,5-2.409,11.738-2.123,17.085,1.4-2.94,3.785-7.554,7.023-8.808" transform="translate(-14.587 -16.287)" fill="#222"/>
            <path id="Path_148" data-name="Path 148" d="M196.767,222.16c3.177,0,5.753-4.019,5.753-8.978s-2.576-8.977-5.753-8.977a3.882,3.882,0,0,0-1.592.347,3.373,3.373,0,0,1,1.367,2.591,3.206,3.206,0,0,1-3.17,3.17,3.067,3.067,0,0,1-1.9-.65,13.4,13.4,0,0,0-.458,3.519c0,4.959,2.573,8.978,5.752,8.978" transform="translate(-133.578 -142.802)" fill="#222"/>
            <path id="Path_149" data-name="Path 149" d="M70.1,206.521a4.025,4.025,0,0,0-2.248.715,3.415,3.415,0,0,1,.957,2.24,3.207,3.207,0,0,1-3.17,3.168,3.084,3.084,0,0,1-.96-.152,13.555,13.555,0,0,0-.331,3.006c0,4.958,2.576,8.977,5.752,8.977s5.753-4.019,5.753-8.977-2.576-8.978-5.753-8.978" transform="translate(-44.999 -144.421)" fill="#222"/>
            <path id="Path_150" data-name="Path 150" d="M160.775,284.131a59.02,59.02,0,0,0,.95-6.516c.036-.419-.06-5.146.809-5.58a.3.3,0,0,1,.219-.019,9.416,9.416,0,0,1,6.608,7.055,16.1,16.1,0,0,0-1.95-7.111c-1.783-3.11-5.582-6.22-9.264-4.135a2.216,2.216,0,0,0-1.141,2.461,1.811,1.811,0,0,1,1.651,1.316c.87,2.538.438,6.382-.015,8.963a57.792,57.792,0,0,1-18.923,33.94c-4.329,3.771-8.771,7.42-14.171,9.564a70.413,70.413,0,0,1-21.33,5.023,52.816,52.816,0,0,1-26.4-4.839c-.67-.328-1.368-.838-1.442-1.58a1.655,1.655,0,0,1,.972-1.544,3.775,3.775,0,0,1,1.894-.284,7.858,7.858,0,0,0-5.334-1.556,1.772,1.772,0,0,0-.943.283,1.373,1.373,0,0,0-.473,1.547c3.241,7.373,11.784,9.031,22.62,11.424-4.676,2.572-2.907,8.468,1.1,10.887a11.583,11.583,0,0,0,6.506,1.413,36.271,36.271,0,0,0,8.783-1.869l7.826-2.357a39.5,39.5,0,0,0-9.94.354c-2.019.232-5.286,1.194-7.291.485-5.078-1.8-.868-5.857,2.05-7.068,4.98-2.067,10.657-2.814,15.835-4.4a60.35,60.35,0,0,0,21.76-12.15,57.219,57.219,0,0,0,15.095-21.08,67.733,67.733,0,0,0,3.935-12.624" transform="translate(-50.635 -186.818)" fill="#222"/>
            <path id="Path_151" data-name="Path 151" d="M312.474,216.053c2.874-1.759,8.545-2.624,13.05-1.518,2.617.643,4.84,1.956,5.892,4.143a29.474,29.474,0,0,0-2.993-5.263,9.847,9.847,0,0,0-4.789-3.561c-4.406-1.334-8.755,2.358-12.9,1.3-3.27-.831-2.941-5.078-4.044-7.643-.915,9.024-.973,18.637-4.277,27.164,4.723-4.174,4.457-11.2,10.057-14.628" transform="translate(-211.482 -142.32)" fill="#222"/>
            <path id="Path_152" data-name="Path 152" d="M328.01,252.751c.05-.054.048-.054.019-.022-.006.007-.013.013-.019.022" transform="translate(-229.379 -176.719)" fill="#222"/>
            <g id="Group_92" data-name="Group 92" transform="translate(16.807 60.745)" opacity="0.43">
              <g id="Group_91" data-name="Group 91">
                <g id="Group_90" data-name="Group 90" clip-path="url(#clip-path-3)">
                  <path id="Path_153" data-name="Path 153" d="M65.635,206.2a4.9,4.9,0,0,0-1.039-2.348l-.959-.9a4.906,4.906,0,0,0-2.345-.889,5.477,5.477,0,0,0-3.605,1.067,3.709,3.709,0,0,0-1.2,1.521,3.667,3.667,0,0,0-.589,1.783c.01.419.019.838.029,1.256a4.891,4.891,0,0,0,1.037,2.348q.48.451.959.9a4.918,4.918,0,0,0,2.345.889,5.47,5.47,0,0,0,3.6-1.067,5.487,5.487,0,0,0,1.8-3.3q-.015-.629-.029-1.257" transform="translate(-55.893 -202.016)" fill="#fff"/>
                </g>
              </g>
            </g>
            <g id="Group_95" data-name="Group 95" transform="translate(55.569 59.572)" opacity="0.43">
              <g id="Group_94" data-name="Group 94">
                <g id="Group_93" data-name="Group 93" clip-path="url(#clip-path-4)">
                  <path id="Path_154" data-name="Path 154" d="M190.209,198.115a5.308,5.308,0,0,0-3.6,1.068,5,5,0,0,0-1.8,3.3c-.15,2.427,1.627,5.4,4.371,5.4a5.3,5.3,0,0,0,3.6-1.068,4.987,4.987,0,0,0,1.8-3.3c.15-2.427-1.627-5.4-4.371-5.4" transform="translate(-184.802 -198.115)" fill="#fff"/>
                </g>
              </g>
            </g>
          </g>
        </g>
      </g>
    </g>
  </g>
</svg>
