<svg xmlns="http://www.w3.org/2000/svg" xmlns:xlink="http://www.w3.org/1999/xlink" width="419.119" height="502.194" viewBox="0 0 419.119 502.194">
  <defs>
    <linearGradient id="linear-gradient" x1="0.5" y1="0.133" x2="0.89" y2="0.5" gradientUnits="objectBoundingBox">
      <stop offset="0" stop-color="#c4d143"/>
      <stop offset="1" stop-color="#7c8a1a"/>
    </linearGradient>
    <linearGradient id="linear-gradient-2" x1="1.148" y1="0.346" x2="0.5" y2="0.135" gradientUnits="objectBoundingBox">
      <stop offset="0" stop-color="#7c8a1a" stop-opacity="0"/>
      <stop offset="0.315" stop-color="#768319" stop-opacity="0.314"/>
      <stop offset="0.781" stop-color="#646f15" stop-opacity="0.78"/>
      <stop offset="1" stop-color="#5a6313"/>
    </linearGradient>
    <linearGradient id="linear-gradient-3" x1="0.423" y1="0.116" x2="0.658" y2="0.705" xlink:href="#linear-gradient"/>
    <linearGradient id="linear-gradient-4" x1="1" y1="1" x2="0.395" y2="0.356" xlink:href="#linear-gradient-2"/>
    <linearGradient id="linear-gradient-5" x1="0.246" y1="0.5" x2="0.5" y2="0.748" xlink:href="#linear-gradient"/>
    <linearGradient id="linear-gradient-6" x1="0.886" y1="0.362" x2="0.613" y2="0.084" xlink:href="#linear-gradient-2"/>
    <linearGradient id="linear-gradient-7" x1="0.586" y1="0.529" x2="0.427" y2="0.699" gradientUnits="objectBoundingBox">
      <stop offset="0" stop-color="#5a6313" stop-opacity="0"/>
      <stop offset="1" stop-color="#544f43"/>
    </linearGradient>
    <linearGradient id="linear-gradient-8" x1="0.337" y1="0.293" x2="0.642" y2="0.731" gradientUnits="objectBoundingBox">
      <stop offset="0" stop-color="#dd3b32"/>
      <stop offset="0.279" stop-color="#ff4f46"/>
      <stop offset="0.775" stop-color="#ff5b52"/>
      <stop offset="1" stop-color="#dd3b32"/>
    </linearGradient>
    <linearGradient id="linear-gradient-9" x1="-0.051" x2="1" y2="1" gradientUnits="objectBoundingBox">
      <stop offset="0" stop-color="#d30e03" stop-opacity="0"/>
      <stop offset="0.513" stop-color="#d5362e"/>
      <stop offset="1" stop-color="#c9251c"/>
    </linearGradient>
    <clipPath id="clip-path">
      <rect id="Rectangle_18" data-name="Rectangle 18" width="127.823" height="187.456" fill="none"/>
    </clipPath>
    <clipPath id="clip-path-3">
      <rect id="Rectangle_15" data-name="Rectangle 15" width="11.287" height="11.259" fill="none"/>
    </clipPath>
    <clipPath id="clip-path-4">
      <rect id="Rectangle_16" data-name="Rectangle 16" width="11.032" height="11.004" fill="none"/>
    </clipPath>
  </defs>
  <g id="Group_88" data-name="Group 88" transform="translate(-3583.741 -651.843)">
    <g id="Group_77" data-name="Group 77" transform="translate(3591.134 693.171)">
      <g id="Group_3" data-name="Group 3" transform="translate(92.802 18.709) rotate(-45)">
        <g id="Group_1" data-name="Group 1" transform="translate(0 0)">
          <path id="Path_1" data-name="Path 1" d="M24.367,41.36C11.892,68.752-2.74,120.169.441,145.641a2.885,2.885,0,0,0,4.71,2.132C26.48,133.4,55.75,88.6,68.225,61.212s6.148-32.978,2.967-58.451A2.885,2.885,0,0,0,66.482.629C45.153,15.008,36.842,13.967,24.367,41.36Z" fill="url(#linear-gradient)"/>
          <path id="Path_2" data-name="Path 2" d="M3.02,147.538C24.35,133.16,53.62,88.369,66.094,60.977S72.242,28,69.061,2.526A3.06,3.06,0,0,0,67.371,0L0,147.931a3.075,3.075,0,0,0,3.02-.393Z" transform="translate(2.131 0.235)" fill="url(#linear-gradient-2)"/>
        </g>
        <g id="Group_2" data-name="Group 2" transform="translate(6.22 79.045)">
          <path id="Path_3" data-name="Path 3" d="M87.1,7.471C59.709,19.959,14.933,49.165.622,70.475a2.885,2.885,0,0,0,2.156,4.7c25.53,3.143,77.007-11.458,104.393-23.946s26.276-20.855,40.588-42.166a2.885,2.885,0,0,0-2.156-4.7C120.071,1.222,114.482-5.017,87.1,7.471Z" fill="url(#linear-gradient-3)"/>
          <path id="Path_4" data-name="Path 4" d="M2.537,69.126C28.067,72.269,79.544,57.668,106.93,45.18s26.276-20.855,40.587-42.166A3.059,3.059,0,0,0,147.9,0L0,67.442A3.078,3.078,0,0,0,2.537,69.126Z" transform="translate(0.24 6.048)" fill="url(#linear-gradient-4)"/>
        </g>
      </g>
      <g id="Group_4" data-name="Group 4" transform="translate(119.755 40.968) rotate(-45)">
        <path id="Path_5" data-name="Path 5" d="M58.923,23.583C37.673,44.9,6.017,87.978.108,112.958a2.885,2.885,0,0,0,3.67,3.641C28.784,110.57,71.846,78.81,93.1,57.494s17.271-28.759,23.18-53.74a2.885,2.885,0,0,0-3.67-3.641C87.6,6.143,80.174,2.267,58.923,23.583Z" fill="url(#linear-gradient-5)"/>
        <path id="Path_6" data-name="Path 6" d="M2.968,115.8C27.973,109.772,71.035,78.012,92.286,56.7s17.271-28.759,23.18-53.74a3.062,3.062,0,0,0-.7-2.956L0,115.117A3.078,3.078,0,0,0,2.968,115.8Z" transform="translate(0.81 0.798)" fill="url(#linear-gradient-6)"/>
      </g>
      <path id="Path_7" data-name="Path 7" d="M11.012,0C3.68,24.476-1.6,51.438.441,67.756a2.862,2.862,0,0,0,2.907,2.753,2.762,2.762,0,0,0,2.875,3.114A2.893,2.893,0,0,0,9,76.333c16.34,2.012,43.3-3.248,67.781-10.568Z" transform="translate(147.876 73.781) rotate(-45)" fill="url(#linear-gradient-7)"/>
      <path id="Path_15" data-name="Path 15" d="M250.2,169.419C179.528,240.089,41.957,322.477,7.921,288.441S56.272,116.834,126.943,46.164s102.863-47.679,136.9-13.643,57.028,66.227-13.643,136.9Z" transform="translate(-7.393 251.307) rotate(-45)" fill="url(#linear-gradient-8)"/>
      <path id="Path_9" data-name="Path 9" d="M2.839.5A89.857,89.857,0,0,1,15.266,6.188c2.466,1.34,5.045,2.91,7.7,4.659,2.63,1.786,5.373,3.722,8.028,5.912a104.555,104.555,0,0,1,7.917,7.063c2.56,2.544,5.03,5.249,7.355,8.076q1.737,2.125,3.343,4.346c1.119,1.44,2.088,2.985,3.078,4.492,1.023,1.484,1.893,3.06,2.774,4.6.906,1.519,1.668,3.111,2.441,4.655a81.851,81.851,0,0,1,3.814,9.262c.548,1.5.952,3.026,1.371,4.48s.759,2.888,1.037,4.288a74.9,74.9,0,0,1,1.216,7.709c.2,2.348.282,4.421.324,6.126-.023,1.73-1.652,2.414-2.234.973l-2.36-5.064c-.992-1.909-1.986-4.112-3.277-6.4-.612-1.162-1.228-2.382-1.969-3.586C55.1,66.561,54.463,65.249,53.634,64,52.1,61.419,50.4,58.761,48.6,56.044c-.962-1.321-1.8-2.75-2.816-4.093s-1.945-2.76-2.989-4.121c-1.017-1.379-2.071-2.746-3.137-4.114-1.042-1.386-2.142-2.738-3.261-4.074-2.158-2.735-4.483-5.341-6.716-7.953l-3.416-3.8L22.871,24.22c-4.48-4.789-8.786-9.168-12.529-12.892L1.4,2.5C-.913.219-.307-.636,2.839.5Z" transform="translate(185.553 198.524) rotate(-45)" fill="url(#linear-gradient-9)"/>
      <path id="Path_10" data-name="Path 10" d="M2.561.08A86.918,86.918,0,0,1,15.109,2.565c2.544.682,5.246,1.543,8.067,2.548,2.8,1.043,5.746,2.2,8.678,3.593,2.962,1.357,5.929,2.928,8.874,4.639,2.936,1.731,5.834,3.624,8.635,5.656q2.1,1.53,4.1,3.172c1.369,1.048,2.63,2.221,3.9,3.356,1.295,1.107,2.478,2.329,3.66,3.514,1.2,1.163,2.291,2.422,3.379,3.634a81.206,81.206,0,0,1,5.8,7.45c.876,1.218,1.633,2.5,2.384,3.7s1.427,2.414,2.038,3.6a72.263,72.263,0,0,1,3.089,6.616c.79,2.052,1.4,3.882,1.885,5.393.431,1.548-.839,2.5-1.732,1.337l-3.417-4.021c-1.379-1.494-2.836-3.25-4.58-5.02-.846-.908-1.711-1.866-2.684-2.784s-1.87-1.966-2.933-2.909c-2.03-1.977-4.236-3.989-6.546-6.033-1.2-.976-2.319-2.073-3.568-3.058S51.69,34.9,50.409,33.908c-1.263-1.015-2.555-2.014-3.86-3.01-1.287-1.017-2.616-1.991-3.959-2.949-2.63-1.987-5.376-3.823-8.041-5.683L30.52,19.592l-3.97-2.559c-5.23-3.332-10.2-6.335-14.5-8.873l-10.257-6C-.86.607-.539-.28,2.561.08Z" transform="translate(118.801 247.532) rotate(-45)" fill="url(#linear-gradient-9)"/>
      <path id="Path_11" data-name="Path 11" d="M2.561.08A86.916,86.916,0,0,1,15.109,2.565c2.544.682,5.246,1.543,8.067,2.548,2.8,1.043,5.747,2.2,8.678,3.593,2.962,1.357,5.929,2.928,8.874,4.639,2.937,1.731,5.834,3.624,8.635,5.656q2.1,1.53,4.1,3.172c1.369,1.048,2.631,2.221,3.9,3.356,1.295,1.106,2.478,2.329,3.66,3.513,1.2,1.163,2.291,2.422,3.379,3.634a81.217,81.217,0,0,1,5.8,7.45c.876,1.218,1.633,2.5,2.384,3.7s1.427,2.414,2.037,3.6a72.257,72.257,0,0,1,3.089,6.616c.79,2.052,1.4,3.882,1.885,5.393.431,1.548-.839,2.5-1.732,1.337l-3.417-4.021c-1.379-1.494-2.837-3.25-4.58-5.02-.847-.908-1.711-1.866-2.684-2.784s-1.87-1.966-2.932-2.909c-2.03-1.977-4.236-3.989-6.546-6.033-1.2-.976-2.319-2.073-3.568-3.058S51.69,34.9,50.408,33.907c-1.263-1.015-2.556-2.014-3.86-3.01-1.287-1.017-2.617-1.991-3.96-2.949-2.63-1.987-5.376-3.823-8.041-5.684L30.52,19.59l-3.97-2.559c-5.23-3.332-10.2-6.335-14.5-8.873l-10.257-6C-.86.607-.54-.28,2.561.08Z" transform="translate(119.244 148.173) rotate(-45)" fill="url(#linear-gradient-9)"/>
      <path id="Path_12" data-name="Path 12" d="M2.4.5a84.724,84.724,0,0,1,10.8,5.29c2.154,1.232,4.415,2.663,6.754,4.252,2.317,1.618,4.736,3.369,7.1,5.336,2.4,1.938,4.756,4.069,7.068,6.32,2.3,2.267,4.535,4.669,6.656,7.173q1.585,1.882,3.066,3.842c1.025,1.273,1.931,2.631,2.852,3.959.947,1.308,1.773,2.692,2.6,4.041.852,1.335,1.587,2.73,2.329,4.083a80.527,80.527,0,0,1,3.763,8.1c.551,1.307.983,2.637,1.424,3.905s.814,2.515,1.132,3.732c.7,2.395,1.111,4.689,1.494,6.7.313,2.036.509,3.831.65,5.308.088,1.5-1.236,2.047-1.813.785l-2.291-4.444c-.949-1.678-1.919-3.609-3.142-5.624-.584-1.022-1.176-2.092-1.871-3.153s-1.3-2.221-2.071-3.326c-1.44-2.27-3.031-4.612-4.71-7.008-.887-1.168-1.681-2.425-2.612-3.613s-1.8-2.438-2.759-3.642c-.938-1.219-1.9-2.429-2.884-3.641-.959-1.226-1.964-2.424-2.985-3.61-1.977-2.422-4.087-4.739-6.121-7.057l-3.1-3.381-3.07-3.263c-4.053-4.264-7.937-8.169-11.308-11.494L1.3,2.177C-.783.138-.321-.58,2.4.5Z" transform="translate(185.553 281.513) rotate(-45)" fill="url(#linear-gradient-9)"/>
      <path id="Path_13" data-name="Path 13" d="M2.219.138A82.571,82.571,0,0,1,13.232,2.878c2.237.706,4.619,1.571,7.106,2.564,2.474,1.024,5.073,2.147,7.669,3.477,2.621,1.3,5.254,2.774,7.873,4.369,2.612,1.611,5.2,3.358,7.7,5.216q1.874,1.4,3.673,2.888c1.226.955,2.364,2.01,3.509,3.035,1.164,1,2.235,2.094,3.3,3.156,1.084,1.045,2.077,2.165,3.066,3.245a79.944,79.944,0,0,1,5.308,6.6c.806,1.076,1.511,2.2,2.208,3.258s1.33,2.118,1.9,3.157c1.2,2.032,2.113,4.028,2.934,5.769.765,1.782,1.367,3.368,1.844,4.676.434,1.337-.63,2.088-1.45,1.055l-3.12-3.583c-1.254-1.337-2.586-2.9-4.167-4.487-.769-.813-1.557-1.668-2.435-2.5s-1.7-1.76-2.656-2.612c-1.837-1.778-3.826-3.592-5.909-5.44-1.077-.887-2.091-1.873-3.212-2.769s-2.2-1.861-3.351-2.767c-1.135-.924-2.293-1.834-3.463-2.743-1.155-.925-2.346-1.818-3.547-2.7-2.357-1.815-4.81-3.507-7.194-5.216l-3.6-2.468L23.69,15.7c-4.668-3.085-9.1-5.878-12.931-8.244l-9.141-5.6C-.747.41-.5-.325,2.219.138Z" transform="translate(133.534 332.931) rotate(-45)" fill="url(#linear-gradient-9)"/>
      <path id="Path_14" data-name="Path 14" d="M2.083.333a80.845,80.845,0,0,1,9.985,3.976c2.015.944,4.148,2.055,6.37,3.3,2.207,1.269,4.518,2.646,6.811,4.211,2.318,1.539,4.631,3.246,6.92,5.06s4.525,3.775,6.686,5.816q1.616,1.535,3.155,3.143C43.063,26.877,44.026,28,45,29.093c.993,1.075,1.89,2.224,2.79,3.342s1.738,2.267,2.562,3.394a79.371,79.371,0,0,1,4.352,6.78c.655,1.1,1.212,2.224,1.767,3.294s1.051,2.128,1.494,3.162c.934,2.031,1.613,3.993,2.224,5.708.556,1.745.979,3.288,1.309,4.559.288,1.292-.762,1.847-1.434.787L57.479,56.4c-1.048-1.4-2.148-3.014-3.478-4.686-.643-.85-1.3-1.743-2.043-2.621s-1.422-1.846-2.237-2.757c-1.55-1.88-3.238-3.815-5.009-5.792-.922-.959-1.777-2-2.739-2.975s-1.88-2-2.868-2.991c-.972-1-1.968-1.992-2.975-2.983s-2.018-1.984-3.056-2.951c-2.029-1.982-4.158-3.864-6.221-5.753L23.73,20.148,20.648,17.5c-4.063-3.457-7.931-6.614-11.281-9.3l-8-6.365C-.7.192-.4-.452,2.083.333Z" transform="translate(173.838 369.633) rotate(-45)" fill="url(#linear-gradient-9)"/>
    </g>
    <g id="Group_87" data-name="Group 87" transform="translate(3697.38 789.874)">
      <g id="Group_86" data-name="Group 86" clip-path="url(#clip-path)">
        <g id="Group_85" data-name="Group 85">
          <g id="Group_84" data-name="Group 84" clip-path="url(#clip-path)">
            <path id="Path_110" data-name="Path 110" d="M175.848,167.224c17.374,0,31.458-13.741,31.458-30.692s-14.084-30.691-31.458-30.691a32.213,32.213,0,0,0-9.441,1.407,10.01,10.01,0,0,1-1.4.567q-.625.2-1.255.376a30.7,30.7,0,0,0-19.365,28.341c0,16.95,14.085,30.692,31.458,30.692m-22.839-37.693a3.784,3.784,0,0,1,1.919.542,2.887,2.887,0,0,0-.651,1.92,3.238,3.238,0,0,0,3.183,3.181,2.959,2.959,0,0,0,.738-.1,14.069,14.069,0,0,1,.455,3.6c0,5.05-2.528,9.144-5.644,9.144s-5.644-4.095-5.644-9.144,2.526-9.145,5.644-9.145" transform="translate(-97.137 -71.203)" fill="#fff"/>
            <path id="Path_111" data-name="Path 111" d="M173.27,498.223s3.148,6.65,18.55,7.789c12.712.939,25.9-5.6,25.9-5.6s-8.313-4.113-22.752-6.824-21.7,4.637-21.7,4.637" transform="translate(-116.565 -331.65)" fill="#fff"/>
            <path id="Path_112" data-name="Path 112" d="M244.527,447.72a17.786,17.786,0,0,0-7.738,6.238,10.028,10.028,0,0,1,2.461-5.293c.128-.141.266-.334.175-.5a.429.429,0,0,0-.245-.168c-7.838-2.8-14.929,5.076-16.711,11.7,0,0,16.275.35,30.015,8.137a26.967,26.967,0,0,0,10.675-7.964c.594-.843-4.59-6.705-5.129-7.288-3.427-3.7-8.311-7.019-13.5-4.866" transform="translate(-149.662 -300.74)" fill="#ff7075"/>
            <path id="Path_113" data-name="Path 113" d="M100.45,322s-.525,7.351,2.1,10.5,20.563,5.6,37.627,4.113,35-7.963,35-7.963,3.325-11.289,2.538-20.739c0,0-22.839,14.526-42.7,17.063S100.45,322,100.45,322" transform="translate(-67.548 -207.146)" fill="#fff"/>
            <path id="Path_114" data-name="Path 114" d="M55.446,123.415a29.671,29.671,0,0,0-20.563-8.192c-16.231,0-29.389,12.837-29.389,28.671s13.157,28.672,29.389,28.672a29.639,29.639,0,0,0,21.478-9.109,32.612,32.612,0,0,1-.915-40.041M13.873,154.2c-2.911,0-5.272-3.825-5.272-8.544s2.361-8.542,5.272-8.542a3.527,3.527,0,0,1,1.793.507,2.686,2.686,0,0,0-.608,1.792,3.024,3.024,0,0,0,2.973,2.973,2.833,2.833,0,0,0,.692-.089,13.172,13.172,0,0,1,.424,3.36c0,4.719-2.361,8.544-5.273,8.544" transform="translate(-3.696 -77.515)" fill="#fff"/>
            <path id="Path_115" data-name="Path 115" d="M213.326,191.18C212,206.316,199.038,218.2,183.242,218.2a30.372,30.372,0,0,1-23.6-11.126,10.537,10.537,0,0,1-4.244-1.858,30.216,30.216,0,0,0,27.84,18.106c16.677,0,30.2-13.242,30.2-29.577q0-1.3-.114-2.563" transform="translate(-104.545 -128.614)" fill="#d1d1d1"/>
            <path id="Path_116" data-name="Path 116" d="M37.725,221.359a27.482,27.482,0,0,1-27.577-24.612c-.077.829-.118,1.666-.118,2.515,0,14.982,12.4,27.127,27.695,27.127a27.875,27.875,0,0,0,20.241-8.619,31.723,31.723,0,0,1-2.147-3,27.92,27.92,0,0,1-18.094,6.594" transform="translate(-6.748 -132.359)" fill="#d1d1d1"/>
            <path id="Path_117" data-name="Path 117" d="M177.715,307.915s-22.839,14.526-42.7,17.063S100.448,322,100.448,322s-.046.634-.044,1.607a98.451,98.451,0,0,0,26.407,3.358c21.661-.217,47.808-12.01,47.808-12.01a53.165,53.165,0,0,1-2.905,14.858c2.19-.7,3.463-1.162,3.463-1.162s3.325-11.289,2.538-20.74" transform="translate(-67.546 -207.146)" fill="#d1d1d1"/>
            <path id="Path_118" data-name="Path 118" d="M213.341,507.808c-4.663,1.862-13.83,4.892-22.759,4.233-9.207-.68-14.034-3.33-16.429-5.351a9.545,9.545,0,0,0-.882.753s3.148,6.65,18.55,7.789c12.712.939,25.9-5.6,25.9-5.6s-1.519-.751-4.382-1.822" transform="translate(-116.566 -340.87)" fill="#d1d1d1"/>
            <path id="Path_119" data-name="Path 119" d="M230.417,455.047c.2.063.41.106.619.152.019,0,.032.009.047.01,1.865.45,4.166-1,5.478-2.2a30.926,30.926,0,0,0,3.24-3.088c.042-.051.082-.1.109-.134.056-.074.11-.145.163-.218.146-.2.287-.4.425-.6.167-.246.326-.5.482-.753-4.321.084-8.166,3.107-10.669,6.8l.105.037" transform="translate(-154.94 -301.529)" fill="#ffa4a7"/>
            <path id="Path_120" data-name="Path 120" d="M268.159,453.7c.05.029.083.052.11.07s.059.015.1.028a7.2,7.2,0,0,0,6.135-1.25A20.03,20.03,0,0,0,279.1,448.5c.052-.071.106-.14.156-.213.249-.356.472-.717.682-1.084a8.678,8.678,0,0,0-5.054.515,17.793,17.793,0,0,0-7.291,5.628c.013.012.025.022.038.036.177.1.352.212.527.318" transform="translate(-180.02 -300.743)" fill="#ffa4a7"/>
            <path id="Path_121" data-name="Path 121" d="M277.787,482.207a68.876,68.876,0,0,0-27.778,1.676,66.151,66.151,0,0,1,21,7.139,26.977,26.977,0,0,0,10.676-7.964.289.289,0,0,0,.042-.155q-1.961-.4-3.941-.7" transform="translate(-168.191 -323.923)" fill="#ff5258"/>
            <path id="Path_122" data-name="Path 122" d="M145.684,105.882c-.247-.252-.5-.5-.755-.744a32.611,32.611,0,0,0,.916,40.041c.3-.31.59-.624.872-.948a10.347,10.347,0,0,0,1.74,2.395l.008.007c-.229.244-.462.481-.7.717a34.388,34.388,0,0,0,24.824,10.47c18.824,0,34.084-14.888,34.084-33.253s-15.26-33.253-34.084-33.253a31.078,31.078,0,0,0-11.429,2.209c-3.272,1.254-7.479,1.924-10.91,1.014a5.387,5.387,0,0,1-3.049-1.757c-.97-1.334-.74-3.157-.469-4.676a.046.046,0,0,0-.088-.021,8.84,8.84,0,0,0-.611,4.5,5.165,5.165,0,0,0,2.393,3.2,10.348,10.348,0,0,0,4.836,1.118l.4.009a33.953,33.953,0,0,0-6.93,5.994q.434.394.854.8a18.962,18.962,0,0,0-1.9,2.175M159.8,96.225q.631-.175,1.256-.376a10.01,10.01,0,0,0,1.4-.567,32.212,32.212,0,0,1,9.441-1.407c17.374,0,31.459,13.74,31.459,30.691s-14.085,30.693-31.459,30.693-31.458-13.742-31.458-30.693A30.7,30.7,0,0,1,159.8,96.225" transform="translate(-93.179 -59.237)" fill="#222"/>
            <path id="Path_123" data-name="Path 123" d="M31.841,160.344a32.136,32.136,0,0,0,22.746-9.332q-1.007-1.045-1.922-2.17a29.641,29.641,0,0,1-21.478,9.109c-16.232,0-29.389-12.837-29.389-28.672s13.157-28.671,29.389-28.671A29.671,29.671,0,0,1,51.75,108.8q.854-1.156,1.806-2.236a32.162,32.162,0,0,0-21.715-8.35c-5.054,0-10.514,2.158-15.486.5a10.954,10.954,0,0,1-3.384-1.792,5.358,5.358,0,0,1-1.948-3.366c-.012-.083-.133-.062-.129.019a8.22,8.22,0,0,0,2.986,5.512,9.211,9.211,0,0,0,4.829,1.889A31.043,31.043,0,0,0,0,129.279c0,17.157,14.255,31.065,31.841,31.065" transform="translate(0 -62.9)" fill="#222"/>
            <path id="Path_124" data-name="Path 124" d="M163.548,262.111l-.008-.007a10.335,10.335,0,0,1-1.74-2.395c-.282.324-.575.638-.872.948q.914,1.126,1.922,2.17c.237-.236.469-.473.7-.717" transform="translate(-108.263 -174.717)" fill="#222"/>
            <path id="Path_125" data-name="Path 125" d="M158.885,136.4a18.9,18.9,0,0,1,1.9-2.175q-.42-.411-.854-.8-.951,1.078-1.806,2.236c.256.245.509.492.755.744" transform="translate(-106.38 -89.76)" fill="#222"/>
            <path id="Path_126" data-name="Path 126" d="M24.416,187.371a3.025,3.025,0,0,1-2.973-2.973,2.689,2.689,0,0,1,.609-1.792,3.53,3.53,0,0,0-1.793-.507c-2.911,0-5.272,3.826-5.272,8.543s2.361,8.544,5.272,8.544,5.273-3.825,5.273-8.544a13.176,13.176,0,0,0-.424-3.36,2.817,2.817,0,0,1-.692.09" transform="translate(-10.082 -122.505)" fill="#222"/>
            <path id="Path_127" data-name="Path 127" d="M159.126,196.52c3.116,0,5.644-4.095,5.644-9.144a14.07,14.07,0,0,0-.455-3.6,2.959,2.959,0,0,1-.738.1,3.238,3.238,0,0,1-3.183-3.181,2.885,2.885,0,0,1,.651-1.919,3.784,3.784,0,0,0-1.919-.542c-3.117,0-5.644,4.093-5.644,9.145s2.526,9.144,5.644,9.144" transform="translate(-103.253 -119.903)" fill="#222"/>
            <path id="Path_128" data-name="Path 128" d="M46.894,37.2c12.338-1.487,33.6,3.938,33.6,3.938S65.182,23.37,54.508,22.32C49.327,21.81,41.929,37.794,46.894,37.2" transform="translate(-30.443 -15.007)" fill="#222"/>
            <path id="Path_129" data-name="Path 129" d="M203.235,30.478C215.659,30.814,235.9,39.3,235.9,39.3s-12.546-19.815-22.953-22.418c-5.048-1.263-14.707,13.465-9.711,13.6" transform="translate(-135.786 -11.303)" fill="#222"/>
            <path id="Path_130" data-name="Path 130" d="M215.218.021a7,7,0,0,0-3.508,1.423,10.488,10.488,0,0,0-1.292,1.34c-.423.464-.838.936-1.221,1.432-.794,1.029-1.467,2.152-2.165,3.245a.111.111,0,0,0,.18.129,33.353,33.353,0,0,1,2.313-2.764,12.739,12.739,0,0,1,1.21-1.152,7.223,7.223,0,0,1,1.478-.875,11.618,11.618,0,0,1,2.981-1.115,10.126,10.126,0,0,1,1.572-.208,11.116,11.116,0,0,1,1.6.156.419.419,0,0,0,.287-.751,4.955,4.955,0,0,0-3.436-.86" transform="translate(-139.266 0)" fill="#222"/>
            <path id="Path_131" data-name="Path 131" d="M84.361,294.857l3.325,4.463s-.263,8.926,1.487,11.813,17.107,6.432,17.107,6.432c11.463,20.74,4.681,31.2,4.681,31.2s-3.224,9.325,17.371,12.907c22.139,3.85,41.478-10.85,43.141-15.577,1.5-4.258,1.352-8.739,1.625-13.173.287-4.644.9-9.307,1.226-13.968.749-10.8.9-21.458,2.3-32.194,1.242.641,2.062,4.893,1.607,6.055a24.261,24.261,0,0,0,1.036-3.95c1.017-5.418,1.249-13.534-4.342-12.87a5.811,5.811,0,0,0-2.7,1.379c-15.943,12.119-35.3,23.872-55.931,24.662-20.564.788-31.94-7.175-31.94-7.175m47.647,65.149c-15.4-1.139-18.551-7.789-18.551-7.789s7.261-7.351,21.7-4.637,22.752,6.824,22.752,6.824-13.189,6.54-25.9,5.6m38.24-15.228a26.974,26.974,0,0,1-10.676,7.964c-13.739-7.788-30.014-8.137-30.014-8.137,1.782-6.626,8.873-14.5,16.711-11.7a.431.431,0,0,1,.245.168c.091.164-.047.358-.175.5a10.029,10.029,0,0,0-2.461,5.293,17.784,17.784,0,0,1,7.738-6.238c5.19-2.153,10.074,1.161,13.5,4.866.539.583,5.724,6.445,5.13,7.288m-3.325-58.365c.787,9.451-2.538,20.74-2.538,20.74s-17.938,6.475-35,7.962-35-.962-37.627-4.113-2.1-10.5-2.1-10.5,14.7,5.513,34.564,2.975,42.7-17.063,42.7-17.063" transform="translate(-56.753 -185.643)" fill="#222"/>
            <path id="Path_132" data-name="Path 132" d="M318.888,235.661c2.611-.847,4.506-3.044,6.478-4.954a15.059,15.059,0,0,1,7.675-4.136c3.148-.523,6.033,1.551,8.9,2.464a.314.314,0,0,0,.353-.487,9.309,9.309,0,0,0-1.419-1.491,17.747,17.747,0,0,0-1.6-1.371c-2.247-1.636-5.559-2.147-6.737-4.894-.936-2.183-.555-4.829-.951-7.064-.053-.307-.561-.321-.567.014a14.389,14.389,0,0,1-.327,2.573,21.724,21.724,0,0,1-.778,2.5,41.438,41.438,0,0,1-1.875,4.974,32.027,32.027,0,0,1-2.562,4.373,30.172,30.172,0,0,1-6.583,7.5" transform="translate(-214.528 -143.626)" fill="#222"/>
            <path id="Path_133" data-name="Path 133" d="M225.5,563.023a8.744,8.744,0,0,0,1.62-1.217.282.282,0,0,0-.269-.439,16.566,16.566,0,0,1-2.133.558c-.374.053-.755.042-1.131.093-.335.047-.667.068-1,.083-1.475.057-2.892.087-4.375.019-1.551-.07-3.1-.191-4.639-.343a12.189,12.189,0,0,1-4.671-1.294c-.1-.055-.2.08-.106.149a23.531,23.531,0,0,0,3.329,2.019,20.679,20.679,0,0,0,3.732,1.309,13.818,13.818,0,0,0,7.773-.024,7.845,7.845,0,0,0,1.874-.912" transform="translate(-140.434 -377.05)" fill="#222"/>
            <path id="Path_134" data-name="Path 134" d="M289.274,549.637c-.006,0-.007.008,0,.008s.007-.008,0-.008" transform="translate(-194.603 -369.762)" fill="#222"/>
            <path id="Path_135" data-name="Path 135" d="M352.27,481.217a.229.229,0,0,0-.451.01c-.218,2.032-1.3,3.811-1.941,5.723a14.492,14.492,0,0,1-1.183,2.719,9.3,9.3,0,0,1-2,2.41.117.117,0,0,0,.146.181,16.637,16.637,0,0,0,4.643-4.526c1.25-1.978,1.085-4.3.784-6.518" transform="translate(-233.207 -323.608)" fill="#222"/>
            <g id="Group_80" data-name="Group 80" transform="translate(54.093 56.303)" opacity="0.43">
              <g id="Group_79" data-name="Group 79">
                <g id="Group_78" data-name="Group 78" clip-path="url(#clip-path-3)">
                  <path id="Path_136" data-name="Path 136" d="M175.332,174.109a5.509,5.509,0,0,0-3.807-2.066,6.121,6.121,0,0,0-4.154,1.23,5.758,5.758,0,0,0-2.066,3.807,5.7,5.7,0,0,0,1.23,4.154,5.509,5.509,0,0,0,3.807,2.068,6.12,6.12,0,0,0,4.154-1.231,5.755,5.755,0,0,0,2.066-3.807,5.7,5.7,0,0,0-1.23-4.154" transform="translate(-165.29 -172.043)" fill="#fff"/>
                </g>
              </g>
            </g>
            <g id="Group_83" data-name="Group 83" transform="translate(8.69 56.681)" opacity="0.43">
              <g id="Group_82" data-name="Group 82">
                <g id="Group_81" data-name="Group 81" clip-path="url(#clip-path-4)">
                  <path id="Path_137" data-name="Path 137" d="M36.368,175.218a5.387,5.387,0,0,0-3.722-2.02,5.978,5.978,0,0,0-4.06,1.2,5.625,5.625,0,0,0-2.02,3.72,5.564,5.564,0,0,0,1.2,4.06,5.384,5.384,0,0,0,3.721,2.021,5.976,5.976,0,0,0,4.06-1.2,5.629,5.629,0,0,0,2.02-3.72,5.569,5.569,0,0,0-1.2-4.061" transform="translate(-26.553 -173.198)" fill="#fff"/>
                </g>
              </g>
            </g>
          </g>
        </g>
      </g>
    </g>
  </g>
</svg>
