<svg xmlns="http://www.w3.org/2000/svg" xmlns:xlink="http://www.w3.org/1999/xlink" width="419.119" height="502.194" viewBox="0 0 419.119 502.194">
  <defs>
    <linearGradient id="linear-gradient" x1="0.5" y1="0.133" x2="0.89" y2="0.5" gradientUnits="objectBoundingBox">
      <stop offset="0" stop-color="#c4d143"/>
      <stop offset="1" stop-color="#7c8a1a"/>
    </linearGradient>
    <linearGradient id="linear-gradient-2" x1="1.148" y1="0.346" x2="0.5" y2="0.135" gradientUnits="objectBoundingBox">
      <stop offset="0" stop-color="#7c8a1a" stop-opacity="0"/>
      <stop offset="0.315" stop-color="#768319" stop-opacity="0.314"/>
      <stop offset="0.781" stop-color="#646f15" stop-opacity="0.78"/>
      <stop offset="1" stop-color="#5a6313"/>
    </linearGradient>
    <linearGradient id="linear-gradient-3" x1="0.423" y1="0.116" x2="0.658" y2="0.705" xlink:href="#linear-gradient"/>
    <linearGradient id="linear-gradient-4" x1="1" y1="1" x2="0.395" y2="0.356" xlink:href="#linear-gradient-2"/>
    <linearGradient id="linear-gradient-5" x1="0.246" y1="0.5" x2="0.5" y2="0.748" xlink:href="#linear-gradient"/>
    <linearGradient id="linear-gradient-6" x1="0.886" y1="0.362" x2="0.613" y2="0.084" xlink:href="#linear-gradient-2"/>
    <linearGradient id="linear-gradient-7" x1="0.586" y1="0.529" x2="0.427" y2="0.699" gradientUnits="objectBoundingBox">
      <stop offset="0" stop-color="#5a6313" stop-opacity="0"/>
      <stop offset="1" stop-color="#544f43"/>
    </linearGradient>
    <linearGradient id="linear-gradient-8" x1="0.337" y1="0.293" x2="0.642" y2="0.731" gradientUnits="objectBoundingBox">
      <stop offset="0" stop-color="#dd3b32"/>
      <stop offset="0.279" stop-color="#ff4f46"/>
      <stop offset="0.775" stop-color="#ff5b52"/>
      <stop offset="1" stop-color="#dd3b32"/>
    </linearGradient>
    <linearGradient id="linear-gradient-9" x1="-0.051" x2="1" y2="1" gradientUnits="objectBoundingBox">
      <stop offset="0" stop-color="#d30e03" stop-opacity="0"/>
      <stop offset="0.513" stop-color="#d5362e"/>
      <stop offset="1" stop-color="#c9251c"/>
    </linearGradient>
    <clipPath id="clip-path">
      <rect id="Rectangle_38" data-name="Rectangle 38" width="141.653" height="135.537" fill="none"/>
    </clipPath>
    <clipPath id="clip-path-3">
      <rect id="Rectangle_35" data-name="Rectangle 35" width="12.404" height="12.557" fill="none"/>
    </clipPath>
    <clipPath id="clip-path-4">
      <rect id="Rectangle_36" data-name="Rectangle 36" width="12.553" height="12.474" fill="none"/>
    </clipPath>
  </defs>
  <g id="Group_252" data-name="Group 252" transform="translate(-324.233 -1283.282)">
    <g id="Group_135" data-name="Group 135" transform="translate(331.625 1324.61)">
      <g id="Group_3" data-name="Group 3" transform="translate(92.802 18.709) rotate(-45)">
        <g id="Group_1" data-name="Group 1" transform="translate(0 0)">
          <path id="Path_1" data-name="Path 1" d="M24.367,41.36C11.892,68.752-2.74,120.169.441,145.641a2.885,2.885,0,0,0,4.71,2.132C26.48,133.4,55.75,88.6,68.225,61.212s6.148-32.978,2.967-58.451A2.885,2.885,0,0,0,66.482.629C45.153,15.008,36.842,13.967,24.367,41.36Z" fill="url(#linear-gradient)"/>
          <path id="Path_2" data-name="Path 2" d="M3.02,147.538C24.35,133.16,53.62,88.369,66.094,60.977S72.242,28,69.061,2.526A3.06,3.06,0,0,0,67.371,0L0,147.931a3.075,3.075,0,0,0,3.02-.393Z" transform="translate(2.131 0.235)" fill="url(#linear-gradient-2)"/>
        </g>
        <g id="Group_2" data-name="Group 2" transform="translate(6.22 79.045)">
          <path id="Path_3" data-name="Path 3" d="M87.1,7.471C59.709,19.959,14.933,49.165.622,70.475a2.885,2.885,0,0,0,2.156,4.7c25.53,3.143,77.007-11.458,104.393-23.946s26.276-20.855,40.588-42.166a2.885,2.885,0,0,0-2.156-4.7C120.071,1.222,114.482-5.017,87.1,7.471Z" fill="url(#linear-gradient-3)"/>
          <path id="Path_4" data-name="Path 4" d="M2.537,69.126C28.067,72.269,79.544,57.668,106.93,45.18s26.276-20.855,40.587-42.166A3.059,3.059,0,0,0,147.9,0L0,67.442A3.078,3.078,0,0,0,2.537,69.126Z" transform="translate(0.24 6.048)" fill="url(#linear-gradient-4)"/>
        </g>
      </g>
      <g id="Group_4" data-name="Group 4" transform="translate(119.755 40.968) rotate(-45)">
        <path id="Path_5" data-name="Path 5" d="M58.923,23.583C37.673,44.9,6.017,87.978.108,112.958a2.885,2.885,0,0,0,3.67,3.641C28.784,110.57,71.846,78.81,93.1,57.494s17.271-28.759,23.18-53.74a2.885,2.885,0,0,0-3.67-3.641C87.6,6.143,80.174,2.267,58.923,23.583Z" fill="url(#linear-gradient-5)"/>
        <path id="Path_6" data-name="Path 6" d="M2.968,115.8C27.973,109.772,71.035,78.012,92.286,56.7s17.271-28.759,23.18-53.74a3.062,3.062,0,0,0-.7-2.956L0,115.117A3.078,3.078,0,0,0,2.968,115.8Z" transform="translate(0.81 0.798)" fill="url(#linear-gradient-6)"/>
      </g>
      <path id="Path_7" data-name="Path 7" d="M11.012,0C3.68,24.476-1.6,51.438.441,67.756a2.862,2.862,0,0,0,2.907,2.753,2.762,2.762,0,0,0,2.875,3.114A2.893,2.893,0,0,0,9,76.333c16.34,2.012,43.3-3.248,67.781-10.568Z" transform="translate(147.876 73.781) rotate(-45)" fill="url(#linear-gradient-7)"/>
      <path id="Path_15" data-name="Path 15" d="M250.2,169.419C179.528,240.089,41.957,322.477,7.921,288.441S56.272,116.834,126.943,46.164s102.863-47.679,136.9-13.643,57.028,66.227-13.643,136.9Z" transform="translate(-7.393 251.307) rotate(-45)" fill="url(#linear-gradient-8)"/>
      <path id="Path_9" data-name="Path 9" d="M2.839.5A89.857,89.857,0,0,1,15.266,6.188c2.466,1.34,5.045,2.91,7.7,4.659,2.63,1.786,5.373,3.722,8.028,5.912a104.555,104.555,0,0,1,7.917,7.063c2.56,2.544,5.03,5.249,7.355,8.076q1.737,2.125,3.343,4.346c1.119,1.44,2.088,2.985,3.078,4.492,1.023,1.484,1.893,3.06,2.774,4.6.906,1.519,1.668,3.111,2.441,4.655a81.851,81.851,0,0,1,3.814,9.262c.548,1.5.952,3.026,1.371,4.48s.759,2.888,1.037,4.288a74.9,74.9,0,0,1,1.216,7.709c.2,2.348.282,4.421.324,6.126-.023,1.73-1.652,2.414-2.234.973l-2.36-5.064c-.992-1.909-1.986-4.112-3.277-6.4-.612-1.162-1.228-2.382-1.969-3.586C55.1,66.561,54.463,65.249,53.634,64,52.1,61.419,50.4,58.761,48.6,56.044c-.962-1.321-1.8-2.75-2.816-4.093s-1.945-2.76-2.989-4.121c-1.017-1.379-2.071-2.746-3.137-4.114-1.042-1.386-2.142-2.738-3.261-4.074-2.158-2.735-4.483-5.341-6.716-7.953l-3.416-3.8L22.871,24.22c-4.48-4.789-8.786-9.168-12.529-12.892L1.4,2.5C-.913.219-.307-.636,2.839.5Z" transform="translate(185.553 198.524) rotate(-45)" fill="url(#linear-gradient-9)"/>
      <path id="Path_10" data-name="Path 10" d="M2.561.08A86.918,86.918,0,0,1,15.109,2.565c2.544.682,5.246,1.543,8.067,2.548,2.8,1.043,5.746,2.2,8.678,3.593,2.962,1.357,5.929,2.928,8.874,4.639,2.936,1.731,5.834,3.624,8.635,5.656q2.1,1.53,4.1,3.172c1.369,1.048,2.63,2.221,3.9,3.356,1.295,1.107,2.478,2.329,3.66,3.514,1.2,1.163,2.291,2.422,3.379,3.634a81.206,81.206,0,0,1,5.8,7.45c.876,1.218,1.633,2.5,2.384,3.7s1.427,2.414,2.038,3.6a72.263,72.263,0,0,1,3.089,6.616c.79,2.052,1.4,3.882,1.885,5.393.431,1.548-.839,2.5-1.732,1.337l-3.417-4.021c-1.379-1.494-2.836-3.25-4.58-5.02-.846-.908-1.711-1.866-2.684-2.784s-1.87-1.966-2.933-2.909c-2.03-1.977-4.236-3.989-6.546-6.033-1.2-.976-2.319-2.073-3.568-3.058S51.69,34.9,50.409,33.908c-1.263-1.015-2.555-2.014-3.86-3.01-1.287-1.017-2.616-1.991-3.959-2.949-2.63-1.987-5.376-3.823-8.041-5.683L30.52,19.592l-3.97-2.559c-5.23-3.332-10.2-6.335-14.5-8.873l-10.257-6C-.86.607-.539-.28,2.561.08Z" transform="translate(118.801 247.532) rotate(-45)" fill="url(#linear-gradient-9)"/>
      <path id="Path_11" data-name="Path 11" d="M2.561.08A86.916,86.916,0,0,1,15.109,2.565c2.544.682,5.246,1.543,8.067,2.548,2.8,1.043,5.747,2.2,8.678,3.593,2.962,1.357,5.929,2.928,8.874,4.639,2.937,1.731,5.834,3.624,8.635,5.656q2.1,1.53,4.1,3.172c1.369,1.048,2.631,2.221,3.9,3.356,1.295,1.106,2.478,2.329,3.66,3.513,1.2,1.163,2.291,2.422,3.379,3.634a81.217,81.217,0,0,1,5.8,7.45c.876,1.218,1.633,2.5,2.384,3.7s1.427,2.414,2.037,3.6a72.257,72.257,0,0,1,3.089,6.616c.79,2.052,1.4,3.882,1.885,5.393.431,1.548-.839,2.5-1.732,1.337l-3.417-4.021c-1.379-1.494-2.837-3.25-4.58-5.02-.847-.908-1.711-1.866-2.684-2.784s-1.87-1.966-2.932-2.909c-2.03-1.977-4.236-3.989-6.546-6.033-1.2-.976-2.319-2.073-3.568-3.058S51.69,34.9,50.408,33.907c-1.263-1.015-2.556-2.014-3.86-3.01-1.287-1.017-2.617-1.991-3.96-2.949-2.63-1.987-5.376-3.823-8.041-5.684L30.52,19.59l-3.97-2.559c-5.23-3.332-10.2-6.335-14.5-8.873l-10.257-6C-.86.607-.54-.28,2.561.08Z" transform="translate(119.244 148.173) rotate(-45)" fill="url(#linear-gradient-9)"/>
      <path id="Path_12" data-name="Path 12" d="M2.4.5a84.724,84.724,0,0,1,10.8,5.29c2.154,1.232,4.415,2.663,6.754,4.252,2.317,1.618,4.736,3.369,7.1,5.336,2.4,1.938,4.756,4.069,7.068,6.32,2.3,2.267,4.535,4.669,6.656,7.173q1.585,1.882,3.066,3.842c1.025,1.273,1.931,2.631,2.852,3.959.947,1.308,1.773,2.692,2.6,4.041.852,1.335,1.587,2.73,2.329,4.083a80.527,80.527,0,0,1,3.763,8.1c.551,1.307.983,2.637,1.424,3.905s.814,2.515,1.132,3.732c.7,2.395,1.111,4.689,1.494,6.7.313,2.036.509,3.831.65,5.308.088,1.5-1.236,2.047-1.813.785l-2.291-4.444c-.949-1.678-1.919-3.609-3.142-5.624-.584-1.022-1.176-2.092-1.871-3.153s-1.3-2.221-2.071-3.326c-1.44-2.27-3.031-4.612-4.71-7.008-.887-1.168-1.681-2.425-2.612-3.613s-1.8-2.438-2.759-3.642c-.938-1.219-1.9-2.429-2.884-3.641-.959-1.226-1.964-2.424-2.985-3.61-1.977-2.422-4.087-4.739-6.121-7.057l-3.1-3.381-3.07-3.263c-4.053-4.264-7.937-8.169-11.308-11.494L1.3,2.177C-.783.138-.321-.58,2.4.5Z" transform="translate(185.553 281.513) rotate(-45)" fill="url(#linear-gradient-9)"/>
      <path id="Path_13" data-name="Path 13" d="M2.219.138A82.571,82.571,0,0,1,13.232,2.878c2.237.706,4.619,1.571,7.106,2.564,2.474,1.024,5.073,2.147,7.669,3.477,2.621,1.3,5.254,2.774,7.873,4.369,2.612,1.611,5.2,3.358,7.7,5.216q1.874,1.4,3.673,2.888c1.226.955,2.364,2.01,3.509,3.035,1.164,1,2.235,2.094,3.3,3.156,1.084,1.045,2.077,2.165,3.066,3.245a79.944,79.944,0,0,1,5.308,6.6c.806,1.076,1.511,2.2,2.208,3.258s1.33,2.118,1.9,3.157c1.2,2.032,2.113,4.028,2.934,5.769.765,1.782,1.367,3.368,1.844,4.676.434,1.337-.63,2.088-1.45,1.055l-3.12-3.583c-1.254-1.337-2.586-2.9-4.167-4.487-.769-.813-1.557-1.668-2.435-2.5s-1.7-1.76-2.656-2.612c-1.837-1.778-3.826-3.592-5.909-5.44-1.077-.887-2.091-1.873-3.212-2.769s-2.2-1.861-3.351-2.767c-1.135-.924-2.293-1.834-3.463-2.743-1.155-.925-2.346-1.818-3.547-2.7-2.357-1.815-4.81-3.507-7.194-5.216l-3.6-2.468L23.69,15.7c-4.668-3.085-9.1-5.878-12.931-8.244l-9.141-5.6C-.747.41-.5-.325,2.219.138Z" transform="translate(133.534 332.931) rotate(-45)" fill="url(#linear-gradient-9)"/>
      <path id="Path_14" data-name="Path 14" d="M2.083.333a80.845,80.845,0,0,1,9.985,3.976c2.015.944,4.148,2.055,6.37,3.3,2.207,1.269,4.518,2.646,6.811,4.211,2.318,1.539,4.631,3.246,6.92,5.06s4.525,3.775,6.686,5.816q1.616,1.535,3.155,3.143C43.063,26.877,44.026,28,45,29.093c.993,1.075,1.89,2.224,2.79,3.342s1.738,2.267,2.562,3.394a79.371,79.371,0,0,1,4.352,6.78c.655,1.1,1.212,2.224,1.767,3.294s1.051,2.128,1.494,3.162c.934,2.031,1.613,3.993,2.224,5.708.556,1.745.979,3.288,1.309,4.559.288,1.292-.762,1.847-1.434.787L57.479,56.4c-1.048-1.4-2.148-3.014-3.478-4.686-.643-.85-1.3-1.743-2.043-2.621s-1.422-1.846-2.237-2.757c-1.55-1.88-3.238-3.815-5.009-5.792-.922-.959-1.777-2-2.739-2.975s-1.88-2-2.868-2.991c-.972-1-1.968-1.992-2.975-2.983s-2.018-1.984-3.056-2.951c-2.029-1.982-4.158-3.864-6.221-5.753L23.73,20.148,20.648,17.5c-4.063-3.457-7.931-6.614-11.281-9.3l-8-6.365C-.7.192-.4-.452,2.083.333Z" transform="translate(173.838 369.633) rotate(-45)" fill="url(#linear-gradient-9)"/>
    </g>
    <g id="Group_148" data-name="Group 148" transform="translate(453.998 1460.873)">
      <g id="Group_147" data-name="Group 147" clip-path="url(#clip-path)">
        <g id="Group_146" data-name="Group 146">
          <g id="Group_145" data-name="Group 145" clip-path="url(#clip-path)">
            <path id="Path_226" data-name="Path 226" d="M75.835,94.741a65.133,65.133,0,0,1-10.981,2.084,20.262,20.262,0,0,1,.816,5.748,19.767,19.767,0,0,1-1.351,7.293c-3.429.274-6.573,3.331-6.414,6.892,0,.081.01.162.015.243a7.911,7.911,0,0,1-2.995.595c-5.933,0-10.744-6.725-10.744-15.023,0-.49.141-4.249.488-4.2-6.083-.827-11.872-3.032-17.56-5.223a58.364,58.364,0,0,0-.423,7c0,22.206,12.388,40.207,27.668,40.207s27.668-18,27.668-40.207a58.216,58.216,0,0,0-.463-7.357,57.742,57.742,0,0,1-5.725,1.947" transform="translate(-18.672 -64.925)" fill="#fff"/>
            <path id="Path_227" data-name="Path 227" d="M286.534,100.66a58.808,58.808,0,0,0-.346-6.369A43.364,43.364,0,0,1,280.43,95.9a77.922,77.922,0,0,1-9.832,1.5c-.608.058-1.216.108-1.828.156a20.286,20.286,0,0,1,.648,5.14,19.653,19.653,0,0,1-1.562,7.81,6.683,6.683,0,0,0-5.863,4.248,5.188,5.188,0,0,0-.6,2.48,7.878,7.878,0,0,1-2.719.485c-5.936,0-10.745-6.724-10.745-15.023a20.216,20.216,0,0,1,.866-5.908A108.526,108.526,0,0,1,231.7,92.978a57.966,57.966,0,0,0-.507,7.682c0,10.763,2.869,22.16,9.753,30.642,4.178,5.149,11.11,9.93,17.909,9.5,6.465-.408,14.98-5.395,18.981-10.487a39.184,39.184,0,0,0,4.449-8.242,53.9,53.9,0,0,0,4.244-21.413" transform="translate(-161.76 -65.053)" fill="#fff"/>
            <path id="Path_228" data-name="Path 228" d="M223.677,304.682a32.625,32.625,0,0,1-12.741,7.417c11.221,11.79,29.856,14.832,38.412,14.832s14.454-7.8,14.454-7.8l-.761-14.071c-6.467,4.943-16.164,3.232-16.164,3.232a31.84,31.84,0,0,0,16.355-6.463c0-8.179,6.274-23.011,6.274-23.011-18.446-3.993-39.743,20.157-45.828,25.861" transform="translate(-147.584 -194.771)" fill="#fff"/>
            <path id="Path_229" data-name="Path 229" d="M57.284,148.988c-14.074,0-25.574-16-26.367-36.161-.027.73-.044,1.462-.044,2.2,0,21.2,11.825,38.382,26.411,38.382S83.7,136.221,83.7,115.025c0-.739-.018-1.474-.044-2.2-.79,20.164-12.294,36.164-26.367,36.164" transform="translate(-21.601 -78.939)" fill="#d1d1d1"/>
            <path id="Path_230" data-name="Path 230" d="M284.8,133.057a36.735,36.735,0,0,1-4.176,7.737c-3.757,4.781-11.748,9.459-17.818,9.842-6.38.405-12.888-4.083-16.812-8.918-6-7.391-8.748-17.135-9.111-26.575-.027.713-.044,1.433-.044,2.159,0,10.1,2.693,20.8,9.155,28.762,3.924,4.832,10.431,9.32,16.812,8.918,6.07-.384,14.061-5.063,17.818-9.845A36.622,36.622,0,0,0,284.8,137.4a50.569,50.569,0,0,0,3.984-20.1q0-1.106-.044-2.2a49.851,49.851,0,0,1-3.939,17.951" transform="translate(-165.71 -80.535)" fill="#d1d1d1"/>
            <path id="Path_231" data-name="Path 231" d="M154.584,102.692a50.388,50.388,0,0,0,16.339-3.782,57.819,57.819,0,0,0-.448-6.116,57.741,57.741,0,0,1-5.725,1.947,65.166,65.166,0,0,1-10.981,2.085,20.269,20.269,0,0,1,.815,5.748Z" transform="translate(-107.587 -64.925)" fill="#d1d1d1"/>
            <path id="Path_232" data-name="Path 232" d="M38.232,101.319c1.994.358,4.016.7,6.06,1.009.063-1.273.2-3.165.451-3.131-6.083-.827-11.872-3.032-17.56-5.223q-.3,2.5-.391,5.109c3.808.772,7.614,1.546,11.441,2.236" transform="translate(-18.745 -65.75)" fill="#d1d1d1"/>
            <path id="Path_233" data-name="Path 233" d="M245.955,100.559c.77.127,1.547.239,2.326.347a19.832,19.832,0,0,1,.785-4.11,108.572,108.572,0,0,1-17.094-3.816q-.264,1.981-.391,4.025a88.721,88.721,0,0,0,14.375,3.555" transform="translate(-162.028 -65.054)" fill="#d1d1d1"/>
            <path id="Path_234" data-name="Path 234" d="M363.764,103.992a97.211,97.211,0,0,0,10.277-1.924q-.067-2.4-.323-4.716a43.408,43.408,0,0,1-5.758,1.611,77.979,77.979,0,0,1-9.832,1.5c-.608.058-1.216.108-1.828.156a20.257,20.257,0,0,1,.62,4.049c2.294-.156,4.581-.381,6.844-.681" transform="translate(-249.291 -68.114)" fill="#d1d1d1"/>
            <path id="Path_235" data-name="Path 235" d="M239.773,307.818c13.241-6.2,23.934-19.367,39.385-19.95-1.42,11.588-.249,16.7-.805,16.982a25.115,25.115,0,0,0,4.752-3.019c0-8.179,6.274-23.011,6.274-23.011-18.446-3.993-39.743,20.157-45.828,25.861a32.446,32.446,0,0,1-4.21,3.333c.147-.064.29-.128.432-.2" transform="translate(-167.458 -194.771)" fill="#d1d1d1"/>
            <path id="Path_236" data-name="Path 236" d="M369.224,369.6a133.457,133.457,0,0,0,.994,15.83,23.3,23.3,0,0,0,4.332-4.133l-.761-14.071a15.751,15.751,0,0,1-4.566,2.373" transform="translate(-258.333 -256.939)" fill="#d1d1d1"/>
            <path id="Path_237" data-name="Path 237" d="M265.458,404.482c-7.823,2.78-16.293,2.955-24.459,1.975a56.8,56.8,0,0,1-7.147-1.256c-1.876-.472-3.7-1.123-5.539-1.735a47.777,47.777,0,0,1-6-2.3c11.285,9.189,27.258,11.676,35,11.676,8.557,0,14.454-7.8,14.454-7.8l-.184-3.386a36.483,36.483,0,0,1-6.121,2.826" transform="translate(-155.544 -280.678)" fill="#d1d1d1"/>
            <path id="Path_238" data-name="Path 238" d="M132.908,109.211a16.772,16.772,0,0,0-8.976-5.569,11.767,11.767,0,0,0-6.358.261c6.772-8.389,11.068-20.874,11.068-34.818a21.074,21.074,0,0,1,.156-4.1,1.112,1.112,0,0,1,.3-.659.8.8,0,0,1,1.071.216,2.217,2.217,0,0,1,.355,1.145,49.219,49.219,0,0,1-.286,13.379c1.059-6.653,6.952-22.48-1.831-26.54,1.033,6.872-6.471,9.484-11.627,10.847a71.918,71.918,0,0,1-8.516,1.767c-1.28.181-2.576.361-3.876.526a92.9,92.9,0,0,1-13.457-.354,107.607,107.607,0,0,1-18.992-3.351c-4.82-1.374-5.1-5.427-5.363-9.949-.016-.262-.443-.251-.459.012-.354,6.058-2.721,9.576-8.658,11.5-4.544,1.471-9.4,1.6-14.126,1.885a70.824,70.824,0,0,1-25.98-3.125c-4.388-1.423-12.283-2.063-11.7-8.417a6.049,6.049,0,0,1,2.676-4.451c-2.557,1.155-5.284,2.456-6.654,4.9A10.449,10.449,0,0,0,.7,57.024,23.539,23.539,0,0,0,.964,68.7,19.834,19.834,0,0,1,1.9,64.414c.383-1.13,1.268-2.446,2.426-2.152a53.07,53.07,0,0,1-.05,6.442c0,25.259,14.091,45.733,31.471,45.733,14.965,0,27.489-15.177,30.683-35.518-.628,4,2.4,10.533,3.942,14.159A44.908,44.908,0,0,0,77.46,104.74c5.487,6.4,12.886,10.846,21.377,9.143a34.8,34.8,0,0,0-5.4,6.333,34.878,34.878,0,0,0,5.267-4.3,38.82,38.82,0,0,1,21.9-9.467c6.683-.571,13.706,5.592,14.852,12.178-.083-.478-.144-.939-.191-1.383-.321-3-.058-5.275-2.358-8.036m-97.161.8c-15.281,0-27.668-18-27.668-40.207a58.356,58.356,0,0,1,.423-7c5.688,2.191,11.477,4.4,17.56,5.223-.347-.047-.488,3.713-.488,4.2,0,8.3,4.811,15.023,10.744,15.023a7.911,7.911,0,0,0,2.995-.595c-.006-.082-.011-.162-.015-.244-.16-3.561,2.985-6.618,6.414-6.892a19.762,19.762,0,0,0,1.351-7.293,20.27,20.27,0,0,0-.815-5.748,65.167,65.167,0,0,0,10.981-2.085,57.742,57.742,0,0,0,5.725-1.947,58.159,58.159,0,0,1,.464,7.357c0,22.207-12.388,40.207-27.668,40.207m61.416.315c-6.8.43-13.731-4.351-17.909-9.5C72.37,92.339,69.5,80.943,69.5,70.179a57.966,57.966,0,0,1,.507-7.682A108.589,108.589,0,0,0,87.1,66.314a20.206,20.206,0,0,0-.867,5.908c0,8.3,4.81,15.023,10.745,15.023a7.885,7.885,0,0,0,2.719-.485,7.813,7.813,0,0,1,2.026-4.705,8.036,8.036,0,0,1,4.435-2.022,19.652,19.652,0,0,0,1.562-7.81,20.29,20.29,0,0,0-.648-5.14c.611-.048,1.22-.1,1.828-.156a77.976,77.976,0,0,0,9.832-1.5,43.364,43.364,0,0,0,5.758-1.611,58.8,58.8,0,0,1,.346,6.369,53.9,53.9,0,0,1-4.244,21.413,39.185,39.185,0,0,1-4.449,8.242c-4,5.092-12.517,10.078-18.981,10.487" transform="translate(-0.064 -34.572)" fill="#222"/>
            <path id="Path_239" data-name="Path 239" d="M287.346,5.329a19.354,19.354,0,0,1,5.964-.723A7.609,7.609,0,0,1,298.63,7.09C296.21,4.165,295.113.84,290.691.147c-4.453-.7-10.306,1.275-14.8,1.877-11.048,1.477-23.313,4.032-33.919-.23a6.433,6.433,0,0,0-.132.707c-.635,4.66,3.623,8,7.878,8.838,13.1,2.592,25.275-3.047,37.63-6.01" transform="translate(-169.162 0)" fill="#222"/>
            <path id="Path_240" data-name="Path 240" d="M66.6,25c8.5-.229,14.263-9.7,14.263-9.7-12.361,7.226-61.8-3.8-59.143-1.9S45.386,25.572,66.6,25" transform="translate(-15.123 -9.22)" fill="#222"/>
            <path id="Path_241" data-name="Path 241" d="M169.317,264.991c-25.293,3.235-41.266,37.272-60.661,34.989a65.137,65.137,0,0,1-31.948-12.931c14.262,15.784,36.13,16.545,36.13,16.545s12.93,14.643,40.885,16.163,40.884-58,15.593-54.765m0,27.386a31.838,31.838,0,0,1-16.355,6.464s9.7,1.711,16.164-3.232l.761,14.071s-5.9,7.8-14.454,7.8-27.192-3.042-38.412-14.832a32.628,32.628,0,0,0,12.741-7.417c6.085-5.7,27.382-29.853,45.828-25.861,0,0-6.274,14.832-6.274,23.011" transform="translate(-53.67 -185.316)" fill="#222"/>
            <path id="Path_242" data-name="Path 242" d="M451.692,235.152c-1.05-3.51-4.888-5.178-7.782-6.872-.2-.121-.444.2-.248.344,5.45,3.958,7.032,11.118,5.942,17.482.617-3.591,3.154-6.573,2.2-10.536-.034-.138-.072-.278-.113-.418" transform="translate(-310.363 -159.701)" fill="#222"/>
            <path id="Path_243" data-name="Path 243" d="M383.742,419.444c-.026-.34-.426-.409-.663-.256a14.438,14.438,0,0,0-2.342,2.464c-.8.87-1.631,1.733-2.389,2.64a12.409,12.409,0,0,1-6.2,4.054c-.261.071-.207.487.064.421a25.638,25.638,0,0,0,7.392-2.928c1.951-1.184,4.33-3.939,4.14-6.394" transform="translate(-260.258 -293.237)" fill="#222"/>
            <path id="Path_244" data-name="Path 244" d="M4.719,148.372C3.045,142.165,1.06,136.3,1.06,129.728c0-.235-.352-.283-.372-.039-.177,2.173-.568,4.427-.672,6.576-.22,4.449,1.974,8.679,4.388,12.247.1.143.362.029.316-.14" transform="translate(0 -90.626)" fill="#222"/>
            <g id="Group_141" data-name="Group 141" transform="translate(35.831 42.258)" opacity="0.43">
              <g id="Group_140" data-name="Group 140">
                <g id="Group_139" data-name="Group 139" clip-path="url(#clip-path-3)">
                  <path id="Path_245" data-name="Path 245" d="M131.615,146.031c0-.045,0-.087,0-.133a4.568,4.568,0,0,0-.868-2.224,3.055,3.055,0,0,0-1.023-1.265,4.53,4.53,0,0,0-2-1.312c-.508-.121-1.014-.242-1.524-.362a6.111,6.111,0,0,0-3.09.475,4.835,4.835,0,0,0-1.471.9c-.082.073-1.09,1.136-1.152,1.223a5.054,5.054,0,0,0-.386.716c-.132.239-.26.478-.385.721a6.4,6.4,0,0,0-.341,3.185,5.889,5.889,0,0,0,.469,1.628,6.19,6.19,0,0,0,5.029,3.679l1.584-.034a6.173,6.173,0,0,0,2.96-1.31,6.9,6.9,0,0,0,2.261-4.164,6.264,6.264,0,0,0-.06-1.719" transform="translate(-119.304 -140.701)" fill="#fff"/>
                </g>
              </g>
            </g>
            <g id="Group_144" data-name="Group 144" transform="translate(96.925 43.027)" opacity="0.43">
              <g id="Group_143" data-name="Group 143">
                <g id="Group_142" data-name="Group 142" clip-path="url(#clip-path-4)">
                  <path id="Path_246" data-name="Path 246" d="M335.245,149.289a4.645,4.645,0,0,0-.461-2.325c-.286-.474-.574-.942-.86-1.414a6.147,6.147,0,0,0-2.616-1.889l-1.536-.363a6.167,6.167,0,0,0-3.116.48l-.182.108-.084.051-1.409.857a15.122,15.122,0,0,0-1.152,1.224c-.25.47-.5.936-.751,1.4-.122.51-.241,1.018-.36,1.526.012.522.023,1.047.035,1.569a4.562,4.562,0,0,0,.87,2.23,3.091,3.091,0,0,0,1.025,1.265,6.01,6.01,0,0,0,2.763,1.5,4.625,4.625,0,0,0,2.332.144,5.867,5.867,0,0,0,1.852-.563,5.949,5.949,0,0,0,3.648-5.8" transform="translate(-322.719 -143.264)" fill="#fff"/>
                </g>
              </g>
            </g>
          </g>
        </g>
      </g>
    </g>
  </g>
</svg>
