<svg xmlns="http://www.w3.org/2000/svg" xmlns:xlink="http://www.w3.org/1999/xlink" width="1920" height="540" viewBox="0 0 1920 540">
  <defs>
    <filter id="Ellipse_6" x="744.082" y="2.082" width="416.12" height="416.12" filterUnits="userSpaceOnUse">
      <feOffset dy="10" input="SourceAlpha"/>
      <feGaussianBlur stdDeviation="25" result="blur"/>
      <feFlood flood-opacity="0.161"/>
      <feComposite operator="in" in2="blur"/>
      <feComposite in="SourceGraphic"/>
    </filter>
    <linearGradient id="linear-gradient" x1="0.5" y1="0.133" x2="0.89" y2="0.5" gradientUnits="objectBoundingBox">
      <stop offset="0" stop-color="#c4d143"/>
      <stop offset="1" stop-color="#7c8a1a"/>
    </linearGradient>
    <linearGradient id="linear-gradient-2" x1="1.148" y1="0.346" x2="0.5" y2="0.135" gradientUnits="objectBoundingBox">
      <stop offset="0" stop-color="#7c8a1a" stop-opacity="0"/>
      <stop offset="0.315" stop-color="#768319" stop-opacity="0.314"/>
      <stop offset="0.781" stop-color="#646f15" stop-opacity="0.78"/>
      <stop offset="1" stop-color="#5a6313"/>
    </linearGradient>
    <linearGradient id="linear-gradient-3" x1="0.423" y1="0.116" x2="0.658" y2="0.705" xlink:href="#linear-gradient"/>
    <linearGradient id="linear-gradient-4" x1="1" y1="1" x2="0.395" y2="0.356" xlink:href="#linear-gradient-2"/>
    <linearGradient id="linear-gradient-5" x1="0.246" y1="0.5" x2="0.5" y2="0.748" xlink:href="#linear-gradient"/>
    <linearGradient id="linear-gradient-6" x1="0.886" y1="0.362" x2="0.613" y2="0.084" xlink:href="#linear-gradient-2"/>
    <linearGradient id="linear-gradient-7" x1="0.586" y1="0.529" x2="0.427" y2="0.699" gradientUnits="objectBoundingBox">
      <stop offset="0" stop-color="#5a6313" stop-opacity="0"/>
      <stop offset="1" stop-color="#544f43"/>
    </linearGradient>
    <linearGradient id="linear-gradient-8" x1="0.337" y1="0.293" x2="0.642" y2="0.731" gradientUnits="objectBoundingBox">
      <stop offset="0" stop-color="#dd3b32"/>
      <stop offset="0.279" stop-color="#ff4f46"/>
      <stop offset="0.775" stop-color="#ff5b52"/>
      <stop offset="1" stop-color="#dd3b32"/>
    </linearGradient>
    <linearGradient id="linear-gradient-9" x1="-0.051" x2="1" y2="1" gradientUnits="objectBoundingBox">
      <stop offset="0" stop-color="#d30e03" stop-opacity="0"/>
      <stop offset="0.513" stop-color="#d5362e"/>
      <stop offset="1" stop-color="#c9251c"/>
    </linearGradient>
    <clipPath id="clip-readme-cover">
      <rect width="1920" height="540"/>
    </clipPath>
  </defs>
  <g id="readme-cover" clip-path="url(#clip-readme-cover)">
    <g id="lara-recipes-logo" transform="translate(30 -114)">
      <g id="Group_263" data-name="Group 263" transform="translate(693 461.328)">
        <text id="LaraRecipes" transform="translate(448.31 76)" fill="#ff2c20" font-size="76" font-family="Lora" font-style="italic" font-weight="700"><tspan x="-419.52" y="0">Lara</tspan><tspan y="0" font-weight="400">Recipes</tspan></text>
        <text id="Laravel_Tutorial_for_beginners" data-name="Laravel Tutorial for beginners" transform="translate(237 153.244)" fill="#ff2c20" font-size="34" font-family="Lora" font-style="italic"><tspan x="-236.657" y="0">Laravel Tutorial For Beginners</tspan></text>
      </g>
      <g id="Group_261" data-name="Group 261" transform="translate(693 85)">
        <g transform="matrix(1, 0, 0, 1, -723, 29)" filter="url(#Ellipse_6)">
          <ellipse id="Ellipse_6-2" data-name="Ellipse 6" cx="133.06" cy="133.06" rx="133.06" ry="133.06" transform="translate(819.08 67.08)" fill="#fff"/>
        </g>
        <g id="Group_260" data-name="Group 260" transform="translate(260.287 0) rotate(45)">
          <g id="Group_66" data-name="Group 66" transform="translate(0 0)">
            <g id="Group_3" data-name="Group 3" transform="translate(66.879 72.968) rotate(-45)">
              <g id="Group_1" data-name="Group 1" transform="translate(0 0)">
                <path id="Path_1" data-name="Path 1" d="M16.264,27.607C7.938,45.891-1.829,80.211.295,97.213a1.926,1.926,0,0,0,3.144,1.423c14.237-9.6,33.774-39.494,42.1-57.778s4.1-22.012,1.98-39.015A1.926,1.926,0,0,0,44.376.42C30.139,10.018,24.591,9.323,16.264,27.607Z" fill="url(#linear-gradient)"/>
                <path id="Path_2" data-name="Path 2" d="M2.016,98.479c14.237-9.6,33.774-39.494,42.1-57.778s4.1-22.012,1.98-39.015A2.043,2.043,0,0,0,44.969,0L0,98.741a2.052,2.052,0,0,0,2.016-.262Z" transform="translate(1.422 0.157)" fill="url(#linear-gradient-2)"/>
              </g>
              <g id="Group_2" data-name="Group 2" transform="translate(4.151 52.761)">
                <path id="Path_3" data-name="Path 3" d="M58.135,4.987C39.855,13.322,9.968,32.817.415,47.041a1.926,1.926,0,0,0,1.439,3.136c17.041,2.1,51.4-7.648,69.68-15.983S89.073,20.274,98.626,6.049a1.926,1.926,0,0,0-1.439-3.136C80.146.815,76.415-3.348,58.135,4.987Z" transform="translate(0 0)" fill="url(#linear-gradient-3)"/>
                <path id="Path_4" data-name="Path 4" d="M1.694,46.14c17.041,2.1,51.4-7.648,69.68-15.983S88.913,16.237,98.465,2.012A2.042,2.042,0,0,0,98.72,0L0,45.016A2.054,2.054,0,0,0,1.694,46.14Z" transform="translate(0.16 4.037)" fill="url(#linear-gradient-4)"/>
              </g>
            </g>
            <g id="Group_4" data-name="Group 4" transform="translate(84.869 87.826) rotate(-45)">
              <path id="Path_5" data-name="Path 5" d="M39.33,15.741C25.146,29.969,4.016,58.724.072,75.4a1.926,1.926,0,0,0,2.449,2.431C19.213,73.8,47.956,52.6,62.14,38.376s11.528-19.2,15.472-35.87A1.926,1.926,0,0,0,75.162.075C58.471,4.1,53.515,1.513,39.33,15.741Z" transform="translate(0 0)" fill="url(#linear-gradient-5)"/>
              <path id="Path_6" data-name="Path 6" d="M1.981,77.3C18.672,73.271,47.415,52.072,61.6,37.844s11.528-19.2,15.472-35.87A2.044,2.044,0,0,0,76.6,0L0,76.839A2.055,2.055,0,0,0,1.981,77.3Z" transform="translate(0.54 0.533)" fill="url(#linear-gradient-6)"/>
            </g>
            <path id="Path_7" data-name="Path 7" d="M7.35,0C2.456,16.338-1.066,34.334.295,45.226a1.91,1.91,0,0,0,1.94,1.837,1.844,1.844,0,0,0,1.919,2.079,1.931,1.931,0,0,0,1.852,1.808c10.906,1.343,28.9-2.168,45.243-7.054Z" transform="translate(103.639 109.728) rotate(-45)" fill="url(#linear-gradient-7)"/>
            <path id="Path_15" data-name="Path 15" d="M167,113.084c-47.171,47.171-139,102.164-161.716,79.446S37.561,77.985,84.732,30.814s68.659-31.825,91.377-9.106S214.175,65.913,167,113.084Z" transform="translate(0 228.224) rotate(-45)" fill="url(#linear-gradient-8)"/>
            <path id="Path_9" data-name="Path 9" d="M1.9.334a59.978,59.978,0,0,1,8.295,3.8c1.646.895,3.367,1.943,5.141,3.11,1.756,1.192,3.586,2.484,5.359,3.946A69.789,69.789,0,0,1,25.974,15.9c1.709,1.7,3.357,3.5,4.91,5.39q1.159,1.419,2.232,2.9c.747.961,1.393,1.992,2.054,3,.683.99,1.264,2.043,1.852,3.069.6,1.014,1.113,2.077,1.629,3.107A54.633,54.633,0,0,1,41.2,39.548c.365,1,.635,2.02.915,2.991s.507,1.928.692,2.862a49.993,49.993,0,0,1,.812,5.146c.134,1.567.188,2.951.216,4.089-.015,1.155-1.1,1.611-1.491.649L40.765,51.9c-.662-1.274-1.326-2.744-2.188-4.273-.408-.776-.82-1.59-1.314-2.394s-.911-1.686-1.464-2.522c-1.021-1.721-2.158-3.494-3.361-5.308-.642-.882-1.2-1.835-1.88-2.732s-1.3-1.842-2-2.751c-.679-.92-1.382-1.833-2.094-2.746-.7-.925-1.43-1.827-2.177-2.719-1.44-1.826-2.992-3.565-4.483-5.309l-2.28-2.538-2.264-2.447c-2.99-3.2-5.865-6.119-8.363-8.6L.932,1.669C-.609.146-.205-.425,1.9.334Z" transform="translate(128.788 192.992) rotate(-45)" fill="url(#linear-gradient-9)"/>
            <path id="Path_10" data-name="Path 10" d="M1.709.053a58.016,58.016,0,0,1,8.376,1.659c1.7.455,3.5,1.03,5.384,1.7,1.872.7,3.836,1.466,5.792,2.4,1.977.906,3.957,1.954,5.923,3.1s3.894,2.419,5.764,3.775q1.4,1.021,2.737,2.117c.914.7,1.756,1.482,2.6,2.24.864.739,1.654,1.555,2.443,2.345S42.262,21,42.988,21.811a54.205,54.205,0,0,1,3.87,4.973c.585.813,1.09,1.666,1.591,2.472s.952,1.611,1.36,2.4a48.235,48.235,0,0,1,2.062,4.416c.527,1.369.937,2.591,1.258,3.6.287,1.033-.56,1.669-1.156.892l-2.281-2.684c-.92-1-1.893-2.169-3.057-3.351-.565-.606-1.142-1.245-1.792-1.858s-1.248-1.312-1.957-1.942c-1.355-1.32-2.827-2.662-4.369-4.027-.8-.651-1.548-1.384-2.382-2.041S34.5,23.3,33.647,22.633s-1.705-1.344-2.577-2.009-1.746-1.329-2.643-1.968c-1.756-1.326-3.588-2.552-5.367-3.793l-2.688-1.785-2.65-1.708C14.23,9.145,10.913,7.141,8.043,5.447L1.2,1.441C-.574.4-.36-.187,1.709.053Z" transform="translate(84.232 225.704) rotate(-45)" fill="url(#linear-gradient-9)"/>
            <path id="Path_11" data-name="Path 11" d="M1.709.053a58.015,58.015,0,0,1,8.376,1.659c1.7.455,3.5,1.03,5.384,1.7,1.872.7,3.836,1.466,5.792,2.4,1.977.906,3.957,1.954,5.923,3.1s3.894,2.419,5.764,3.775q1.4,1.021,2.737,2.117c.914.7,1.756,1.482,2.6,2.24.864.739,1.654,1.555,2.443,2.345S42.262,21,42.989,21.811a54.212,54.212,0,0,1,3.87,4.973c.585.813,1.09,1.665,1.591,2.472s.952,1.611,1.36,2.4a48.231,48.231,0,0,1,2.062,4.416c.527,1.369.937,2.591,1.258,3.6.287,1.033-.56,1.669-1.156.892l-2.281-2.684c-.92-1-1.894-2.169-3.057-3.351-.565-.606-1.142-1.245-1.792-1.858s-1.248-1.312-1.957-1.942c-1.355-1.32-2.827-2.662-4.369-4.027-.8-.651-1.548-1.384-2.382-2.041S34.5,23.3,33.647,22.633s-1.706-1.344-2.577-2.009-1.747-1.329-2.643-1.968c-1.756-1.326-3.588-2.552-5.367-3.794l-2.688-1.785-2.65-1.708C14.23,9.144,10.913,7.14,8.042,5.446L1.2,1.439C-.574.405-.36-.187,1.709.053Z" transform="translate(84.528 159.384) rotate(-45)" fill="url(#linear-gradient-9)"/>
            <path id="Path_12" data-name="Path 12" d="M1.6.334A56.552,56.552,0,0,1,8.81,3.865c1.438.822,2.947,1.778,4.508,2.838,1.547,1.08,3.161,2.249,4.737,3.562,1.6,1.293,3.174,2.716,4.718,4.219S25.8,17.6,27.215,19.271q1.058,1.256,2.046,2.564c.684.85,1.289,1.756,1.9,2.643.632.873,1.183,1.8,1.738,2.7S33.963,29,34.458,29.9a53.75,53.75,0,0,1,2.512,5.4c.368.872.656,1.76.95,2.607s.544,1.679.756,2.491c.465,1.6.742,3.13,1,4.47.209,1.359.34,2.557.434,3.543.059,1-.825,1.366-1.21.524l-1.529-2.966c-.633-1.12-1.281-2.409-2.1-3.754-.39-.682-.785-1.4-1.249-2.1s-.867-1.482-1.382-2.22c-.961-1.515-2.023-3.078-3.144-4.678-.592-.779-1.122-1.618-1.744-2.412s-1.2-1.627-1.842-2.431-1.271-1.622-1.925-2.43-1.311-1.618-1.992-2.41c-1.32-1.617-2.728-3.163-4.086-4.711l-2.069-2.257L13.79,14.389c-2.705-2.846-5.3-5.453-7.548-7.672L.865,1.453C-.523.092-.215-.387,1.6.334Z" transform="translate(128.788 248.386) rotate(-45)" fill="url(#linear-gradient-9)"/>
            <path id="Path_13" data-name="Path 13" d="M1.481.092A55.114,55.114,0,0,1,8.832,1.921c1.493.471,3.083,1.049,4.743,1.711,1.652.683,3.386,1.433,5.119,2.321,1.75.866,3.507,1.852,5.255,2.916s3.468,2.241,5.14,3.481q1.251.934,2.452,1.928c.818.637,1.578,1.342,2.342,2.026.777.668,1.492,1.4,2.206,2.106s1.386,1.445,2.047,2.166a53.361,53.361,0,0,1,3.543,4.4c.538.718,1.009,1.466,1.474,2.175s.888,1.414,1.271,2.107c.8,1.356,1.41,2.688,1.958,3.851.51,1.189.913,2.248,1.231,3.121.29.893-.421,1.393-.968.7l-2.082-2.391c-.837-.892-1.726-1.935-2.781-3-.513-.543-1.039-1.113-1.626-1.665s-1.133-1.175-1.773-1.744c-1.226-1.187-2.554-2.4-3.944-3.631-.719-.592-1.4-1.25-2.144-1.848s-1.469-1.242-2.237-1.847-1.531-1.224-2.312-1.831-1.566-1.213-2.368-1.8c-1.574-1.211-3.21-2.341-4.8-3.481l-2.4-1.647-2.365-1.579C12.7,8.422,9.739,6.557,7.182,4.978L1.08,1.24C-.5.274-.332-.217,1.481.092Z" transform="translate(94.066 282.707) rotate(-45)" fill="url(#linear-gradient-9)"/>
            <path id="Path_14" data-name="Path 14" d="M1.39.222A53.962,53.962,0,0,1,8.055,2.876c1.345.63,2.769,1.372,4.252,2.2,1.473.847,3.016,1.766,4.546,2.811,1.548,1.027,3.091,2.167,4.619,3.377s3.021,2.52,4.462,3.882q1.079,1.024,2.106,2.1c.7.695,1.346,1.443,2,2.174S31.3,20.9,31.9,21.649s1.16,1.513,1.71,2.265a52.979,52.979,0,0,1,2.9,4.526c.437.733.809,1.484,1.18,2.2s.7,1.42,1,2.111c.624,1.356,1.076,2.665,1.485,3.81.371,1.165.653,2.195.874,3.043.192.863-.509,1.233-.957.525l-1.725-2.48c-.7-.933-1.434-2.012-2.321-3.128-.429-.568-.867-1.163-1.364-1.75s-.949-1.232-1.493-1.841c-1.035-1.255-2.162-2.546-3.344-3.866-.616-.64-1.186-1.335-1.828-1.986s-1.255-1.338-1.915-2-1.314-1.33-1.985-1.991-1.347-1.324-2.04-1.97c-1.355-1.323-2.775-2.579-4.152-3.84L15.84,13.449l-2.057-1.767C11.07,9.375,8.488,7.268,6.252,5.476L.915,1.227C-.465.128-.266-.3,1.39.222Z" transform="translate(120.969 307.204) rotate(-45)" fill="url(#linear-gradient-9)"/>
          </g>
        </g>
      </g>
    </g>
  </g>
</svg>
