<svg xmlns="http://www.w3.org/2000/svg" xmlns:xlink="http://www.w3.org/1999/xlink" width="512" height="512" viewBox="0 0 512 512">
  <defs>
    <linearGradient id="linear-gradient" x1="0.5" y1="0.133" x2="0.89" y2="0.5" gradientUnits="objectBoundingBox">
      <stop offset="0" stop-color="#c4d143"/>
      <stop offset="1" stop-color="#7c8a1a"/>
    </linearGradient>
    <linearGradient id="linear-gradient-2" x1="1.148" y1="0.346" x2="0.5" y2="0.135" gradientUnits="objectBoundingBox">
      <stop offset="0" stop-color="#7c8a1a" stop-opacity="0"/>
      <stop offset="0.315" stop-color="#768319" stop-opacity="0.314"/>
      <stop offset="0.781" stop-color="#646f15" stop-opacity="0.78"/>
      <stop offset="1" stop-color="#5a6313"/>
    </linearGradient>
    <linearGradient id="linear-gradient-3" x1="0.423" y1="0.116" x2="0.658" y2="0.705" xlink:href="#linear-gradient"/>
    <linearGradient id="linear-gradient-4" x1="1" y1="1" x2="0.395" y2="0.356" xlink:href="#linear-gradient-2"/>
    <linearGradient id="linear-gradient-5" x1="0.246" y1="0.5" x2="0.5" y2="0.748" xlink:href="#linear-gradient"/>
    <linearGradient id="linear-gradient-6" x1="0.886" y1="0.362" x2="0.613" y2="0.084" xlink:href="#linear-gradient-2"/>
    <linearGradient id="linear-gradient-7" x1="0.586" y1="0.529" x2="0.427" y2="0.699" gradientUnits="objectBoundingBox">
      <stop offset="0" stop-color="#5a6313" stop-opacity="0"/>
      <stop offset="1" stop-color="#544f43"/>
    </linearGradient>
    <linearGradient id="linear-gradient-8" x1="0.337" y1="0.293" x2="0.642" y2="0.731" gradientUnits="objectBoundingBox">
      <stop offset="0" stop-color="#dd3b32"/>
      <stop offset="0.279" stop-color="#ff4f46"/>
      <stop offset="0.775" stop-color="#ff5b52"/>
      <stop offset="1" stop-color="#dd3b32"/>
    </linearGradient>
    <linearGradient id="linear-gradient-9" x1="-0.051" x2="1" y2="1" gradientUnits="objectBoundingBox">
      <stop offset="0" stop-color="#d30e03" stop-opacity="0"/>
      <stop offset="0.513" stop-color="#d5362e"/>
      <stop offset="1" stop-color="#c9251c"/>
    </linearGradient>
    <clipPath id="clip-path">
      <rect id="Rectangle_14" data-name="Rectangle 14" width="105.502" height="167.756" fill="none"/>
    </clipPath>
    <clipPath id="clip-path-3">
      <rect id="Rectangle_11" data-name="Rectangle 11" width="4.632" height="4.671" fill="none"/>
    </clipPath>
    <clipPath id="clip-path-4">
      <rect id="Rectangle_12" data-name="Rectangle 12" width="3.813" height="3.794" fill="none"/>
    </clipPath>
    <clipPath id="clip-logo-whoops">
      <rect width="512" height="512"/>
    </clipPath>
  </defs>
  <g id="logo-whoops" clip-path="url(#clip-logo-whoops)">
    <g id="Group_243" data-name="Group 243" transform="translate(-2838.5 -619.038)">
      <g id="Group_66" data-name="Group 66" transform="translate(3034.939 670.171)">
        <g id="Group_3" data-name="Group 3" transform="translate(92.802 18.709) rotate(-45)">
          <g id="Group_1" data-name="Group 1" transform="translate(0 0)">
            <path id="Path_1" data-name="Path 1" d="M24.367,41.36C11.892,68.752-2.74,120.169.441,145.641a2.885,2.885,0,0,0,4.71,2.132C26.48,133.4,55.75,88.6,68.225,61.212s6.148-32.978,2.967-58.451A2.885,2.885,0,0,0,66.482.629C45.153,15.008,36.842,13.967,24.367,41.36Z" fill="url(#linear-gradient)"/>
            <path id="Path_2" data-name="Path 2" d="M3.02,147.538C24.35,133.16,53.62,88.369,66.094,60.977S72.242,28,69.061,2.526A3.06,3.06,0,0,0,67.371,0L0,147.931a3.075,3.075,0,0,0,3.02-.393Z" transform="translate(2.131 0.235)" fill="url(#linear-gradient-2)"/>
          </g>
          <g id="Group_2" data-name="Group 2" transform="translate(6.22 79.045)">
            <path id="Path_3" data-name="Path 3" d="M87.1,7.471C59.709,19.959,14.933,49.165.622,70.475a2.885,2.885,0,0,0,2.156,4.7c25.53,3.143,77.007-11.458,104.393-23.946s26.276-20.855,40.588-42.166a2.885,2.885,0,0,0-2.156-4.7C120.071,1.222,114.482-5.017,87.1,7.471Z" fill="url(#linear-gradient-3)"/>
            <path id="Path_4" data-name="Path 4" d="M2.537,69.126C28.067,72.269,79.544,57.668,106.93,45.18s26.276-20.855,40.587-42.166A3.059,3.059,0,0,0,147.9,0L0,67.442A3.078,3.078,0,0,0,2.537,69.126Z" transform="translate(0.24 6.048)" fill="url(#linear-gradient-4)"/>
          </g>
        </g>
        <g id="Group_4" data-name="Group 4" transform="translate(119.755 40.968) rotate(-45)">
          <path id="Path_5" data-name="Path 5" d="M58.923,23.583C37.673,44.9,6.017,87.978.108,112.958a2.885,2.885,0,0,0,3.67,3.641C28.784,110.57,71.846,78.81,93.1,57.494s17.271-28.759,23.18-53.74a2.885,2.885,0,0,0-3.67-3.641C87.6,6.143,80.174,2.267,58.923,23.583Z" fill="url(#linear-gradient-5)"/>
          <path id="Path_6" data-name="Path 6" d="M2.968,115.8C27.973,109.772,71.035,78.012,92.286,56.7s17.271-28.759,23.18-53.74a3.062,3.062,0,0,0-.7-2.956L0,115.117A3.078,3.078,0,0,0,2.968,115.8Z" transform="translate(0.81 0.798)" fill="url(#linear-gradient-6)"/>
        </g>
        <path id="Path_7" data-name="Path 7" d="M11.012,0C3.68,24.476-1.6,51.438.441,67.756a2.862,2.862,0,0,0,2.907,2.753,2.762,2.762,0,0,0,2.875,3.114A2.893,2.893,0,0,0,9,76.333c16.34,2.012,43.3-3.248,67.781-10.568Z" transform="translate(147.876 73.781) rotate(-45)" fill="url(#linear-gradient-7)"/>
        <path id="Path_15" data-name="Path 15" d="M250.2,169.419C179.528,240.089,41.957,322.477,7.921,288.441S56.272,116.834,126.943,46.164s102.863-47.679,136.9-13.643,57.028,66.227-13.643,136.9Z" transform="translate(-7.393 251.307) rotate(-45)" fill="url(#linear-gradient-8)"/>
        <path id="Path_9" data-name="Path 9" d="M2.839.5A89.857,89.857,0,0,1,15.266,6.188c2.466,1.34,5.045,2.91,7.7,4.659,2.63,1.786,5.373,3.722,8.028,5.912a104.555,104.555,0,0,1,7.917,7.063c2.56,2.544,5.03,5.249,7.355,8.076q1.737,2.125,3.343,4.346c1.119,1.44,2.088,2.985,3.078,4.492,1.023,1.484,1.893,3.06,2.774,4.6.906,1.519,1.668,3.111,2.441,4.655a81.851,81.851,0,0,1,3.814,9.262c.548,1.5.952,3.026,1.371,4.48s.759,2.888,1.037,4.288a74.9,74.9,0,0,1,1.216,7.709c.2,2.348.282,4.421.324,6.126-.023,1.73-1.652,2.414-2.234.973l-2.36-5.064c-.992-1.909-1.986-4.112-3.277-6.4-.612-1.162-1.228-2.382-1.969-3.586C55.1,66.561,54.463,65.249,53.634,64,52.1,61.419,50.4,58.761,48.6,56.044c-.962-1.321-1.8-2.75-2.816-4.093s-1.945-2.76-2.989-4.121c-1.017-1.379-2.071-2.746-3.137-4.114-1.042-1.386-2.142-2.738-3.261-4.074-2.158-2.735-4.483-5.341-6.716-7.953l-3.416-3.8L22.871,24.22c-4.48-4.789-8.786-9.168-12.529-12.892L1.4,2.5C-.913.219-.307-.636,2.839.5Z" transform="translate(185.553 198.524) rotate(-45)" fill="url(#linear-gradient-9)"/>
        <path id="Path_10" data-name="Path 10" d="M2.561.08A86.918,86.918,0,0,1,15.109,2.565c2.544.682,5.246,1.543,8.067,2.548,2.8,1.043,5.746,2.2,8.678,3.593,2.962,1.357,5.929,2.928,8.874,4.639,2.936,1.731,5.834,3.624,8.635,5.656q2.1,1.53,4.1,3.172c1.369,1.048,2.63,2.221,3.9,3.356,1.295,1.107,2.478,2.329,3.66,3.514,1.2,1.163,2.291,2.422,3.379,3.634a81.206,81.206,0,0,1,5.8,7.45c.876,1.218,1.633,2.5,2.384,3.7s1.427,2.414,2.038,3.6a72.263,72.263,0,0,1,3.089,6.616c.79,2.052,1.4,3.882,1.885,5.393.431,1.548-.839,2.5-1.732,1.337l-3.417-4.021c-1.379-1.494-2.836-3.25-4.58-5.02-.846-.908-1.711-1.866-2.684-2.784s-1.87-1.966-2.933-2.909c-2.03-1.977-4.236-3.989-6.546-6.033-1.2-.976-2.319-2.073-3.568-3.058S51.69,34.9,50.409,33.908c-1.263-1.015-2.555-2.014-3.86-3.01-1.287-1.017-2.616-1.991-3.959-2.949-2.63-1.987-5.376-3.823-8.041-5.683L30.52,19.592l-3.97-2.559c-5.23-3.332-10.2-6.335-14.5-8.873l-10.257-6C-.86.607-.539-.28,2.561.08Z" transform="translate(118.801 247.532) rotate(-45)" fill="url(#linear-gradient-9)"/>
        <path id="Path_11" data-name="Path 11" d="M2.561.08A86.916,86.916,0,0,1,15.109,2.565c2.544.682,5.246,1.543,8.067,2.548,2.8,1.043,5.747,2.2,8.678,3.593,2.962,1.357,5.929,2.928,8.874,4.639,2.937,1.731,5.834,3.624,8.635,5.656q2.1,1.53,4.1,3.172c1.369,1.048,2.631,2.221,3.9,3.356,1.295,1.106,2.478,2.329,3.66,3.513,1.2,1.163,2.291,2.422,3.379,3.634a81.217,81.217,0,0,1,5.8,7.45c.876,1.218,1.633,2.5,2.384,3.7s1.427,2.414,2.037,3.6a72.257,72.257,0,0,1,3.089,6.616c.79,2.052,1.4,3.882,1.885,5.393.431,1.548-.839,2.5-1.732,1.337l-3.417-4.021c-1.379-1.494-2.837-3.25-4.58-5.02-.847-.908-1.711-1.866-2.684-2.784s-1.87-1.966-2.932-2.909c-2.03-1.977-4.236-3.989-6.546-6.033-1.2-.976-2.319-2.073-3.568-3.058S51.69,34.9,50.408,33.907c-1.263-1.015-2.556-2.014-3.86-3.01-1.287-1.017-2.617-1.991-3.96-2.949-2.63-1.987-5.376-3.823-8.041-5.684L30.52,19.59l-3.97-2.559c-5.23-3.332-10.2-6.335-14.5-8.873l-10.257-6C-.86.607-.54-.28,2.561.08Z" transform="translate(119.244 148.173) rotate(-45)" fill="url(#linear-gradient-9)"/>
        <path id="Path_12" data-name="Path 12" d="M2.4.5a84.724,84.724,0,0,1,10.8,5.29c2.154,1.232,4.415,2.663,6.754,4.252,2.317,1.618,4.736,3.369,7.1,5.336,2.4,1.938,4.756,4.069,7.068,6.32,2.3,2.267,4.535,4.669,6.656,7.173q1.585,1.882,3.066,3.842c1.025,1.273,1.931,2.631,2.852,3.959.947,1.308,1.773,2.692,2.6,4.041.852,1.335,1.587,2.73,2.329,4.083a80.527,80.527,0,0,1,3.763,8.1c.551,1.307.983,2.637,1.424,3.905s.814,2.515,1.132,3.732c.7,2.395,1.111,4.689,1.494,6.7.313,2.036.509,3.831.65,5.308.088,1.5-1.236,2.047-1.813.785l-2.291-4.444c-.949-1.678-1.919-3.609-3.142-5.624-.584-1.022-1.176-2.092-1.871-3.153s-1.3-2.221-2.071-3.326c-1.44-2.27-3.031-4.612-4.71-7.008-.887-1.168-1.681-2.425-2.612-3.613s-1.8-2.438-2.759-3.642c-.938-1.219-1.9-2.429-2.884-3.641-.959-1.226-1.964-2.424-2.985-3.61-1.977-2.422-4.087-4.739-6.121-7.057l-3.1-3.381-3.07-3.263c-4.053-4.264-7.937-8.169-11.308-11.494L1.3,2.177C-.783.138-.321-.58,2.4.5Z" transform="translate(185.553 281.513) rotate(-45)" fill="url(#linear-gradient-9)"/>
        <path id="Path_13" data-name="Path 13" d="M2.219.138A82.571,82.571,0,0,1,13.232,2.878c2.237.706,4.619,1.571,7.106,2.564,2.474,1.024,5.073,2.147,7.669,3.477,2.621,1.3,5.254,2.774,7.873,4.369,2.612,1.611,5.2,3.358,7.7,5.216q1.874,1.4,3.673,2.888c1.226.955,2.364,2.01,3.509,3.035,1.164,1,2.235,2.094,3.3,3.156,1.084,1.045,2.077,2.165,3.066,3.245a79.944,79.944,0,0,1,5.308,6.6c.806,1.076,1.511,2.2,2.208,3.258s1.33,2.118,1.9,3.157c1.2,2.032,2.113,4.028,2.934,5.769.765,1.782,1.367,3.368,1.844,4.676.434,1.337-.63,2.088-1.45,1.055l-3.12-3.583c-1.254-1.337-2.586-2.9-4.167-4.487-.769-.813-1.557-1.668-2.435-2.5s-1.7-1.76-2.656-2.612c-1.837-1.778-3.826-3.592-5.909-5.44-1.077-.887-2.091-1.873-3.212-2.769s-2.2-1.861-3.351-2.767c-1.135-.924-2.293-1.834-3.463-2.743-1.155-.925-2.346-1.818-3.547-2.7-2.357-1.815-4.81-3.507-7.194-5.216l-3.6-2.468L23.69,15.7c-4.668-3.085-9.1-5.878-12.931-8.244l-9.141-5.6C-.747.41-.5-.325,2.219.138Z" transform="translate(133.534 332.931) rotate(-45)" fill="url(#linear-gradient-9)"/>
        <path id="Path_14" data-name="Path 14" d="M2.083.333a80.845,80.845,0,0,1,9.985,3.976c2.015.944,4.148,2.055,6.37,3.3,2.207,1.269,4.518,2.646,6.811,4.211,2.318,1.539,4.631,3.246,6.92,5.06s4.525,3.775,6.686,5.816q1.616,1.535,3.155,3.143C43.063,26.877,44.026,28,45,29.093c.993,1.075,1.89,2.224,2.79,3.342s1.738,2.267,2.562,3.394a79.371,79.371,0,0,1,4.352,6.78c.655,1.1,1.212,2.224,1.767,3.294s1.051,2.128,1.494,3.162c.934,2.031,1.613,3.993,2.224,5.708.556,1.745.979,3.288,1.309,4.559.288,1.292-.762,1.847-1.434.787L57.479,56.4c-1.048-1.4-2.148-3.014-3.478-4.686-.643-.85-1.3-1.743-2.043-2.621s-1.422-1.846-2.237-2.757c-1.55-1.88-3.238-3.815-5.009-5.792-.922-.959-1.777-2-2.739-2.975s-1.88-2-2.868-2.991c-.972-1-1.968-1.992-2.975-2.983s-2.018-1.984-3.056-2.951c-2.029-1.982-4.158-3.864-6.221-5.753L23.73,20.148,20.648,17.5c-4.063-3.457-7.931-6.614-11.281-9.3l-8-6.365C-.7.192-.4-.452,2.083.333Z" transform="translate(173.838 369.633) rotate(-45)" fill="url(#linear-gradient-9)"/>
      </g>
      <g id="Group_76" data-name="Group 76" transform="translate(3171.355 777.737)">
        <g id="Group_75" data-name="Group 75" clip-path="url(#clip-path)">
          <g id="Group_74" data-name="Group 74">
            <g id="Group_73" data-name="Group 73" clip-path="url(#clip-path)">
              <path id="Path_83" data-name="Path 83" d="M106.948,448.788s15.206-3.387,18.516-7.72a36.776,36.776,0,0,0-2.523-14.181,18.625,18.625,0,0,0-6.366-1.925,9.985,9.985,0,0,1,.328,1.159c.629,2.689.067,5.378.4,8.057-.367-2.988-1-10.052-5.545-8.945-10.005,2.443-17.725,12.92-28.518,12.841-11.663-.086-13.551-11.029-22.924-6.225l.55,12.763a33.822,33.822,0,0,0,14.181,4.412s-9.453.867-14.967-1.419c0,0-2.6,12.369-1.5,12.684s15.517-5.2,25.524-5.2c5.032,0,10.187,1.494,15.032,2.691,3.186.787,6.361,1.626,9.534,2.468,2.107.56,6.817,2.9,8.516.822,1.308-1.6.882-4.833.664-6.737a23.781,23.781,0,0,1,1.147,8.6,53.8,53.8,0,0,0,6.473,1.426c.933.152,2.385.54,3.3.1,3.15-1.5-1.814-18.906-1.814-18.906a113.24,113.24,0,0,1-20.01,3.229" transform="translate(-42.036 -306.374)" fill="#fff"/>
              <path id="Path_84" data-name="Path 84" d="M158.392,212.158c10.449,0,16.582-10,18.914-19.032,2.464-9.552,2.637-24.289-5.518-31.3-4.968-4.27-11.378-6.815-17.661-8.415-15.145-3.861-18.345,17.462-18.345,28.147,0,16.9,10.123,30.6,22.61,30.6m-15.8-44.4c1.676,0,3.033,2.205,3.033,4.924s-1.357,4.923-3.033,4.923-3.033-2.2-3.033-4.923,1.356-4.924,3.033-4.924" transform="translate(-97.891 -110.268)" fill="#fff"/>
              <path id="Path_85" data-name="Path 85" d="M42.645,121.045C40.077,106.007,34.982,91.221,27,93.624,10.163,98.7,4.793,126.44,4.793,142.605s8.926,29.272,19.933,29.272c7.649,0,14.292-6.331,17.633-15.62a41.91,41.91,0,0,1-2.9-15.542c0-5.443.7-13.174,3.189-19.671m-11.185,10.3c-1.674,0-3.032-2.2-3.032-4.924s1.358-4.923,3.032-4.923,3.034,2.2,3.034,4.923-1.357,4.924-3.034,4.924" transform="translate(-3.455 -67.312)" fill="#fff"/>
              <path id="Path_86" data-name="Path 86" d="M72.1,508.483q1.8-.534,3.62-.926c-1.764.129-9.731.575-14.611-1.447,0,0-.849,4.027-1.37,7.545A66.43,66.43,0,0,1,72.1,508.483" transform="translate(-43.068 -364.876)" fill="#fff"/>
              <path id="Path_87" data-name="Path 87" d="M116.085,528.219c-3.43-.515-6.79-1.363-10.153-2.208l-.377-.06c-8.154-1.249-16.482-2.117-24.68-.82a79.508,79.508,0,0,0-11.739,2.776c-2.91.926-5.813,1.9-8.787,2.591q-.987.446-1.976.888c.034.379.113.617.255.658,1.1.315,15.517-5.2,25.524-5.2,5.032,0,10.187,1.494,15.032,2.691,3.186.787,6.361,1.626,9.535,2.469,2.107.56,6.817,2.9,8.516.822.845-1.033.964-2.748.886-4.345-.678-.072-1.358-.159-2.035-.262" transform="translate(-42.084 -378.127)" fill="#d1d1d1"/>
              <path id="Path_88" data-name="Path 88" d="M271.74,430.556c2.855,2.39,2.621,8.532,2.507,12.091A7.8,7.8,0,0,0,276,441.07a37.008,37.008,0,0,0-2.5-14.13c-.005-.015-.012-.027-.016-.039a.06.06,0,0,1-.006-.011l-.038-.021-.047-.024s0,0,0,0a.7.7,0,0,1-.065-.033,16.813,16.813,0,0,0-1.795-.779c-.078-.03-.162-.059-.248-.089a18.709,18.709,0,0,0-4.17-.976,10.043,10.043,0,0,1,.328,1.159,14.785,14.785,0,0,1,.317,3.475c.306-.013.609-.025.915-.033a4.428,4.428,0,0,1,3.072.991" transform="translate(-192.57 -306.375)" fill="#d1d1d1"/>
              <path id="Path_89" data-name="Path 89" d="M70.3,434.529a21.4,21.4,0,0,1,7.01,2.078,43.072,43.072,0,0,0,9.466,3.616c7.464,1.49,13.565-3.8,19.944-6.628a43.616,43.616,0,0,1,15.011-3.563c-.683-2.659-2-5.082-4.8-4.4-10.005,2.443-17.725,12.92-28.518,12.841-11.663-.086-13.551-11.03-22.924-6.225l.127,2.919a9.189,9.189,0,0,1,4.683-.64" transform="translate(-47.217 -306.773)" fill="#d1d1d1"/>
              <path id="Path_90" data-name="Path 90" d="M285.336,513.911c0-.041,0-.084,0-.127,0-.066,0-.137-.008-.206,0-.043,0-.084,0-.129,0-.07-.005-.141-.011-.212,0-.044-.007-.087-.008-.131-.006-.073-.008-.148-.012-.222,0-.041-.008-.084-.011-.125-.006-.077-.011-.156-.019-.235,0-.036-.007-.075-.009-.112-.005-.085-.012-.17-.022-.256,0-.025,0-.052-.008-.077-.054-.558-.123-1.134-.206-1.724a.143.143,0,0,1,0-.025c-.016-.113-.034-.226-.052-.34,0-.014,0-.027-.005-.041-.016-.112-.035-.228-.051-.341a.129.129,0,0,1-.006-.033,105.184,105.184,0,0,0-2.417-10.8s-1.032.285-2.837.692c.4-.086.924,2.837.971,3.129a7.739,7.739,0,0,1-1.358,6.354c-1.319,1.548-3.423,1.207-5.227,1.036a23.3,23.3,0,0,1,.492,6.165,53.839,53.839,0,0,0,6.473,1.426c.237.038.505.092.794.142.058.012.118.022.175.033.021,0,.042.007.065.011.043.007.092.013.135.021l.068.01c.062.011.123.019.186.027,0,0,.009,0,.013,0l.2.023c.018,0,.039,0,.057.006l.149.014.061,0c.064,0,.126.008.192.009h.007c.066,0,.13,0,.2,0h.054l.144-.007.056-.005c.062,0,.123-.011.186-.021s.121-.02.18-.034l.05-.014c.042-.011.084-.023.126-.035l.047-.016a1.542,1.542,0,0,0,.163-.066.962.962,0,0,0,.135-.077.48.48,0,0,0,.039-.031.572.572,0,0,0,.083-.066c.016-.014.031-.03.047-.044l.066-.073c.016-.019.031-.035.046-.054s.039-.054.058-.084.028-.041.042-.061.038-.062.054-.095.026-.045.038-.069.031-.07.049-.107.022-.046.031-.07c.019-.043.033-.087.049-.133.007-.02.016-.042.023-.064.023-.068.044-.138.064-.209,0-.019.01-.038.015-.056.014-.057.027-.114.041-.173.006-.031.011-.064.016-.1.011-.049.02-.095.03-.143s.011-.076.019-.114.014-.095.019-.143.009-.081.015-.123.011-.1.016-.145.007-.088.011-.133.009-.1.011-.149.007-.094.011-.141,0-.1.007-.152,0-.1.005-.148,0-.1,0-.153c.005-.214,0-.433,0-.661" transform="translate(-197.559 -359.586)" fill="#d1d1d1"/>
              <path id="Path_91" data-name="Path 91" d="M179.492,258.622c-2.187,8.48-7.944,17.865-17.751,17.865-11.217,0-20.4-11.773-21.169-26.685-.036.845-.052,1.65-.052,2.4,0,15.862,9.5,28.722,21.222,28.722,9.808,0,15.565-9.384,17.751-17.865a45.145,45.145,0,0,0,1.338-13.314,45.487,45.487,0,0,1-1.338,8.88" transform="translate(-101.306 -180.05)" fill="#d1d1d1"/>
              <path id="Path_92" data-name="Path 92" d="M26.753,288.648c-10.1,0-18.358-11.515-19.033-26.091-.031.893-.046,1.76-.046,2.594,0,15.475,8.542,28.019,19.079,28.019,7.322,0,13.682-6.06,16.88-14.951-.31-.774-.594-1.569-.856-2.379-3.4,7.708-9.3,12.808-16.023,12.808" transform="translate(-5.533 -189.289)" fill="#d1d1d1"/>
              <path id="Path_93" data-name="Path 93" d="M132.506,154.908q-.149-.946-.311-1.891c-2.493,6.5-3.189,14.227-3.189,19.671a41.916,41.916,0,0,0,2.9,15.542c.083-.234.166-.469.246-.706a13.926,13.926,0,0,0,1.316,2.367q-.177.515-.362,1.019c4.341,8.728,11.714,14.472,20.082,14.472,13.358,0,21.821-15.346,21.821-33.4,0-5.88.288-12.163-2.75-17.441a20.042,20.042,0,0,0-3.135-4.143c-2.761-2.791-6.15-4.513-10.04-6.07-1.94-.777-3.846-1.65-5.725-2.567-1.83-.893-3.554-1.994-5.417-2.824a10.511,10.511,0,0,0-5.464-1.171,7.54,7.54,0,0,0-4.665,2.38c-.095.107.083.277.186.174A5.512,5.512,0,0,1,142.453,139a15.813,15.813,0,0,1,5.1,1.377c.633.284,1.266.578,1.895.87a11.4,11.4,0,0,0-5.05-.258c-5.332,1.023-8.889,4.861-11.227,9.745q.152.806.291,1.613a17.546,17.546,0,0,0-.96,2.563m16.736-12.482c6.284,1.6,12.693,4.145,17.661,8.415,8.155,7.01,7.982,21.748,5.518,31.3-2.332,9.034-8.465,19.032-18.914,19.032-12.487,0-22.611-13.7-22.611-30.6,0-10.686,3.2-32.008,18.345-28.147" transform="translate(-93.006 -99.283)" fill="#222"/>
              <path id="Path_94" data-name="Path 94" d="M21.348,166.513c8.094,0,15.135-6.616,18.756-16.363q-.645-1.3-1.2-2.68c-3.341,9.288-9.984,15.62-17.633,15.62-11.007,0-19.933-13.106-19.933-29.272s5.37-43.906,22.211-48.981c7.978-2.4,13.073,12.383,15.641,27.421.3-.782.626-1.546.98-2.285-1.783-9.587-4.538-18.8-8.346-23.764A9,9,0,0,1,33.79,88.4c.131.191.4-.005.328-.2a9.952,9.952,0,0,0-3.636-4.906A11.827,11.827,0,0,0,24.549,81.2a14.6,14.6,0,0,0-6.9,1.5,18.822,18.822,0,0,0-3,1.73,24.333,24.333,0,0,0-2.531,2.134A25.094,25.094,0,0,0,7.539,92.5c-.062.11.093.225.163.117a18.523,18.523,0,0,1,4.27-4.684c.419-.328.823-.674,1.258-.981.407-.286.851-.519,1.281-.765.926-.526,1.852-1.014,2.817-1.465a17.42,17.42,0,0,1,5.453-1.7C5.535,89.247,0,118.169,0,135.158c0,17.317,9.557,31.354,21.348,31.354" transform="translate(0 -58.524)" fill="#222"/>
              <path id="Path_95" data-name="Path 95" d="M139.656,316.211c-.08.236-.163.471-.246.706q.553,1.381,1.2,2.68c.123-.337.244-.675.362-1.018a13.926,13.926,0,0,1-1.316-2.367" transform="translate(-100.507 -227.97)" fill="#222"/>
              <path id="Path_96" data-name="Path 96" d="M140.745,188.544a17.546,17.546,0,0,1,.96-2.563q-.139-.807-.291-1.612c-.354.739-.68,1.5-.98,2.285q.162.946.311,1.891" transform="translate(-101.245 -132.919)" fill="#222"/>
              <path id="Path_97" data-name="Path 97" d="M290.673,144.514a13.348,13.348,0,0,0,.307-4.153c-.267-3.229-3.855-4.99-6.444-6.443-.282-.158-.577-.3-.872-.432.072.474.131.932.181,1.367.093.084.184.168.276.25.542.485,1.031,1.007,1.54,1.526s1.04.993,1.5,1.543c1.805,2.133,2.579,6.674,2.41,9.365a13.355,13.355,0,0,0,1.1-3.023" transform="translate(-204.506 -96.236)" fill="#222"/>
              <path id="Path_98" data-name="Path 98" d="M204.09,83.423c-.179-.1-.015-.4.17-.317q.943.443,1.879.9c.3.148.62.285.933.427-1.4-9.12-7.034-24.724-29.646-16.824,0,0,.858,9.217,5.869,8.468,16.857-2.52,24.223,14.3,24.223,14.3a33.9,33.9,0,0,0-.264-4.576c-.424-.394-.838-.8-1.3-1.151a16.765,16.765,0,0,0-1.862-1.225" transform="translate(-127.913 -47.182)" fill="#222"/>
              <path id="Path_99" data-name="Path 99" d="M274.828,129.594q-.937-.455-1.879-.9c-.185-.086-.349.215-.17.317a16.767,16.767,0,0,1,1.862,1.225c.463.352.878.757,1.3,1.151-.05-.435-.11-.893-.181-1.367-.313-.142-.628-.278-.933-.427" transform="translate(-196.602 -92.771)" fill="#222"/>
              <path id="Path_100" data-name="Path 100" d="M27.167,22.542S36.58,6.776,52.991,11.387c4.876,1.371,6.883-7.667,6.883-7.667C30.361-10.961,27.167,22.542,27.167,22.542" transform="translate(-19.586 0.001)" fill="#222"/>
              <path id="Path_101" data-name="Path 101" d="M219.76,369.153a13.506,13.506,0,0,1-2.416,2.2c-.867.637-1.746,1.26-2.629,1.875a13.427,13.427,0,0,1-6.266,2.141c-.693.077-1.375.191-2.073.229-.753.042-1.49.033-2.246,0a.228.228,0,0,0-.047.453c1.327.139,2.64.356,3.965.515a11.365,11.365,0,0,0,3.966-.273,10.612,10.612,0,0,0,5.923-3.713,25.591,25.591,0,0,0,1.985-3.32.1.1,0,0,0-.162-.116" transform="translate(-146.99 -266.11)" fill="#222"/>
              <path id="Path_102" data-name="Path 102" d="M56.548,391.718a5.144,5.144,0,0,1-.753.179,8.18,8.18,0,0,1-1.389.129,21.507,21.507,0,0,1-3.189-.3,8.289,8.289,0,0,1-2.89-1.035,11.651,11.651,0,0,1-2.542-2.128.228.228,0,0,0-.355.286,17.374,17.374,0,0,0,2.42,2.62,11.372,11.372,0,0,0,3.074,2.039,5.84,5.84,0,0,0,3.706.251,6.912,6.912,0,0,0,1.7-.669,3.223,3.223,0,0,0,1.341-1.134c.119-.263-.141-.481-.381-.471a2.835,2.835,0,0,0-.746.23" transform="translate(-32.716 -280.076)" fill="#222"/>
              <path id="Path_103" data-name="Path 103" d="M115.662,459.213c7.807-9.531-9.393-39.993-21.48-43.515s-25.558,13.055-35.85,12.918-10.361-8.427-20.928-7.668-14.5,26.386-14.5,26.386c-3.454,20.721,17.059,4.835,33.154,3.454s51.8,17.958,59.607,8.426m-12.695-1.781c-.916.436-2.368.047-3.3-.1a53.8,53.8,0,0,1-6.473-1.426,23.783,23.783,0,0,0-1.147-8.6c.217,1.9.644,5.138-.664,6.737-1.7,2.079-6.409-.262-8.516-.822-3.173-.842-6.348-1.681-9.534-2.468-4.846-1.2-10-2.691-15.032-2.691-10.006,0-24.423,5.515-25.524,5.2s1.5-12.684,1.5-12.684c5.514,2.285,14.967,1.419,14.967,1.419a33.821,33.821,0,0,1-14.181-4.412l-.55-12.763c9.373-4.8,11.26,6.139,22.924,6.225,10.793.078,18.513-10.4,28.518-12.841,4.541-1.108,5.178,5.956,5.545,8.945-.329-2.679.233-5.368-.4-8.057a10.06,10.06,0,0,0-.328-1.159,18.626,18.626,0,0,1,6.366,1.926,36.771,36.771,0,0,1,2.523,14.181c-3.31,4.332-18.516,7.719-18.516,7.719a113.245,113.245,0,0,0,20.01-3.229s4.964,17.41,1.814,18.906" transform="translate(-16.232 -299.341)" fill="#222"/>
              <path id="Path_104" data-name="Path 104" d="M152.368,215.868c1.676,0,3.033-2.2,3.033-4.923s-1.356-4.924-3.033-4.924-3.033,2.205-3.033,4.924,1.356,4.923,3.033,4.923" transform="translate(-107.662 -148.53)" fill="#222"/>
              <path id="Path_105" data-name="Path 105" d="M92.519,194.167c-1.674,0-3.032,2.2-3.032,4.923s1.358,4.924,3.032,4.924,3.034-2.2,3.034-4.924-1.357-4.923-3.034-4.923" transform="translate(-64.515 -139.983)" fill="#222"/>
              <path id="Path_106" data-name="Path 106" d="M145.705,559.973a6.219,6.219,0,0,0-.612-.486,8.543,8.543,0,0,0-1.479-.922c-3.409-1.361-6.819-.037-9.79,1.459a.256.256,0,0,0,.2.469,10.184,10.184,0,0,1,1.533-.389c2.891-.482,6.127.244,8.993.628.257.032.512.043.769.07s.5.114.75.122a.268.268,0,0,0,.232-.43,4.121,4.121,0,0,0-.6-.521" transform="translate(-96.373 -402.284)" fill="#222"/>
              <path id="Path_107" data-name="Path 107" d="M352.057,573.68c-1.789,3.465-5.125,7-9.247,7.441-.123.013-.123.221.007.225.538.008,1.078-.02,1.614-.046,2.427-.118,5.062-.522,6.818-2.4a4.549,4.549,0,0,0,.947-4.978c-.042-.084-.088-.165-.14-.246" transform="translate(-247.081 -413.591)" fill="#222"/>
              <g id="Group_69" data-name="Group 69" transform="translate(44.147 56.989)" opacity="0.43">
                <g id="Group_68" data-name="Group 68">
                  <g id="Group_67" data-name="Group 67" clip-path="url(#clip-path-3)">
                    <path id="Path_108" data-name="Path 108" d="M162.823,206.2a2.325,2.325,0,0,0-.494-1.113l-.454-.429a2.322,2.322,0,0,0-1.113-.422,1.742,1.742,0,0,0-.886.1,2.4,2.4,0,0,0-1.674,1.977c0,.2.011.4.015.6a2.311,2.311,0,0,0,.492,1.114l.456.429a2.32,2.32,0,0,0,1.112.422,2.252,2.252,0,0,0,2.279-1.226,1.72,1.72,0,0,0,.279-.847c0-.2-.007-.4-.01-.6" transform="translate(-158.201 -204.219)" fill="#fff"/>
                  </g>
                </g>
              </g>
              <g id="Group_72" data-name="Group 72" transform="translate(27.687 54.288)" opacity="0.43">
                <g id="Group_71" data-name="Group 71">
                  <g id="Group_70" data-name="Group 70" clip-path="url(#clip-path-4)">
                    <path id="Path_109" data-name="Path 109" d="M101.325,194.543a1.965,1.965,0,0,0-2.1,1.7,1.921,1.921,0,0,0,1.7,2.1,1.967,1.967,0,0,0,2.1-1.7,1.923,1.923,0,0,0-1.7-2.1" transform="translate(-99.218 -194.543)" fill="#fff"/>
                  </g>
                </g>
              </g>
            </g>
          </g>
        </g>
      </g>
    </g>
    <g id="Path_81" data-name="Path 81" transform="translate(8 65)" fill="#fff">
      <path d="M 278.0000305175781 341.5 L 19.00002479553223 341.5 C 16.50234413146973 341.5 14.07961654663086 341.0109558105469 11.79916191101074 340.0463562011719 C 9.596253395080566 339.1146240234375 7.617707252502441 337.7806396484375 5.918570995330811 336.0814514160156 C 4.21938943862915 334.38232421875 2.88538932800293 332.4037780761719 1.953662037849426 330.2008666992188 C 0.9890711307525635 327.92041015625 0.5000256299972534 325.4976806640625 0.5000256299972534 323 L 0.5000256299972534 19 C 0.5000256299972534 16.50231742858887 0.9890711307525635 14.07959079742432 1.953662037849426 11.7991361618042 C 2.88538932800293 9.596227645874023 4.21938943862915 7.617681980133057 5.918570995330811 5.918545246124268 C 7.617707252502441 4.219363689422607 9.596253395080566 2.885363578796387 11.79916191101074 1.953636407852173 C 14.07961654663086 0.9890454411506653 16.50234413146973 0.5 19.00002479553223 0.5 L 278.0000305175781 0.5 C 280.4977111816406 0.5 282.9204406738281 0.9890454411506653 285.2008972167969 1.953636407852173 C 287.40380859375 2.885363578796387 289.3823547363281 4.219363689422607 291.0814819335938 5.918545246124268 C 292.7806701660156 7.617681980133057 294.1146545410156 9.596227645874023 295.04638671875 11.7991361618042 C 296.010986328125 14.07959079742432 296.5000305175781 16.50231742858887 296.5000305175781 19 L 296.5000305175781 231.7972259521484 L 296.5000305175781 232.2289123535156 L 296.9271240234375 232.2918701171875 L 360.9120788574219 241.7256927490234 L 296.6805725097656 295.0664978027344 L 296.5000305175781 295.2164001464844 L 296.5000305175781 295.4511413574219 L 296.5000305175781 323 C 296.5000305175781 325.4976806640625 296.010986328125 327.92041015625 295.04638671875 330.2008666992188 C 294.1146545410156 332.4037780761719 292.7806701660156 334.38232421875 291.0814819335938 336.0814514160156 C 289.3823547363281 337.7806396484375 287.40380859375 339.1146240234375 285.2008972167969 340.0463562011719 C 282.9204406738281 341.0109558105469 280.4977111816406 341.5 278.0000305175781 341.5 Z" stroke="none"/>
      <path d="M 18.99996948242188 1 C 14.1920166015625 1 9.671783447265625 2.872314453125 6.272064208984375 6.2720947265625 C 2.872283935546875 9.67181396484375 0.999969482421875 14.19204711914062 0.999969482421875 19 L 0.999969482421875 323 C 0.999969482421875 327.8079528808594 2.872283935546875 332.3281860351562 6.272064208984375 335.7279052734375 C 9.671783447265625 339.127685546875 14.1920166015625 341 18.99996948242188 341 L 277.9999694824219 341 C 282.8079223632812 341 287.3281555175781 339.127685546875 290.7279052734375 335.7279052734375 C 294.1276550292969 332.3281860351562 295.9999694824219 327.8079528808594 295.9999694824219 323 L 295.9999694824219 294.981689453125 L 359.7305297851562 242.0569458007812 L 295.9999694824219 232.6605834960938 L 295.9999694824219 19 C 295.9999694824219 14.19204711914062 294.1276550292969 9.67181396484375 290.7279052734375 6.2720947265625 C 287.3281555175781 2.872314453125 282.8079223632812 1 277.9999694824219 1 L 18.99996948242188 1 M 18.99996948242188 0 L 277.9999694824219 0 C 288.493408203125 0 296.9999694824219 8.506591796875 296.9999694824219 19 L 296.9999694824219 231.7972259521484 L 362.0934753417969 241.3945007324219 L 296.9999694824219 295.4510803222656 L 296.9999694824219 323 C 296.9999694824219 333.493408203125 288.493408203125 342 277.9999694824219 342 L 18.99996948242188 342 C 8.506561279296875 342 -3.0517578125e-05 333.493408203125 -3.0517578125e-05 323 L -3.0517578125e-05 19 C -3.0517578125e-05 8.506591796875 8.506561279296875 0 18.99996948242188 0 Z" stroke="none" fill="#fe2c20"/>
    </g>
    <path id="Path_82" data-name="Path 82" d="M-177.429-3.038V0H-200.8V-34.79h22.932v3.038h-19.5v12.544h17v2.891h-17V-3.038ZM-171.5-35.77h3.332V-5.782a3.068,3.068,0,0,0,.784,2.23,2.929,2.929,0,0,0,2.205.808,6.625,6.625,0,0,0,1.274-.147,8.413,8.413,0,0,0,1.372-.392l.588,2.695a11,11,0,0,1-2.279.637,13.28,13.28,0,0,1-2.327.245A4.953,4.953,0,0,1-170.177-1a4.883,4.883,0,0,1-1.323-3.65ZM-147.441.49a12.106,12.106,0,0,1-5.1-1.053A12.524,12.524,0,0,1-156.53-3.43a13.007,13.007,0,0,1-2.622-4.214,13.838,13.838,0,0,1-.931-5.047,13.654,13.654,0,0,1,.956-5.1A13.354,13.354,0,0,1-156.481-22a12.851,12.851,0,0,1,3.993-2.891,11.756,11.756,0,0,1,5.047-1.078,11.919,11.919,0,0,1,5.072,1.078A12.768,12.768,0,0,1-138.351-22a13.353,13.353,0,0,1,2.646,4.214,13.654,13.654,0,0,1,.956,5.1,13.838,13.838,0,0,1-.931,5.047A13.007,13.007,0,0,1-138.3-3.43,12.448,12.448,0,0,1-142.32-.563,12.273,12.273,0,0,1-147.441.49ZM-156.7-12.642a10.655,10.655,0,0,0,.735,3.993,10.839,10.839,0,0,0,1.985,3.234,8.971,8.971,0,0,0,2.94,2.181,8.457,8.457,0,0,0,3.6.784,8.242,8.242,0,0,0,3.6-.809,9.565,9.565,0,0,0,2.965-2.2,10.507,10.507,0,0,0,2.009-3.259,10.845,10.845,0,0,0,.735-4.018,10.9,10.9,0,0,0-.735-3.994,10.438,10.438,0,0,0-2.009-3.283,9.564,9.564,0,0,0-2.965-2.205,8.242,8.242,0,0,0-3.6-.809,8.085,8.085,0,0,0-3.577.809,9.48,9.48,0,0,0-2.94,2.229,10.747,10.747,0,0,0-2.009,3.308A11.037,11.037,0,0,0-156.7-12.642ZM-119.315.49a10.137,10.137,0,0,1-4.729-1.1,11.6,11.6,0,0,1-3.651-2.94,13.619,13.619,0,0,1-2.352-4.214,14.926,14.926,0,0,1-.833-4.973,13.838,13.838,0,0,1,.931-5.047A13.464,13.464,0,0,1-127.375-22a12.524,12.524,0,0,1,3.871-2.891,10.832,10.832,0,0,1,4.777-1.078,9.976,9.976,0,0,1,2.867.417,12.092,12.092,0,0,1,2.621,1.127,10.811,10.811,0,0,1,2.229,1.715,12.287,12.287,0,0,1,1.74,2.181v-5h2.989V5.978q0,1.372,1.225,1.421V10.29a4.867,4.867,0,0,1-.955.1h-.907a2.845,2.845,0,0,1-1.911-.955,2.913,2.913,0,0,1-.784-2.034V-5.292A13.562,13.562,0,0,1-113.925-.98,10.28,10.28,0,0,1-119.315.49Zm1.029-2.94a7.776,7.776,0,0,0,2.769-.49,10.024,10.024,0,0,0,2.4-1.3,10.451,10.451,0,0,0,1.984-1.911,14.226,14.226,0,0,0,1.519-2.327v-7.889a5.914,5.914,0,0,0-1.029-2.524,9.657,9.657,0,0,0-2.034-2.131,10.1,10.1,0,0,0-2.621-1.47,7.841,7.841,0,0,0-2.793-.539,8.276,8.276,0,0,0-3.8.882,9.716,9.716,0,0,0-2.989,2.327,10.625,10.625,0,0,0-1.936,3.307,10.973,10.973,0,0,0-.686,3.822,11.248,11.248,0,0,0,.686,3.92A10.271,10.271,0,0,0-124.9-5.512a9.313,9.313,0,0,0,2.915,2.229A8.254,8.254,0,0,0-118.286-2.45ZM-90.944.49a7.186,7.186,0,0,1-6.2-2.769q-2.034-2.768-2.034-8.256V-25.529h3.332v14.406q0,8.673,5.929,8.673a8.811,8.811,0,0,0,2.891-.49A9.083,9.083,0,0,0-84.4-4.361a11.509,11.509,0,0,0,2.156-2.2A11.112,11.112,0,0,0-80.7-9.457V-25.529h3.332V-4.312q0,1.372,1.176,1.372V0a6.073,6.073,0,0,1-.956.1h-.514a2.661,2.661,0,0,1-1.911-.833,2.956,2.956,0,0,1-.735-2.107v-2.94a11.883,11.883,0,0,1-4.532,4.631A12.084,12.084,0,0,1-90.944.49ZM-58.8.49A12.273,12.273,0,0,1-63.921-.563a12.548,12.548,0,0,1-4.042-2.891,13.424,13.424,0,0,1-2.671-4.239,13.786,13.786,0,0,1-.955-5.145,13.466,13.466,0,0,1,.955-5.072,13.127,13.127,0,0,1,2.646-4.165,12.558,12.558,0,0,1,4.043-2.842,12.322,12.322,0,0,1,5.1-1.054,12.273,12.273,0,0,1,5.12,1.054,12.174,12.174,0,0,1,3.993,2.866,13.366,13.366,0,0,1,2.6,4.165,13.455,13.455,0,0,1,.931,5v.784a1.972,1.972,0,0,1-.049.539H-68.11a10.746,10.746,0,0,0,.955,3.8,10.438,10.438,0,0,0,2.083,3.013,9.33,9.33,0,0,0,2.915,1.985,8.725,8.725,0,0,0,3.5.71A9.05,9.05,0,0,0-56.2-2.4a9.9,9.9,0,0,0,2.254-.931,8.383,8.383,0,0,0,1.862-1.445,6.208,6.208,0,0,0,1.274-1.887l2.891.784a8.49,8.49,0,0,1-1.666,2.572,11.63,11.63,0,0,1-2.5,2.009A12.239,12.239,0,0,1-55.223.025,13.6,13.6,0,0,1-58.8.49Zm9.408-14.6a10.31,10.31,0,0,0-.956-3.748,10.2,10.2,0,0,0-2.058-2.916A9.1,9.1,0,0,0-55.3-22.687a8.994,8.994,0,0,0-3.5-.686,9.175,9.175,0,0,0-3.528.686,9.031,9.031,0,0,0-2.916,1.911,9.392,9.392,0,0,0-2.009,2.94,11.13,11.13,0,0,0-.906,3.724ZM-19.6,0h-3.332V-14.259q0-4.557-1.348-6.615a4.6,4.6,0,0,0-4.14-2.058,8.49,8.49,0,0,0-2.94.539,9.911,9.911,0,0,0-2.719,1.519,11.627,11.627,0,0,0-2.229,2.327,9.123,9.123,0,0,0-1.421,2.916V0h-3.332V-25.529h3.038v5.782a11.993,11.993,0,0,1,4.483-4.508,12.294,12.294,0,0,1,6.346-1.715,7.517,7.517,0,0,1,3.577.784,6.1,6.1,0,0,1,2.352,2.2A10.157,10.157,0,0,1-19.992-19.5a24.425,24.425,0,0,1,.392,4.557ZM-.49-1.225q-.294.147-.857.392t-1.3.49A15.2,15.2,0,0,1-4.312.1a9.5,9.5,0,0,1-1.96.2A7.124,7.124,0,0,1-8.33,0a4.8,4.8,0,0,1-1.715-.906A4.462,4.462,0,0,1-11.221-2.45a4.983,4.983,0,0,1-.441-2.156V-22.883H-15.19v-2.646h3.528v-8.624H-8.33v8.624h5.88v2.646H-8.33V-5.537a2.646,2.646,0,0,0,1,2.082,3.441,3.441,0,0,0,2.083.661,6.258,6.258,0,0,0,2.5-.466A11.016,11.016,0,0,0-1.372-3.92ZM-256.417,57V22.21h22.834v3.038h-19.4V38.037h16.366v2.842h-16.366V57Zm37.387.49a12.106,12.106,0,0,1-5.1-1.054,12.524,12.524,0,0,1-3.993-2.867,13.007,13.007,0,0,1-2.622-4.214,13.838,13.838,0,0,1-.931-5.047,13.654,13.654,0,0,1,.956-5.1A13.354,13.354,0,0,1-228.071,35a12.851,12.851,0,0,1,3.993-2.891,11.756,11.756,0,0,1,5.047-1.078,11.919,11.919,0,0,1,5.072,1.078A12.768,12.768,0,0,1-209.941,35a13.353,13.353,0,0,1,2.646,4.214,13.654,13.654,0,0,1,.956,5.1,13.838,13.838,0,0,1-.931,5.047,13.007,13.007,0,0,1-2.622,4.214,12.448,12.448,0,0,1-4.018,2.867A12.273,12.273,0,0,1-219.03,57.49Zm-9.261-13.132a10.655,10.655,0,0,0,.735,3.993,10.839,10.839,0,0,0,1.985,3.234,8.971,8.971,0,0,0,2.94,2.181,8.457,8.457,0,0,0,3.6.784,8.242,8.242,0,0,0,3.6-.808,9.565,9.565,0,0,0,2.965-2.205,10.507,10.507,0,0,0,2.009-3.258,10.845,10.845,0,0,0,.735-4.018,10.9,10.9,0,0,0-.735-3.994,10.438,10.438,0,0,0-2.009-3.283,9.564,9.564,0,0,0-2.965-2.205,8.242,8.242,0,0,0-3.6-.808,8.085,8.085,0,0,0-3.577.808,9.48,9.48,0,0,0-2.94,2.229,10.747,10.747,0,0,0-2.009,3.307A11.037,11.037,0,0,0-228.291,44.358Zm35.525,13.132a7.186,7.186,0,0,1-6.2-2.769Q-201,51.953-201,46.465V31.471h3.332V45.877q0,8.673,5.929,8.673a8.812,8.812,0,0,0,2.891-.49,9.083,9.083,0,0,0,2.621-1.421,11.509,11.509,0,0,0,2.156-2.205,11.112,11.112,0,0,0,1.544-2.891V31.471h3.332V52.688q0,1.372,1.176,1.372V57a6.073,6.073,0,0,1-.955.1h-.515a2.661,2.661,0,0,1-1.911-.833,2.956,2.956,0,0,1-.735-2.107v-2.94a11.883,11.883,0,0,1-4.533,4.631A12.084,12.084,0,0,1-192.766,57.49Zm42.581-.49h-3.332V42.741q0-4.557-1.347-6.615a4.6,4.6,0,0,0-4.141-2.058,8.49,8.49,0,0,0-2.94.539,9.911,9.911,0,0,0-2.719,1.519,11.627,11.627,0,0,0-2.23,2.327,9.123,9.123,0,0,0-1.421,2.916V57h-3.332V31.471h3.038v5.782a11.993,11.993,0,0,1,4.484-4.508,12.294,12.294,0,0,1,6.345-1.715,7.517,7.517,0,0,1,3.577.784,6.1,6.1,0,0,1,2.352,2.2,10.157,10.157,0,0,1,1.274,3.479,24.424,24.424,0,0,1,.392,4.557Zm17.591.49a11,11,0,0,1-4.9-1.1,12.468,12.468,0,0,1-3.871-2.916,13.409,13.409,0,0,1-2.523-4.189,13.837,13.837,0,0,1-.906-4.974,14.866,14.866,0,0,1,.882-5.12,13.679,13.679,0,0,1,2.426-4.238,11.428,11.428,0,0,1,3.675-2.866,10.415,10.415,0,0,1,4.679-1.054,9.99,9.99,0,0,1,5.733,1.691,12.8,12.8,0,0,1,3.92,4.091V21.23h3.332V52.688q0,1.372,1.176,1.372V57a6.324,6.324,0,0,1-1.176.147,3.057,3.057,0,0,1-2.058-.759,2.342,2.342,0,0,1-.882-1.838v-2.5A11.165,11.165,0,0,1-127.2,56.02,10.8,10.8,0,0,1-132.594,57.49Zm.735-2.94a7.938,7.938,0,0,0,2.622-.49,10.77,10.77,0,0,0,2.621-1.347,9.027,9.027,0,0,0,2.082-2.009,5.434,5.434,0,0,0,1.054-2.474V40.34a8.759,8.759,0,0,0-1.421-2.474,11.436,11.436,0,0,0-2.132-2.034,10.016,10.016,0,0,0-2.573-1.372,7.98,7.98,0,0,0-2.695-.49,7.834,7.834,0,0,0-3.724.882,9.419,9.419,0,0,0-2.867,2.327,10.387,10.387,0,0,0-1.838,3.307,11.729,11.729,0,0,0-.637,3.822,10.579,10.579,0,0,0,.735,3.92,10.507,10.507,0,0,0,2.009,3.258,9.717,9.717,0,0,0,3.014,2.229A8.566,8.566,0,0,0-131.859,54.55Zm29.6-.245L-78.6,25.248h-23.275V22.21h27.244v2.695L-98,53.962h23.324V57h-27.587Zm43.12,3.185a12.273,12.273,0,0,1-5.121-1.054,12.548,12.548,0,0,1-4.042-2.891,13.424,13.424,0,0,1-2.671-4.239,13.786,13.786,0,0,1-.955-5.145,13.466,13.466,0,0,1,.955-5.072,13.127,13.127,0,0,1,2.646-4.165,12.558,12.558,0,0,1,4.043-2.842,12.322,12.322,0,0,1,5.1-1.054,12.273,12.273,0,0,1,5.12,1.054,12.174,12.174,0,0,1,3.993,2.866,13.367,13.367,0,0,1,2.6,4.165,13.455,13.455,0,0,1,.931,5V44.9a1.972,1.972,0,0,1-.049.539H-68.453a10.746,10.746,0,0,0,.955,3.8,10.438,10.438,0,0,0,2.083,3.014A9.33,9.33,0,0,0-62.5,54.231a8.725,8.725,0,0,0,3.5.711,9.05,9.05,0,0,0,2.45-.343,9.9,9.9,0,0,0,2.254-.931,8.383,8.383,0,0,0,1.862-1.445,6.208,6.208,0,0,0,1.274-1.887l2.891.784a8.49,8.49,0,0,1-1.666,2.573,11.63,11.63,0,0,1-2.5,2.009,12.239,12.239,0,0,1-3.136,1.323A13.6,13.6,0,0,1-59.143,57.49Zm9.408-14.6a10.31,10.31,0,0,0-.956-3.748,10.2,10.2,0,0,0-2.058-2.916,9.1,9.1,0,0,0-2.891-1.911,8.994,8.994,0,0,0-3.5-.686,9.175,9.175,0,0,0-3.528.686,9.031,9.031,0,0,0-2.916,1.911,9.392,9.392,0,0,0-2.009,2.94,11.13,11.13,0,0,0-.906,3.724Zm21.07-8.477a10.481,10.481,0,0,0-5.88,1.862,9.389,9.389,0,0,0-3.528,4.851V57h-3.332V31.471h3.136V37.6a11.612,11.612,0,0,1,3.822-4.606A8.858,8.858,0,0,1-29.3,31.324a3.36,3.36,0,0,1,.637.049ZM-14.6,57.49a12.106,12.106,0,0,1-5.1-1.054,12.524,12.524,0,0,1-3.993-2.867,13.007,13.007,0,0,1-2.622-4.214,13.838,13.838,0,0,1-.931-5.047,13.654,13.654,0,0,1,.956-5.1A13.353,13.353,0,0,1-23.643,35a12.851,12.851,0,0,1,3.993-2.891A11.756,11.756,0,0,1-14.6,31.03a11.919,11.919,0,0,1,5.072,1.078A12.768,12.768,0,0,1-5.513,35a13.353,13.353,0,0,1,2.646,4.214,13.654,13.654,0,0,1,.956,5.1,13.838,13.838,0,0,1-.931,5.047A13.007,13.007,0,0,1-5.464,53.57a12.448,12.448,0,0,1-4.018,2.867A12.273,12.273,0,0,1-14.6,57.49Zm-9.261-13.132a10.655,10.655,0,0,0,.735,3.993,10.839,10.839,0,0,0,1.984,3.234,8.971,8.971,0,0,0,2.94,2.181,8.457,8.457,0,0,0,3.6.784,8.242,8.242,0,0,0,3.6-.808,9.565,9.565,0,0,0,2.965-2.205,10.506,10.506,0,0,0,2.009-3.258,10.845,10.845,0,0,0,.735-4.018,10.9,10.9,0,0,0-.735-3.994,10.438,10.438,0,0,0-2.009-3.283A9.564,9.564,0,0,0-11,34.778a8.242,8.242,0,0,0-3.6-.808,8.085,8.085,0,0,0-3.577.808,9.48,9.48,0,0,0-2.94,2.229,10.747,10.747,0,0,0-2.009,3.307A11.037,11.037,0,0,0-23.863,44.358ZM-127.449,114V79.21h14.7a9.031,9.031,0,0,1,4.14.955,10.911,10.911,0,0,1,3.258,2.5,11.46,11.46,0,0,1,2.132,3.5,10.9,10.9,0,0,1,.759,3.969,11.771,11.771,0,0,1-.563,3.65,11.285,11.285,0,0,1-1.568,3.136,9.486,9.486,0,0,1-2.425,2.352,8.576,8.576,0,0,1-3.185,1.3L-101.675,114h-3.871l-8.183-12.838h-10.29V114Zm3.43-15.876h11.368a5.824,5.824,0,0,0,2.769-.661,6.6,6.6,0,0,0,2.132-1.789,8.7,8.7,0,0,0,1.372-2.548,9.1,9.1,0,0,0,.49-2.989,8.225,8.225,0,0,0-.563-3.013,8.319,8.319,0,0,0-1.519-2.524,7.249,7.249,0,0,0-2.254-1.715,6.1,6.1,0,0,0-2.72-.637h-11.074Zm38.024,16.366a12.106,12.106,0,0,1-5.1-1.053,12.524,12.524,0,0,1-3.993-2.867,13.007,13.007,0,0,1-2.621-4.214,13.838,13.838,0,0,1-.931-5.047,13.654,13.654,0,0,1,.955-5.1A13.353,13.353,0,0,1-95.035,92a12.851,12.851,0,0,1,3.994-2.891,11.756,11.756,0,0,1,5.047-1.078,11.919,11.919,0,0,1,5.072,1.078A12.768,12.768,0,0,1-76.905,92a13.353,13.353,0,0,1,2.646,4.214,13.654,13.654,0,0,1,.955,5.1,13.838,13.838,0,0,1-.931,5.047,13.007,13.007,0,0,1-2.621,4.214,12.448,12.448,0,0,1-4.018,2.867A12.273,12.273,0,0,1-85.995,114.49Zm-9.261-13.132a10.655,10.655,0,0,0,.735,3.993,10.839,10.839,0,0,0,1.984,3.234,8.971,8.971,0,0,0,2.94,2.18,8.457,8.457,0,0,0,3.6.784,8.242,8.242,0,0,0,3.6-.809,9.564,9.564,0,0,0,2.964-2.205,10.506,10.506,0,0,0,2.009-3.258,10.845,10.845,0,0,0,.735-4.018,10.9,10.9,0,0,0-.735-3.994,10.438,10.438,0,0,0-2.009-3.283,9.564,9.564,0,0,0-2.964-2.205,8.242,8.242,0,0,0-3.6-.809,8.085,8.085,0,0,0-3.577.809,9.48,9.48,0,0,0-2.94,2.229,10.747,10.747,0,0,0-2.009,3.308A11.037,11.037,0,0,0-95.256,101.358ZM-36.5,88.471h3.283L-44.2,114h-2.744l-5.488-13.034L-57.869,114h-2.744L-71.589,88.471h3.234l9.31,22.1,4.851-11.662L-58.555,88.52h2.793l3.332,8.33,3.332-8.33h2.842l-4.361,10.388,4.851,11.662Zm15.533,26.019a17.767,17.767,0,0,1-5.831-.98,14.013,14.013,0,0,1-4.9-2.842l1.519-2.254A16.613,16.613,0,0,0-25.8,111.06a12.868,12.868,0,0,0,4.778.882,8.625,8.625,0,0,0,4.924-1.25,4.044,4.044,0,0,0,1.837-3.552,3.079,3.079,0,0,0-.49-1.788,4.242,4.242,0,0,0-1.445-1.25,11.285,11.285,0,0,0-2.4-.955q-1.446-.417-3.356-.857-2.205-.539-3.822-1.078a11.689,11.689,0,0,1-2.67-1.225,4.418,4.418,0,0,1-1.568-1.69,5.508,5.508,0,0,1-.514-2.523,7.262,7.262,0,0,1,.76-3.381,6.894,6.894,0,0,1,2.058-2.425,9.349,9.349,0,0,1,3.038-1.445,13.587,13.587,0,0,1,3.7-.49,14.329,14.329,0,0,1,5.341.955,10.555,10.555,0,0,1,3.871,2.524l-1.617,1.96a8.965,8.965,0,0,0-3.454-2.205,12.373,12.373,0,0,0-4.239-.735,10.524,10.524,0,0,0-2.45.27,5.9,5.9,0,0,0-1.985.857,4.225,4.225,0,0,0-1.347,1.494,4.417,4.417,0,0,0-.49,2.132A3.509,3.509,0,0,0-27,96.948a2.927,2.927,0,0,0,1.127,1.1,9.179,9.179,0,0,0,1.985.833q1.2.368,2.916.759,2.45.588,4.312,1.176a13.544,13.544,0,0,1,3.111,1.372,5.405,5.405,0,0,1,1.886,1.911,5.5,5.5,0,0,1,.637,2.744,6.655,6.655,0,0,1-2.7,5.586A11.659,11.659,0,0,1-20.972,114.49Zm14.9-.49v-4.8h2.891V114ZM-220.647,224.962V228H-244.02V193.21h22.932v3.038h-19.5v12.544h17v2.891h-17v13.279Zm6.419-22.491,7.644,10,.392.735.392-.735,7.644-10h3.577l-9.751,12.838L-194.579,228h-3.577l-7.644-9.947-.392-.686-.392.686L-214.228,228H-217.8l9.751-12.691-9.751-12.838Zm21.217,12.691a13.971,13.971,0,0,1,.931-5.1,12.726,12.726,0,0,1,2.622-4.189,12.247,12.247,0,0,1,4.042-2.817,12.82,12.82,0,0,1,5.194-1.029,11.911,11.911,0,0,1,6.321,1.642,10.544,10.544,0,0,1,4.067,4.434l-3.234,1.029a7.763,7.763,0,0,0-3.014-3.062,8.509,8.509,0,0,0-4.288-1.1,8.57,8.57,0,0,0-3.65.784,9.31,9.31,0,0,0-2.94,2.132,9.8,9.8,0,0,0-1.96,3.21,11.317,11.317,0,0,0-.71,4.067,11.231,11.231,0,0,0,.735,4.067,10.375,10.375,0,0,0,2.009,3.307,9.565,9.565,0,0,0,2.965,2.205,8.242,8.242,0,0,0,3.6.809,8.789,8.789,0,0,0,2.425-.343,9.369,9.369,0,0,0,2.23-.956,8.019,8.019,0,0,0,1.764-1.4,4.54,4.54,0,0,0,1.029-1.666l3.283.98a8.352,8.352,0,0,1-1.568,2.523,10.818,10.818,0,0,1-2.425,2.009,11.9,11.9,0,0,1-3.087,1.323,13.136,13.136,0,0,1-3.5.465,12.441,12.441,0,0,1-5.145-1.054,12.475,12.475,0,0,1-4.067-2.891,13.425,13.425,0,0,1-2.671-4.238A13.786,13.786,0,0,1-193.011,215.162Zm36.652,13.328a7.186,7.186,0,0,1-6.2-2.769q-2.034-2.768-2.034-8.257V202.471h3.332v14.406q0,8.673,5.929,8.673a8.811,8.811,0,0,0,2.891-.49,9.083,9.083,0,0,0,2.621-1.421,11.51,11.51,0,0,0,2.156-2.205,11.112,11.112,0,0,0,1.544-2.891V202.471h3.332v21.217q0,1.372,1.176,1.372V228a6.073,6.073,0,0,1-.955.1h-.515a2.661,2.661,0,0,1-1.911-.833,2.956,2.956,0,0,1-.735-2.107v-2.94a11.883,11.883,0,0,1-4.533,4.63A12.083,12.083,0,0,1-156.359,228.49Zm29.6,0a17.766,17.766,0,0,1-5.831-.98,14.013,14.013,0,0,1-4.9-2.842l1.519-2.254a16.613,16.613,0,0,0,4.385,2.646,12.868,12.868,0,0,0,4.777.882,8.625,8.625,0,0,0,4.924-1.249,4.044,4.044,0,0,0,1.838-3.553,3.079,3.079,0,0,0-.49-1.788,4.242,4.242,0,0,0-1.445-1.249,11.285,11.285,0,0,0-2.4-.956q-1.446-.416-3.357-.857-2.205-.539-3.822-1.078a11.688,11.688,0,0,1-2.671-1.225,4.418,4.418,0,0,1-1.568-1.69,5.508,5.508,0,0,1-.514-2.523,7.262,7.262,0,0,1,.76-3.381,6.894,6.894,0,0,1,2.058-2.425,9.348,9.348,0,0,1,3.038-1.445,13.587,13.587,0,0,1,3.7-.49,14.329,14.329,0,0,1,5.341.956,10.555,10.555,0,0,1,3.871,2.523l-1.617,1.96a8.965,8.965,0,0,0-3.454-2.2,12.373,12.373,0,0,0-4.239-.735,10.523,10.523,0,0,0-2.45.27,5.9,5.9,0,0,0-1.984.858,4.225,4.225,0,0,0-1.348,1.494,4.417,4.417,0,0,0-.49,2.132,3.509,3.509,0,0,0,.343,1.666,2.927,2.927,0,0,0,1.127,1.1,9.18,9.18,0,0,0,1.984.833q1.2.368,2.916.76,2.45.588,4.312,1.176a13.544,13.544,0,0,1,3.111,1.372,5.405,5.405,0,0,1,1.886,1.911,5.5,5.5,0,0,1,.637,2.744,6.655,6.655,0,0,1-2.695,5.586A11.659,11.659,0,0,1-126.763,228.49Zm26.411,0a12.273,12.273,0,0,1-5.12-1.054,12.548,12.548,0,0,1-4.042-2.891,13.424,13.424,0,0,1-2.671-4.238,13.786,13.786,0,0,1-.955-5.145,13.466,13.466,0,0,1,.955-5.072,13.127,13.127,0,0,1,2.646-4.165,12.558,12.558,0,0,1,4.043-2.842,12.322,12.322,0,0,1,5.1-1.053,12.273,12.273,0,0,1,5.12,1.053,12.174,12.174,0,0,1,3.993,2.867,13.366,13.366,0,0,1,2.6,4.165,13.455,13.455,0,0,1,.931,5v.784a1.972,1.972,0,0,1-.049.539h-21.854a10.746,10.746,0,0,0,.955,3.8,10.438,10.438,0,0,0,2.083,3.013,9.33,9.33,0,0,0,2.915,1.985,8.725,8.725,0,0,0,3.5.71,9.05,9.05,0,0,0,2.45-.343,9.9,9.9,0,0,0,2.254-.931,8.383,8.383,0,0,0,1.862-1.445,6.207,6.207,0,0,0,1.274-1.887l2.891.784a8.49,8.49,0,0,1-1.666,2.573,11.631,11.631,0,0,1-2.5,2.009,12.239,12.239,0,0,1-3.136,1.323A13.6,13.6,0,0,1-100.352,228.49Zm9.408-14.6a10.31,10.31,0,0,0-.956-3.749,10.2,10.2,0,0,0-2.058-2.915,9.1,9.1,0,0,0-2.891-1.911,8.994,8.994,0,0,0-3.5-.686,9.175,9.175,0,0,0-3.528.686,9.031,9.031,0,0,0-2.915,1.911,9.392,9.392,0,0,0-2.009,2.94,11.13,11.13,0,0,0-.906,3.724ZM-32.144,228h-3.332V213.741q0-4.459-1.421-6.566a4.751,4.751,0,0,0-4.214-2.107,7.149,7.149,0,0,0-2.769.539,8.511,8.511,0,0,0-2.4,1.519,10.413,10.413,0,0,0-1.935,2.327,11.213,11.213,0,0,0-1.274,2.965V228h-3.332V213.741q0-4.557-1.372-6.615a4.713,4.713,0,0,0-4.214-2.058,7.515,7.515,0,0,0-5.145,2.009,11.188,11.188,0,0,0-3.234,5.292V228h-3.332V202.471h3.038v5.782a12.07,12.07,0,0,1,4.116-4.581,10.19,10.19,0,0,1,5.635-1.642,7.256,7.256,0,0,1,5.169,1.813,7.893,7.893,0,0,1,2.377,4.753q3.577-6.566,9.849-6.566a7.781,7.781,0,0,1,3.65.784,6.177,6.177,0,0,1,2.4,2.23,10.442,10.442,0,0,1,1.323,3.479,22.657,22.657,0,0,1,.417,4.533Zm18.081.49a12.273,12.273,0,0,1-5.121-1.054,12.549,12.549,0,0,1-4.043-2.891,13.424,13.424,0,0,1-2.67-4.238,13.786,13.786,0,0,1-.956-5.145,13.466,13.466,0,0,1,.956-5.072,13.126,13.126,0,0,1,2.646-4.165,12.558,12.558,0,0,1,4.042-2.842,12.322,12.322,0,0,1,5.1-1.053,12.273,12.273,0,0,1,5.12,1.053A12.174,12.174,0,0,1-5,205.95a13.366,13.366,0,0,1,2.6,4.165,13.455,13.455,0,0,1,.931,5v.784a1.972,1.972,0,0,1-.049.539H-23.373a10.746,10.746,0,0,0,.956,3.8,10.438,10.438,0,0,0,2.083,3.013,9.331,9.331,0,0,0,2.915,1.985,8.725,8.725,0,0,0,3.5.71,9.05,9.05,0,0,0,2.45-.343,9.9,9.9,0,0,0,2.254-.931,8.383,8.383,0,0,0,1.862-1.445,6.208,6.208,0,0,0,1.274-1.887l2.891.784a8.49,8.49,0,0,1-1.666,2.573,11.631,11.631,0,0,1-2.5,2.009,12.239,12.239,0,0,1-3.136,1.323A13.6,13.6,0,0,1-14.063,228.49Zm9.408-14.6a10.31,10.31,0,0,0-.955-3.749,10.2,10.2,0,0,0-2.058-2.915,9.1,9.1,0,0,0-2.891-1.911,8.994,8.994,0,0,0-3.5-.686,9.175,9.175,0,0,0-3.528.686,9.031,9.031,0,0,0-2.916,1.911,9.392,9.392,0,0,0-2.009,2.94,11.13,11.13,0,0,0-.906,3.724Z" transform="translate(285 140)"/>
  </g>
</svg>
